%TF.GenerationSoftware,KiCad,Pcbnew,10.0.4*%
%TF.CreationDate,2026-08-21T12:40:25-07:00*%
%TF.ProjectId,Impulse_2.3,496d7075-6c73-4655-9f32-2e332e6b6963,rev?*%
%TF.SameCoordinates,Original*%
%TF.FileFunction,Soldermask,Bot*%
%TF.FilePolarity,Negative*%
%FSLAX46Y46*%
G04 Gerber Fmt 4.6, Leading zero omitted, Abs format (unit mm)*
G04 Created by KiCad (PCBNEW 10.0.4) date 2026-08-21 12:40:25*
%MOMM*%
%LPD*%
G01*
G04 APERTURE LIST*
G04 Aperture macros list*
%AMRoundRect*
0 Rectangle with rounded corners*
0 $1 Rounding radius*
0 $2 $3 $4 $5 $6 $7 $8 $9 X,Y pos of 4 corners*
0 Add a 4 corners polygon primitive as box body*
4,1,4,$2,$3,$4,$5,$6,$7,$8,$9,$2,$3,0*
0 Add four circle primitives for the rounded corners*
1,1,$1+$1,$2,$3*
1,1,$1+$1,$4,$5*
1,1,$1+$1,$6,$7*
1,1,$1+$1,$8,$9*
0 Add four rect primitives between the rounded corners*
20,1,$1+$1,$2,$3,$4,$5,0*
20,1,$1+$1,$4,$5,$6,$7,0*
20,1,$1+$1,$6,$7,$8,$9,0*
20,1,$1+$1,$8,$9,$2,$3,0*%
%AMFreePoly0*
4,1,9,2.100000,-2.000000,2.350000,-2.000000,2.350000,-3.500000,-2.350000,-3.500000,-2.350000,-2.000000,-2.100000,-2.000000,-2.100000,1.100000,2.100000,1.100000,2.100000,-2.000000,2.100000,-2.000000,$1*%
%AMFreePoly1*
4,1,9,2.350000,2.000000,2.100000,2.000000,2.100000,-1.100000,-2.100000,-1.100000,-2.100000,2.000000,-2.350000,2.000000,-2.350000,3.500000,2.350000,3.500000,2.350000,2.000000,2.350000,2.000000,$1*%
G04 Aperture macros list end*
%ADD10C,1.600000*%
%ADD11R,1.600000X1.600000*%
%ADD12C,2.000000*%
%ADD13R,1.700000X1.700000*%
%ADD14C,1.700000*%
%ADD15C,1.020000*%
%ADD16RoundRect,0.250001X0.499999X0.499999X-0.499999X0.499999X-0.499999X-0.499999X0.499999X-0.499999X0*%
%ADD17C,1.500000*%
%ADD18RoundRect,0.250000X0.550000X0.550000X-0.550000X0.550000X-0.550000X-0.550000X0.550000X-0.550000X0*%
%ADD19C,3.200000*%
%ADD20R,1.800000X1.800000*%
%ADD21C,1.800000*%
%ADD22FreePoly0,180.000000*%
%ADD23RoundRect,0.175000X0.175000X0.400000X-0.175000X0.400000X-0.175000X-0.400000X0.175000X-0.400000X0*%
%ADD24RoundRect,0.200000X0.275000X-0.200000X0.275000X0.200000X-0.275000X0.200000X-0.275000X-0.200000X0*%
%ADD25RoundRect,0.200000X-0.200000X-0.275000X0.200000X-0.275000X0.200000X0.275000X-0.200000X0.275000X0*%
%ADD26RoundRect,0.200000X0.200000X0.275000X-0.200000X0.275000X-0.200000X-0.275000X0.200000X-0.275000X0*%
%ADD27RoundRect,0.250000X-1.000000X-0.650000X1.000000X-0.650000X1.000000X0.650000X-1.000000X0.650000X0*%
%ADD28RoundRect,0.175000X-0.175000X-0.400000X0.175000X-0.400000X0.175000X0.400000X-0.175000X0.400000X0*%
%ADD29FreePoly1,0.000000*%
%ADD30RoundRect,0.200000X-0.275000X0.200000X-0.275000X-0.200000X0.275000X-0.200000X0.275000X0.200000X0*%
%ADD31RoundRect,0.225000X0.225000X0.250000X-0.225000X0.250000X-0.225000X-0.250000X0.225000X-0.250000X0*%
%ADD32RoundRect,0.225000X-0.225000X-0.250000X0.225000X-0.250000X0.225000X0.250000X-0.225000X0.250000X0*%
%ADD33RoundRect,0.150000X0.150000X-0.587500X0.150000X0.587500X-0.150000X0.587500X-0.150000X-0.587500X0*%
G04 APERTURE END LIST*
D10*
%TO.C,U1*%
X179369000Y-55288000D03*
X176829000Y-55288000D03*
X174289000Y-55288000D03*
X171749000Y-55288000D03*
X146349000Y-55288000D03*
X176829000Y-70528000D03*
X169209000Y-55288000D03*
X166669000Y-55288000D03*
X164129000Y-55288000D03*
X161589000Y-55288000D03*
X159049000Y-55288000D03*
X156509000Y-55288000D03*
X153969000Y-55288000D03*
X151429000Y-55288000D03*
X148889000Y-55288000D03*
X148889000Y-70528000D03*
X151429000Y-70528000D03*
X153969000Y-70528000D03*
X156509000Y-70528000D03*
X159049000Y-70528000D03*
X161589000Y-70528000D03*
X164129000Y-70528000D03*
X166669000Y-70528000D03*
X169209000Y-70528000D03*
X171749000Y-70528000D03*
X174289000Y-70528000D03*
X143809000Y-55288000D03*
X141269000Y-55288000D03*
X138729000Y-55288000D03*
X136189000Y-55288000D03*
X133649000Y-55288000D03*
X131109000Y-55288000D03*
X128569000Y-55288000D03*
X126029000Y-55288000D03*
X123489000Y-55288000D03*
X123489000Y-70528000D03*
X126029000Y-70528000D03*
X128569000Y-70528000D03*
X131109000Y-70528000D03*
X133649000Y-70528000D03*
X136189000Y-70528000D03*
X138729000Y-70528000D03*
X141269000Y-70528000D03*
X143809000Y-70528000D03*
D11*
X181909000Y-55288000D03*
D10*
X146349000Y-70528000D03*
X179369000Y-70528000D03*
X181909000Y-70528000D03*
%TD*%
D12*
%TO.C,BUTTON1*%
X156124000Y-92112000D03*
X149624000Y-92112000D03*
X156124000Y-87612000D03*
X149624000Y-87612000D03*
%TD*%
D13*
%TO.C,JZ1*%
X141900000Y-79575000D03*
D14*
X141900000Y-77035000D03*
X141900000Y-74495000D03*
%TD*%
D13*
%TO.C,JX1*%
X134280000Y-79575000D03*
D14*
X134280000Y-77035000D03*
X134280000Y-74495000D03*
%TD*%
D15*
%TO.C,P1O*%
X169792000Y-39646000D03*
X163792000Y-39646000D03*
D16*
X166792000Y-43586000D03*
D17*
X166792000Y-40586000D03*
%TD*%
D18*
%TO.C,SW2*%
X146599000Y-91132000D03*
D10*
X138979000Y-91132000D03*
%TD*%
D13*
%TO.C,JC1*%
X153330000Y-79575000D03*
D14*
X153330000Y-77035000D03*
X153330000Y-74495000D03*
%TD*%
D13*
%TO.C,JB1*%
X149520000Y-79575000D03*
D14*
X149520000Y-77035000D03*
X149520000Y-74495000D03*
%TD*%
D18*
%TO.C,SW1*%
X166792000Y-91132000D03*
D10*
X159172000Y-91132000D03*
%TD*%
D13*
%TO.C,JD1*%
X157140000Y-79575000D03*
D14*
X157140000Y-77035000D03*
X157140000Y-74495000D03*
%TD*%
D15*
%TO.C,P4O*%
X141598000Y-39646000D03*
X135598000Y-39646000D03*
D16*
X138598000Y-43586000D03*
D17*
X138598000Y-40586000D03*
%TD*%
D19*
%TO.C,H3*%
X175051000Y-85260000D03*
%TD*%
D13*
%TO.C,U7*%
X127930000Y-58747000D03*
D14*
X130470000Y-58747000D03*
X133010000Y-58747000D03*
X135550000Y-58747000D03*
X138090000Y-58747000D03*
X140630000Y-58747000D03*
%TD*%
D13*
%TO.C,PI*%
X152695000Y-48714000D03*
D14*
X152695000Y-51254000D03*
%TD*%
D15*
%TO.C,P3O*%
X150996000Y-39646000D03*
X144996000Y-39646000D03*
D16*
X147996000Y-43586000D03*
D17*
X147996000Y-40586000D03*
%TD*%
D19*
%TO.C,H1*%
X130347000Y-40556000D03*
%TD*%
%TO.C,H4*%
X130347000Y-85260000D03*
%TD*%
D15*
%TO.C,P2O*%
X160394000Y-39646000D03*
X154394000Y-39646000D03*
D16*
X157394000Y-43586000D03*
D17*
X157394000Y-40586000D03*
%TD*%
D20*
%TO.C,BUZZER*%
X167110000Y-77543000D03*
D21*
X171110000Y-77543000D03*
%TD*%
D13*
%TO.C,JA1*%
X145710000Y-79575000D03*
D14*
X145710000Y-77035000D03*
X145710000Y-74495000D03*
%TD*%
D13*
%TO.C,MI*%
X160950000Y-77035000D03*
D14*
X160950000Y-74495000D03*
%TD*%
D19*
%TO.C,H2*%
X175051000Y-40556000D03*
%TD*%
D13*
%TO.C,JY1*%
X138090000Y-79575000D03*
D14*
X138090000Y-77035000D03*
X138090000Y-74495000D03*
%TD*%
D22*
%TO.C,Q19*%
X147996000Y-48467000D03*
D23*
X149901000Y-51192000D03*
X148631000Y-51192000D03*
X147361000Y-51192000D03*
X146091000Y-51192000D03*
%TD*%
D24*
%TO.C,R63*%
X163109000Y-85353000D03*
X163109000Y-83703000D03*
%TD*%
D25*
%TO.C,R58*%
X169840000Y-57731000D03*
X171490000Y-57731000D03*
%TD*%
D26*
%TO.C,R65*%
X170157000Y-86636000D03*
X168507000Y-86636000D03*
%TD*%
D27*
%TO.C,D4*%
X167237000Y-74495000D03*
X171237000Y-74495000D03*
%TD*%
D22*
%TO.C,Q18*%
X138598000Y-48467000D03*
D23*
X140503000Y-51192000D03*
X139233000Y-51192000D03*
X137963000Y-51192000D03*
X136693000Y-51192000D03*
%TD*%
D24*
%TO.C,R37*%
X136820000Y-85353000D03*
X136820000Y-83703000D03*
%TD*%
D28*
%TO.C,Q20*%
X181397000Y-79083000D03*
X180127000Y-79083000D03*
X178857000Y-79083000D03*
X177587000Y-79083000D03*
D29*
X179492000Y-76358000D03*
%TD*%
D25*
%TO.C,R55*%
X173015000Y-59382000D03*
X174665000Y-59382000D03*
%TD*%
%TO.C,R59*%
X173015000Y-57731000D03*
X174665000Y-57731000D03*
%TD*%
D30*
%TO.C,R51*%
X153965000Y-57668000D03*
X153965000Y-59318000D03*
%TD*%
D24*
%TO.C,R64*%
X166157000Y-85353000D03*
X166157000Y-83703000D03*
%TD*%
D13*
%TO.C,U6*%
X123485000Y-67256000D03*
D14*
X126025000Y-67256000D03*
X128565000Y-67256000D03*
X131105000Y-67256000D03*
X133645000Y-67256000D03*
X136185000Y-67256000D03*
X138725000Y-67256000D03*
X141265000Y-67256000D03*
%TD*%
D26*
%TO.C,R66*%
X170157000Y-83436000D03*
X168507000Y-83436000D03*
%TD*%
D24*
%TO.C,R43*%
X143043000Y-85353000D03*
X143043000Y-83703000D03*
%TD*%
D22*
%TO.C,Q17*%
X157394000Y-48467000D03*
D23*
X159299000Y-51192000D03*
X158029000Y-51192000D03*
X156759000Y-51192000D03*
X155489000Y-51192000D03*
%TD*%
D30*
%TO.C,R38*%
X159045000Y-57668000D03*
X159045000Y-59318000D03*
%TD*%
D25*
%TO.C,R57*%
X173015000Y-61033000D03*
X174665000Y-61033000D03*
%TD*%
D31*
%TO.C,C14*%
X170107000Y-85036000D03*
X168557000Y-85036000D03*
%TD*%
D24*
%TO.C,R60*%
X163109000Y-75066000D03*
X163109000Y-73416000D03*
%TD*%
%TO.C,R62*%
X160061000Y-85353000D03*
X160061000Y-83703000D03*
%TD*%
D30*
%TO.C,R53*%
X151425000Y-57668000D03*
X151425000Y-59318000D03*
%TD*%
%TO.C,R40*%
X164125000Y-57668000D03*
X164125000Y-59318000D03*
%TD*%
D32*
%TO.C,C12*%
X176240000Y-61033000D03*
X177790000Y-61033000D03*
%TD*%
%TO.C,C13*%
X176240000Y-57731000D03*
X177790000Y-57731000D03*
%TD*%
D26*
%TO.C,R69*%
X175491000Y-77416000D03*
X173841000Y-77416000D03*
%TD*%
D33*
%TO.C,Q22*%
X175616000Y-75559500D03*
X173716000Y-75559500D03*
X174666000Y-73684500D03*
%TD*%
D22*
%TO.C,Q16*%
X166792000Y-48467000D03*
D23*
X168697000Y-51192000D03*
X167427000Y-51192000D03*
X166157000Y-51192000D03*
X164887000Y-51192000D03*
%TD*%
D32*
%TO.C,C11*%
X176240000Y-59382000D03*
X177790000Y-59382000D03*
%TD*%
D25*
%TO.C,R54*%
X169840000Y-59382000D03*
X171490000Y-59382000D03*
%TD*%
D30*
%TO.C,R52*%
X148885000Y-57668000D03*
X148885000Y-59318000D03*
%TD*%
%TO.C,R50*%
X156505000Y-57668000D03*
X156505000Y-59318000D03*
%TD*%
D24*
%TO.C,R41*%
X139868000Y-85353000D03*
X139868000Y-83703000D03*
%TD*%
%TO.C,R61*%
X164760000Y-75066000D03*
X164760000Y-73416000D03*
%TD*%
D30*
%TO.C,R39*%
X161585000Y-57668000D03*
X161585000Y-59318000D03*
%TD*%
D24*
%TO.C,R42*%
X146091000Y-85353000D03*
X146091000Y-83703000D03*
%TD*%
D25*
%TO.C,R56*%
X169840000Y-61033000D03*
X171490000Y-61033000D03*
%TD*%
M02*
