%TF.GenerationSoftware,KiCad,Pcbnew,10.0.4*%
%TF.CreationDate,2026-08-21T12:40:25-07:00*%
%TF.ProjectId,Impulse_2.3,496d7075-6c73-4655-9f32-2e332e6b6963,rev?*%
%TF.SameCoordinates,Original*%
%TF.FileFunction,Copper,L2,Inr*%
%TF.FilePolarity,Positive*%
%FSLAX46Y46*%
G04 Gerber Fmt 4.6, Leading zero omitted, Abs format (unit mm)*
G04 Created by KiCad (PCBNEW 10.0.4) date 2026-08-21 12:40:25*
%MOMM*%
%LPD*%
G01*
G04 APERTURE LIST*
G04 Aperture macros list*
%AMRoundRect*
0 Rectangle with rounded corners*
0 $1 Rounding radius*
0 $2 $3 $4 $5 $6 $7 $8 $9 X,Y pos of 4 corners*
0 Add a 4 corners polygon primitive as box body*
4,1,4,$2,$3,$4,$5,$6,$7,$8,$9,$2,$3,0*
0 Add four circle primitives for the rounded corners*
1,1,$1+$1,$2,$3*
1,1,$1+$1,$4,$5*
1,1,$1+$1,$6,$7*
1,1,$1+$1,$8,$9*
0 Add four rect primitives between the rounded corners*
20,1,$1+$1,$2,$3,$4,$5,0*
20,1,$1+$1,$4,$5,$6,$7,0*
20,1,$1+$1,$6,$7,$8,$9,0*
20,1,$1+$1,$8,$9,$2,$3,0*%
G04 Aperture macros list end*
%TA.AperFunction,ComponentPad*%
%ADD10C,1.600000*%
%TD*%
%TA.AperFunction,ComponentPad*%
%ADD11R,1.600000X1.600000*%
%TD*%
%TA.AperFunction,ComponentPad*%
%ADD12C,2.000000*%
%TD*%
%TA.AperFunction,ComponentPad*%
%ADD13R,1.700000X1.700000*%
%TD*%
%TA.AperFunction,ComponentPad*%
%ADD14C,1.700000*%
%TD*%
%TA.AperFunction,ComponentPad*%
%ADD15RoundRect,0.250001X0.499999X0.499999X-0.499999X0.499999X-0.499999X-0.499999X0.499999X-0.499999X0*%
%TD*%
%TA.AperFunction,ComponentPad*%
%ADD16C,1.500000*%
%TD*%
%TA.AperFunction,ComponentPad*%
%ADD17RoundRect,0.250000X0.550000X0.550000X-0.550000X0.550000X-0.550000X-0.550000X0.550000X-0.550000X0*%
%TD*%
%TA.AperFunction,ComponentPad*%
%ADD18R,1.800000X1.800000*%
%TD*%
%TA.AperFunction,ComponentPad*%
%ADD19C,1.800000*%
%TD*%
%TA.AperFunction,ViaPad*%
%ADD20C,0.600000*%
%TD*%
%TA.AperFunction,ViaPad*%
%ADD21C,0.800000*%
%TD*%
%TA.AperFunction,ViaPad*%
%ADD22C,1.000000*%
%TD*%
%TA.AperFunction,ViaPad*%
%ADD23C,0.500000*%
%TD*%
%TA.AperFunction,ViaPad*%
%ADD24C,0.700000*%
%TD*%
%TA.AperFunction,ViaPad*%
%ADD25C,0.900000*%
%TD*%
%TA.AperFunction,ViaPad*%
%ADD26C,1.200000*%
%TD*%
%TA.AperFunction,Conductor*%
%ADD27C,0.250000*%
%TD*%
%TA.AperFunction,Conductor*%
%ADD28C,0.400000*%
%TD*%
%TA.AperFunction,Conductor*%
%ADD29C,2.000000*%
%TD*%
%TA.AperFunction,Conductor*%
%ADD30C,1.500000*%
%TD*%
%TA.AperFunction,Conductor*%
%ADD31C,0.500000*%
%TD*%
%TA.AperFunction,Conductor*%
%ADD32C,0.300000*%
%TD*%
G04 APERTURE END LIST*
D10*
%TO.N,CS_IMU*%
%TO.C,U1*%
X179369000Y-55288000D03*
%TO.N,MISO*%
X176829000Y-55288000D03*
%TO.N,INT_IMU*%
X174289000Y-55288000D03*
%TO.N,SERVOX*%
X171749000Y-55288000D03*
%TO.N,3V3_TEENSY*%
X146349000Y-55288000D03*
X176829000Y-70528000D03*
%TO.N,SERVOY*%
X169209000Y-55288000D03*
%TO.N,SERVOA*%
X166669000Y-55288000D03*
%TO.N,R_LED*%
X164129000Y-55288000D03*
%TO.N,G_LED*%
X161589000Y-55288000D03*
%TO.N,B_LED*%
X159049000Y-55288000D03*
%TO.N,PYRO1*%
X156509000Y-55288000D03*
%TO.N,PYRO2*%
X153969000Y-55288000D03*
%TO.N,PYRO3*%
X151429000Y-55288000D03*
%TO.N,PYRO4*%
X148889000Y-55288000D03*
%TO.N,BUZZER*%
X148889000Y-70528000D03*
%TO.N,BUTTON*%
X151429000Y-70528000D03*
%TO.N,CS_BARO*%
X153969000Y-70528000D03*
%TO.N,GPS_TX*%
X156509000Y-70528000D03*
%TO.N,GPS_RX*%
X159049000Y-70528000D03*
%TO.N,SDA*%
X161589000Y-70528000D03*
%TO.N,SCL*%
X164129000Y-70528000D03*
%TO.N,CS_MAG*%
X166669000Y-70528000D03*
%TO.N,VBAT_SENSE*%
X169209000Y-70528000D03*
%TO.N,SERVO_V_SENSE*%
X171749000Y-70528000D03*
%TO.N,PYRO_V_SENSE*%
X174289000Y-70528000D03*
%TO.N,SERVOZ*%
X143809000Y-55288000D03*
%TO.N,SERVOD*%
X141269000Y-55288000D03*
%TO.N,MOSI*%
X138729000Y-55288000D03*
%TO.N,SCK*%
X136189000Y-55288000D03*
%TO.N,SERVOB*%
X133649000Y-55288000D03*
%TO.N,SERVOC*%
X131109000Y-55288000D03*
%TO.N,MAIN_LED*%
X128569000Y-55288000D03*
%TO.N,PYRO_LED*%
X126029000Y-55288000D03*
%TO.N,SENS_DET*%
X123489000Y-55288000D03*
%TO.N,unconnected-(U1-Pad33)*%
X123489000Y-70528000D03*
%TO.N,unconnected-(U1-Pad34)*%
X126029000Y-70528000D03*
%TO.N,unconnected-(U1-Pad35)*%
X128569000Y-70528000D03*
%TO.N,unconnected-(U1-Pad36)*%
X131109000Y-70528000D03*
%TO.N,unconnected-(U1-Pad37)*%
X133649000Y-70528000D03*
%TO.N,PYRO1_SENSE*%
X136189000Y-70528000D03*
%TO.N,PYRO2_SENSE*%
X138729000Y-70528000D03*
%TO.N,PYRO3_SENSE*%
X141269000Y-70528000D03*
%TO.N,PYRO4_SENSE*%
X143809000Y-70528000D03*
D11*
%TO.N,GND*%
X181909000Y-55288000D03*
D10*
X146349000Y-70528000D03*
X179369000Y-70528000D03*
%TO.N,VIN_T*%
X181909000Y-70528000D03*
%TD*%
D12*
%TO.N,3.3V*%
%TO.C,BUTTON1*%
X156124000Y-92112000D03*
X149624000Y-92112000D03*
%TO.N,BUTTON*%
X156124000Y-87612000D03*
X149624000Y-87612000D03*
%TD*%
D13*
%TO.N,SERVOZ*%
%TO.C,JZ1*%
X141900000Y-79575000D03*
D14*
%TO.N,5V-DIRTY*%
X141900000Y-77035000D03*
%TO.N,GND*%
X141900000Y-74495000D03*
%TD*%
D13*
%TO.N,SERVOX*%
%TO.C,JX1*%
X134280000Y-79575000D03*
D14*
%TO.N,5V-DIRTY*%
X134280000Y-77035000D03*
%TO.N,GND*%
X134280000Y-74495000D03*
%TD*%
D15*
%TO.N,Net-(P1O-Pin_1)*%
%TO.C,P1O*%
X166792000Y-43586000D03*
D16*
%TO.N,7.4V*%
X166792000Y-40586000D03*
%TD*%
D17*
%TO.N,PYRO_SW*%
%TO.C,SW2*%
X146599000Y-91132000D03*
D10*
%TO.N,GND*%
X138979000Y-91132000D03*
%TD*%
D13*
%TO.N,SERVOC*%
%TO.C,JC1*%
X153330000Y-79575000D03*
D14*
%TO.N,5V-DIRTY*%
X153330000Y-77035000D03*
%TO.N,GND*%
X153330000Y-74495000D03*
%TD*%
D13*
%TO.N,SERVOB*%
%TO.C,JB1*%
X149520000Y-79575000D03*
D14*
%TO.N,5V-DIRTY*%
X149520000Y-77035000D03*
%TO.N,GND*%
X149520000Y-74495000D03*
%TD*%
D17*
%TO.N,MAIN_SW*%
%TO.C,SW1*%
X166792000Y-91132000D03*
D10*
%TO.N,GND*%
X159172000Y-91132000D03*
%TD*%
D13*
%TO.N,SERVOD*%
%TO.C,JD1*%
X157140000Y-79575000D03*
D14*
%TO.N,5V-DIRTY*%
X157140000Y-77035000D03*
%TO.N,GND*%
X157140000Y-74495000D03*
%TD*%
D15*
%TO.N,Net-(P4O-Pin_1)*%
%TO.C,P4O*%
X138598000Y-43586000D03*
D16*
%TO.N,7.4V*%
X138598000Y-40586000D03*
%TD*%
D13*
%TO.N,3.3V*%
%TO.C,U7*%
X127930000Y-58747000D03*
D14*
%TO.N,GND*%
X130470000Y-58747000D03*
%TO.N,SCL*%
X133010000Y-58747000D03*
%TO.N,SDA*%
X135550000Y-58747000D03*
%TO.N,3.3V*%
X138090000Y-58747000D03*
%TO.N,GND*%
X140630000Y-58747000D03*
%TD*%
D13*
%TO.N,7.4V_RAW*%
%TO.C,PI*%
X152695000Y-48714000D03*
D14*
%TO.N,GND*%
X152695000Y-51254000D03*
%TD*%
D15*
%TO.N,Net-(P3O-Pin_1)*%
%TO.C,P3O*%
X147996000Y-43586000D03*
D16*
%TO.N,7.4V*%
X147996000Y-40586000D03*
%TD*%
D15*
%TO.N,Net-(P2O-Pin_1)*%
%TO.C,P2O*%
X157394000Y-43586000D03*
D16*
%TO.N,7.4V*%
X157394000Y-40586000D03*
%TD*%
D18*
%TO.N,5V-CLEAN*%
%TO.C,BUZZER*%
X167110000Y-77543000D03*
D19*
%TO.N,BZ_DRV*%
X171110000Y-77543000D03*
%TD*%
D13*
%TO.N,SERVOA*%
%TO.C,JA1*%
X145710000Y-79575000D03*
D14*
%TO.N,5V-DIRTY*%
X145710000Y-77035000D03*
%TO.N,GND*%
X145710000Y-74495000D03*
%TD*%
D13*
%TO.N,VBAT_RAW*%
%TO.C,MI*%
X160950000Y-77035000D03*
D14*
%TO.N,GND*%
X160950000Y-74495000D03*
%TD*%
D13*
%TO.N,SERVOY*%
%TO.C,JY1*%
X138090000Y-79575000D03*
D14*
%TO.N,5V-DIRTY*%
X138090000Y-77035000D03*
%TO.N,GND*%
X138090000Y-74495000D03*
%TD*%
D13*
%TO.N,3.3V*%
%TO.C,U6*%
X123485000Y-67256000D03*
D14*
%TO.N,GND*%
X126025000Y-67256000D03*
%TO.N,SCL*%
X128565000Y-67256000D03*
%TO.N,SDA*%
X131105000Y-67256000D03*
%TO.N,unconnected-(U6-Pin_5-Pad5)*%
X133645000Y-67256000D03*
%TO.N,unconnected-(U6-Pin_6-Pad6)*%
X136185000Y-67256000D03*
%TO.N,unconnected-(U6-Pin_7-Pad7)*%
X138725000Y-67256000D03*
%TO.N,unconnected-(U6-Pin_8-Pad8)*%
X141265000Y-67256000D03*
%TD*%
D20*
%TO.N,CS_IMU*%
X144804900Y-52526300D03*
%TO.N,MISO*%
X139980300Y-53697700D03*
%TO.N,INT_IMU*%
X174863300Y-51998900D03*
X141683000Y-49200500D03*
%TO.N,SERVOX*%
X165412400Y-77952600D03*
%TO.N,SERVOY*%
X136947500Y-61695800D03*
%TO.N,SERVOA*%
X160511400Y-69125700D03*
%TO.N,BUZZER*%
X176505000Y-73199400D03*
%TO.N,CS_BARO*%
X141635400Y-56765300D03*
%TO.N,GPS_TX*%
X133606500Y-50691400D03*
%TO.N,GPS_RX*%
X134687600Y-49775100D03*
%TO.N,CS_MAG*%
X162832800Y-50867200D03*
X135879800Y-49972900D03*
%TO.N,SERVO_V_SENSE*%
X171025100Y-67068900D03*
%TO.N,SERVOB*%
X143061500Y-75672000D03*
%TO.N,MAIN_LED*%
X156334400Y-85613100D03*
X128081600Y-81825900D03*
%TO.N,PYRO_LED*%
X162220400Y-67647400D03*
X126832200Y-60610100D03*
%TO.N,SENS_DET*%
X141782300Y-52992000D03*
X167748700Y-82365100D03*
X173558500Y-53122300D03*
%TO.N,PYRO1_SENSE*%
X135712800Y-84674200D03*
%TO.N,PYRO2_SENSE*%
X139668000Y-87580900D03*
%TO.N,PYRO3_SENSE*%
X141729100Y-85110800D03*
%TO.N,PYRO4_SENSE*%
X144702700Y-85110800D03*
D21*
%TO.N,GND*%
X149700000Y-83900000D03*
X173700000Y-87900000D03*
X141700000Y-91900000D03*
X185700000Y-59900000D03*
X173700000Y-79900000D03*
X145700000Y-95900000D03*
X185700000Y-67900000D03*
X150894000Y-48929000D03*
X133700000Y-43900000D03*
X154103000Y-50392000D03*
X137700000Y-91900000D03*
X144960000Y-50061000D03*
D20*
X137180000Y-56830000D03*
D21*
X173700000Y-75900000D03*
X177700000Y-51900000D03*
X137700000Y-87900000D03*
X145700000Y-87900000D03*
X129700000Y-75900000D03*
X161700000Y-43900000D03*
X165700000Y-87900000D03*
X141700000Y-87900000D03*
X133700000Y-87900000D03*
X177700000Y-43900000D03*
X154565000Y-49192000D03*
X161700000Y-87900000D03*
X129700000Y-71900000D03*
X169700000Y-79900000D03*
X161700000Y-91900000D03*
X154681000Y-49992000D03*
X185700000Y-55900000D03*
X177700000Y-59900000D03*
X177700000Y-83900000D03*
X133700000Y-35900000D03*
X169700000Y-87900000D03*
X141700000Y-43900000D03*
X185700000Y-63900000D03*
X169700000Y-91900000D03*
X169700000Y-35900000D03*
X181700000Y-59900000D03*
X125700000Y-43900000D03*
X171357000Y-51192000D03*
X157700000Y-95900000D03*
X181700000Y-47900000D03*
X153700000Y-43900000D03*
D22*
%TO.N,VBAT*%
X168337600Y-59243500D03*
X145385100Y-58819500D03*
D23*
X161430000Y-65780000D03*
D22*
X183199000Y-73199400D03*
D23*
X164000000Y-63180000D03*
D20*
%TO.N,PYRO_SW*%
X157789900Y-56487200D03*
D24*
%TO.N,3.3V*%
X163635400Y-76160700D03*
D25*
%TO.N,5V-DIRTY*%
X144505600Y-62629700D03*
X171110000Y-64570500D03*
X139521100Y-63890900D03*
X153737200Y-61592000D03*
D26*
%TO.N,Net-(P1O-Pin_1)*%
X127552000Y-47070900D03*
%TO.N,7.4V*%
X168310800Y-57375900D03*
D20*
%TO.N,Net-(U3-VBST)*%
X166693700Y-62663300D03*
X163634000Y-67907300D03*
D24*
%TO.N,5V-CLEAN*%
X175084300Y-64746300D03*
X165151000Y-81896700D03*
X158157300Y-64434800D03*
D20*
%TO.N,Net-(U2-BST)*%
X146707700Y-63900100D03*
X144504200Y-63758900D03*
D24*
%TO.N,Net-(U2-SW)*%
X149625900Y-62224400D03*
X143322200Y-60892500D03*
D20*
%TO.N,Net-(P4O-Pin_1)*%
X142850000Y-67700000D03*
X139250000Y-62450000D03*
X145550000Y-82400000D03*
%TO.N,Net-(LED2-A)*%
X159168800Y-84528000D03*
%TO.N,Net-(LED3-A)*%
X161898100Y-83672700D03*
D26*
%TO.N,Net-(P3O-Pin_1)*%
X142400000Y-82166500D03*
%TO.N,Net-(P2O-Pin_1)*%
X137265400Y-82220000D03*
D20*
%TO.N,Net-(LED1-BK)*%
X152378900Y-92573300D03*
%TO.N,Net-(LED1-RK)*%
X159633300Y-87274200D03*
X163995100Y-60282400D03*
%TO.N,Net-(LED1-GK)*%
X156837700Y-89859200D03*
X160262300Y-58698500D03*
%TO.N,Net-(LED4-A)*%
X166338900Y-82524000D03*
%TO.N,MAIN_G*%
X168617400Y-82453100D03*
X176552200Y-79094100D03*
%TD*%
%TO.N,INT_IMU*%
D27*
X174863300Y-54713700D02*
X174289000Y-55288000D01*
X174863300Y-51998900D02*
X174863300Y-54713700D01*
%TO.N,SERVOX*%
X170294500Y-67480100D02*
X170294500Y-56742500D01*
X170358800Y-67544400D02*
X170294500Y-67480100D01*
X165412400Y-76783300D02*
X170358800Y-71836900D01*
X165412400Y-77952600D02*
X165412400Y-76783300D01*
X170294500Y-56742500D02*
X171749000Y-55288000D01*
X170358800Y-71836900D02*
X170358800Y-67544400D01*
%TO.N,SERVOA*%
X166669000Y-55288000D02*
X160511400Y-61445600D01*
X160511400Y-61445600D02*
X160511400Y-69125700D01*
%TO.N,BUTTON*%
X151190400Y-76947000D02*
X151190400Y-79597500D01*
X151190400Y-79597500D02*
X154315500Y-82722600D01*
X149012000Y-75721700D02*
X149965100Y-75721700D01*
X148293300Y-73987000D02*
X148293300Y-75003000D01*
X149277200Y-73003100D02*
X148293300Y-73987000D01*
X151429000Y-70528000D02*
X149277300Y-72679700D01*
X148293300Y-75003000D02*
X149012000Y-75721700D01*
X154315600Y-82722600D02*
X154315600Y-85803600D01*
X154315600Y-85803600D02*
X156124000Y-87612000D01*
X149965100Y-75721700D02*
X151190400Y-76947000D01*
X149277300Y-72679700D02*
X149277300Y-73003100D01*
%TO.N,CS_BARO*%
X153969000Y-69316500D02*
X153969000Y-70528000D01*
X141635400Y-56982900D02*
X153969000Y-69316500D01*
X141635400Y-56765300D02*
X141635400Y-56982900D01*
%TO.N,GPS_TX*%
X138272900Y-50691400D02*
X142539000Y-54957500D01*
X142539000Y-54957500D02*
X142539000Y-55663200D01*
X143339300Y-56463500D02*
X144892800Y-56463500D01*
X156509000Y-68079700D02*
X156509000Y-70528000D01*
X142539000Y-55663200D02*
X143339300Y-56463500D01*
X133606500Y-50691400D02*
X138272900Y-50691400D01*
X144892800Y-56463500D02*
X156509000Y-68079700D01*
%TO.N,GPS_RX*%
X146305600Y-52936800D02*
X141942600Y-48573800D01*
X159049000Y-57976600D02*
X160185600Y-56840000D01*
X160185600Y-54817100D02*
X158305300Y-52936800D01*
X141942600Y-48573800D02*
X135888900Y-48573800D01*
X135888900Y-48573800D02*
X134687600Y-49775100D01*
X160185600Y-56840000D02*
X160185600Y-54817100D01*
X158305300Y-52936800D02*
X146305600Y-52936800D01*
X159049000Y-70528000D02*
X159049000Y-57976600D01*
%TO.N,SDA*%
X131105000Y-67256000D02*
X135550000Y-62811000D01*
X135550000Y-62811000D02*
X135550000Y-58747000D01*
%TO.N,SCL*%
X128565000Y-67256000D02*
X133010000Y-62811000D01*
X133010000Y-62811000D02*
X133010000Y-58747000D01*
%TO.N,CS_MAG*%
X163912900Y-50867200D02*
X162832800Y-50867200D01*
X166669000Y-70528000D02*
X167342000Y-69855000D01*
X167866600Y-54820900D02*
X163912900Y-50867200D01*
X167245600Y-59534400D02*
X167245600Y-56718300D01*
X167245600Y-56718300D02*
X167866600Y-56097300D01*
X167866600Y-56097300D02*
X167866600Y-54820900D01*
X167342000Y-69855000D02*
X167342000Y-59630800D01*
X167342000Y-59630800D02*
X167245600Y-59534400D01*
%TO.N,SERVO_V_SENSE*%
X171025100Y-69804100D02*
X171025100Y-67068900D01*
X171749000Y-70528000D02*
X171025100Y-69804100D01*
%TO.N,SERVOD*%
X155108600Y-76734600D02*
X155108600Y-69781900D01*
X155108600Y-69781900D02*
X142262100Y-56935400D01*
X142262100Y-56935400D02*
X142262100Y-56505700D01*
X157140000Y-79575000D02*
X157140000Y-78398300D01*
X157140000Y-78398300D02*
X156772300Y-78398300D01*
X142262100Y-56505700D02*
X141269100Y-55512700D01*
X141269000Y-55512700D02*
X141269000Y-55288000D01*
X156772300Y-78398300D02*
X155108600Y-76734600D01*
%TO.N,SERVOB*%
X143151700Y-73737700D02*
X142539000Y-73125000D01*
X140990500Y-68591200D02*
X140917900Y-68591200D01*
X143151700Y-75581800D02*
X143151700Y-73737700D01*
X143061500Y-75672000D02*
X143151700Y-75581800D01*
X140917900Y-68591200D02*
X139995000Y-67668300D01*
X138446300Y-64121300D02*
X138446300Y-62255700D01*
X133755200Y-55288000D02*
X133649000Y-55288000D01*
X138446300Y-62255700D02*
X136784700Y-60594100D01*
X136784700Y-60594100D02*
X136784700Y-58317500D01*
X136784700Y-58317500D02*
X133755200Y-55288000D01*
X142539000Y-70139700D02*
X140990500Y-68591200D01*
X139995000Y-67668300D02*
X139995000Y-65670000D01*
X139995000Y-65670000D02*
X138446300Y-64121300D01*
X142539000Y-73125000D02*
X142539000Y-70139700D01*
%TO.N,SERVOC*%
X153330000Y-79575000D02*
X153330000Y-78398300D01*
X131109000Y-55288000D02*
X132242800Y-54154200D01*
X152086600Y-77522600D02*
X152962300Y-78398300D01*
X139193600Y-54154200D02*
X140028900Y-54989500D01*
X140028900Y-56050600D02*
X152622400Y-68644100D01*
X132242800Y-54154200D02*
X139193600Y-54154200D01*
X152622400Y-68644100D02*
X152622400Y-71134600D01*
X140028900Y-54989500D02*
X140028900Y-56050600D01*
X152622400Y-71134600D02*
X152086600Y-71670400D01*
X152086600Y-71670400D02*
X152086600Y-77522600D01*
X152962300Y-78398300D02*
X153330000Y-78398300D01*
%TO.N,MAIN_LED*%
X128081600Y-79689800D02*
X128081600Y-81825900D01*
X129200000Y-61963600D02*
X127330400Y-63833200D01*
X127330400Y-78938600D02*
X128081600Y-79689800D01*
X129200000Y-55919000D02*
X129200000Y-61963600D01*
X128569000Y-55288000D02*
X129200000Y-55919000D01*
X127330400Y-63833200D02*
X127330400Y-78938600D01*
%TO.N,PYRO_LED*%
X126029000Y-59806900D02*
X126029000Y-55288000D01*
X126832200Y-60610100D02*
X126029000Y-59806900D01*
%TO.N,SENS_DET*%
X173019000Y-72073000D02*
X173019000Y-53661800D01*
X168386700Y-81727100D02*
X168386700Y-76705300D01*
X173019000Y-53661800D02*
X173558500Y-53122300D01*
X168386700Y-76705300D02*
X173019000Y-72073000D01*
X167748700Y-82365100D02*
X168386700Y-81727100D01*
%TO.N,PYRO1_SENSE*%
X136189000Y-84198000D02*
X135712800Y-84674200D01*
X136189000Y-70528000D02*
X136189000Y-84198000D01*
%TO.N,PYRO2_SENSE*%
X139668000Y-71467000D02*
X138729000Y-70528000D01*
X139668000Y-87580900D02*
X139668000Y-71467000D01*
%TO.N,PYRO3_SENSE*%
X141729100Y-85110800D02*
X140634700Y-84016400D01*
X140634700Y-84016400D02*
X140634700Y-71162300D01*
X140634700Y-71162300D02*
X141269000Y-70528000D01*
%TO.N,PYRO4_SENSE*%
X143809000Y-84217100D02*
X144702700Y-85110800D01*
X143809000Y-70528000D02*
X143809000Y-84217100D01*
%TO.N,PYRO_SW*%
X153005600Y-92832900D02*
X153005600Y-92705900D01*
X158367800Y-73778500D02*
X157728400Y-73139100D01*
X158367800Y-81236800D02*
X158367800Y-73778500D01*
X157816400Y-81788200D02*
X158367800Y-81236800D01*
X157816400Y-87895100D02*
X157816400Y-81788200D01*
X157728400Y-65035200D02*
X157429000Y-64735800D01*
X146599000Y-91132000D02*
X148995700Y-93528700D01*
X148995700Y-93528700D02*
X152309800Y-93528700D01*
X152309800Y-93528700D02*
X153005600Y-92832900D01*
X157429000Y-56848100D02*
X157789900Y-56487200D01*
X157728400Y-73139100D02*
X157728400Y-65035200D01*
X153005600Y-92705900D02*
X157816400Y-87895100D01*
X157429000Y-64735800D02*
X157429000Y-56848100D01*
%TO.N,3.3V*%
D28*
X163635400Y-84600600D02*
X156124000Y-92112000D01*
X126963000Y-59741400D02*
X126963000Y-56124200D01*
X126547500Y-54036300D02*
X125510600Y-54036300D01*
X127333900Y-60048700D02*
X127143600Y-59858400D01*
X146816300Y-85023600D02*
X144397000Y-82604300D01*
X149624000Y-91176500D02*
X146816300Y-88368800D01*
X124777300Y-64662000D02*
X123485000Y-65954300D01*
X127280700Y-55806500D02*
X127280700Y-54769500D01*
X146816300Y-88368800D02*
X146816300Y-85023600D01*
X149624000Y-92112000D02*
X149624000Y-91176500D01*
X145079000Y-65736000D02*
X138090000Y-58747000D01*
X144397000Y-82604300D02*
X144397000Y-73790900D01*
X163635400Y-76160700D02*
X163635400Y-84600600D01*
X123485000Y-67256000D02*
X123485000Y-65954300D01*
X145079000Y-73108900D02*
X145079000Y-65736000D01*
X127143600Y-59858400D02*
X127080000Y-59858400D01*
X127930000Y-60048700D02*
X127333900Y-60048700D01*
X125510600Y-54036300D02*
X124777300Y-54769600D01*
X127080000Y-59858400D02*
X126963000Y-59741400D01*
X144397000Y-73790900D02*
X145079000Y-73108900D01*
X127280700Y-54769500D02*
X126547500Y-54036300D01*
X126963000Y-56124200D02*
X127280700Y-55806500D01*
X127930000Y-58747000D02*
X127930000Y-60048700D01*
X124777300Y-54769600D02*
X124777300Y-64662000D01*
%TO.N,7.4V*%
D29*
X157394000Y-41500000D02*
X166792000Y-41500000D01*
D30*
X147996000Y-39836000D02*
X147996000Y-41500000D01*
X157394000Y-39836000D02*
X157394000Y-41500000D01*
D29*
X147996000Y-41500000D02*
X157394000Y-41500000D01*
X138598000Y-41500000D02*
X147996000Y-41500000D01*
D30*
X166792000Y-39836000D02*
X166792000Y-41500000D01*
X138598000Y-39836000D02*
X138598000Y-41500000D01*
%TO.N,Net-(U3-VBST)*%
D27*
X163634000Y-65723000D02*
X166693700Y-62663300D01*
X163634000Y-67907300D02*
X163634000Y-65723000D01*
%TO.N,5V-CLEAN*%
D31*
X165151000Y-81896700D02*
X165151000Y-80903700D01*
X165151000Y-80903700D02*
X167110000Y-78944700D01*
X167110000Y-77543000D02*
X167110000Y-78944700D01*
%TO.N,Net-(P4O-Pin_1)*%
D32*
X142700000Y-67550000D02*
X142850000Y-67700000D01*
X140450000Y-63500000D02*
X140450000Y-64100000D01*
X139250000Y-62450000D02*
X139850000Y-63050000D01*
X140450000Y-64100000D02*
X142700000Y-66350000D01*
X139850000Y-63050000D02*
X140000000Y-63050000D01*
X142700000Y-66350000D02*
X142700000Y-67550000D01*
X140000000Y-63050000D02*
X140450000Y-63500000D01*
%TO.N,Net-(P2O-Pin_1)*%
X132056800Y-82576200D02*
X129089700Y-82576200D01*
X136248600Y-85775900D02*
X135256500Y-85775900D01*
X121801100Y-54667700D02*
X127996200Y-48472600D01*
X126598000Y-81925900D02*
X126598000Y-80718800D01*
X121801100Y-75921900D02*
X121801100Y-54667700D01*
X137265400Y-82220000D02*
X137265400Y-84759100D01*
X135256500Y-85775900D02*
X132056800Y-82576200D01*
X126598000Y-80718800D02*
X121801100Y-75921900D01*
X128132700Y-48472600D02*
X129581800Y-47023500D01*
X153956500Y-47023500D02*
X157394000Y-43586000D01*
X128702300Y-82963600D02*
X127635700Y-82963600D01*
X129089700Y-82576200D02*
X128702300Y-82963600D01*
X127996200Y-48472600D02*
X128132700Y-48472600D01*
X129581800Y-47023500D02*
X153956500Y-47023500D01*
X127635700Y-82963600D02*
X126598000Y-81925900D01*
X137265400Y-84759100D02*
X136248600Y-85775900D01*
%TO.N,Net-(LED1-RK)*%
D27*
X162859000Y-61418500D02*
X163995100Y-60282400D01*
X159633300Y-87274200D02*
X162859000Y-84048500D01*
X162859000Y-84048500D02*
X162859000Y-61418500D01*
%TO.N,Net-(LED1-GK)*%
X158315200Y-83047500D02*
X158315200Y-88381700D01*
X159884700Y-69385200D02*
X160262300Y-69762800D01*
X160262300Y-58698500D02*
X159884700Y-59076100D01*
X160262300Y-71114700D02*
X159723300Y-71653700D01*
X159884700Y-59076100D02*
X159884700Y-69385200D01*
X160262300Y-69762800D02*
X160262300Y-71114700D01*
X159723300Y-71653700D02*
X159723300Y-81639400D01*
X158315200Y-88381700D02*
X156837700Y-89859200D01*
X159723300Y-81639400D02*
X158315200Y-83047500D01*
%TD*%
%TA.AperFunction,Conductor*%
%TO.N,GND*%
G36*
X137669821Y-54648607D02*
G01*
X137705785Y-54698107D01*
X137705785Y-54759293D01*
X137699839Y-54773645D01*
X137662791Y-54846353D01*
X137662789Y-54846359D01*
X137606828Y-55018593D01*
X137578500Y-55197450D01*
X137578500Y-55378549D01*
X137606828Y-55557406D01*
X137662788Y-55729637D01*
X137728809Y-55859211D01*
X137745004Y-55890994D01*
X137851447Y-56037501D01*
X137979499Y-56165553D01*
X138126006Y-56271996D01*
X138287361Y-56354211D01*
X138459591Y-56410171D01*
X138519029Y-56419585D01*
X138638451Y-56438500D01*
X138638454Y-56438500D01*
X138819549Y-56438500D01*
X138930523Y-56420923D01*
X138998409Y-56410171D01*
X139170639Y-56354211D01*
X139331994Y-56271996D01*
X139437550Y-56195305D01*
X139495738Y-56176398D01*
X139553929Y-56195305D01*
X139580880Y-56229486D01*
X139582561Y-56228516D01*
X139585804Y-56234133D01*
X139585805Y-56234136D01*
X139648405Y-56342564D01*
X141499065Y-58193224D01*
X143328837Y-60022996D01*
X143356614Y-60077513D01*
X143347043Y-60137945D01*
X143303778Y-60181210D01*
X143258833Y-60192000D01*
X143253204Y-60192000D01*
X143117872Y-60218920D01*
X143117870Y-60218920D01*
X142990393Y-60271722D01*
X142990382Y-60271728D01*
X142875658Y-60348385D01*
X142778085Y-60445958D01*
X142701428Y-60560682D01*
X142701422Y-60560693D01*
X142648620Y-60688170D01*
X142648620Y-60688172D01*
X142621700Y-60823504D01*
X142621700Y-60961495D01*
X142648620Y-61096827D01*
X142648620Y-61096829D01*
X142701422Y-61224306D01*
X142701428Y-61224317D01*
X142778085Y-61339041D01*
X142875658Y-61436614D01*
X142990382Y-61513271D01*
X142990393Y-61513277D01*
X143037483Y-61532782D01*
X143117872Y-61566080D01*
X143253207Y-61593000D01*
X143253208Y-61593000D01*
X143391192Y-61593000D01*
X143391193Y-61593000D01*
X143526528Y-61566080D01*
X143654011Y-61513275D01*
X143768742Y-61436614D01*
X143866314Y-61339042D01*
X143942975Y-61224311D01*
X143995780Y-61096828D01*
X144022700Y-60961493D01*
X144022700Y-60955867D01*
X144041607Y-60897676D01*
X144091107Y-60861712D01*
X144152293Y-60861712D01*
X144191704Y-60885863D01*
X146457370Y-63151529D01*
X146485147Y-63206046D01*
X146475576Y-63266478D01*
X146432311Y-63309743D01*
X146425255Y-63312996D01*
X146399573Y-63323634D01*
X146399566Y-63323638D01*
X146293031Y-63394824D01*
X146293027Y-63394827D01*
X146202427Y-63485427D01*
X146202424Y-63485431D01*
X146131238Y-63591966D01*
X146131234Y-63591974D01*
X146082200Y-63710352D01*
X146082199Y-63710355D01*
X146082199Y-63710356D01*
X146074845Y-63747327D01*
X146065368Y-63794971D01*
X146057200Y-63836031D01*
X146057200Y-63964169D01*
X146078483Y-64071165D01*
X146082199Y-64089842D01*
X146082200Y-64089847D01*
X146131234Y-64208225D01*
X146131238Y-64208233D01*
X146168616Y-64264172D01*
X146202424Y-64314769D01*
X146293031Y-64405376D01*
X146356548Y-64447817D01*
X146399566Y-64476561D01*
X146399570Y-64476563D01*
X146399573Y-64476565D01*
X146517956Y-64525601D01*
X146643631Y-64550600D01*
X146643632Y-64550600D01*
X146771768Y-64550600D01*
X146771769Y-64550600D01*
X146897444Y-64525601D01*
X147015827Y-64476565D01*
X147122369Y-64405376D01*
X147212976Y-64314769D01*
X147284165Y-64208227D01*
X147291171Y-64191314D01*
X147294802Y-64182548D01*
X147334538Y-64136022D01*
X147394033Y-64121738D01*
X147450561Y-64145153D01*
X147456270Y-64150429D01*
X152117904Y-68812063D01*
X152145681Y-68866580D01*
X152146900Y-68882067D01*
X152146900Y-69440997D01*
X152127993Y-69499188D01*
X152078493Y-69535152D01*
X152017307Y-69535152D01*
X152002955Y-69529207D01*
X151870637Y-69461788D01*
X151698406Y-69405828D01*
X151519549Y-69377500D01*
X151519546Y-69377500D01*
X151338454Y-69377500D01*
X151338451Y-69377500D01*
X151159593Y-69405828D01*
X150987362Y-69461788D01*
X150826008Y-69544002D01*
X150777473Y-69579265D01*
X150679499Y-69650447D01*
X150551447Y-69778499D01*
X150517282Y-69825523D01*
X150445002Y-69925008D01*
X150362788Y-70086362D01*
X150306828Y-70258593D01*
X150278500Y-70437450D01*
X150278500Y-70618549D01*
X150306828Y-70797406D01*
X150332298Y-70875796D01*
X150332297Y-70936981D01*
X150308147Y-70976392D01*
X150017091Y-71267448D01*
X149962574Y-71295225D01*
X149902142Y-71285654D01*
X149858877Y-71242389D01*
X149849306Y-71181957D01*
X149866996Y-71139251D01*
X149872996Y-71130994D01*
X149955211Y-70969639D01*
X150011171Y-70797409D01*
X150039500Y-70618546D01*
X150039500Y-70437454D01*
X150039500Y-70437450D01*
X150020614Y-70318212D01*
X150011171Y-70258591D01*
X149955211Y-70086361D01*
X149872996Y-69925006D01*
X149766553Y-69778499D01*
X149638501Y-69650447D01*
X149491994Y-69544004D01*
X149491993Y-69544003D01*
X149491991Y-69544002D01*
X149330637Y-69461788D01*
X149158406Y-69405828D01*
X148979549Y-69377500D01*
X148979546Y-69377500D01*
X148798454Y-69377500D01*
X148798451Y-69377500D01*
X148619593Y-69405828D01*
X148447362Y-69461788D01*
X148286008Y-69544002D01*
X148237473Y-69579265D01*
X148139499Y-69650447D01*
X148011447Y-69778499D01*
X147977282Y-69825523D01*
X147905002Y-69925008D01*
X147822788Y-70086362D01*
X147766828Y-70258593D01*
X147738500Y-70437450D01*
X147738500Y-70618549D01*
X147766828Y-70797406D01*
X147822788Y-70969637D01*
X147902039Y-71125176D01*
X147905004Y-71130994D01*
X148011447Y-71277501D01*
X148139499Y-71405553D01*
X148286006Y-71511996D01*
X148447361Y-71594211D01*
X148619591Y-71650171D01*
X148690198Y-71661354D01*
X148798451Y-71678500D01*
X148798454Y-71678500D01*
X148979549Y-71678500D01*
X149086899Y-71661497D01*
X149158409Y-71650171D01*
X149330639Y-71594211D01*
X149491994Y-71511996D01*
X149500250Y-71505997D01*
X149558437Y-71487086D01*
X149616630Y-71505989D01*
X149652597Y-71555486D01*
X149652602Y-71616672D01*
X149628449Y-71656089D01*
X148985336Y-72299204D01*
X148896807Y-72387733D01*
X148834205Y-72496163D01*
X148834205Y-72496164D01*
X148801800Y-72617099D01*
X148801800Y-72617101D01*
X148801800Y-72765033D01*
X148782893Y-72823224D01*
X148772804Y-72835036D01*
X148001336Y-73606504D01*
X148001336Y-73606505D01*
X148001335Y-73606504D01*
X147912807Y-73695033D01*
X147912805Y-73695035D01*
X147912805Y-73695036D01*
X147900760Y-73715899D01*
X147850205Y-73803463D01*
X147850205Y-73803464D01*
X147817800Y-73924399D01*
X147817800Y-74940399D01*
X147817800Y-75065601D01*
X147850205Y-75186536D01*
X147912805Y-75294964D01*
X148667537Y-76049696D01*
X148695313Y-76104211D01*
X148685742Y-76164643D01*
X148667538Y-76189698D01*
X148633144Y-76224093D01*
X148604309Y-76252928D01*
X148493238Y-76405803D01*
X148407453Y-76574167D01*
X148349058Y-76753886D01*
X148319500Y-76940515D01*
X148319500Y-77129484D01*
X148349058Y-77316113D01*
X148407453Y-77495832D01*
X148483189Y-77644474D01*
X148493240Y-77664199D01*
X148604310Y-77817073D01*
X148737927Y-77950690D01*
X148890801Y-78061760D01*
X149059168Y-78147547D01*
X149163187Y-78181345D01*
X149212687Y-78217309D01*
X149231594Y-78275500D01*
X149212687Y-78333691D01*
X149163186Y-78369655D01*
X149132594Y-78374500D01*
X148636740Y-78374500D01*
X148602673Y-78379463D01*
X148568604Y-78384427D01*
X148463518Y-78435801D01*
X148380801Y-78518518D01*
X148329427Y-78623604D01*
X148329427Y-78623607D01*
X148319500Y-78691740D01*
X148319500Y-80458260D01*
X148326118Y-80503682D01*
X148329427Y-80526395D01*
X148356730Y-80582243D01*
X148380802Y-80631483D01*
X148463517Y-80714198D01*
X148517285Y-80740483D01*
X148568604Y-80765572D01*
X148568605Y-80765572D01*
X148568607Y-80765573D01*
X148636740Y-80775500D01*
X148636743Y-80775500D01*
X150403257Y-80775500D01*
X150403260Y-80775500D01*
X150471393Y-80765573D01*
X150576483Y-80714198D01*
X150659198Y-80631483D01*
X150710573Y-80526393D01*
X150720500Y-80458260D01*
X150720500Y-80039066D01*
X150739407Y-79980875D01*
X150788907Y-79944911D01*
X150850093Y-79944911D01*
X150889501Y-79969060D01*
X153811105Y-82890664D01*
X153838881Y-82945179D01*
X153840100Y-82960666D01*
X153840100Y-85740999D01*
X153840100Y-85866201D01*
X153872505Y-85987136D01*
X153935105Y-86095564D01*
X154421432Y-86581891D01*
X154844427Y-87004886D01*
X154872204Y-87059403D01*
X154868578Y-87105483D01*
X154806752Y-87295761D01*
X154773500Y-87505709D01*
X154773500Y-87718290D01*
X154806752Y-87928238D01*
X154872443Y-88130412D01*
X154968948Y-88319815D01*
X154968950Y-88319819D01*
X155093891Y-88491786D01*
X155093893Y-88491788D01*
X155093896Y-88491792D01*
X155244208Y-88642104D01*
X155244211Y-88642106D01*
X155244213Y-88642108D01*
X155416180Y-88767049D01*
X155416184Y-88767051D01*
X155605588Y-88863557D01*
X155807757Y-88929246D01*
X155807760Y-88929246D01*
X155807762Y-88929247D01*
X155847348Y-88935516D01*
X155876590Y-88940148D01*
X155931107Y-88967925D01*
X155958885Y-89022441D01*
X155949314Y-89082873D01*
X155931108Y-89107933D01*
X152952297Y-92086744D01*
X152897780Y-92114521D01*
X152837348Y-92104950D01*
X152812289Y-92086744D01*
X152793572Y-92068027D01*
X152793569Y-92068024D01*
X152751126Y-92039665D01*
X152687033Y-91996838D01*
X152687025Y-91996834D01*
X152568647Y-91947800D01*
X152568645Y-91947799D01*
X152568644Y-91947799D01*
X152442969Y-91922800D01*
X152314831Y-91922800D01*
X152314830Y-91922800D01*
X152305842Y-91924588D01*
X152189156Y-91947799D01*
X152189155Y-91947799D01*
X152189152Y-91947800D01*
X152070774Y-91996834D01*
X152070766Y-91996838D01*
X151964231Y-92068024D01*
X151964227Y-92068027D01*
X151873627Y-92158627D01*
X151873624Y-92158631D01*
X151802438Y-92265166D01*
X151802434Y-92265174D01*
X151753400Y-92383552D01*
X151753399Y-92383557D01*
X151728400Y-92509230D01*
X151728400Y-92637369D01*
X151753399Y-92763042D01*
X151753400Y-92763047D01*
X151802434Y-92881425D01*
X151802439Y-92881435D01*
X151814308Y-92899197D01*
X151830918Y-92958085D01*
X151809742Y-93015489D01*
X151758869Y-93049482D01*
X151731994Y-93053200D01*
X150803787Y-93053200D01*
X150745596Y-93034293D01*
X150709632Y-92984793D01*
X150709632Y-92923607D01*
X150723694Y-92896010D01*
X150779049Y-92819819D01*
X150779051Y-92819816D01*
X150875557Y-92630412D01*
X150941246Y-92428243D01*
X150948324Y-92383556D01*
X150974500Y-92218290D01*
X150974500Y-92005709D01*
X150941247Y-91795761D01*
X150941246Y-91795757D01*
X150875557Y-91593588D01*
X150779051Y-91404184D01*
X150779049Y-91404180D01*
X150654108Y-91232213D01*
X150654106Y-91232211D01*
X150654104Y-91232208D01*
X150503792Y-91081896D01*
X150503788Y-91081893D01*
X150503786Y-91081891D01*
X150331819Y-90956950D01*
X150331815Y-90956948D01*
X150271039Y-90925982D01*
X150142412Y-90860443D01*
X150082145Y-90840860D01*
X150042736Y-90816711D01*
X147395796Y-88169771D01*
X147368019Y-88115254D01*
X147366800Y-88099767D01*
X147366800Y-87505709D01*
X148273500Y-87505709D01*
X148273500Y-87718290D01*
X148306752Y-87928238D01*
X148372443Y-88130412D01*
X148468948Y-88319815D01*
X148468950Y-88319819D01*
X148593891Y-88491786D01*
X148593893Y-88491788D01*
X148593896Y-88491792D01*
X148744208Y-88642104D01*
X148744211Y-88642106D01*
X148744213Y-88642108D01*
X148916180Y-88767049D01*
X148916184Y-88767051D01*
X149105588Y-88863557D01*
X149307757Y-88929246D01*
X149307758Y-88929246D01*
X149307761Y-88929247D01*
X149517710Y-88962500D01*
X149517713Y-88962500D01*
X149730290Y-88962500D01*
X149940238Y-88929247D01*
X149940239Y-88929246D01*
X149940243Y-88929246D01*
X150142412Y-88863557D01*
X150331816Y-88767051D01*
X150338499Y-88762196D01*
X150503786Y-88642108D01*
X150503792Y-88642104D01*
X150654104Y-88491792D01*
X150779051Y-88319816D01*
X150875557Y-88130412D01*
X150941246Y-87928243D01*
X150945767Y-87899701D01*
X150974500Y-87718290D01*
X150974500Y-87505709D01*
X150941247Y-87295761D01*
X150933778Y-87272773D01*
X150875557Y-87093588D01*
X150779051Y-86904184D01*
X150779049Y-86904180D01*
X150654108Y-86732213D01*
X150654106Y-86732211D01*
X150654104Y-86732208D01*
X150503792Y-86581896D01*
X150503788Y-86581893D01*
X150503786Y-86581891D01*
X150331819Y-86456950D01*
X150331815Y-86456948D01*
X150142412Y-86360443D01*
X149940238Y-86294752D01*
X149730290Y-86261500D01*
X149730287Y-86261500D01*
X149517713Y-86261500D01*
X149517710Y-86261500D01*
X149307761Y-86294752D01*
X149105587Y-86360443D01*
X148916184Y-86456948D01*
X148916180Y-86456950D01*
X148744213Y-86581891D01*
X148593891Y-86732213D01*
X148468950Y-86904180D01*
X148468948Y-86904184D01*
X148372443Y-87093587D01*
X148306752Y-87295761D01*
X148273500Y-87505709D01*
X147366800Y-87505709D01*
X147366800Y-84951125D01*
X147352622Y-84898213D01*
X147329284Y-84811115D01*
X147288279Y-84740092D01*
X147256810Y-84685585D01*
X145743382Y-83172157D01*
X145715605Y-83117640D01*
X145725176Y-83057208D01*
X145768441Y-83013943D01*
X145775460Y-83010706D01*
X145858127Y-82976465D01*
X145964669Y-82905276D01*
X146055276Y-82814669D01*
X146126465Y-82708127D01*
X146175501Y-82589744D01*
X146200500Y-82464069D01*
X146200500Y-82335931D01*
X146175501Y-82210256D01*
X146126465Y-82091873D01*
X146126463Y-82091870D01*
X146126461Y-82091866D01*
X146090756Y-82038431D01*
X146055276Y-81985331D01*
X145964669Y-81894724D01*
X145912442Y-81859827D01*
X145858133Y-81823538D01*
X145858125Y-81823534D01*
X145739747Y-81774500D01*
X145739745Y-81774499D01*
X145739744Y-81774499D01*
X145614069Y-81749500D01*
X145485931Y-81749500D01*
X145485930Y-81749500D01*
X145423946Y-81761830D01*
X145360256Y-81774499D01*
X145360255Y-81774499D01*
X145360252Y-81774500D01*
X145241874Y-81823534D01*
X145241866Y-81823538D01*
X145135331Y-81894724D01*
X145135327Y-81894727D01*
X145116504Y-81913551D01*
X145061987Y-81941328D01*
X145001555Y-81931757D01*
X144958290Y-81888492D01*
X144947500Y-81843547D01*
X144947500Y-80874500D01*
X144966407Y-80816309D01*
X145015907Y-80780345D01*
X145046500Y-80775500D01*
X146593257Y-80775500D01*
X146593260Y-80775500D01*
X146661393Y-80765573D01*
X146766483Y-80714198D01*
X146849198Y-80631483D01*
X146900573Y-80526393D01*
X146910500Y-80458260D01*
X146910500Y-78691740D01*
X146900573Y-78623607D01*
X146895155Y-78612525D01*
X146861848Y-78544393D01*
X146849198Y-78518517D01*
X146766483Y-78435802D01*
X146766481Y-78435801D01*
X146661395Y-78384427D01*
X146634139Y-78380456D01*
X146593260Y-78374500D01*
X146593257Y-78374500D01*
X146097406Y-78374500D01*
X146039215Y-78355593D01*
X146003251Y-78306093D01*
X146003251Y-78244907D01*
X146039215Y-78195407D01*
X146066813Y-78181345D01*
X146170832Y-78147547D01*
X146339199Y-78061760D01*
X146492073Y-77950690D01*
X146625690Y-77817073D01*
X146736760Y-77664199D01*
X146822547Y-77495832D01*
X146880940Y-77316118D01*
X146891384Y-77250178D01*
X146910500Y-77129484D01*
X146910500Y-76940515D01*
X146880941Y-76753886D01*
X146880940Y-76753882D01*
X146822547Y-76574168D01*
X146736760Y-76405801D01*
X146625690Y-76252927D01*
X146492073Y-76119310D01*
X146339199Y-76008240D01*
X146339198Y-76008239D01*
X146339196Y-76008238D01*
X146170832Y-75922453D01*
X145991113Y-75864058D01*
X145804484Y-75834500D01*
X145804481Y-75834500D01*
X145615519Y-75834500D01*
X145615516Y-75834500D01*
X145428886Y-75864058D01*
X145249167Y-75922453D01*
X145091445Y-76002816D01*
X145031013Y-76012387D01*
X144976496Y-75984609D01*
X144948719Y-75930093D01*
X144947500Y-75914606D01*
X144947500Y-74059931D01*
X144966407Y-74001740D01*
X144976490Y-73989933D01*
X145519510Y-73446914D01*
X145591984Y-73321385D01*
X145613684Y-73240400D01*
X145629500Y-73181375D01*
X145629500Y-65663525D01*
X145591984Y-65523515D01*
X145570594Y-65486466D01*
X145562639Y-65472687D01*
X145531977Y-65419580D01*
X145519510Y-65397986D01*
X144665762Y-64544238D01*
X144637985Y-64489721D01*
X144647556Y-64429289D01*
X144690821Y-64386024D01*
X144697875Y-64382772D01*
X144812327Y-64335365D01*
X144918869Y-64264176D01*
X145009476Y-64173569D01*
X145080665Y-64067027D01*
X145129701Y-63948644D01*
X145154700Y-63822969D01*
X145154700Y-63694831D01*
X145129701Y-63569156D01*
X145080665Y-63450773D01*
X145080663Y-63450771D01*
X145080661Y-63450765D01*
X145020036Y-63360035D01*
X145003427Y-63301147D01*
X145024604Y-63243743D01*
X145032340Y-63235037D01*
X145127389Y-63139989D01*
X145214994Y-63008879D01*
X145275337Y-62863197D01*
X145306100Y-62708542D01*
X145306100Y-62550858D01*
X145275337Y-62396203D01*
X145236066Y-62301394D01*
X145214996Y-62250525D01*
X145214990Y-62250514D01*
X145153189Y-62158024D01*
X145127389Y-62119411D01*
X145015889Y-62007911D01*
X144960908Y-61971174D01*
X144884785Y-61920309D01*
X144884774Y-61920303D01*
X144739097Y-61859963D01*
X144584444Y-61829200D01*
X144584442Y-61829200D01*
X144426758Y-61829200D01*
X144426755Y-61829200D01*
X144272103Y-61859963D01*
X144272101Y-61859963D01*
X144126425Y-61920303D01*
X144126414Y-61920309D01*
X143995311Y-62007911D01*
X143995307Y-62007914D01*
X143883814Y-62119407D01*
X143883811Y-62119411D01*
X143796209Y-62250514D01*
X143796203Y-62250525D01*
X143735863Y-62396201D01*
X143735863Y-62396203D01*
X143705100Y-62550855D01*
X143705100Y-62708544D01*
X143717029Y-62768514D01*
X143732277Y-62845171D01*
X143735863Y-62863196D01*
X143735863Y-62863198D01*
X143796203Y-63008874D01*
X143796209Y-63008885D01*
X143840721Y-63075501D01*
X143883811Y-63139989D01*
X143883814Y-63139992D01*
X143977173Y-63233351D01*
X144004950Y-63287868D01*
X143995379Y-63348300D01*
X143989485Y-63358356D01*
X143927737Y-63450767D01*
X143927734Y-63450774D01*
X143880329Y-63565218D01*
X143840592Y-63611744D01*
X143781097Y-63626027D01*
X143724569Y-63602612D01*
X143718861Y-63597336D01*
X139276543Y-59155018D01*
X139248766Y-59100501D01*
X139252392Y-59054422D01*
X139260940Y-59028118D01*
X139273737Y-58947322D01*
X139290500Y-58841484D01*
X139290500Y-58652515D01*
X139260941Y-58465886D01*
X139260940Y-58465882D01*
X139202547Y-58286168D01*
X139116760Y-58117801D01*
X139005690Y-57964927D01*
X138872073Y-57831310D01*
X138719199Y-57720240D01*
X138719198Y-57720239D01*
X138719196Y-57720238D01*
X138550832Y-57634453D01*
X138371113Y-57576058D01*
X138184484Y-57546500D01*
X138184481Y-57546500D01*
X137995519Y-57546500D01*
X137995516Y-57546500D01*
X137808886Y-57576058D01*
X137629167Y-57634453D01*
X137460803Y-57720238D01*
X137307924Y-57831312D01*
X137209451Y-57929785D01*
X137154935Y-57957562D01*
X137094503Y-57947990D01*
X137069444Y-57929785D01*
X135663450Y-56523791D01*
X135635673Y-56469274D01*
X135645244Y-56408842D01*
X135688509Y-56365577D01*
X135748941Y-56356006D01*
X135764043Y-56359631D01*
X135919591Y-56410171D01*
X135979029Y-56419585D01*
X136098451Y-56438500D01*
X136098454Y-56438500D01*
X136279549Y-56438500D01*
X136390523Y-56420923D01*
X136458409Y-56410171D01*
X136630639Y-56354211D01*
X136791994Y-56271996D01*
X136938501Y-56165553D01*
X137066553Y-56037501D01*
X137172996Y-55890994D01*
X137255211Y-55729639D01*
X137311171Y-55557409D01*
X137339500Y-55378546D01*
X137339500Y-55197454D01*
X137339500Y-55197450D01*
X137311171Y-55018593D01*
X137311171Y-55018591D01*
X137255211Y-54846361D01*
X137255210Y-54846359D01*
X137255208Y-54846353D01*
X137218161Y-54773645D01*
X137208589Y-54713213D01*
X137236366Y-54658697D01*
X137290883Y-54630919D01*
X137306370Y-54629700D01*
X137611630Y-54629700D01*
X137669821Y-54648607D01*
G37*
%TD.AperFunction*%
%TA.AperFunction,Conductor*%
G36*
X160806429Y-71372483D02*
G01*
X160839499Y-71405553D01*
X160986006Y-71511996D01*
X161147361Y-71594211D01*
X161319591Y-71650171D01*
X161390198Y-71661354D01*
X161498451Y-71678500D01*
X161498454Y-71678500D01*
X161679549Y-71678500D01*
X161786899Y-71661497D01*
X161858409Y-71650171D01*
X162030639Y-71594211D01*
X162191994Y-71511996D01*
X162226309Y-71487065D01*
X162284500Y-71468157D01*
X162342690Y-71487064D01*
X162378654Y-71536564D01*
X162383500Y-71567157D01*
X162383500Y-83029468D01*
X162364593Y-83087659D01*
X162315093Y-83123623D01*
X162253907Y-83123623D01*
X162229499Y-83111784D01*
X162206232Y-83096237D01*
X162206225Y-83096234D01*
X162087847Y-83047200D01*
X162087845Y-83047199D01*
X162087844Y-83047199D01*
X161962169Y-83022200D01*
X161834031Y-83022200D01*
X161834030Y-83022200D01*
X161771193Y-83034699D01*
X161708356Y-83047199D01*
X161708355Y-83047199D01*
X161708352Y-83047200D01*
X161589974Y-83096234D01*
X161589966Y-83096238D01*
X161483431Y-83167424D01*
X161483427Y-83167427D01*
X161392827Y-83258027D01*
X161392824Y-83258031D01*
X161321638Y-83364566D01*
X161321634Y-83364574D01*
X161272600Y-83482952D01*
X161272599Y-83482955D01*
X161272599Y-83482956D01*
X161247600Y-83608631D01*
X161247600Y-83736769D01*
X161268158Y-83840120D01*
X161272599Y-83862442D01*
X161272600Y-83862447D01*
X161321634Y-83980825D01*
X161321638Y-83980833D01*
X161359348Y-84037268D01*
X161392824Y-84087369D01*
X161483431Y-84177976D01*
X161516297Y-84199936D01*
X161589966Y-84249161D01*
X161589970Y-84249163D01*
X161589973Y-84249165D01*
X161708356Y-84298201D01*
X161708363Y-84298202D01*
X161708365Y-84298203D01*
X161717276Y-84299976D01*
X161770659Y-84329873D01*
X161796274Y-84385439D01*
X161784336Y-84445448D01*
X161767964Y-84467077D01*
X159640337Y-86594704D01*
X159585820Y-86622481D01*
X159570333Y-86623700D01*
X159569230Y-86623700D01*
X159506393Y-86636199D01*
X159443556Y-86648699D01*
X159443555Y-86648699D01*
X159443552Y-86648700D01*
X159325174Y-86697734D01*
X159325166Y-86697738D01*
X159218631Y-86768924D01*
X159218627Y-86768927D01*
X159128027Y-86859527D01*
X159128024Y-86859531D01*
X159056838Y-86966066D01*
X159056834Y-86966074D01*
X159007800Y-87084452D01*
X159007799Y-87084455D01*
X159007799Y-87084456D01*
X158992373Y-87162004D01*
X158986798Y-87190032D01*
X158956901Y-87243416D01*
X158901335Y-87269031D01*
X158841326Y-87257094D01*
X158799793Y-87212164D01*
X158790700Y-87170717D01*
X158790700Y-85223645D01*
X158809607Y-85165454D01*
X158859107Y-85129490D01*
X158920293Y-85129490D01*
X158927578Y-85132178D01*
X158979056Y-85153501D01*
X159104731Y-85178500D01*
X159104732Y-85178500D01*
X159232868Y-85178500D01*
X159232869Y-85178500D01*
X159358544Y-85153501D01*
X159476927Y-85104465D01*
X159583469Y-85033276D01*
X159674076Y-84942669D01*
X159745265Y-84836127D01*
X159794301Y-84717744D01*
X159819300Y-84592069D01*
X159819300Y-84463931D01*
X159794301Y-84338256D01*
X159745265Y-84219873D01*
X159745263Y-84219870D01*
X159745261Y-84219866D01*
X159711222Y-84168924D01*
X159674076Y-84113331D01*
X159583469Y-84022724D01*
X159518232Y-83979134D01*
X159476933Y-83951538D01*
X159476925Y-83951534D01*
X159358547Y-83902500D01*
X159358545Y-83902499D01*
X159358544Y-83902499D01*
X159232869Y-83877500D01*
X159104731Y-83877500D01*
X159104730Y-83877500D01*
X159041893Y-83889999D01*
X158979056Y-83902499D01*
X158979054Y-83902499D01*
X158979048Y-83902501D01*
X158927585Y-83923818D01*
X158866588Y-83928618D01*
X158814419Y-83896649D01*
X158791005Y-83840120D01*
X158790700Y-83832354D01*
X158790700Y-83285466D01*
X158809607Y-83227275D01*
X158819690Y-83215468D01*
X160103795Y-81931364D01*
X160166395Y-81822936D01*
X160198800Y-81702001D01*
X160198800Y-81576799D01*
X160198800Y-78334500D01*
X160217707Y-78276309D01*
X160267207Y-78240345D01*
X160297800Y-78235500D01*
X161833257Y-78235500D01*
X161833260Y-78235500D01*
X161901393Y-78225573D01*
X162006483Y-78174198D01*
X162089198Y-78091483D01*
X162140573Y-77986393D01*
X162150500Y-77918260D01*
X162150500Y-76151740D01*
X162140573Y-76083607D01*
X162089198Y-75978517D01*
X162006483Y-75895802D01*
X162000310Y-75892784D01*
X161901395Y-75844427D01*
X161874139Y-75840456D01*
X161833260Y-75834500D01*
X161833257Y-75834500D01*
X160297800Y-75834500D01*
X160239609Y-75815593D01*
X160203645Y-75766093D01*
X160198800Y-75735500D01*
X160198800Y-71891666D01*
X160217707Y-71833475D01*
X160227790Y-71821668D01*
X160642795Y-71406664D01*
X160650690Y-71392989D01*
X160696156Y-71352049D01*
X160757006Y-71345651D01*
X160806429Y-71372483D01*
G37*
%TD.AperFunction*%
%TA.AperFunction,Conductor*%
G36*
X125471742Y-56295299D02*
G01*
X125499444Y-56309414D01*
X125542709Y-56352677D01*
X125553500Y-56397624D01*
X125553500Y-59744299D01*
X125553500Y-59869501D01*
X125585905Y-59990436D01*
X125648505Y-60098864D01*
X126152705Y-60603064D01*
X126180481Y-60657579D01*
X126181700Y-60673066D01*
X126181700Y-60674169D01*
X126205039Y-60791500D01*
X126206699Y-60799842D01*
X126206700Y-60799847D01*
X126255734Y-60918225D01*
X126255738Y-60918233D01*
X126298565Y-60982326D01*
X126326924Y-61024769D01*
X126417531Y-61115376D01*
X126468965Y-61149743D01*
X126524066Y-61186561D01*
X126524070Y-61186563D01*
X126524073Y-61186565D01*
X126642456Y-61235601D01*
X126768131Y-61260600D01*
X126768132Y-61260600D01*
X126896268Y-61260600D01*
X126896269Y-61260600D01*
X127021944Y-61235601D01*
X127140327Y-61186565D01*
X127246869Y-61115376D01*
X127337476Y-61024769D01*
X127408665Y-60918227D01*
X127457701Y-60799844D01*
X127481762Y-60678885D01*
X127511659Y-60625501D01*
X127567225Y-60599886D01*
X127578860Y-60599200D01*
X128002474Y-60599200D01*
X128002475Y-60599200D01*
X128142485Y-60561684D01*
X128142487Y-60561682D01*
X128142489Y-60561682D01*
X128268010Y-60489212D01*
X128268010Y-60489211D01*
X128268015Y-60489209D01*
X128370509Y-60386715D01*
X128436899Y-60271725D01*
X128442982Y-60261189D01*
X128442982Y-60261187D01*
X128442984Y-60261185D01*
X128480500Y-60121175D01*
X128480500Y-60046500D01*
X128485345Y-60031588D01*
X128485345Y-60015907D01*
X128494561Y-60003221D01*
X128499407Y-59988309D01*
X128512092Y-59979092D01*
X128521309Y-59966407D01*
X128536221Y-59961561D01*
X128548907Y-59952345D01*
X128579500Y-59947500D01*
X128625500Y-59947500D01*
X128683691Y-59966407D01*
X128719655Y-60015907D01*
X128724500Y-60046500D01*
X128724500Y-61725633D01*
X128705593Y-61783824D01*
X128695504Y-61795636D01*
X127038436Y-63452704D01*
X127038436Y-63452705D01*
X127038435Y-63452704D01*
X126949907Y-63541233D01*
X126949905Y-63541235D01*
X126949905Y-63541236D01*
X126941580Y-63555656D01*
X126887305Y-63649663D01*
X126884396Y-63660519D01*
X126854900Y-63770599D01*
X126854900Y-63770601D01*
X126854900Y-69511656D01*
X126835993Y-69569847D01*
X126786493Y-69605811D01*
X126725307Y-69605811D01*
X126697711Y-69591750D01*
X126631994Y-69544004D01*
X126631993Y-69544003D01*
X126631991Y-69544002D01*
X126470637Y-69461788D01*
X126298406Y-69405828D01*
X126119549Y-69377500D01*
X126119546Y-69377500D01*
X125938454Y-69377500D01*
X125938451Y-69377500D01*
X125759593Y-69405828D01*
X125587362Y-69461788D01*
X125426008Y-69544002D01*
X125377473Y-69579265D01*
X125279499Y-69650447D01*
X125151447Y-69778499D01*
X125117282Y-69825523D01*
X125045002Y-69925008D01*
X124962788Y-70086362D01*
X124906828Y-70258593D01*
X124878500Y-70437450D01*
X124878500Y-70618549D01*
X124906828Y-70797406D01*
X124962788Y-70969637D01*
X125042039Y-71125176D01*
X125045004Y-71130994D01*
X125151447Y-71277501D01*
X125279499Y-71405553D01*
X125426006Y-71511996D01*
X125587361Y-71594211D01*
X125759591Y-71650171D01*
X125830198Y-71661354D01*
X125938451Y-71678500D01*
X125938454Y-71678500D01*
X126119549Y-71678500D01*
X126226899Y-71661497D01*
X126298409Y-71650171D01*
X126470639Y-71594211D01*
X126631994Y-71511996D01*
X126697710Y-71464250D01*
X126755899Y-71445343D01*
X126814090Y-71464250D01*
X126850054Y-71513750D01*
X126854900Y-71544343D01*
X126854900Y-78875999D01*
X126854900Y-79001201D01*
X126887305Y-79122136D01*
X126949905Y-79230564D01*
X127577105Y-79857764D01*
X127604881Y-79912279D01*
X127606100Y-79927766D01*
X127606100Y-81340447D01*
X127587193Y-81398638D01*
X127577104Y-81410451D01*
X127576327Y-81411227D01*
X127576324Y-81411231D01*
X127505138Y-81517766D01*
X127505134Y-81517774D01*
X127456100Y-81636152D01*
X127456099Y-81636157D01*
X127431100Y-81761830D01*
X127431100Y-81812178D01*
X127423936Y-81834225D01*
X127420310Y-81857123D01*
X127414661Y-81862771D01*
X127412193Y-81870369D01*
X127393436Y-81883996D01*
X127377045Y-81900388D01*
X127369155Y-81901637D01*
X127362693Y-81906333D01*
X127339508Y-81906333D01*
X127316613Y-81909959D01*
X127309496Y-81906333D01*
X127301507Y-81906333D01*
X127262096Y-81882182D01*
X127127496Y-81747582D01*
X127099719Y-81693065D01*
X127098500Y-81677578D01*
X127098500Y-80652909D01*
X127092759Y-80631483D01*
X127064392Y-80525614D01*
X127064390Y-80525611D01*
X127064390Y-80525609D01*
X126998503Y-80411490D01*
X126998499Y-80411485D01*
X126905314Y-80318299D01*
X126905314Y-80318300D01*
X122330596Y-75743582D01*
X122302819Y-75689065D01*
X122301600Y-75673578D01*
X122301600Y-71144156D01*
X122320507Y-71085965D01*
X122370007Y-71050001D01*
X122431193Y-71050001D01*
X122480693Y-71085965D01*
X122488807Y-71099207D01*
X122505004Y-71130994D01*
X122611447Y-71277501D01*
X122739499Y-71405553D01*
X122886006Y-71511996D01*
X123047361Y-71594211D01*
X123219591Y-71650171D01*
X123290198Y-71661354D01*
X123398451Y-71678500D01*
X123398454Y-71678500D01*
X123579549Y-71678500D01*
X123686899Y-71661497D01*
X123758409Y-71650171D01*
X123930639Y-71594211D01*
X124091994Y-71511996D01*
X124238501Y-71405553D01*
X124366553Y-71277501D01*
X124472996Y-71130994D01*
X124555211Y-70969639D01*
X124611171Y-70797409D01*
X124639500Y-70618546D01*
X124639500Y-70437454D01*
X124639500Y-70437450D01*
X124620614Y-70318212D01*
X124611171Y-70258591D01*
X124555211Y-70086361D01*
X124472996Y-69925006D01*
X124366553Y-69778499D01*
X124238501Y-69650447D01*
X124091994Y-69544004D01*
X124091993Y-69544003D01*
X124091991Y-69544002D01*
X123930637Y-69461788D01*
X123758406Y-69405828D01*
X123579549Y-69377500D01*
X123579546Y-69377500D01*
X123398454Y-69377500D01*
X123398451Y-69377500D01*
X123219593Y-69405828D01*
X123047362Y-69461788D01*
X122886008Y-69544002D01*
X122837473Y-69579265D01*
X122739499Y-69650447D01*
X122611447Y-69778499D01*
X122577282Y-69825523D01*
X122505001Y-69925009D01*
X122505000Y-69925011D01*
X122488809Y-69956789D01*
X122445545Y-70000053D01*
X122385112Y-70009624D01*
X122330596Y-69981846D01*
X122302819Y-69927329D01*
X122301600Y-69911843D01*
X122301600Y-68491747D01*
X122320507Y-68433556D01*
X122370007Y-68397592D01*
X122431193Y-68397592D01*
X122444072Y-68402802D01*
X122533607Y-68446573D01*
X122601740Y-68456500D01*
X122601743Y-68456500D01*
X124368257Y-68456500D01*
X124368260Y-68456500D01*
X124436393Y-68446573D01*
X124541483Y-68395198D01*
X124624198Y-68312483D01*
X124675573Y-68207393D01*
X124685500Y-68139260D01*
X124685500Y-66372740D01*
X124675573Y-66304607D01*
X124670823Y-66294891D01*
X124641610Y-66235134D01*
X124624198Y-66199517D01*
X124541483Y-66116802D01*
X124436393Y-66065427D01*
X124436391Y-66065426D01*
X124436394Y-66065426D01*
X124383764Y-66057758D01*
X124328908Y-66030658D01*
X124300457Y-65976490D01*
X124309279Y-65915944D01*
X124328032Y-65889792D01*
X125217810Y-65000015D01*
X125290284Y-64874485D01*
X125297595Y-64847199D01*
X125327800Y-64734475D01*
X125327800Y-56383511D01*
X125346707Y-56325320D01*
X125396207Y-56289356D01*
X125457393Y-56289356D01*
X125471742Y-56295299D01*
G37*
%TD.AperFunction*%
%TA.AperFunction,Conductor*%
G36*
X155705704Y-71375006D02*
G01*
X155713693Y-71375006D01*
X155753101Y-71399155D01*
X155759499Y-71405553D01*
X155906006Y-71511996D01*
X156067361Y-71594211D01*
X156239591Y-71650171D01*
X156310198Y-71661354D01*
X156418451Y-71678500D01*
X156418454Y-71678500D01*
X156599549Y-71678500D01*
X156706899Y-71661497D01*
X156778409Y-71650171D01*
X156950639Y-71594211D01*
X156950642Y-71594209D01*
X156950646Y-71594208D01*
X157108955Y-71513545D01*
X157169387Y-71503973D01*
X157223903Y-71531750D01*
X157251681Y-71586267D01*
X157252900Y-71601754D01*
X157252900Y-73076499D01*
X157252900Y-73201701D01*
X157285305Y-73322636D01*
X157347905Y-73431064D01*
X157863305Y-73946464D01*
X157891081Y-74000979D01*
X157892300Y-74016466D01*
X157892300Y-75909409D01*
X157873393Y-75967600D01*
X157823893Y-76003564D01*
X157762707Y-76003564D01*
X157748355Y-75997619D01*
X157600832Y-75922453D01*
X157421113Y-75864058D01*
X157234484Y-75834500D01*
X157234481Y-75834500D01*
X157045519Y-75834500D01*
X157045516Y-75834500D01*
X156858886Y-75864058D01*
X156679167Y-75922453D01*
X156510803Y-76008238D01*
X156357928Y-76119309D01*
X156224309Y-76252928D01*
X156113238Y-76405803D01*
X156027451Y-76574171D01*
X155977605Y-76727578D01*
X155941641Y-76777077D01*
X155883450Y-76795984D01*
X155825260Y-76777076D01*
X155813447Y-76766988D01*
X155613096Y-76566637D01*
X155585319Y-76512120D01*
X155584100Y-76496633D01*
X155584100Y-71469161D01*
X155591263Y-71447113D01*
X155594890Y-71424216D01*
X155600538Y-71418567D01*
X155603007Y-71410970D01*
X155621763Y-71397342D01*
X155638155Y-71380951D01*
X155646044Y-71379701D01*
X155652507Y-71375006D01*
X155675692Y-71375006D01*
X155698587Y-71371380D01*
X155705704Y-71375006D01*
G37*
%TD.AperFunction*%
%TA.AperFunction,Conductor*%
G36*
X153181095Y-71367149D02*
G01*
X153219499Y-71405553D01*
X153366006Y-71511996D01*
X153527361Y-71594211D01*
X153699591Y-71650171D01*
X153770198Y-71661354D01*
X153878451Y-71678500D01*
X153878454Y-71678500D01*
X154059549Y-71678500D01*
X154166899Y-71661497D01*
X154238409Y-71650171D01*
X154410639Y-71594211D01*
X154489155Y-71554204D01*
X154549586Y-71544633D01*
X154604103Y-71572410D01*
X154631881Y-71626926D01*
X154633100Y-71642414D01*
X154633100Y-76536496D01*
X154614193Y-76594687D01*
X154564693Y-76630651D01*
X154503507Y-76630651D01*
X154454007Y-76594687D01*
X154444425Y-76577576D01*
X154444313Y-76577634D01*
X154442853Y-76574770D01*
X154442637Y-76574383D01*
X154442552Y-76574177D01*
X154356761Y-76405803D01*
X154354583Y-76402805D01*
X154245690Y-76252927D01*
X154112073Y-76119310D01*
X153959199Y-76008240D01*
X153959198Y-76008239D01*
X153959196Y-76008238D01*
X153790832Y-75922453D01*
X153611113Y-75864058D01*
X153424484Y-75834500D01*
X153424481Y-75834500D01*
X153235519Y-75834500D01*
X153235516Y-75834500D01*
X153048886Y-75864058D01*
X152869167Y-75922453D01*
X152706045Y-76005568D01*
X152645613Y-76015139D01*
X152591096Y-75987361D01*
X152563319Y-75932845D01*
X152562100Y-75917358D01*
X152562100Y-71908364D01*
X152581007Y-71850173D01*
X152591090Y-71838367D01*
X152914361Y-71515096D01*
X152914364Y-71515095D01*
X153002895Y-71426564D01*
X153025359Y-71387653D01*
X153070825Y-71346715D01*
X153131675Y-71340318D01*
X153181095Y-71367149D01*
G37*
%TD.AperFunction*%
%TA.AperFunction,Conductor*%
G36*
X151081201Y-71624701D02*
G01*
X151095091Y-71629214D01*
X151159591Y-71650171D01*
X151230198Y-71661354D01*
X151338451Y-71678500D01*
X151512100Y-71678500D01*
X151570291Y-71697407D01*
X151606255Y-71746907D01*
X151611100Y-71777500D01*
X151611100Y-76456233D01*
X151592193Y-76514424D01*
X151542693Y-76550388D01*
X151481507Y-76550388D01*
X151442096Y-76526237D01*
X150872229Y-75956370D01*
X150257064Y-75341205D01*
X150148636Y-75278605D01*
X150027701Y-75246200D01*
X150027699Y-75246200D01*
X149249967Y-75246200D01*
X149191776Y-75227293D01*
X149179963Y-75217204D01*
X148797796Y-74835037D01*
X148770019Y-74780520D01*
X148768800Y-74765033D01*
X148768800Y-74224965D01*
X148787707Y-74166774D01*
X148797790Y-74154967D01*
X149564199Y-73388557D01*
X149565002Y-73387855D01*
X149569259Y-73383597D01*
X149569264Y-73383595D01*
X149657795Y-73295064D01*
X149720395Y-73186636D01*
X149752800Y-73065701D01*
X149752800Y-72917666D01*
X149771707Y-72859475D01*
X149781790Y-72847668D01*
X150980607Y-71648850D01*
X151035122Y-71621075D01*
X151081201Y-71624701D01*
G37*
%TD.AperFunction*%
%TA.AperFunction,Conductor*%
G36*
X142022690Y-71487064D02*
G01*
X142058654Y-71536564D01*
X142063500Y-71567157D01*
X142063500Y-73062399D01*
X142063500Y-73187601D01*
X142095905Y-73308536D01*
X142158505Y-73416964D01*
X142436575Y-73695033D01*
X142647204Y-73905662D01*
X142674981Y-73960179D01*
X142676200Y-73975666D01*
X142676200Y-75096347D01*
X142657293Y-75154538D01*
X142647204Y-75166351D01*
X142556227Y-75257327D01*
X142556224Y-75257331D01*
X142485038Y-75363866D01*
X142485034Y-75363874D01*
X142436000Y-75482252D01*
X142435999Y-75482255D01*
X142435999Y-75482256D01*
X142427075Y-75527121D01*
X142411000Y-75607930D01*
X142411000Y-75736072D01*
X142421149Y-75787093D01*
X142413957Y-75847854D01*
X142372424Y-75892784D01*
X142312415Y-75904721D01*
X142293460Y-75900562D01*
X142245195Y-75884880D01*
X142181113Y-75864058D01*
X141994484Y-75834500D01*
X141994481Y-75834500D01*
X141805519Y-75834500D01*
X141805516Y-75834500D01*
X141618886Y-75864058D01*
X141439167Y-75922453D01*
X141270801Y-76008239D01*
X141270793Y-76008244D01*
X141267383Y-76010722D01*
X141209191Y-76029624D01*
X141151002Y-76010711D01*
X141115043Y-75961208D01*
X141110200Y-75930624D01*
X141110200Y-71777500D01*
X141129107Y-71719309D01*
X141178607Y-71683345D01*
X141209200Y-71678500D01*
X141359549Y-71678500D01*
X141466899Y-71661497D01*
X141538409Y-71650171D01*
X141710639Y-71594211D01*
X141871994Y-71511996D01*
X141906309Y-71487065D01*
X141964500Y-71468157D01*
X142022690Y-71487064D01*
G37*
%TD.AperFunction*%
%TA.AperFunction,Conductor*%
G36*
X137171302Y-32173752D02*
G01*
X137198452Y-32228583D01*
X137199500Y-32242948D01*
X137199500Y-34801263D01*
X137235961Y-35101539D01*
X137235963Y-35101555D01*
X137308355Y-35395260D01*
X137308356Y-35395263D01*
X137308357Y-35395266D01*
X137378309Y-35579714D01*
X137415628Y-35678116D01*
X137556206Y-35945967D01*
X137556209Y-35945972D01*
X137696696Y-36149500D01*
X137728050Y-36194924D01*
X137928648Y-36421352D01*
X138155076Y-36621950D01*
X138279554Y-36707871D01*
X138404027Y-36793790D01*
X138404032Y-36793793D01*
X138671887Y-36934373D01*
X138954734Y-37041643D01*
X139101591Y-37077840D01*
X139248444Y-37114036D01*
X139248445Y-37114036D01*
X139248449Y-37114037D01*
X139375600Y-37129476D01*
X139548736Y-37150499D01*
X139548743Y-37150499D01*
X139548748Y-37150500D01*
X139548752Y-37150500D01*
X165851248Y-37150500D01*
X165851252Y-37150500D01*
X165851256Y-37150499D01*
X165851263Y-37150499D01*
X165978403Y-37135060D01*
X166151551Y-37114037D01*
X166445266Y-37041643D01*
X166728113Y-36934373D01*
X166995968Y-36793793D01*
X167244924Y-36621950D01*
X167471352Y-36421352D01*
X167671950Y-36194924D01*
X167843793Y-35945968D01*
X167984373Y-35678113D01*
X168091643Y-35395266D01*
X168164037Y-35101551D01*
X168200500Y-34801252D01*
X168200500Y-34650000D01*
X168200500Y-34584108D01*
X168200500Y-32242948D01*
X168219407Y-32184757D01*
X168268907Y-32148793D01*
X168330093Y-32148793D01*
X168343426Y-32154226D01*
X168526919Y-32245087D01*
X168529818Y-32246584D01*
X169551830Y-32796330D01*
X169554678Y-32797925D01*
X170557494Y-33381787D01*
X170560351Y-33383515D01*
X171542899Y-34000863D01*
X171545697Y-34002687D01*
X172506890Y-34652839D01*
X172509624Y-34654757D01*
X173124418Y-35101551D01*
X173448291Y-35336921D01*
X173450959Y-35338929D01*
X174366142Y-36052407D01*
X174368740Y-36054505D01*
X175259265Y-36798382D01*
X175261792Y-36800565D01*
X176126793Y-37574119D01*
X176129244Y-37576387D01*
X176967615Y-38378627D01*
X176969976Y-38380963D01*
X177732665Y-39161735D01*
X177780853Y-39211065D01*
X177783137Y-39213484D01*
X178380554Y-39867829D01*
X178565557Y-40070461D01*
X178567766Y-40072965D01*
X179320789Y-40955789D01*
X179322914Y-40958366D01*
X180045783Y-41866148D01*
X180047818Y-41868795D01*
X180739615Y-42800380D01*
X180741561Y-42803094D01*
X181401578Y-43757530D01*
X181403431Y-43760309D01*
X182030864Y-44736435D01*
X182032622Y-44739274D01*
X182626788Y-45736023D01*
X182628444Y-45738911D01*
X183115810Y-46622996D01*
X183188642Y-46755114D01*
X183190205Y-46758065D01*
X183715824Y-47792607D01*
X183717286Y-47795609D01*
X184207707Y-48847279D01*
X184209067Y-48850329D01*
X184663743Y-49917946D01*
X184664999Y-49921040D01*
X184870460Y-50452527D01*
X185081919Y-50999533D01*
X185083396Y-51003352D01*
X185084542Y-51006472D01*
X185150787Y-51196672D01*
X185466217Y-52102336D01*
X185467262Y-52105508D01*
X185811752Y-53213596D01*
X185812689Y-53216801D01*
X185997184Y-53889496D01*
X186104129Y-54279433D01*
X186119604Y-54335855D01*
X186120430Y-54339080D01*
X186190609Y-54633564D01*
X186389437Y-55467887D01*
X186390156Y-55471148D01*
X186620931Y-56608349D01*
X186621540Y-56611633D01*
X186813832Y-57755988D01*
X186814330Y-57759290D01*
X186967917Y-58909482D01*
X186968303Y-58912799D01*
X187083009Y-60067508D01*
X187083283Y-60070836D01*
X187158979Y-61228747D01*
X187159141Y-61232082D01*
X187195741Y-62391913D01*
X187195790Y-62395253D01*
X187193251Y-63555656D01*
X187193187Y-63558994D01*
X187151515Y-64718622D01*
X187151339Y-64721957D01*
X187070576Y-65879557D01*
X187070287Y-65882884D01*
X186950533Y-67037049D01*
X186950133Y-67040365D01*
X186791513Y-68189887D01*
X186791001Y-68193186D01*
X186593701Y-69336708D01*
X186593077Y-69339989D01*
X186357333Y-70476147D01*
X186356600Y-70479405D01*
X186082661Y-71607013D01*
X186081818Y-71610245D01*
X185770000Y-72727980D01*
X185769048Y-72731181D01*
X185419719Y-73837734D01*
X185418660Y-73840901D01*
X185032205Y-74935052D01*
X185031040Y-74938181D01*
X184607906Y-76018669D01*
X184606636Y-76021758D01*
X184147301Y-77087361D01*
X184145928Y-77090405D01*
X183650909Y-78139919D01*
X183649434Y-78142915D01*
X183119289Y-79175159D01*
X183117713Y-79178103D01*
X182553079Y-80191835D01*
X182551405Y-80194725D01*
X181952890Y-81188857D01*
X181951120Y-81191688D01*
X181319412Y-82165075D01*
X181317547Y-82167845D01*
X180653370Y-83119370D01*
X180651412Y-83122076D01*
X179955536Y-84050639D01*
X179953489Y-84053277D01*
X179226684Y-84957852D01*
X179224549Y-84960420D01*
X178467628Y-85839989D01*
X178465407Y-85842483D01*
X177679270Y-86696004D01*
X177676966Y-86698422D01*
X176862507Y-87524925D01*
X176860124Y-87527264D01*
X176018206Y-88325872D01*
X176015744Y-88328129D01*
X175147397Y-89097864D01*
X175144861Y-89100036D01*
X174251072Y-89840024D01*
X174248465Y-89842110D01*
X173330188Y-90551564D01*
X173327511Y-90553561D01*
X172385849Y-91231625D01*
X172383106Y-91233531D01*
X171419086Y-91879467D01*
X171416281Y-91881278D01*
X170431083Y-92494294D01*
X170428219Y-92496011D01*
X169422811Y-93075507D01*
X169419889Y-93077125D01*
X168395597Y-93622334D01*
X168392624Y-93623853D01*
X167350478Y-94134230D01*
X167347454Y-94135648D01*
X166288733Y-94610564D01*
X166285664Y-94611879D01*
X165211438Y-95050855D01*
X165208325Y-95052066D01*
X164120017Y-95454519D01*
X164116866Y-95455625D01*
X163015516Y-95821174D01*
X163012329Y-95822172D01*
X161899318Y-96150355D01*
X161896100Y-96151245D01*
X160772669Y-96441698D01*
X160769422Y-96442480D01*
X159636784Y-96694890D01*
X159633513Y-96695561D01*
X158493052Y-96909617D01*
X158489760Y-96910178D01*
X157342691Y-97085654D01*
X157339381Y-97086103D01*
X156187058Y-97222790D01*
X156183736Y-97223127D01*
X155027474Y-97320871D01*
X155024142Y-97321096D01*
X153865248Y-97379786D01*
X153861911Y-97379899D01*
X152701670Y-97399471D01*
X152698330Y-97399471D01*
X151538088Y-97379899D01*
X151534751Y-97379786D01*
X150375857Y-97321096D01*
X150372525Y-97320871D01*
X149216263Y-97223127D01*
X149212941Y-97222790D01*
X148060618Y-97086103D01*
X148057308Y-97085654D01*
X146910239Y-96910178D01*
X146906947Y-96909617D01*
X145766486Y-96695561D01*
X145763215Y-96694890D01*
X144630577Y-96442480D01*
X144627330Y-96441698D01*
X143700008Y-96201947D01*
X143503890Y-96151242D01*
X143500691Y-96150357D01*
X143240269Y-96073569D01*
X142387670Y-95822172D01*
X142384483Y-95821174D01*
X141283133Y-95455625D01*
X141279982Y-95454519D01*
X140191674Y-95052066D01*
X140188561Y-95050855D01*
X139114335Y-94611879D01*
X139111266Y-94610564D01*
X138052545Y-94135648D01*
X138049521Y-94134230D01*
X137007375Y-93623853D01*
X137004402Y-93622334D01*
X135980110Y-93077125D01*
X135977188Y-93075507D01*
X134971780Y-92496011D01*
X134968916Y-92494294D01*
X134525336Y-92218287D01*
X133983692Y-91881261D01*
X133980939Y-91879483D01*
X133016893Y-91233531D01*
X133014150Y-91231625D01*
X132072488Y-90553561D01*
X132069811Y-90551564D01*
X131151534Y-89842110D01*
X131148927Y-89840024D01*
X130614920Y-89397907D01*
X130255125Y-89100025D01*
X130252602Y-89097864D01*
X130235690Y-89082873D01*
X129606963Y-88525546D01*
X129384255Y-88328129D01*
X129381793Y-88325872D01*
X128539875Y-87527264D01*
X128537492Y-87524925D01*
X127723033Y-86698422D01*
X127720729Y-86696004D01*
X126934592Y-85842483D01*
X126932371Y-85839989D01*
X126425223Y-85250665D01*
X126328879Y-85138710D01*
X128496500Y-85138710D01*
X128496500Y-85381289D01*
X128528161Y-85621781D01*
X128528161Y-85621786D01*
X128564406Y-85757052D01*
X128586966Y-85841248D01*
X128590944Y-85856092D01*
X128590948Y-85856105D01*
X128683772Y-86080204D01*
X128683774Y-86080208D01*
X128683776Y-86080212D01*
X128805064Y-86290289D01*
X128805066Y-86290292D01*
X128952729Y-86482731D01*
X128952731Y-86482733D01*
X128952735Y-86482738D01*
X129124262Y-86654265D01*
X129124266Y-86654268D01*
X129124268Y-86654270D01*
X129316707Y-86801933D01*
X129316711Y-86801936D01*
X129526788Y-86923224D01*
X129750900Y-87016054D01*
X129985211Y-87078838D01*
X130225712Y-87110500D01*
X130225713Y-87110500D01*
X130468287Y-87110500D01*
X130468288Y-87110500D01*
X130708789Y-87078838D01*
X130943100Y-87016054D01*
X131167212Y-86923224D01*
X131377289Y-86801936D01*
X131569738Y-86654265D01*
X131741265Y-86482738D01*
X131888936Y-86290289D01*
X132010224Y-86080212D01*
X132103054Y-85856100D01*
X132165838Y-85621789D01*
X132197500Y-85381288D01*
X132197500Y-85138712D01*
X132165838Y-84898211D01*
X132103054Y-84663900D01*
X132018227Y-84459109D01*
X132010227Y-84439795D01*
X132010226Y-84439794D01*
X132010224Y-84439788D01*
X131888936Y-84229711D01*
X131866089Y-84199936D01*
X131741270Y-84037268D01*
X131741268Y-84037266D01*
X131741265Y-84037262D01*
X131569738Y-83865735D01*
X131569733Y-83865731D01*
X131569731Y-83865729D01*
X131377292Y-83718066D01*
X131377289Y-83718064D01*
X131167212Y-83596776D01*
X131167208Y-83596774D01*
X131167204Y-83596772D01*
X130943105Y-83503948D01*
X130943104Y-83503947D01*
X130943100Y-83503946D01*
X130708789Y-83441162D01*
X130708786Y-83441161D01*
X130708784Y-83441161D01*
X130468289Y-83409500D01*
X130468288Y-83409500D01*
X130225712Y-83409500D01*
X130225710Y-83409500D01*
X129985218Y-83441161D01*
X129985213Y-83441161D01*
X129750907Y-83503944D01*
X129750894Y-83503948D01*
X129526795Y-83596772D01*
X129316707Y-83718066D01*
X129124268Y-83865729D01*
X128952729Y-84037268D01*
X128805066Y-84229707D01*
X128742395Y-84338257D01*
X128685579Y-84436666D01*
X128683772Y-84439795D01*
X128590948Y-84663894D01*
X128590944Y-84663907D01*
X128528161Y-84898213D01*
X128528161Y-84898218D01*
X128496500Y-85138710D01*
X126328879Y-85138710D01*
X126175449Y-84960419D01*
X126173315Y-84957852D01*
X125446510Y-84053277D01*
X125444463Y-84050639D01*
X124748587Y-83122076D01*
X124746629Y-83119370D01*
X124674196Y-83015600D01*
X124082441Y-82167829D01*
X124080587Y-82165075D01*
X124067541Y-82144973D01*
X123737330Y-81636157D01*
X123448879Y-81191688D01*
X123447109Y-81188857D01*
X122979097Y-80411490D01*
X122848590Y-80194719D01*
X122846920Y-80191835D01*
X122282286Y-79178103D01*
X122280710Y-79175159D01*
X122119886Y-78862019D01*
X121750563Y-78142912D01*
X121749090Y-78139919D01*
X121728421Y-78096098D01*
X121254058Y-77090378D01*
X121252711Y-77087390D01*
X120901918Y-76273593D01*
X120793363Y-76021758D01*
X120792093Y-76018669D01*
X120368959Y-74938181D01*
X120367794Y-74935052D01*
X120043349Y-74016466D01*
X119981332Y-73840882D01*
X119980280Y-73837734D01*
X119976228Y-73824900D01*
X119630945Y-72731163D01*
X119629999Y-72727980D01*
X119600695Y-72622938D01*
X119318174Y-71610218D01*
X119317338Y-71607013D01*
X119317330Y-71606982D01*
X119043393Y-70479382D01*
X119042666Y-70476147D01*
X118997526Y-70258595D01*
X118806915Y-69339953D01*
X118806304Y-69336743D01*
X118608993Y-68193158D01*
X118608486Y-68189887D01*
X118608278Y-68188380D01*
X118449862Y-67040337D01*
X118449466Y-67037049D01*
X118329708Y-65882849D01*
X118329426Y-65879592D01*
X118248657Y-64721913D01*
X118248486Y-64718667D01*
X118206811Y-63558971D01*
X118206748Y-63555656D01*
X118206732Y-63548297D01*
X118204209Y-62395214D01*
X118204257Y-62391952D01*
X118240860Y-61232038D01*
X118241017Y-61228792D01*
X118316716Y-60070830D01*
X118316990Y-60067508D01*
X118322116Y-60015907D01*
X118431700Y-58912757D01*
X118432077Y-58909524D01*
X118585672Y-57759266D01*
X118586167Y-57755988D01*
X118592174Y-57720240D01*
X118778463Y-56611608D01*
X118779061Y-56608384D01*
X119009850Y-55471114D01*
X119010554Y-55467919D01*
X119216958Y-54601808D01*
X121300600Y-54601808D01*
X121300600Y-75856008D01*
X121300600Y-75987792D01*
X121326273Y-76083604D01*
X121334709Y-76115090D01*
X121400596Y-76229209D01*
X121400598Y-76229211D01*
X121400600Y-76229214D01*
X126068505Y-80897119D01*
X126096281Y-80951634D01*
X126097500Y-80967121D01*
X126097500Y-81860008D01*
X126097500Y-81991792D01*
X126124316Y-82091873D01*
X126131609Y-82119090D01*
X126197496Y-82233209D01*
X126197497Y-82233210D01*
X126197498Y-82233211D01*
X126197500Y-82233214D01*
X127235200Y-83270914D01*
X127235199Y-83270914D01*
X127328385Y-83364099D01*
X127328386Y-83364100D01*
X127407021Y-83409500D01*
X127442514Y-83429992D01*
X127569807Y-83464100D01*
X127569808Y-83464100D01*
X127569809Y-83464100D01*
X128768190Y-83464100D01*
X128768192Y-83464100D01*
X128895486Y-83429992D01*
X128895488Y-83429990D01*
X128895490Y-83429990D01*
X129009609Y-83364103D01*
X129009609Y-83364102D01*
X129009614Y-83364100D01*
X129201557Y-83172157D01*
X129268019Y-83105696D01*
X129322535Y-83077919D01*
X129338022Y-83076700D01*
X131808478Y-83076700D01*
X131866669Y-83095607D01*
X131878482Y-83105696D01*
X134949186Y-86176400D01*
X134949188Y-86176401D01*
X134949189Y-86176402D01*
X134949190Y-86176403D01*
X135063310Y-86242290D01*
X135063308Y-86242290D01*
X135063312Y-86242291D01*
X135063314Y-86242292D01*
X135190607Y-86276400D01*
X135190608Y-86276400D01*
X135190609Y-86276400D01*
X136314490Y-86276400D01*
X136314492Y-86276400D01*
X136441786Y-86242292D01*
X136441788Y-86242290D01*
X136441790Y-86242290D01*
X136555909Y-86176403D01*
X136555909Y-86176402D01*
X136555914Y-86176400D01*
X137665899Y-85066415D01*
X137678317Y-85044908D01*
X137731792Y-84952286D01*
X137755463Y-84863944D01*
X137765900Y-84824993D01*
X137765900Y-84693208D01*
X137765900Y-83081650D01*
X137784807Y-83023459D01*
X137809899Y-82999334D01*
X137822972Y-82990599D01*
X137871308Y-82958302D01*
X138003702Y-82825908D01*
X138082402Y-82708125D01*
X138107718Y-82670238D01*
X138107719Y-82670234D01*
X138107722Y-82670231D01*
X138179373Y-82497251D01*
X138215900Y-82313616D01*
X138215900Y-82126384D01*
X138179373Y-81942749D01*
X138107722Y-81769769D01*
X138107720Y-81769767D01*
X138107718Y-81769761D01*
X138018445Y-81636157D01*
X138003702Y-81614092D01*
X137871308Y-81481698D01*
X137812556Y-81442441D01*
X137715638Y-81377681D01*
X137715629Y-81377677D01*
X137542649Y-81306026D01*
X137359018Y-81269500D01*
X137359016Y-81269500D01*
X137171784Y-81269500D01*
X137171781Y-81269500D01*
X136988150Y-81306026D01*
X136815165Y-81377679D01*
X136810880Y-81379970D01*
X136809786Y-81377924D01*
X136759542Y-81392056D01*
X136702154Y-81370837D01*
X136668198Y-81319939D01*
X136664500Y-81293135D01*
X136664500Y-71637624D01*
X136683407Y-71579433D01*
X136718555Y-71549414D01*
X136791994Y-71511996D01*
X136938501Y-71405553D01*
X137066553Y-71277501D01*
X137172996Y-71130994D01*
X137255211Y-70969639D01*
X137311171Y-70797409D01*
X137339500Y-70618546D01*
X137339500Y-70437454D01*
X137339500Y-70437450D01*
X137320614Y-70318212D01*
X137311171Y-70258591D01*
X137255211Y-70086361D01*
X137172996Y-69925006D01*
X137066553Y-69778499D01*
X136938501Y-69650447D01*
X136791994Y-69544004D01*
X136791993Y-69544003D01*
X136791991Y-69544002D01*
X136630637Y-69461788D01*
X136458406Y-69405828D01*
X136279549Y-69377500D01*
X136279546Y-69377500D01*
X136098454Y-69377500D01*
X136098451Y-69377500D01*
X135919593Y-69405828D01*
X135747362Y-69461788D01*
X135586008Y-69544002D01*
X135537473Y-69579265D01*
X135439499Y-69650447D01*
X135311447Y-69778499D01*
X135277282Y-69825523D01*
X135205002Y-69925008D01*
X135122788Y-70086362D01*
X135066828Y-70258593D01*
X135038500Y-70437450D01*
X135038500Y-70618549D01*
X135066828Y-70797406D01*
X135122788Y-70969637D01*
X135202039Y-71125176D01*
X135205004Y-71130994D01*
X135311447Y-71277501D01*
X135439499Y-71405553D01*
X135586006Y-71511996D01*
X135659444Y-71549414D01*
X135702709Y-71592678D01*
X135713500Y-71637624D01*
X135713500Y-83929569D01*
X135694593Y-83987760D01*
X135645093Y-84023724D01*
X135633814Y-84026667D01*
X135523056Y-84048699D01*
X135523055Y-84048699D01*
X135523052Y-84048700D01*
X135404674Y-84097734D01*
X135404666Y-84097738D01*
X135298131Y-84168924D01*
X135298127Y-84168927D01*
X135207527Y-84259527D01*
X135207524Y-84259531D01*
X135136338Y-84366066D01*
X135136334Y-84366074D01*
X135087300Y-84484452D01*
X135087299Y-84484455D01*
X135087299Y-84484456D01*
X135082404Y-84509063D01*
X135062300Y-84610130D01*
X135062300Y-84634878D01*
X135043393Y-84693069D01*
X134993893Y-84729033D01*
X134932707Y-84729033D01*
X134893296Y-84704882D01*
X133629575Y-83441161D01*
X132364114Y-82175700D01*
X132364111Y-82175698D01*
X132364110Y-82175697D01*
X132364109Y-82175696D01*
X132249989Y-82109809D01*
X132249991Y-82109809D01*
X132200599Y-82096575D01*
X132122692Y-82075700D01*
X129155592Y-82075700D01*
X129023807Y-82075700D01*
X128904773Y-82107595D01*
X128904772Y-82107594D01*
X128896514Y-82109808D01*
X128848874Y-82137313D01*
X128789026Y-82150034D01*
X128733130Y-82125147D01*
X128702537Y-82072159D01*
X128707261Y-82020774D01*
X128705689Y-82020297D01*
X128707095Y-82015658D01*
X128707101Y-82015644D01*
X128732100Y-81889969D01*
X128732100Y-81761831D01*
X128707101Y-81636156D01*
X128658065Y-81517773D01*
X128658063Y-81517770D01*
X128658061Y-81517766D01*
X128619211Y-81459624D01*
X128586876Y-81411231D01*
X128586096Y-81410451D01*
X128585867Y-81410002D01*
X128583783Y-81407462D01*
X128584340Y-81407004D01*
X128558319Y-81355934D01*
X128557100Y-81340447D01*
X128557100Y-79627201D01*
X128557100Y-79627199D01*
X128524695Y-79506264D01*
X128462095Y-79397836D01*
X128423792Y-79359533D01*
X128373564Y-79309304D01*
X128373564Y-79309305D01*
X127834896Y-78770637D01*
X127807119Y-78716120D01*
X127805900Y-78700633D01*
X127805900Y-76940515D01*
X133079500Y-76940515D01*
X133079500Y-77129484D01*
X133109058Y-77316113D01*
X133167453Y-77495832D01*
X133243189Y-77644474D01*
X133253240Y-77664199D01*
X133364310Y-77817073D01*
X133497927Y-77950690D01*
X133650801Y-78061760D01*
X133819168Y-78147547D01*
X133923187Y-78181345D01*
X133972687Y-78217309D01*
X133991594Y-78275500D01*
X133972687Y-78333691D01*
X133923186Y-78369655D01*
X133892594Y-78374500D01*
X133396740Y-78374500D01*
X133362673Y-78379463D01*
X133328604Y-78384427D01*
X133223518Y-78435801D01*
X133140801Y-78518518D01*
X133089427Y-78623604D01*
X133089427Y-78623607D01*
X133079500Y-78691740D01*
X133079500Y-80458260D01*
X133086118Y-80503682D01*
X133089427Y-80526395D01*
X133116730Y-80582243D01*
X133140802Y-80631483D01*
X133223517Y-80714198D01*
X133277285Y-80740483D01*
X133328604Y-80765572D01*
X133328605Y-80765572D01*
X133328607Y-80765573D01*
X133396740Y-80775500D01*
X133396743Y-80775500D01*
X135163257Y-80775500D01*
X135163260Y-80775500D01*
X135231393Y-80765573D01*
X135336483Y-80714198D01*
X135419198Y-80631483D01*
X135470573Y-80526393D01*
X135480500Y-80458260D01*
X135480500Y-78691740D01*
X135470573Y-78623607D01*
X135465155Y-78612525D01*
X135431848Y-78544393D01*
X135419198Y-78518517D01*
X135336483Y-78435802D01*
X135336481Y-78435801D01*
X135231395Y-78384427D01*
X135204139Y-78380456D01*
X135163260Y-78374500D01*
X134667406Y-78374500D01*
X134609215Y-78355593D01*
X134573251Y-78306093D01*
X134573251Y-78244907D01*
X134609215Y-78195407D01*
X134636813Y-78181345D01*
X134740832Y-78147547D01*
X134909199Y-78061760D01*
X135062073Y-77950690D01*
X135195690Y-77817073D01*
X135306760Y-77664199D01*
X135392547Y-77495832D01*
X135450940Y-77316118D01*
X135461384Y-77250178D01*
X135480500Y-77129484D01*
X135480500Y-76940515D01*
X135450941Y-76753886D01*
X135450940Y-76753882D01*
X135392547Y-76574168D01*
X135306760Y-76405801D01*
X135195690Y-76252927D01*
X135062073Y-76119310D01*
X134909199Y-76008240D01*
X134909198Y-76008239D01*
X134909196Y-76008238D01*
X134740832Y-75922453D01*
X134561113Y-75864058D01*
X134374484Y-75834500D01*
X134374481Y-75834500D01*
X134185519Y-75834500D01*
X134185516Y-75834500D01*
X133998886Y-75864058D01*
X133819167Y-75922453D01*
X133650803Y-76008238D01*
X133497928Y-76119309D01*
X133364309Y-76252928D01*
X133253238Y-76405803D01*
X133167453Y-76574167D01*
X133109058Y-76753886D01*
X133079500Y-76940515D01*
X127805900Y-76940515D01*
X127805900Y-71589970D01*
X127824807Y-71531779D01*
X127874307Y-71495815D01*
X127935493Y-71495815D01*
X127963094Y-71509880D01*
X127966006Y-71511996D01*
X128127361Y-71594211D01*
X128299591Y-71650171D01*
X128370198Y-71661354D01*
X128478451Y-71678500D01*
X128478454Y-71678500D01*
X128659549Y-71678500D01*
X128766899Y-71661497D01*
X128838409Y-71650171D01*
X129010639Y-71594211D01*
X129171994Y-71511996D01*
X129318501Y-71405553D01*
X129446553Y-71277501D01*
X129552996Y-71130994D01*
X129635211Y-70969639D01*
X129691171Y-70797409D01*
X129719500Y-70618546D01*
X129719500Y-70437454D01*
X129719500Y-70437450D01*
X129958500Y-70437450D01*
X129958500Y-70618549D01*
X129986828Y-70797406D01*
X130042788Y-70969637D01*
X130122039Y-71125176D01*
X130125004Y-71130994D01*
X130231447Y-71277501D01*
X130359499Y-71405553D01*
X130506006Y-71511996D01*
X130667361Y-71594211D01*
X130839591Y-71650171D01*
X130910198Y-71661354D01*
X131018451Y-71678500D01*
X131018454Y-71678500D01*
X131199549Y-71678500D01*
X131306899Y-71661497D01*
X131378409Y-71650171D01*
X131550639Y-71594211D01*
X131711994Y-71511996D01*
X131858501Y-71405553D01*
X131986553Y-71277501D01*
X132092996Y-71130994D01*
X132175211Y-70969639D01*
X132231171Y-70797409D01*
X132259500Y-70618546D01*
X132259500Y-70437454D01*
X132259500Y-70437450D01*
X132498500Y-70437450D01*
X132498500Y-70618549D01*
X132526828Y-70797406D01*
X132582788Y-70969637D01*
X132662039Y-71125176D01*
X132665004Y-71130994D01*
X132771447Y-71277501D01*
X132899499Y-71405553D01*
X133046006Y-71511996D01*
X133207361Y-71594211D01*
X133379591Y-71650171D01*
X133450198Y-71661354D01*
X133558451Y-71678500D01*
X133558454Y-71678500D01*
X133739549Y-71678500D01*
X133846899Y-71661497D01*
X133918409Y-71650171D01*
X134090639Y-71594211D01*
X134251994Y-71511996D01*
X134398501Y-71405553D01*
X134526553Y-71277501D01*
X134632996Y-71130994D01*
X134715211Y-70969639D01*
X134771171Y-70797409D01*
X134799500Y-70618546D01*
X134799500Y-70437454D01*
X134799500Y-70437450D01*
X134780614Y-70318212D01*
X134771171Y-70258591D01*
X134715211Y-70086361D01*
X134632996Y-69925006D01*
X134526553Y-69778499D01*
X134398501Y-69650447D01*
X134251994Y-69544004D01*
X134251993Y-69544003D01*
X134251991Y-69544002D01*
X134090637Y-69461788D01*
X133918406Y-69405828D01*
X133739549Y-69377500D01*
X133739546Y-69377500D01*
X133558454Y-69377500D01*
X133558451Y-69377500D01*
X133379593Y-69405828D01*
X133207362Y-69461788D01*
X133046008Y-69544002D01*
X132997473Y-69579265D01*
X132899499Y-69650447D01*
X132771447Y-69778499D01*
X132737282Y-69825523D01*
X132665002Y-69925008D01*
X132582788Y-70086362D01*
X132526828Y-70258593D01*
X132498500Y-70437450D01*
X132259500Y-70437450D01*
X132240614Y-70318212D01*
X132231171Y-70258591D01*
X132175211Y-70086361D01*
X132092996Y-69925006D01*
X131986553Y-69778499D01*
X131858501Y-69650447D01*
X131711994Y-69544004D01*
X131711993Y-69544003D01*
X131711991Y-69544002D01*
X131550637Y-69461788D01*
X131378406Y-69405828D01*
X131199549Y-69377500D01*
X131199546Y-69377500D01*
X131018454Y-69377500D01*
X131018451Y-69377500D01*
X130839593Y-69405828D01*
X130667362Y-69461788D01*
X130506008Y-69544002D01*
X130457473Y-69579265D01*
X130359499Y-69650447D01*
X130231447Y-69778499D01*
X130197282Y-69825523D01*
X130125002Y-69925008D01*
X130042788Y-70086362D01*
X129986828Y-70258593D01*
X129958500Y-70437450D01*
X129719500Y-70437450D01*
X129700614Y-70318212D01*
X129691171Y-70258591D01*
X129635211Y-70086361D01*
X129552996Y-69925006D01*
X129446553Y-69778499D01*
X129318501Y-69650447D01*
X129171994Y-69544004D01*
X129171993Y-69544003D01*
X129171991Y-69544002D01*
X129010637Y-69461788D01*
X128838406Y-69405828D01*
X128659549Y-69377500D01*
X128659546Y-69377500D01*
X128478454Y-69377500D01*
X128478451Y-69377500D01*
X128299593Y-69405828D01*
X128127362Y-69461788D01*
X127966006Y-69544003D01*
X127963088Y-69546124D01*
X127904897Y-69565029D01*
X127846707Y-69546120D01*
X127810744Y-69496619D01*
X127805900Y-69466029D01*
X127805900Y-68378125D01*
X127824807Y-68319934D01*
X127874307Y-68283970D01*
X127935493Y-68283970D01*
X127949837Y-68289911D01*
X128104168Y-68368547D01*
X128283882Y-68426940D01*
X128283883Y-68426940D01*
X128283886Y-68426941D01*
X128470516Y-68456500D01*
X128470519Y-68456500D01*
X128659484Y-68456500D01*
X128846113Y-68426941D01*
X128846114Y-68426940D01*
X128846118Y-68426940D01*
X129025832Y-68368547D01*
X129194199Y-68282760D01*
X129347073Y-68171690D01*
X129480690Y-68038073D01*
X129591760Y-67885199D01*
X129677547Y-67716832D01*
X129735940Y-67537118D01*
X129735941Y-67537113D01*
X129737219Y-67529046D01*
X129764996Y-67474529D01*
X129819512Y-67446751D01*
X129879944Y-67456322D01*
X129923209Y-67499586D01*
X129932781Y-67529046D01*
X129934058Y-67537113D01*
X129992453Y-67716832D01*
X130056856Y-67843232D01*
X130078240Y-67885199D01*
X130189310Y-68038073D01*
X130322927Y-68171690D01*
X130475801Y-68282760D01*
X130644168Y-68368547D01*
X130823882Y-68426940D01*
X130823883Y-68426940D01*
X130823886Y-68426941D01*
X131010516Y-68456500D01*
X131010519Y-68456500D01*
X131199484Y-68456500D01*
X131386113Y-68426941D01*
X131386114Y-68426940D01*
X131386118Y-68426940D01*
X131565832Y-68368547D01*
X131734199Y-68282760D01*
X131887073Y-68171690D01*
X132020690Y-68038073D01*
X132131760Y-67885199D01*
X132217547Y-67716832D01*
X132275940Y-67537118D01*
X132275941Y-67537113D01*
X132277219Y-67529046D01*
X132304996Y-67474529D01*
X132359512Y-67446751D01*
X132419944Y-67456322D01*
X132463209Y-67499586D01*
X132472781Y-67529046D01*
X132474058Y-67537113D01*
X132532453Y-67716832D01*
X132596856Y-67843232D01*
X132618240Y-67885199D01*
X132729310Y-68038073D01*
X132862927Y-68171690D01*
X133015801Y-68282760D01*
X133184168Y-68368547D01*
X133363882Y-68426940D01*
X133363883Y-68426940D01*
X133363886Y-68426941D01*
X133550516Y-68456500D01*
X133550519Y-68456500D01*
X133739484Y-68456500D01*
X133926113Y-68426941D01*
X133926114Y-68426940D01*
X133926118Y-68426940D01*
X134105832Y-68368547D01*
X134274199Y-68282760D01*
X134427073Y-68171690D01*
X134560690Y-68038073D01*
X134671760Y-67885199D01*
X134757547Y-67716832D01*
X134815940Y-67537118D01*
X134815941Y-67537113D01*
X134817219Y-67529046D01*
X134844996Y-67474529D01*
X134899512Y-67446751D01*
X134959944Y-67456322D01*
X135003209Y-67499586D01*
X135012781Y-67529046D01*
X135014058Y-67537113D01*
X135072453Y-67716832D01*
X135136856Y-67843232D01*
X135158240Y-67885199D01*
X135269310Y-68038073D01*
X135402927Y-68171690D01*
X135555801Y-68282760D01*
X135724168Y-68368547D01*
X135903882Y-68426940D01*
X135903883Y-68426940D01*
X135903886Y-68426941D01*
X136090516Y-68456500D01*
X136090519Y-68456500D01*
X136279484Y-68456500D01*
X136466113Y-68426941D01*
X136466114Y-68426940D01*
X136466118Y-68426940D01*
X136645832Y-68368547D01*
X136814199Y-68282760D01*
X136967073Y-68171690D01*
X137100690Y-68038073D01*
X137211760Y-67885199D01*
X137297547Y-67716832D01*
X137355940Y-67537118D01*
X137355941Y-67537113D01*
X137357219Y-67529046D01*
X137384996Y-67474529D01*
X137439512Y-67446751D01*
X137499944Y-67456322D01*
X137543209Y-67499586D01*
X137552781Y-67529046D01*
X137554058Y-67537113D01*
X137612453Y-67716832D01*
X137676856Y-67843232D01*
X137698240Y-67885199D01*
X137809310Y-68038073D01*
X137942927Y-68171690D01*
X138095801Y-68282760D01*
X138264168Y-68368547D01*
X138443882Y-68426940D01*
X138443883Y-68426940D01*
X138443886Y-68426941D01*
X138630516Y-68456500D01*
X138630519Y-68456500D01*
X138819484Y-68456500D01*
X139006113Y-68426941D01*
X139006114Y-68426940D01*
X139006118Y-68426940D01*
X139185832Y-68368547D01*
X139354199Y-68282760D01*
X139507073Y-68171690D01*
X139596499Y-68082263D01*
X139651013Y-68054487D01*
X139711446Y-68064058D01*
X139736505Y-68082264D01*
X140138003Y-68483761D01*
X140537403Y-68883161D01*
X140537405Y-68883164D01*
X140625936Y-68971695D01*
X140683112Y-69004705D01*
X140734364Y-69034295D01*
X140754719Y-69039748D01*
X140763448Y-69044050D01*
X140772659Y-69053017D01*
X140789694Y-69062852D01*
X140985798Y-69258957D01*
X141013575Y-69313473D01*
X141004004Y-69373905D01*
X140960739Y-69417170D01*
X140946387Y-69423115D01*
X140827360Y-69461789D01*
X140666008Y-69544002D01*
X140617473Y-69579265D01*
X140519499Y-69650447D01*
X140391447Y-69778499D01*
X140357282Y-69825523D01*
X140285002Y-69925008D01*
X140202788Y-70086362D01*
X140146828Y-70258593D01*
X140118500Y-70437450D01*
X140118500Y-70618549D01*
X140146828Y-70797406D01*
X140188938Y-70927010D01*
X140190409Y-70983226D01*
X140164264Y-71080796D01*
X140130940Y-71132110D01*
X140073818Y-71154036D01*
X140014718Y-71138200D01*
X139998639Y-71125180D01*
X139959964Y-71086505D01*
X139959961Y-71086503D01*
X139849852Y-70976394D01*
X139822075Y-70921877D01*
X139825701Y-70875797D01*
X139851171Y-70797409D01*
X139879500Y-70618546D01*
X139879500Y-70437454D01*
X139879500Y-70437450D01*
X139860614Y-70318212D01*
X139851171Y-70258591D01*
X139795211Y-70086361D01*
X139712996Y-69925006D01*
X139606553Y-69778499D01*
X139478501Y-69650447D01*
X139331994Y-69544004D01*
X139331993Y-69544003D01*
X139331991Y-69544002D01*
X139170637Y-69461788D01*
X138998406Y-69405828D01*
X138819549Y-69377500D01*
X138819546Y-69377500D01*
X138638454Y-69377500D01*
X138638451Y-69377500D01*
X138459593Y-69405828D01*
X138287362Y-69461788D01*
X138126008Y-69544002D01*
X138077473Y-69579265D01*
X137979499Y-69650447D01*
X137851447Y-69778499D01*
X137817282Y-69825523D01*
X137745002Y-69925008D01*
X137662788Y-70086362D01*
X137606828Y-70258593D01*
X137578500Y-70437450D01*
X137578500Y-70618549D01*
X137606828Y-70797406D01*
X137662788Y-70969637D01*
X137742039Y-71125176D01*
X137745004Y-71130994D01*
X137851447Y-71277501D01*
X137979499Y-71405553D01*
X138126006Y-71511996D01*
X138287361Y-71594211D01*
X138459591Y-71650171D01*
X138530198Y-71661354D01*
X138638451Y-71678500D01*
X138638454Y-71678500D01*
X138819549Y-71678500D01*
X138998404Y-71650172D01*
X138998405Y-71650171D01*
X138998409Y-71650171D01*
X139062909Y-71629214D01*
X139124093Y-71629214D01*
X139173593Y-71665178D01*
X139192500Y-71723369D01*
X139192500Y-76205358D01*
X139173593Y-76263549D01*
X139124093Y-76299513D01*
X139062907Y-76299513D01*
X139013408Y-76263550D01*
X139005691Y-76252929D01*
X139005690Y-76252927D01*
X138872073Y-76119310D01*
X138719199Y-76008240D01*
X138719198Y-76008239D01*
X138719196Y-76008238D01*
X138550832Y-75922453D01*
X138371113Y-75864058D01*
X138184484Y-75834500D01*
X138184481Y-75834500D01*
X137995519Y-75834500D01*
X137995516Y-75834500D01*
X137808886Y-75864058D01*
X137629167Y-75922453D01*
X137460803Y-76008238D01*
X137307928Y-76119309D01*
X137174309Y-76252928D01*
X137063238Y-76405803D01*
X136977453Y-76574167D01*
X136919058Y-76753886D01*
X136889500Y-76940515D01*
X136889500Y-77129484D01*
X136919058Y-77316113D01*
X136977453Y-77495832D01*
X137053189Y-77644474D01*
X137063240Y-77664199D01*
X137174310Y-77817073D01*
X137307927Y-77950690D01*
X137460801Y-78061760D01*
X137629168Y-78147547D01*
X137733187Y-78181345D01*
X137782687Y-78217309D01*
X137801594Y-78275500D01*
X137782687Y-78333691D01*
X137733186Y-78369655D01*
X137702594Y-78374500D01*
X137206740Y-78374500D01*
X137172673Y-78379463D01*
X137138604Y-78384427D01*
X137033518Y-78435801D01*
X136950801Y-78518518D01*
X136899427Y-78623604D01*
X136899427Y-78623607D01*
X136889500Y-78691740D01*
X136889500Y-80458260D01*
X136896118Y-80503682D01*
X136899427Y-80526395D01*
X136926730Y-80582243D01*
X136950802Y-80631483D01*
X137033517Y-80714198D01*
X137087285Y-80740483D01*
X137138604Y-80765572D01*
X137138605Y-80765572D01*
X137138607Y-80765573D01*
X137206740Y-80775500D01*
X137206743Y-80775500D01*
X138973257Y-80775500D01*
X138973260Y-80775500D01*
X139041393Y-80765573D01*
X139050017Y-80761356D01*
X139110597Y-80752783D01*
X139164648Y-80781456D01*
X139191523Y-80836423D01*
X139192500Y-80850296D01*
X139192500Y-87095447D01*
X139173593Y-87153638D01*
X139163504Y-87165451D01*
X139162727Y-87166227D01*
X139162724Y-87166231D01*
X139091538Y-87272766D01*
X139091534Y-87272774D01*
X139042500Y-87391152D01*
X139042499Y-87391157D01*
X139019712Y-87505713D01*
X139017500Y-87516831D01*
X139017500Y-87644969D01*
X139026232Y-87688869D01*
X139042499Y-87770642D01*
X139042500Y-87770647D01*
X139091534Y-87889025D01*
X139091538Y-87889033D01*
X139109685Y-87916191D01*
X139162724Y-87995569D01*
X139253331Y-88086176D01*
X139316848Y-88128617D01*
X139359866Y-88157361D01*
X139359870Y-88157363D01*
X139359873Y-88157365D01*
X139478256Y-88206401D01*
X139603931Y-88231400D01*
X139603932Y-88231400D01*
X139732068Y-88231400D01*
X139732069Y-88231400D01*
X139857744Y-88206401D01*
X139976127Y-88157365D01*
X140082669Y-88086176D01*
X140173276Y-87995569D01*
X140244465Y-87889027D01*
X140293501Y-87770644D01*
X140318500Y-87644969D01*
X140318500Y-87516831D01*
X140293501Y-87391156D01*
X140244465Y-87272773D01*
X140244463Y-87272770D01*
X140244461Y-87272766D01*
X140176273Y-87170717D01*
X140173276Y-87166231D01*
X140172496Y-87165451D01*
X140172267Y-87165002D01*
X140170183Y-87162462D01*
X140170740Y-87162004D01*
X140144719Y-87110934D01*
X140143500Y-87095447D01*
X140143500Y-84436666D01*
X140162407Y-84378475D01*
X140211907Y-84342511D01*
X140273093Y-84342511D01*
X140312501Y-84366660D01*
X141049605Y-85103764D01*
X141077381Y-85158279D01*
X141078600Y-85173766D01*
X141078600Y-85174869D01*
X141102025Y-85292633D01*
X141103599Y-85300542D01*
X141103600Y-85300547D01*
X141152634Y-85418925D01*
X141152638Y-85418933D01*
X141168582Y-85442794D01*
X141223824Y-85525469D01*
X141314431Y-85616076D01*
X141377948Y-85658517D01*
X141420966Y-85687261D01*
X141420970Y-85687263D01*
X141420973Y-85687265D01*
X141539356Y-85736301D01*
X141665031Y-85761300D01*
X141665032Y-85761300D01*
X141793168Y-85761300D01*
X141793169Y-85761300D01*
X141918844Y-85736301D01*
X142037227Y-85687265D01*
X142143769Y-85616076D01*
X142234376Y-85525469D01*
X142305565Y-85418927D01*
X142354601Y-85300544D01*
X142379600Y-85174869D01*
X142379600Y-85046731D01*
X142354601Y-84921056D01*
X142305565Y-84802673D01*
X142305563Y-84802670D01*
X142305561Y-84802666D01*
X142263751Y-84740094D01*
X142234376Y-84696131D01*
X142143769Y-84605524D01*
X142101326Y-84577165D01*
X142037233Y-84534338D01*
X142037225Y-84534334D01*
X141918847Y-84485300D01*
X141918845Y-84485299D01*
X141918844Y-84485299D01*
X141793169Y-84460300D01*
X141792067Y-84460300D01*
X141791588Y-84460144D01*
X141788333Y-84459824D01*
X141788403Y-84459109D01*
X141733876Y-84441393D01*
X141722063Y-84431304D01*
X141139196Y-83848437D01*
X141111419Y-83793920D01*
X141110200Y-83778433D01*
X141110200Y-80874500D01*
X141129107Y-80816309D01*
X141178607Y-80780345D01*
X141209200Y-80775500D01*
X142783257Y-80775500D01*
X142783260Y-80775500D01*
X142851393Y-80765573D01*
X142956483Y-80714198D01*
X143039198Y-80631483D01*
X143090573Y-80526393D01*
X143100500Y-80458260D01*
X143100500Y-78691740D01*
X143090573Y-78623607D01*
X143085155Y-78612525D01*
X143051848Y-78544393D01*
X143039198Y-78518517D01*
X142956483Y-78435802D01*
X142956481Y-78435801D01*
X142851395Y-78384427D01*
X142824139Y-78380456D01*
X142783260Y-78374500D01*
X142783257Y-78374500D01*
X142287406Y-78374500D01*
X142229215Y-78355593D01*
X142193251Y-78306093D01*
X142193251Y-78244907D01*
X142229215Y-78195407D01*
X142256813Y-78181345D01*
X142360832Y-78147547D01*
X142529199Y-78061760D01*
X142682073Y-77950690D01*
X142815690Y-77817073D01*
X142926760Y-77664199D01*
X143012547Y-77495832D01*
X143070940Y-77316118D01*
X143081384Y-77250178D01*
X143100500Y-77129484D01*
X143100500Y-76940515D01*
X143070941Y-76753886D01*
X143070940Y-76753882D01*
X143012547Y-76574168D01*
X142957660Y-76466445D01*
X142948089Y-76406013D01*
X142975867Y-76351496D01*
X143030383Y-76323719D01*
X143045870Y-76322500D01*
X143125568Y-76322500D01*
X143125569Y-76322500D01*
X143129753Y-76321667D01*
X143215185Y-76304674D01*
X143275946Y-76311864D01*
X143320876Y-76353396D01*
X143333500Y-76401771D01*
X143333500Y-81526367D01*
X143314593Y-81584558D01*
X143265093Y-81620522D01*
X143203907Y-81620522D01*
X143154407Y-81584558D01*
X143152186Y-81581370D01*
X143138304Y-81560595D01*
X143138302Y-81560592D01*
X143005908Y-81428198D01*
X142951818Y-81392056D01*
X142850238Y-81324181D01*
X142850229Y-81324177D01*
X142677249Y-81252526D01*
X142493618Y-81216000D01*
X142493616Y-81216000D01*
X142306384Y-81216000D01*
X142306381Y-81216000D01*
X142122750Y-81252526D01*
X141949770Y-81324177D01*
X141949761Y-81324181D01*
X141794092Y-81428198D01*
X141794088Y-81428201D01*
X141661701Y-81560588D01*
X141661698Y-81560592D01*
X141557681Y-81716261D01*
X141557677Y-81716270D01*
X141486026Y-81889250D01*
X141449500Y-82072881D01*
X141449500Y-82260118D01*
X141486026Y-82443749D01*
X141557677Y-82616729D01*
X141557681Y-82616738D01*
X141632065Y-82728059D01*
X141661698Y-82772408D01*
X141794092Y-82904802D01*
X141857705Y-82947307D01*
X141949761Y-83008818D01*
X141949767Y-83008820D01*
X141949769Y-83008822D01*
X142122749Y-83080473D01*
X142306384Y-83117000D01*
X142306385Y-83117000D01*
X142493615Y-83117000D01*
X142493616Y-83117000D01*
X142677251Y-83080473D01*
X142850231Y-83008822D01*
X142850234Y-83008819D01*
X142850238Y-83008818D01*
X142898663Y-82976461D01*
X143005908Y-82904802D01*
X143138302Y-82772408D01*
X143152185Y-82751629D01*
X143200235Y-82713751D01*
X143261373Y-82711349D01*
X143312247Y-82745342D01*
X143333424Y-82802746D01*
X143333500Y-82806632D01*
X143333500Y-84154499D01*
X143333500Y-84279701D01*
X143365905Y-84400636D01*
X143428505Y-84509064D01*
X143744434Y-84824992D01*
X144023204Y-85103762D01*
X144050981Y-85158279D01*
X144052200Y-85173766D01*
X144052200Y-85174869D01*
X144075625Y-85292633D01*
X144077199Y-85300542D01*
X144077200Y-85300547D01*
X144126234Y-85418925D01*
X144126238Y-85418933D01*
X144142182Y-85442794D01*
X144197424Y-85525469D01*
X144288031Y-85616076D01*
X144351548Y-85658517D01*
X144394566Y-85687261D01*
X144394570Y-85687263D01*
X144394573Y-85687265D01*
X144512956Y-85736301D01*
X144638631Y-85761300D01*
X144638632Y-85761300D01*
X144766768Y-85761300D01*
X144766769Y-85761300D01*
X144892444Y-85736301D01*
X145010827Y-85687265D01*
X145117369Y-85616076D01*
X145207976Y-85525469D01*
X145279165Y-85418927D01*
X145328201Y-85300544D01*
X145353200Y-85174869D01*
X145353200Y-85046731D01*
X145328201Y-84921056D01*
X145279165Y-84802673D01*
X145279163Y-84802670D01*
X145279161Y-84802666D01*
X145237351Y-84740094D01*
X145207976Y-84696131D01*
X145117369Y-84605524D01*
X145074926Y-84577165D01*
X145010833Y-84534338D01*
X145010825Y-84534334D01*
X144892447Y-84485300D01*
X144892445Y-84485299D01*
X144892444Y-84485299D01*
X144766769Y-84460300D01*
X144765665Y-84460300D01*
X144765185Y-84460144D01*
X144761933Y-84459824D01*
X144762003Y-84459110D01*
X144707474Y-84441393D01*
X144695661Y-84431303D01*
X144313496Y-84049137D01*
X144285719Y-83994621D01*
X144284500Y-83979134D01*
X144284500Y-83509333D01*
X144303407Y-83451142D01*
X144352907Y-83415178D01*
X144414093Y-83415178D01*
X144453504Y-83439329D01*
X146236804Y-85222629D01*
X146264581Y-85277146D01*
X146265800Y-85292633D01*
X146265800Y-88296326D01*
X146265800Y-88441274D01*
X146303316Y-88581285D01*
X146375790Y-88706815D01*
X147569817Y-89900842D01*
X147597593Y-89955357D01*
X147588022Y-90015789D01*
X147544757Y-90059054D01*
X147484325Y-90068625D01*
X147458090Y-90059335D01*
X147457837Y-90059947D01*
X147305766Y-89996957D01*
X147305758Y-89996955D01*
X147188361Y-89981500D01*
X146009642Y-89981500D01*
X146009637Y-89981501D01*
X145892241Y-89996955D01*
X145892233Y-89996957D01*
X145746161Y-90057462D01*
X145746160Y-90057462D01*
X145620723Y-90153713D01*
X145620713Y-90153723D01*
X145524462Y-90279160D01*
X145524462Y-90279161D01*
X145463957Y-90425233D01*
X145463955Y-90425241D01*
X145448500Y-90542637D01*
X145448500Y-91721357D01*
X145448501Y-91721362D01*
X145463955Y-91838758D01*
X145463957Y-91838766D01*
X145524462Y-91984838D01*
X145524462Y-91984839D01*
X145620713Y-92110276D01*
X145620718Y-92110282D01*
X145746159Y-92206536D01*
X145746160Y-92206536D01*
X145746161Y-92206537D01*
X145887704Y-92265166D01*
X145892238Y-92267044D01*
X146009639Y-92282500D01*
X147036032Y-92282499D01*
X147094223Y-92301406D01*
X147106036Y-92311495D01*
X147870049Y-93075507D01*
X148615203Y-93820661D01*
X148615205Y-93820664D01*
X148703736Y-93909195D01*
X148812164Y-93971795D01*
X148812166Y-93971795D01*
X148812167Y-93971796D01*
X148872631Y-93987998D01*
X148933096Y-94004200D01*
X148933098Y-94004201D01*
X148933099Y-94004201D01*
X149064364Y-94004201D01*
X149064380Y-94004200D01*
X152372399Y-94004200D01*
X152372401Y-94004200D01*
X152493336Y-93971795D01*
X152601764Y-93909195D01*
X153386095Y-93124864D01*
X153448695Y-93016436D01*
X153471541Y-92931172D01*
X153497160Y-92886797D01*
X154632435Y-91751521D01*
X154686950Y-91723746D01*
X154747382Y-91733317D01*
X154790647Y-91776582D01*
X154800218Y-91837014D01*
X154773500Y-92005709D01*
X154773500Y-92218290D01*
X154806752Y-92428238D01*
X154872443Y-92630412D01*
X154968948Y-92819815D01*
X154968950Y-92819819D01*
X155093891Y-92991786D01*
X155093893Y-92991788D01*
X155093896Y-92991792D01*
X155244208Y-93142104D01*
X155244211Y-93142106D01*
X155244213Y-93142108D01*
X155416180Y-93267049D01*
X155416184Y-93267051D01*
X155605588Y-93363557D01*
X155807757Y-93429246D01*
X155807758Y-93429246D01*
X155807761Y-93429247D01*
X156017710Y-93462500D01*
X156017713Y-93462500D01*
X156230290Y-93462500D01*
X156440238Y-93429247D01*
X156440239Y-93429246D01*
X156440243Y-93429246D01*
X156642412Y-93363557D01*
X156831816Y-93267051D01*
X157003792Y-93142104D01*
X157154104Y-92991792D01*
X157279051Y-92819816D01*
X157375557Y-92630412D01*
X157441246Y-92428243D01*
X157448324Y-92383556D01*
X157474500Y-92218290D01*
X157474500Y-92005709D01*
X157441247Y-91795761D01*
X157441246Y-91795757D01*
X157405431Y-91685535D01*
X157405431Y-91624354D01*
X157429580Y-91584943D01*
X158471886Y-90542637D01*
X165641500Y-90542637D01*
X165641500Y-91721357D01*
X165641501Y-91721362D01*
X165656955Y-91838758D01*
X165656957Y-91838766D01*
X165717462Y-91984838D01*
X165717462Y-91984839D01*
X165813713Y-92110276D01*
X165813718Y-92110282D01*
X165939159Y-92206536D01*
X165939160Y-92206536D01*
X165939161Y-92206537D01*
X166080704Y-92265166D01*
X166085238Y-92267044D01*
X166202639Y-92282500D01*
X167381360Y-92282499D01*
X167498762Y-92267044D01*
X167644841Y-92206536D01*
X167770282Y-92110282D01*
X167866536Y-91984841D01*
X167927044Y-91838762D01*
X167942500Y-91721361D01*
X167942499Y-90542640D01*
X167927044Y-90425238D01*
X167866537Y-90279161D01*
X167866537Y-90279160D01*
X167770286Y-90153723D01*
X167770285Y-90153722D01*
X167770282Y-90153718D01*
X167770277Y-90153714D01*
X167770276Y-90153713D01*
X167644838Y-90057462D01*
X167498766Y-89996957D01*
X167498758Y-89996955D01*
X167381361Y-89981500D01*
X166202642Y-89981500D01*
X166202637Y-89981501D01*
X166085241Y-89996955D01*
X166085233Y-89996957D01*
X165939161Y-90057462D01*
X165939160Y-90057462D01*
X165813723Y-90153713D01*
X165813713Y-90153723D01*
X165717462Y-90279160D01*
X165717462Y-90279161D01*
X165656957Y-90425233D01*
X165656955Y-90425241D01*
X165641500Y-90542637D01*
X158471886Y-90542637D01*
X163875815Y-85138710D01*
X173200500Y-85138710D01*
X173200500Y-85381289D01*
X173232161Y-85621781D01*
X173232161Y-85621786D01*
X173268406Y-85757052D01*
X173290966Y-85841248D01*
X173294944Y-85856092D01*
X173294948Y-85856105D01*
X173387772Y-86080204D01*
X173387774Y-86080208D01*
X173387776Y-86080212D01*
X173509064Y-86290289D01*
X173509066Y-86290292D01*
X173656729Y-86482731D01*
X173656731Y-86482733D01*
X173656735Y-86482738D01*
X173828262Y-86654265D01*
X173828266Y-86654268D01*
X173828268Y-86654270D01*
X174020707Y-86801933D01*
X174020711Y-86801936D01*
X174230788Y-86923224D01*
X174454900Y-87016054D01*
X174689211Y-87078838D01*
X174929712Y-87110500D01*
X174929713Y-87110500D01*
X175172287Y-87110500D01*
X175172288Y-87110500D01*
X175412789Y-87078838D01*
X175647100Y-87016054D01*
X175871212Y-86923224D01*
X176081289Y-86801936D01*
X176273738Y-86654265D01*
X176445265Y-86482738D01*
X176592936Y-86290289D01*
X176714224Y-86080212D01*
X176807054Y-85856100D01*
X176869838Y-85621789D01*
X176901500Y-85381288D01*
X176901500Y-85138712D01*
X176869838Y-84898211D01*
X176807054Y-84663900D01*
X176722227Y-84459109D01*
X176714227Y-84439795D01*
X176714226Y-84439794D01*
X176714224Y-84439788D01*
X176592936Y-84229711D01*
X176570089Y-84199936D01*
X176445270Y-84037268D01*
X176445268Y-84037266D01*
X176445265Y-84037262D01*
X176273738Y-83865735D01*
X176273733Y-83865731D01*
X176273731Y-83865729D01*
X176081292Y-83718066D01*
X176081289Y-83718064D01*
X175871212Y-83596776D01*
X175871208Y-83596774D01*
X175871204Y-83596772D01*
X175647105Y-83503948D01*
X175647104Y-83503947D01*
X175647100Y-83503946D01*
X175412789Y-83441162D01*
X175412786Y-83441161D01*
X175412784Y-83441161D01*
X175172289Y-83409500D01*
X175172288Y-83409500D01*
X174929712Y-83409500D01*
X174929710Y-83409500D01*
X174689218Y-83441161D01*
X174689213Y-83441161D01*
X174454907Y-83503944D01*
X174454894Y-83503948D01*
X174230795Y-83596772D01*
X174020707Y-83718066D01*
X173828268Y-83865729D01*
X173656729Y-84037268D01*
X173509066Y-84229707D01*
X173446395Y-84338257D01*
X173389579Y-84436666D01*
X173387772Y-84439795D01*
X173294948Y-84663894D01*
X173294944Y-84663907D01*
X173232161Y-84898213D01*
X173232161Y-84898218D01*
X173200500Y-85138710D01*
X163875815Y-85138710D01*
X164075910Y-84938615D01*
X164148384Y-84813085D01*
X164168824Y-84736801D01*
X164185900Y-84673075D01*
X164185900Y-76627715D01*
X164202585Y-76572713D01*
X164217502Y-76550388D01*
X164256175Y-76492511D01*
X164308980Y-76365028D01*
X164335900Y-76229693D01*
X164335900Y-76091707D01*
X164308980Y-75956372D01*
X164270743Y-75864060D01*
X164256177Y-75828893D01*
X164256171Y-75828882D01*
X164179514Y-75714158D01*
X164081941Y-75616585D01*
X163967217Y-75539928D01*
X163967206Y-75539922D01*
X163839728Y-75487120D01*
X163704395Y-75460200D01*
X163704393Y-75460200D01*
X163566407Y-75460200D01*
X163566404Y-75460200D01*
X163452814Y-75482795D01*
X163392053Y-75475603D01*
X163347123Y-75434071D01*
X163334500Y-75385697D01*
X163334500Y-71567157D01*
X163353407Y-71508966D01*
X163402907Y-71473002D01*
X163464093Y-71473002D01*
X163491691Y-71487065D01*
X163521835Y-71508966D01*
X163526006Y-71511996D01*
X163687361Y-71594211D01*
X163859591Y-71650171D01*
X163930198Y-71661354D01*
X164038451Y-71678500D01*
X164038454Y-71678500D01*
X164219549Y-71678500D01*
X164326899Y-71661497D01*
X164398409Y-71650171D01*
X164570639Y-71594211D01*
X164731994Y-71511996D01*
X164878501Y-71405553D01*
X165006553Y-71277501D01*
X165112996Y-71130994D01*
X165195211Y-70969639D01*
X165251171Y-70797409D01*
X165279500Y-70618546D01*
X165279500Y-70437454D01*
X165279500Y-70437450D01*
X165260614Y-70318212D01*
X165251171Y-70258591D01*
X165195211Y-70086361D01*
X165112996Y-69925006D01*
X165006553Y-69778499D01*
X164878501Y-69650447D01*
X164731994Y-69544004D01*
X164731993Y-69544003D01*
X164731991Y-69544002D01*
X164570637Y-69461788D01*
X164398406Y-69405828D01*
X164219549Y-69377500D01*
X164219546Y-69377500D01*
X164038454Y-69377500D01*
X164038451Y-69377500D01*
X163859593Y-69405828D01*
X163687362Y-69461788D01*
X163526006Y-69544003D01*
X163526002Y-69544006D01*
X163491690Y-69568935D01*
X163433499Y-69587842D01*
X163375308Y-69568934D01*
X163339345Y-69519433D01*
X163334500Y-69488842D01*
X163334500Y-68631601D01*
X163353407Y-68573410D01*
X163402907Y-68537446D01*
X163452812Y-68534503D01*
X163569931Y-68557800D01*
X163569932Y-68557800D01*
X163698068Y-68557800D01*
X163698069Y-68557800D01*
X163823744Y-68532801D01*
X163942127Y-68483765D01*
X164048669Y-68412576D01*
X164139276Y-68321969D01*
X164210465Y-68215427D01*
X164259501Y-68097044D01*
X164284500Y-67971369D01*
X164284500Y-67843231D01*
X164259501Y-67717556D01*
X164210465Y-67599173D01*
X164210463Y-67599170D01*
X164210461Y-67599166D01*
X164180517Y-67554353D01*
X164139276Y-67492631D01*
X164138496Y-67491851D01*
X164138267Y-67491402D01*
X164136183Y-67488862D01*
X164136740Y-67488404D01*
X164110719Y-67437334D01*
X164109500Y-67421847D01*
X164109500Y-65960967D01*
X164128407Y-65902776D01*
X164138496Y-65890963D01*
X166686663Y-63342796D01*
X166691806Y-63340175D01*
X166694988Y-63335362D01*
X166714949Y-63328383D01*
X166741180Y-63315019D01*
X166752285Y-63313897D01*
X166754474Y-63313800D01*
X166757769Y-63313800D01*
X166758713Y-63313612D01*
X166763118Y-63313417D01*
X166790154Y-63320896D01*
X166817549Y-63326903D01*
X166819401Y-63328986D01*
X166822088Y-63329730D01*
X166839565Y-63351672D01*
X166858197Y-63372634D01*
X166858886Y-63375929D01*
X166860208Y-63377589D01*
X166860469Y-63383497D01*
X166866500Y-63412320D01*
X166866500Y-69278819D01*
X166847593Y-69337010D01*
X166798093Y-69372974D01*
X166763436Y-69377078D01*
X166763436Y-69377500D01*
X166759880Y-69377500D01*
X166759753Y-69377515D01*
X166759562Y-69377500D01*
X166759546Y-69377500D01*
X166578454Y-69377500D01*
X166578451Y-69377500D01*
X166399593Y-69405828D01*
X166227362Y-69461788D01*
X166066008Y-69544002D01*
X166017473Y-69579265D01*
X165919499Y-69650447D01*
X165791447Y-69778499D01*
X165757282Y-69825523D01*
X165685002Y-69925008D01*
X165602788Y-70086362D01*
X165546828Y-70258593D01*
X165518500Y-70437450D01*
X165518500Y-70618549D01*
X165546828Y-70797406D01*
X165602788Y-70969637D01*
X165682039Y-71125176D01*
X165685004Y-71130994D01*
X165791447Y-71277501D01*
X165919499Y-71405553D01*
X166066006Y-71511996D01*
X166227361Y-71594211D01*
X166399591Y-71650171D01*
X166470198Y-71661354D01*
X166578451Y-71678500D01*
X166578454Y-71678500D01*
X166759549Y-71678500D01*
X166866899Y-71661497D01*
X166938409Y-71650171D01*
X167110639Y-71594211D01*
X167271994Y-71511996D01*
X167418501Y-71405553D01*
X167546553Y-71277501D01*
X167652996Y-71130994D01*
X167735211Y-70969639D01*
X167791171Y-70797409D01*
X167819500Y-70618546D01*
X167819500Y-70437454D01*
X167819500Y-70437450D01*
X167791172Y-70258595D01*
X167791171Y-70258591D01*
X167756851Y-70152964D01*
X167756851Y-70091780D01*
X167758720Y-70086537D01*
X167761469Y-70079456D01*
X167785095Y-70038536D01*
X167800924Y-69979463D01*
X167817501Y-69917601D01*
X167817501Y-69792399D01*
X167817501Y-69786337D01*
X167817500Y-69786319D01*
X167817500Y-60096806D01*
X167836407Y-60038615D01*
X167885907Y-60002651D01*
X167947093Y-60002651D01*
X167954386Y-60005342D01*
X168089518Y-60061316D01*
X168253833Y-60094000D01*
X168253834Y-60094000D01*
X168421366Y-60094000D01*
X168421367Y-60094000D01*
X168585682Y-60061316D01*
X168740463Y-59997203D01*
X168879762Y-59904126D01*
X168998226Y-59785662D01*
X169091303Y-59646363D01*
X169155416Y-59491582D01*
X169188100Y-59327267D01*
X169188100Y-59159733D01*
X169155416Y-58995418D01*
X169091303Y-58840637D01*
X168998226Y-58701338D01*
X168879762Y-58582874D01*
X168740463Y-58489797D01*
X168740464Y-58489797D01*
X168740462Y-58489796D01*
X168678959Y-58464321D01*
X168643739Y-58449732D01*
X168597215Y-58409996D01*
X168582931Y-58350502D01*
X168606346Y-58293974D01*
X168643739Y-58266805D01*
X168761031Y-58218222D01*
X168761033Y-58218220D01*
X168761038Y-58218218D01*
X168805987Y-58188182D01*
X168916708Y-58114202D01*
X169049102Y-57981808D01*
X169123082Y-57871087D01*
X169153118Y-57826138D01*
X169153119Y-57826134D01*
X169153122Y-57826131D01*
X169224773Y-57653151D01*
X169261300Y-57469516D01*
X169261300Y-57282284D01*
X169224773Y-57098649D01*
X169153122Y-56925669D01*
X169153120Y-56925667D01*
X169153118Y-56925661D01*
X169066030Y-56795327D01*
X169049102Y-56769992D01*
X168916708Y-56637598D01*
X168862146Y-56601141D01*
X168827619Y-56578070D01*
X168789740Y-56530020D01*
X168787338Y-56468882D01*
X168821331Y-56418008D01*
X168878735Y-56396831D01*
X168913215Y-56401601D01*
X168939591Y-56410171D01*
X169118451Y-56438500D01*
X169118454Y-56438500D01*
X169299549Y-56438500D01*
X169410523Y-56420923D01*
X169478409Y-56410171D01*
X169650639Y-56354211D01*
X169811994Y-56271996D01*
X169820255Y-56265993D01*
X169878441Y-56247083D01*
X169936633Y-56265986D01*
X169972601Y-56315483D01*
X169972606Y-56376668D01*
X169948454Y-56416085D01*
X169914007Y-56450533D01*
X169851405Y-56558963D01*
X169851405Y-56558964D01*
X169819000Y-56679899D01*
X169819000Y-67417499D01*
X169819000Y-67542701D01*
X169843982Y-67635932D01*
X169851406Y-67663638D01*
X169870037Y-67695908D01*
X169883300Y-67745407D01*
X169883300Y-69418782D01*
X169864393Y-69476973D01*
X169814893Y-69512937D01*
X169753707Y-69512937D01*
X169739355Y-69506992D01*
X169650637Y-69461788D01*
X169478406Y-69405828D01*
X169299549Y-69377500D01*
X169299546Y-69377500D01*
X169118454Y-69377500D01*
X169118451Y-69377500D01*
X168939593Y-69405828D01*
X168767362Y-69461788D01*
X168606008Y-69544002D01*
X168557473Y-69579265D01*
X168459499Y-69650447D01*
X168331447Y-69778499D01*
X168297282Y-69825523D01*
X168225002Y-69925008D01*
X168142788Y-70086362D01*
X168086828Y-70258593D01*
X168058500Y-70437450D01*
X168058500Y-70618549D01*
X168086828Y-70797406D01*
X168142788Y-70969637D01*
X168222039Y-71125176D01*
X168225004Y-71130994D01*
X168331447Y-71277501D01*
X168459499Y-71405553D01*
X168606006Y-71511996D01*
X168767361Y-71594211D01*
X168939591Y-71650171D01*
X169010198Y-71661354D01*
X169118451Y-71678500D01*
X169118454Y-71678500D01*
X169299549Y-71678500D01*
X169406899Y-71661497D01*
X169478409Y-71650171D01*
X169650639Y-71594211D01*
X169661294Y-71588781D01*
X169721725Y-71579207D01*
X169776243Y-71606982D01*
X169804023Y-71661497D01*
X169794455Y-71721929D01*
X169776247Y-71746993D01*
X165120436Y-76402805D01*
X165120435Y-76402804D01*
X165031907Y-76491333D01*
X165031905Y-76491335D01*
X165031905Y-76491336D01*
X165031227Y-76492511D01*
X164969305Y-76599763D01*
X164969305Y-76599764D01*
X164936900Y-76720699D01*
X164936900Y-76720701D01*
X164936900Y-77467147D01*
X164917993Y-77525338D01*
X164907904Y-77537151D01*
X164907127Y-77537927D01*
X164907124Y-77537931D01*
X164835938Y-77644466D01*
X164835934Y-77644474D01*
X164786900Y-77762852D01*
X164786899Y-77762857D01*
X164766653Y-77864639D01*
X164761900Y-77888531D01*
X164761900Y-78016669D01*
X164786308Y-78139375D01*
X164786899Y-78142342D01*
X164786900Y-78142347D01*
X164835934Y-78260725D01*
X164835938Y-78260733D01*
X164878765Y-78324826D01*
X164907124Y-78367269D01*
X164997731Y-78457876D01*
X165050165Y-78492911D01*
X165104266Y-78529061D01*
X165104270Y-78529063D01*
X165104273Y-78529065D01*
X165222656Y-78578101D01*
X165348331Y-78603100D01*
X165348332Y-78603100D01*
X165476468Y-78603100D01*
X165476469Y-78603100D01*
X165602144Y-78578101D01*
X165720527Y-78529065D01*
X165732923Y-78520781D01*
X165791810Y-78504172D01*
X165849215Y-78525348D01*
X165876867Y-78559615D01*
X165920799Y-78649479D01*
X165920801Y-78649481D01*
X165920802Y-78649483D01*
X166003517Y-78732198D01*
X166057285Y-78758483D01*
X166108604Y-78783572D01*
X166108605Y-78783572D01*
X166108607Y-78783573D01*
X166176740Y-78793500D01*
X166176748Y-78793500D01*
X166180121Y-78793745D01*
X166236794Y-78816806D01*
X166269088Y-78868774D01*
X166264669Y-78929800D01*
X166242974Y-78962490D01*
X164782284Y-80423180D01*
X164782283Y-80423179D01*
X164670480Y-80534983D01*
X164654728Y-80562267D01*
X164643196Y-80582242D01*
X164627353Y-80609681D01*
X164591424Y-80671911D01*
X164591423Y-80671915D01*
X164550499Y-80824643D01*
X164550499Y-80824645D01*
X164550499Y-80990731D01*
X164550500Y-80990744D01*
X164550500Y-81504513D01*
X164533818Y-81559511D01*
X164530224Y-81564890D01*
X164477420Y-81692370D01*
X164477420Y-81692372D01*
X164450500Y-81827704D01*
X164450500Y-81965695D01*
X164477420Y-82101027D01*
X164477420Y-82101029D01*
X164530222Y-82228506D01*
X164530228Y-82228517D01*
X164606885Y-82343241D01*
X164704458Y-82440814D01*
X164819182Y-82517471D01*
X164819193Y-82517477D01*
X164866283Y-82536982D01*
X164946672Y-82570280D01*
X165082007Y-82597200D01*
X165082008Y-82597200D01*
X165219992Y-82597200D01*
X165219993Y-82597200D01*
X165355328Y-82570280D01*
X165482811Y-82517475D01*
X165482816Y-82517471D01*
X165482819Y-82517470D01*
X165534397Y-82483006D01*
X165593285Y-82466396D01*
X165650689Y-82487572D01*
X165684683Y-82538446D01*
X165688400Y-82565320D01*
X165688400Y-82588069D01*
X165713398Y-82713741D01*
X165713399Y-82713742D01*
X165713400Y-82713747D01*
X165762434Y-82832125D01*
X165762438Y-82832133D01*
X165786250Y-82867769D01*
X165833624Y-82938669D01*
X165924231Y-83029276D01*
X165987748Y-83071717D01*
X166030766Y-83100461D01*
X166030770Y-83100463D01*
X166030773Y-83100465D01*
X166149156Y-83149501D01*
X166274831Y-83174500D01*
X166274832Y-83174500D01*
X166402968Y-83174500D01*
X166402969Y-83174500D01*
X166528644Y-83149501D01*
X166647027Y-83100465D01*
X166753569Y-83029276D01*
X166844176Y-82938669D01*
X166915365Y-82832127D01*
X166964401Y-82713744D01*
X166973602Y-82667484D01*
X167003499Y-82614102D01*
X167059064Y-82588486D01*
X167119073Y-82600423D01*
X167160606Y-82645353D01*
X167162164Y-82648914D01*
X167172234Y-82673225D01*
X167172238Y-82673233D01*
X167199312Y-82713751D01*
X167243424Y-82779769D01*
X167334031Y-82870376D01*
X167385552Y-82904801D01*
X167440566Y-82941561D01*
X167440570Y-82941563D01*
X167440573Y-82941565D01*
X167558956Y-82990601D01*
X167684631Y-83015600D01*
X167684632Y-83015600D01*
X167812768Y-83015600D01*
X167812769Y-83015600D01*
X167938444Y-82990601D01*
X168056827Y-82941565D01*
X168066655Y-82934997D01*
X168125538Y-82918387D01*
X168182943Y-82939560D01*
X168191662Y-82947307D01*
X168202731Y-82958376D01*
X168264029Y-82999334D01*
X168309266Y-83029561D01*
X168309270Y-83029563D01*
X168309273Y-83029565D01*
X168427656Y-83078601D01*
X168553331Y-83103600D01*
X168553332Y-83103600D01*
X168681468Y-83103600D01*
X168681469Y-83103600D01*
X168807144Y-83078601D01*
X168925527Y-83029565D01*
X169032069Y-82958376D01*
X169122676Y-82867769D01*
X169193865Y-82761227D01*
X169242901Y-82642844D01*
X169267900Y-82517169D01*
X169267900Y-82389031D01*
X169242901Y-82263356D01*
X169193865Y-82144973D01*
X169193863Y-82144970D01*
X169193861Y-82144966D01*
X169147578Y-82075700D01*
X169122676Y-82038431D01*
X169032069Y-81947824D01*
X168944405Y-81889249D01*
X168925526Y-81876634D01*
X168923311Y-81875717D01*
X168922476Y-81875004D01*
X168921234Y-81874340D01*
X168921379Y-81874067D01*
X168876787Y-81835978D01*
X168862200Y-81784254D01*
X168862200Y-79030031D01*
X175901700Y-79030031D01*
X175901700Y-79158169D01*
X175916100Y-79230563D01*
X175926699Y-79283842D01*
X175926700Y-79283847D01*
X175975734Y-79402225D01*
X175975738Y-79402233D01*
X176018565Y-79466326D01*
X176046924Y-79508769D01*
X176137531Y-79599376D01*
X176201048Y-79641817D01*
X176244066Y-79670561D01*
X176244070Y-79670563D01*
X176244073Y-79670565D01*
X176362456Y-79719601D01*
X176488131Y-79744600D01*
X176488132Y-79744600D01*
X176616268Y-79744600D01*
X176616269Y-79744600D01*
X176741944Y-79719601D01*
X176860327Y-79670565D01*
X176966869Y-79599376D01*
X177057476Y-79508769D01*
X177128665Y-79402227D01*
X177177701Y-79283844D01*
X177202700Y-79158169D01*
X177202700Y-79030031D01*
X177177701Y-78904356D01*
X177128665Y-78785973D01*
X177128663Y-78785970D01*
X177128661Y-78785966D01*
X177092734Y-78732198D01*
X177057476Y-78679431D01*
X176966869Y-78588824D01*
X176923155Y-78559615D01*
X176860333Y-78517638D01*
X176860325Y-78517634D01*
X176741947Y-78468600D01*
X176741945Y-78468599D01*
X176741944Y-78468599D01*
X176616269Y-78443600D01*
X176488131Y-78443600D01*
X176488130Y-78443600D01*
X176425293Y-78456099D01*
X176362456Y-78468599D01*
X176362455Y-78468599D01*
X176362452Y-78468600D01*
X176244074Y-78517634D01*
X176244066Y-78517638D01*
X176137531Y-78588824D01*
X176137527Y-78588827D01*
X176046927Y-78679427D01*
X176046924Y-78679431D01*
X175975738Y-78785966D01*
X175975734Y-78785974D01*
X175926700Y-78904352D01*
X175926699Y-78904355D01*
X175926699Y-78904356D01*
X175901700Y-79030031D01*
X168862200Y-79030031D01*
X168862200Y-77444579D01*
X169859500Y-77444579D01*
X169859500Y-77641420D01*
X169890289Y-77835821D01*
X169951116Y-78023025D01*
X170031783Y-78181345D01*
X170040476Y-78198405D01*
X170156172Y-78357646D01*
X170295354Y-78496828D01*
X170454595Y-78612524D01*
X170629975Y-78701884D01*
X170817174Y-78762709D01*
X170817175Y-78762709D01*
X170817178Y-78762710D01*
X171011580Y-78793500D01*
X171011583Y-78793500D01*
X171208420Y-78793500D01*
X171402821Y-78762710D01*
X171402822Y-78762709D01*
X171402826Y-78762709D01*
X171590025Y-78701884D01*
X171765405Y-78612524D01*
X171924646Y-78496828D01*
X172063828Y-78357646D01*
X172179524Y-78198405D01*
X172268884Y-78023025D01*
X172329709Y-77835826D01*
X172332679Y-77817073D01*
X172360500Y-77641420D01*
X172360500Y-77444579D01*
X172329710Y-77250178D01*
X172290493Y-77129481D01*
X172268884Y-77062975D01*
X172179524Y-76887595D01*
X172063828Y-76728354D01*
X171924646Y-76589172D01*
X171765405Y-76473476D01*
X171765404Y-76473475D01*
X171765402Y-76473474D01*
X171590025Y-76384116D01*
X171402821Y-76323289D01*
X171208420Y-76292500D01*
X171208417Y-76292500D01*
X171011583Y-76292500D01*
X171011580Y-76292500D01*
X170817178Y-76323289D01*
X170629974Y-76384116D01*
X170454597Y-76473474D01*
X170295355Y-76589171D01*
X170156171Y-76728355D01*
X170040474Y-76887597D01*
X169951116Y-77062974D01*
X169890289Y-77250178D01*
X169859500Y-77444579D01*
X168862200Y-77444579D01*
X168862200Y-76943266D01*
X168881107Y-76885075D01*
X168891190Y-76873268D01*
X172629128Y-73135331D01*
X175854500Y-73135331D01*
X175854500Y-73263469D01*
X175878422Y-73383732D01*
X175879499Y-73389142D01*
X175879500Y-73389147D01*
X175928534Y-73507525D01*
X175928538Y-73507533D01*
X175971365Y-73571626D01*
X175999724Y-73614069D01*
X176090331Y-73704676D01*
X176153848Y-73747117D01*
X176196866Y-73775861D01*
X176196870Y-73775863D01*
X176196873Y-73775865D01*
X176315256Y-73824901D01*
X176440931Y-73849900D01*
X176440932Y-73849900D01*
X176569068Y-73849900D01*
X176569069Y-73849900D01*
X176694744Y-73824901D01*
X176813127Y-73775865D01*
X176919669Y-73704676D01*
X177010276Y-73614069D01*
X177081465Y-73507527D01*
X177130501Y-73389144D01*
X177155500Y-73263469D01*
X177155500Y-73135331D01*
X177151581Y-73115630D01*
X182348500Y-73115630D01*
X182348500Y-73283169D01*
X182381183Y-73447479D01*
X182381185Y-73447485D01*
X182445296Y-73602262D01*
X182476181Y-73648484D01*
X182538374Y-73741562D01*
X182656838Y-73860026D01*
X182796137Y-73953103D01*
X182950918Y-74017216D01*
X183115233Y-74049900D01*
X183115234Y-74049900D01*
X183282766Y-74049900D01*
X183282767Y-74049900D01*
X183447082Y-74017216D01*
X183601863Y-73953103D01*
X183741162Y-73860026D01*
X183859626Y-73741562D01*
X183952703Y-73602263D01*
X184016816Y-73447482D01*
X184049500Y-73283167D01*
X184049500Y-73115633D01*
X184016816Y-72951318D01*
X183952703Y-72796537D01*
X183859626Y-72657238D01*
X183741162Y-72538774D01*
X183601863Y-72445697D01*
X183601864Y-72445697D01*
X183601862Y-72445696D01*
X183447085Y-72381585D01*
X183447079Y-72381583D01*
X183282769Y-72348900D01*
X183282767Y-72348900D01*
X183115233Y-72348900D01*
X183115230Y-72348900D01*
X182950920Y-72381583D01*
X182950914Y-72381585D01*
X182796137Y-72445696D01*
X182656838Y-72538774D01*
X182656834Y-72538777D01*
X182538377Y-72657234D01*
X182538374Y-72657238D01*
X182445296Y-72796537D01*
X182381185Y-72951314D01*
X182381183Y-72951320D01*
X182348500Y-73115630D01*
X177151581Y-73115630D01*
X177130501Y-73009656D01*
X177081465Y-72891273D01*
X177081463Y-72891270D01*
X177081461Y-72891266D01*
X177035996Y-72823224D01*
X177010276Y-72784731D01*
X176919669Y-72694124D01*
X176864459Y-72657234D01*
X176813133Y-72622938D01*
X176813125Y-72622934D01*
X176694747Y-72573900D01*
X176694745Y-72573899D01*
X176694744Y-72573899D01*
X176569069Y-72548900D01*
X176440931Y-72548900D01*
X176440930Y-72548900D01*
X176378093Y-72561399D01*
X176315256Y-72573899D01*
X176315255Y-72573899D01*
X176315252Y-72573900D01*
X176196874Y-72622934D01*
X176196866Y-72622938D01*
X176090331Y-72694124D01*
X176090327Y-72694127D01*
X175999727Y-72784727D01*
X175999724Y-72784731D01*
X175928538Y-72891266D01*
X175928534Y-72891274D01*
X175879500Y-73009652D01*
X175879499Y-73009655D01*
X175879499Y-73009656D01*
X175854500Y-73135331D01*
X172629128Y-73135331D01*
X173399495Y-72364964D01*
X173462095Y-72256536D01*
X173494500Y-72135601D01*
X173494500Y-72010399D01*
X173494500Y-71567157D01*
X173513407Y-71508966D01*
X173562907Y-71473002D01*
X173624093Y-71473002D01*
X173651691Y-71487065D01*
X173681835Y-71508966D01*
X173686006Y-71511996D01*
X173847361Y-71594211D01*
X174019591Y-71650171D01*
X174090198Y-71661354D01*
X174198451Y-71678500D01*
X174198454Y-71678500D01*
X174379549Y-71678500D01*
X174486899Y-71661497D01*
X174558409Y-71650171D01*
X174730639Y-71594211D01*
X174891994Y-71511996D01*
X175038501Y-71405553D01*
X175166553Y-71277501D01*
X175272996Y-71130994D01*
X175355211Y-70969639D01*
X175411171Y-70797409D01*
X175439500Y-70618546D01*
X175439500Y-70437454D01*
X175439500Y-70437450D01*
X175678500Y-70437450D01*
X175678500Y-70618549D01*
X175706828Y-70797406D01*
X175762788Y-70969637D01*
X175842039Y-71125176D01*
X175845004Y-71130994D01*
X175951447Y-71277501D01*
X176079499Y-71405553D01*
X176226006Y-71511996D01*
X176387361Y-71594211D01*
X176559591Y-71650171D01*
X176630198Y-71661354D01*
X176738451Y-71678500D01*
X176738454Y-71678500D01*
X176919549Y-71678500D01*
X177026899Y-71661497D01*
X177098409Y-71650171D01*
X177270639Y-71594211D01*
X177431994Y-71511996D01*
X177578501Y-71405553D01*
X177706553Y-71277501D01*
X177812996Y-71130994D01*
X177895211Y-70969639D01*
X177951171Y-70797409D01*
X177979500Y-70618546D01*
X177979500Y-70437454D01*
X177979500Y-70437450D01*
X180758500Y-70437450D01*
X180758500Y-70618549D01*
X180786828Y-70797406D01*
X180842788Y-70969637D01*
X180922039Y-71125176D01*
X180925004Y-71130994D01*
X181031447Y-71277501D01*
X181159499Y-71405553D01*
X181306006Y-71511996D01*
X181467361Y-71594211D01*
X181639591Y-71650171D01*
X181710198Y-71661354D01*
X181818451Y-71678500D01*
X181818454Y-71678500D01*
X181999549Y-71678500D01*
X182106899Y-71661497D01*
X182178409Y-71650171D01*
X182350639Y-71594211D01*
X182511994Y-71511996D01*
X182658501Y-71405553D01*
X182786553Y-71277501D01*
X182892996Y-71130994D01*
X182975211Y-70969639D01*
X183031171Y-70797409D01*
X183059500Y-70618546D01*
X183059500Y-70437454D01*
X183059500Y-70437450D01*
X183040614Y-70318212D01*
X183031171Y-70258591D01*
X182975211Y-70086361D01*
X182892996Y-69925006D01*
X182786553Y-69778499D01*
X182658501Y-69650447D01*
X182511994Y-69544004D01*
X182511993Y-69544003D01*
X182511991Y-69544002D01*
X182350637Y-69461788D01*
X182178406Y-69405828D01*
X181999549Y-69377500D01*
X181999546Y-69377500D01*
X181818454Y-69377500D01*
X181818451Y-69377500D01*
X181639593Y-69405828D01*
X181467362Y-69461788D01*
X181306008Y-69544002D01*
X181257473Y-69579265D01*
X181159499Y-69650447D01*
X181031447Y-69778499D01*
X180997282Y-69825523D01*
X180925002Y-69925008D01*
X180842788Y-70086362D01*
X180786828Y-70258593D01*
X180758500Y-70437450D01*
X177979500Y-70437450D01*
X177960614Y-70318212D01*
X177951171Y-70258591D01*
X177895211Y-70086361D01*
X177812996Y-69925006D01*
X177706553Y-69778499D01*
X177578501Y-69650447D01*
X177431994Y-69544004D01*
X177431993Y-69544003D01*
X177431991Y-69544002D01*
X177270637Y-69461788D01*
X177098406Y-69405828D01*
X176919549Y-69377500D01*
X176919546Y-69377500D01*
X176738454Y-69377500D01*
X176738451Y-69377500D01*
X176559593Y-69405828D01*
X176387362Y-69461788D01*
X176226008Y-69544002D01*
X176177473Y-69579265D01*
X176079499Y-69650447D01*
X175951447Y-69778499D01*
X175917282Y-69825523D01*
X175845002Y-69925008D01*
X175762788Y-70086362D01*
X175706828Y-70258593D01*
X175678500Y-70437450D01*
X175439500Y-70437450D01*
X175420614Y-70318212D01*
X175411171Y-70258591D01*
X175355211Y-70086361D01*
X175272996Y-69925006D01*
X175166553Y-69778499D01*
X175038501Y-69650447D01*
X174891994Y-69544004D01*
X174891993Y-69544003D01*
X174891991Y-69544002D01*
X174730637Y-69461788D01*
X174558406Y-69405828D01*
X174379549Y-69377500D01*
X174379546Y-69377500D01*
X174198454Y-69377500D01*
X174198451Y-69377500D01*
X174019593Y-69405828D01*
X173847362Y-69461788D01*
X173686006Y-69544003D01*
X173686002Y-69544006D01*
X173651690Y-69568935D01*
X173593499Y-69587842D01*
X173535308Y-69568934D01*
X173499345Y-69519433D01*
X173494500Y-69488842D01*
X173494500Y-64677304D01*
X174383800Y-64677304D01*
X174383800Y-64815295D01*
X174395574Y-64874484D01*
X174410532Y-64949685D01*
X174410720Y-64950627D01*
X174410720Y-64950629D01*
X174463522Y-65078106D01*
X174463528Y-65078117D01*
X174540185Y-65192841D01*
X174637758Y-65290414D01*
X174752482Y-65367071D01*
X174752493Y-65367077D01*
X174768879Y-65373864D01*
X174879972Y-65419880D01*
X175015307Y-65446800D01*
X175015308Y-65446800D01*
X175153292Y-65446800D01*
X175153293Y-65446800D01*
X175288628Y-65419880D01*
X175416111Y-65367075D01*
X175530842Y-65290414D01*
X175628414Y-65192842D01*
X175705075Y-65078111D01*
X175757880Y-64950628D01*
X175784800Y-64815293D01*
X175784800Y-64677307D01*
X175757880Y-64541972D01*
X175720176Y-64450946D01*
X175705077Y-64414493D01*
X175705071Y-64414482D01*
X175628414Y-64299758D01*
X175530841Y-64202185D01*
X175416117Y-64125528D01*
X175416106Y-64125522D01*
X175288628Y-64072720D01*
X175153295Y-64045800D01*
X175153293Y-64045800D01*
X175015307Y-64045800D01*
X175015304Y-64045800D01*
X174879972Y-64072720D01*
X174879970Y-64072720D01*
X174752493Y-64125522D01*
X174752482Y-64125528D01*
X174637758Y-64202185D01*
X174540185Y-64299758D01*
X174463528Y-64414482D01*
X174463522Y-64414493D01*
X174410720Y-64541970D01*
X174410720Y-64541972D01*
X174383800Y-64677304D01*
X173494500Y-64677304D01*
X173494500Y-56327157D01*
X173513407Y-56268966D01*
X173562907Y-56233002D01*
X173624093Y-56233002D01*
X173651691Y-56247065D01*
X173681835Y-56268966D01*
X173686006Y-56271996D01*
X173847361Y-56354211D01*
X174019591Y-56410171D01*
X174079029Y-56419585D01*
X174198451Y-56438500D01*
X174198454Y-56438500D01*
X174379549Y-56438500D01*
X174490523Y-56420923D01*
X174558409Y-56410171D01*
X174730639Y-56354211D01*
X174891994Y-56271996D01*
X175038501Y-56165553D01*
X175166553Y-56037501D01*
X175272996Y-55890994D01*
X175355211Y-55729639D01*
X175411171Y-55557409D01*
X175439500Y-55378546D01*
X175439500Y-55197454D01*
X175439500Y-55197450D01*
X175678500Y-55197450D01*
X175678500Y-55378549D01*
X175706828Y-55557406D01*
X175762788Y-55729637D01*
X175828809Y-55859211D01*
X175845004Y-55890994D01*
X175951447Y-56037501D01*
X176079499Y-56165553D01*
X176226006Y-56271996D01*
X176387361Y-56354211D01*
X176559591Y-56410171D01*
X176619029Y-56419585D01*
X176738451Y-56438500D01*
X176738454Y-56438500D01*
X176919549Y-56438500D01*
X177030523Y-56420923D01*
X177098409Y-56410171D01*
X177270639Y-56354211D01*
X177431994Y-56271996D01*
X177578501Y-56165553D01*
X177706553Y-56037501D01*
X177812996Y-55890994D01*
X177895211Y-55729639D01*
X177951171Y-55557409D01*
X177979500Y-55378546D01*
X177979500Y-55197454D01*
X177979500Y-55197450D01*
X178218500Y-55197450D01*
X178218500Y-55378549D01*
X178246828Y-55557406D01*
X178302788Y-55729637D01*
X178368809Y-55859211D01*
X178385004Y-55890994D01*
X178491447Y-56037501D01*
X178619499Y-56165553D01*
X178766006Y-56271996D01*
X178927361Y-56354211D01*
X179099591Y-56410171D01*
X179159029Y-56419585D01*
X179278451Y-56438500D01*
X179278454Y-56438500D01*
X179459549Y-56438500D01*
X179570523Y-56420923D01*
X179638409Y-56410171D01*
X179810639Y-56354211D01*
X179971994Y-56271996D01*
X180118501Y-56165553D01*
X180246553Y-56037501D01*
X180352996Y-55890994D01*
X180435211Y-55729639D01*
X180491171Y-55557409D01*
X180519500Y-55378546D01*
X180519500Y-55197454D01*
X180519500Y-55197450D01*
X180491171Y-55018593D01*
X180491171Y-55018591D01*
X180435211Y-54846361D01*
X180352996Y-54685006D01*
X180246553Y-54538499D01*
X180118501Y-54410447D01*
X179971994Y-54304004D01*
X179971993Y-54304003D01*
X179971991Y-54304002D01*
X179810637Y-54221788D01*
X179638406Y-54165828D01*
X179459549Y-54137500D01*
X179459546Y-54137500D01*
X179278454Y-54137500D01*
X179278451Y-54137500D01*
X179099593Y-54165828D01*
X178927362Y-54221788D01*
X178766008Y-54304002D01*
X178719942Y-54337471D01*
X178619499Y-54410447D01*
X178491447Y-54538499D01*
X178472655Y-54564364D01*
X178385002Y-54685008D01*
X178302788Y-54846362D01*
X178246828Y-55018593D01*
X178218500Y-55197450D01*
X177979500Y-55197450D01*
X177951171Y-55018593D01*
X177951171Y-55018591D01*
X177895211Y-54846361D01*
X177812996Y-54685006D01*
X177706553Y-54538499D01*
X177578501Y-54410447D01*
X177431994Y-54304004D01*
X177431993Y-54304003D01*
X177431991Y-54304002D01*
X177270637Y-54221788D01*
X177098406Y-54165828D01*
X176919549Y-54137500D01*
X176919546Y-54137500D01*
X176738454Y-54137500D01*
X176738451Y-54137500D01*
X176559593Y-54165828D01*
X176387362Y-54221788D01*
X176226008Y-54304002D01*
X176179942Y-54337471D01*
X176079499Y-54410447D01*
X175951447Y-54538499D01*
X175932655Y-54564364D01*
X175845002Y-54685008D01*
X175762788Y-54846362D01*
X175706828Y-55018593D01*
X175678500Y-55197450D01*
X175439500Y-55197450D01*
X175411171Y-55018593D01*
X175411171Y-55018591D01*
X175355211Y-54846361D01*
X175348794Y-54833768D01*
X175340038Y-54782790D01*
X175338800Y-54782790D01*
X175338800Y-52484353D01*
X175357707Y-52426162D01*
X175367796Y-52414349D01*
X175368576Y-52413569D01*
X175439765Y-52307027D01*
X175488801Y-52188644D01*
X175513800Y-52062969D01*
X175513800Y-51934831D01*
X175488801Y-51809156D01*
X175439765Y-51690773D01*
X175439763Y-51690770D01*
X175439761Y-51690766D01*
X175411017Y-51647748D01*
X175368576Y-51584231D01*
X175277969Y-51493624D01*
X175235526Y-51465265D01*
X175171433Y-51422438D01*
X175171425Y-51422434D01*
X175053047Y-51373400D01*
X175053045Y-51373399D01*
X175053044Y-51373399D01*
X174927369Y-51348400D01*
X174799231Y-51348400D01*
X174799230Y-51348400D01*
X174736393Y-51360899D01*
X174673556Y-51373399D01*
X174673555Y-51373399D01*
X174673552Y-51373400D01*
X174555174Y-51422434D01*
X174555166Y-51422438D01*
X174448631Y-51493624D01*
X174448627Y-51493627D01*
X174358027Y-51584227D01*
X174358024Y-51584231D01*
X174286838Y-51690766D01*
X174286834Y-51690774D01*
X174237800Y-51809152D01*
X174237799Y-51809157D01*
X174212800Y-51934830D01*
X174212800Y-52062969D01*
X174237799Y-52188642D01*
X174237800Y-52188647D01*
X174286834Y-52307025D01*
X174286838Y-52307033D01*
X174329665Y-52371126D01*
X174358024Y-52413569D01*
X174358027Y-52413572D01*
X174358804Y-52414349D01*
X174359032Y-52414797D01*
X174361117Y-52417338D01*
X174360559Y-52417795D01*
X174386581Y-52468866D01*
X174387800Y-52484353D01*
X174387800Y-52951956D01*
X174368893Y-53010147D01*
X174319393Y-53046111D01*
X174258207Y-53046111D01*
X174208707Y-53010147D01*
X174191702Y-52971271D01*
X174190673Y-52966098D01*
X174184001Y-52932556D01*
X174134965Y-52814173D01*
X174134963Y-52814170D01*
X174134961Y-52814166D01*
X174104521Y-52768611D01*
X174063776Y-52707631D01*
X173973169Y-52617024D01*
X173930726Y-52588665D01*
X173866633Y-52545838D01*
X173866625Y-52545834D01*
X173748247Y-52496800D01*
X173748245Y-52496799D01*
X173748244Y-52496799D01*
X173622569Y-52471800D01*
X173494431Y-52471800D01*
X173494430Y-52471800D01*
X173431593Y-52484299D01*
X173368756Y-52496799D01*
X173368755Y-52496799D01*
X173368752Y-52496800D01*
X173250374Y-52545834D01*
X173250366Y-52545838D01*
X173143831Y-52617024D01*
X173143827Y-52617027D01*
X173053227Y-52707627D01*
X173053224Y-52707631D01*
X172982038Y-52814166D01*
X172982034Y-52814174D01*
X172933000Y-52932552D01*
X172932999Y-52932557D01*
X172908000Y-53058230D01*
X172908000Y-53059333D01*
X172907844Y-53059811D01*
X172907524Y-53063067D01*
X172906809Y-53062996D01*
X172889093Y-53117524D01*
X172879004Y-53129337D01*
X172727036Y-53281305D01*
X172727035Y-53281304D01*
X172638507Y-53369833D01*
X172638505Y-53369835D01*
X172638505Y-53369836D01*
X172618661Y-53404206D01*
X172575905Y-53478263D01*
X172570812Y-53497272D01*
X172543500Y-53599199D01*
X172543500Y-53599201D01*
X172543500Y-54248842D01*
X172524593Y-54307033D01*
X172475093Y-54342997D01*
X172413907Y-54342997D01*
X172386310Y-54328935D01*
X172351997Y-54304006D01*
X172351993Y-54304003D01*
X172190637Y-54221788D01*
X172018406Y-54165828D01*
X171839549Y-54137500D01*
X171839546Y-54137500D01*
X171658454Y-54137500D01*
X171658451Y-54137500D01*
X171479593Y-54165828D01*
X171307362Y-54221788D01*
X171146008Y-54304002D01*
X171099942Y-54337471D01*
X170999499Y-54410447D01*
X170871447Y-54538499D01*
X170852655Y-54564364D01*
X170765002Y-54685008D01*
X170682788Y-54846362D01*
X170626828Y-55018593D01*
X170598500Y-55197450D01*
X170598500Y-55378549D01*
X170626828Y-55557406D01*
X170652298Y-55635796D01*
X170652297Y-55696981D01*
X170628147Y-55736392D01*
X170337090Y-56027449D01*
X170282573Y-56055226D01*
X170222141Y-56045655D01*
X170178876Y-56002390D01*
X170169305Y-55941958D01*
X170186996Y-55899251D01*
X170192996Y-55890994D01*
X170275211Y-55729639D01*
X170331171Y-55557409D01*
X170359500Y-55378546D01*
X170359500Y-55197454D01*
X170359500Y-55197450D01*
X170331171Y-55018593D01*
X170331171Y-55018591D01*
X170275211Y-54846361D01*
X170192996Y-54685006D01*
X170086553Y-54538499D01*
X169958501Y-54410447D01*
X169811994Y-54304004D01*
X169811993Y-54304003D01*
X169811991Y-54304002D01*
X169650637Y-54221788D01*
X169478406Y-54165828D01*
X169299549Y-54137500D01*
X169299546Y-54137500D01*
X169118454Y-54137500D01*
X169118451Y-54137500D01*
X168939593Y-54165828D01*
X168767362Y-54221788D01*
X168606008Y-54304002D01*
X168559942Y-54337471D01*
X168459499Y-54410447D01*
X168459497Y-54410448D01*
X168459494Y-54410451D01*
X168364055Y-54505890D01*
X168309539Y-54533667D01*
X168249106Y-54524095D01*
X168224048Y-54505889D01*
X168158564Y-54440404D01*
X168158564Y-54440405D01*
X164204864Y-50486705D01*
X164096436Y-50424105D01*
X163975501Y-50391700D01*
X163975499Y-50391700D01*
X163318253Y-50391700D01*
X163260062Y-50372793D01*
X163248249Y-50362704D01*
X163247472Y-50361927D01*
X163247469Y-50361924D01*
X163171114Y-50310905D01*
X163140933Y-50290738D01*
X163140925Y-50290734D01*
X163022547Y-50241700D01*
X163022545Y-50241699D01*
X163022544Y-50241699D01*
X162896869Y-50216700D01*
X162768731Y-50216700D01*
X162768730Y-50216700D01*
X162705893Y-50229199D01*
X162643056Y-50241699D01*
X162643055Y-50241699D01*
X162643052Y-50241700D01*
X162524674Y-50290734D01*
X162524666Y-50290738D01*
X162418131Y-50361924D01*
X162418127Y-50361927D01*
X162327527Y-50452527D01*
X162327524Y-50452531D01*
X162256338Y-50559066D01*
X162256334Y-50559074D01*
X162207300Y-50677452D01*
X162207299Y-50677455D01*
X162207299Y-50677456D01*
X162182300Y-50803131D01*
X162182300Y-50931269D01*
X162195877Y-50999525D01*
X162207299Y-51056942D01*
X162207300Y-51056947D01*
X162256334Y-51175325D01*
X162256338Y-51175333D01*
X162299165Y-51239426D01*
X162327524Y-51281869D01*
X162418131Y-51372476D01*
X162481648Y-51414917D01*
X162524666Y-51443661D01*
X162524670Y-51443663D01*
X162524673Y-51443665D01*
X162643056Y-51492701D01*
X162768731Y-51517700D01*
X162768732Y-51517700D01*
X162896868Y-51517700D01*
X162896869Y-51517700D01*
X163022544Y-51492701D01*
X163140927Y-51443665D01*
X163247469Y-51372476D01*
X163248249Y-51371696D01*
X163248697Y-51371467D01*
X163251238Y-51369383D01*
X163251695Y-51369940D01*
X163302766Y-51343919D01*
X163318253Y-51342700D01*
X163674933Y-51342700D01*
X163733124Y-51361607D01*
X163744937Y-51371696D01*
X166390628Y-54017387D01*
X166418405Y-54071904D01*
X166408834Y-54132336D01*
X166365569Y-54175601D01*
X166351217Y-54181546D01*
X166227360Y-54221789D01*
X166066008Y-54304002D01*
X166019942Y-54337471D01*
X165919499Y-54410447D01*
X165791447Y-54538499D01*
X165772655Y-54564364D01*
X165685002Y-54685008D01*
X165602788Y-54846362D01*
X165546828Y-55018593D01*
X165518500Y-55197450D01*
X165518500Y-55378549D01*
X165546828Y-55557406D01*
X165572298Y-55635796D01*
X165572297Y-55696981D01*
X165548147Y-55736392D01*
X165257091Y-56027448D01*
X165202574Y-56055225D01*
X165142142Y-56045654D01*
X165098877Y-56002389D01*
X165089306Y-55941957D01*
X165106996Y-55899251D01*
X165112996Y-55890994D01*
X165195211Y-55729639D01*
X165251171Y-55557409D01*
X165279500Y-55378546D01*
X165279500Y-55197454D01*
X165279500Y-55197450D01*
X165251171Y-55018593D01*
X165251171Y-55018591D01*
X165195211Y-54846361D01*
X165112996Y-54685006D01*
X165006553Y-54538499D01*
X164878501Y-54410447D01*
X164731994Y-54304004D01*
X164731993Y-54304003D01*
X164731991Y-54304002D01*
X164570637Y-54221788D01*
X164398406Y-54165828D01*
X164219549Y-54137500D01*
X164219546Y-54137500D01*
X164038454Y-54137500D01*
X164038451Y-54137500D01*
X163859593Y-54165828D01*
X163687362Y-54221788D01*
X163526008Y-54304002D01*
X163479942Y-54337471D01*
X163379499Y-54410447D01*
X163251447Y-54538499D01*
X163232655Y-54564364D01*
X163145002Y-54685008D01*
X163062788Y-54846362D01*
X163006828Y-55018593D01*
X162978500Y-55197450D01*
X162978500Y-55378549D01*
X163006828Y-55557406D01*
X163062788Y-55729637D01*
X163128809Y-55859211D01*
X163145004Y-55890994D01*
X163251447Y-56037501D01*
X163379499Y-56165553D01*
X163526006Y-56271996D01*
X163687361Y-56354211D01*
X163859591Y-56410171D01*
X163919029Y-56419585D01*
X164038451Y-56438500D01*
X164038454Y-56438500D01*
X164219549Y-56438500D01*
X164330523Y-56420923D01*
X164398409Y-56410171D01*
X164570639Y-56354211D01*
X164731994Y-56271996D01*
X164740250Y-56265997D01*
X164798438Y-56247087D01*
X164856630Y-56265991D01*
X164892597Y-56315489D01*
X164892600Y-56376674D01*
X164868448Y-56416091D01*
X160529204Y-60755336D01*
X160474687Y-60783113D01*
X160414255Y-60773542D01*
X160370990Y-60730277D01*
X160360200Y-60685332D01*
X160360200Y-59423517D01*
X160379107Y-59365326D01*
X160428607Y-59329362D01*
X160439883Y-59326419D01*
X160452044Y-59324001D01*
X160570427Y-59274965D01*
X160676969Y-59203776D01*
X160767576Y-59113169D01*
X160838765Y-59006627D01*
X160887801Y-58888244D01*
X160912800Y-58762569D01*
X160912800Y-58634431D01*
X160887801Y-58508756D01*
X160838765Y-58390373D01*
X160838763Y-58390370D01*
X160838761Y-58390366D01*
X160810017Y-58347348D01*
X160767576Y-58283831D01*
X160676969Y-58193224D01*
X160621821Y-58156375D01*
X160570433Y-58122038D01*
X160570425Y-58122034D01*
X160452047Y-58073000D01*
X160452045Y-58072999D01*
X160452044Y-58072999D01*
X160326369Y-58048000D01*
X160198231Y-58048000D01*
X160198230Y-58048000D01*
X160135393Y-58060499D01*
X160072556Y-58072999D01*
X160072555Y-58072999D01*
X160072552Y-58073000D01*
X159954174Y-58122034D01*
X159954166Y-58122038D01*
X159847631Y-58193224D01*
X159847627Y-58193227D01*
X159757027Y-58283827D01*
X159757024Y-58283831D01*
X159705815Y-58360470D01*
X159657765Y-58398349D01*
X159596627Y-58400751D01*
X159545753Y-58366758D01*
X159524576Y-58309354D01*
X159524500Y-58305468D01*
X159524500Y-58214566D01*
X159543407Y-58156375D01*
X159553490Y-58144568D01*
X160566095Y-57131964D01*
X160628695Y-57023536D01*
X160661100Y-56902601D01*
X160661100Y-56777399D01*
X160661100Y-56226161D01*
X160680007Y-56167970D01*
X160729507Y-56132006D01*
X160790693Y-56132006D01*
X160830101Y-56156155D01*
X160839499Y-56165553D01*
X160986006Y-56271996D01*
X161147361Y-56354211D01*
X161319591Y-56410171D01*
X161379029Y-56419585D01*
X161498451Y-56438500D01*
X161498454Y-56438500D01*
X161679549Y-56438500D01*
X161790523Y-56420923D01*
X161858409Y-56410171D01*
X162030639Y-56354211D01*
X162191994Y-56271996D01*
X162338501Y-56165553D01*
X162466553Y-56037501D01*
X162572996Y-55890994D01*
X162655211Y-55729639D01*
X162711171Y-55557409D01*
X162739500Y-55378546D01*
X162739500Y-55197454D01*
X162739500Y-55197450D01*
X162711171Y-55018593D01*
X162711171Y-55018591D01*
X162655211Y-54846361D01*
X162572996Y-54685006D01*
X162466553Y-54538499D01*
X162338501Y-54410447D01*
X162191994Y-54304004D01*
X162191993Y-54304003D01*
X162191991Y-54304002D01*
X162030637Y-54221788D01*
X161858406Y-54165828D01*
X161679549Y-54137500D01*
X161679546Y-54137500D01*
X161498454Y-54137500D01*
X161498451Y-54137500D01*
X161319593Y-54165828D01*
X161147362Y-54221788D01*
X160986008Y-54304002D01*
X160939942Y-54337471D01*
X160839499Y-54410447D01*
X160839497Y-54410448D01*
X160839494Y-54410451D01*
X160714827Y-54535118D01*
X160660311Y-54562895D01*
X160599879Y-54553323D01*
X160571057Y-54529349D01*
X160570683Y-54529724D01*
X160566601Y-54525642D01*
X160566274Y-54525370D01*
X160566097Y-54525139D01*
X160566095Y-54525136D01*
X160546848Y-54505889D01*
X160477564Y-54436604D01*
X160477564Y-54436605D01*
X158597264Y-52556305D01*
X158488836Y-52493705D01*
X158367901Y-52461300D01*
X158367899Y-52461300D01*
X146543567Y-52461300D01*
X146485376Y-52442393D01*
X146473563Y-52432304D01*
X144403183Y-50361924D01*
X142234564Y-48193305D01*
X142126136Y-48130705D01*
X142005201Y-48098300D01*
X135951501Y-48098300D01*
X135826299Y-48098300D01*
X135745675Y-48119903D01*
X135705363Y-48130705D01*
X135596936Y-48193305D01*
X134694637Y-49095604D01*
X134640120Y-49123381D01*
X134624633Y-49124600D01*
X134623530Y-49124600D01*
X134564054Y-49136431D01*
X134497856Y-49149599D01*
X134497855Y-49149599D01*
X134497852Y-49149600D01*
X134379474Y-49198634D01*
X134379466Y-49198638D01*
X134272931Y-49269824D01*
X134272927Y-49269827D01*
X134182327Y-49360427D01*
X134182324Y-49360431D01*
X134111138Y-49466966D01*
X134111134Y-49466974D01*
X134062100Y-49585352D01*
X134062099Y-49585357D01*
X134037100Y-49711030D01*
X134037100Y-49839169D01*
X134062099Y-49964842D01*
X134062101Y-49964851D01*
X134079602Y-50007102D01*
X134084402Y-50068099D01*
X134052433Y-50120268D01*
X133995905Y-50143682D01*
X133936410Y-50129398D01*
X133933147Y-50127310D01*
X133926595Y-50122931D01*
X133914628Y-50114935D01*
X133914625Y-50114934D01*
X133796247Y-50065900D01*
X133796245Y-50065899D01*
X133796244Y-50065899D01*
X133670569Y-50040900D01*
X133542431Y-50040900D01*
X133542430Y-50040900D01*
X133479593Y-50053399D01*
X133416756Y-50065899D01*
X133416755Y-50065899D01*
X133416752Y-50065900D01*
X133298374Y-50114934D01*
X133298366Y-50114938D01*
X133191831Y-50186124D01*
X133191827Y-50186127D01*
X133101227Y-50276727D01*
X133101224Y-50276731D01*
X133030038Y-50383266D01*
X133030034Y-50383274D01*
X132981000Y-50501652D01*
X132980999Y-50501657D01*
X132956000Y-50627330D01*
X132956000Y-50755469D01*
X132980999Y-50881142D01*
X132981000Y-50881147D01*
X133030034Y-50999525D01*
X133030038Y-50999533D01*
X133068398Y-51056942D01*
X133101224Y-51106069D01*
X133191831Y-51196676D01*
X133255348Y-51239117D01*
X133298366Y-51267861D01*
X133298370Y-51267863D01*
X133298373Y-51267865D01*
X133416756Y-51316901D01*
X133542431Y-51341900D01*
X133542432Y-51341900D01*
X133670568Y-51341900D01*
X133670569Y-51341900D01*
X133796244Y-51316901D01*
X133914627Y-51267865D01*
X134021169Y-51196676D01*
X134021949Y-51195896D01*
X134022397Y-51195667D01*
X134024938Y-51193583D01*
X134025395Y-51194140D01*
X134076466Y-51168119D01*
X134091953Y-51166900D01*
X138034933Y-51166900D01*
X138093124Y-51185807D01*
X138104937Y-51195896D01*
X139820622Y-52911581D01*
X139848399Y-52966098D01*
X139838828Y-53026530D01*
X139795563Y-53069795D01*
X139788504Y-53073049D01*
X139672174Y-53121234D01*
X139672166Y-53121238D01*
X139565631Y-53192424D01*
X139565627Y-53192427D01*
X139475027Y-53283027D01*
X139475024Y-53283031D01*
X139403838Y-53389566D01*
X139403834Y-53389574D01*
X139354800Y-53507952D01*
X139354800Y-53507953D01*
X139354799Y-53507956D01*
X139337327Y-53595792D01*
X139336686Y-53599015D01*
X139306789Y-53652398D01*
X139251224Y-53678014D01*
X139239588Y-53678700D01*
X132305401Y-53678700D01*
X132180199Y-53678700D01*
X132106601Y-53698421D01*
X132059263Y-53711105D01*
X132040810Y-53721759D01*
X131952406Y-53772799D01*
X131950833Y-53773707D01*
X131557392Y-54167147D01*
X131502876Y-54194924D01*
X131456797Y-54191298D01*
X131378406Y-54165828D01*
X131199549Y-54137500D01*
X131199546Y-54137500D01*
X131018454Y-54137500D01*
X131018451Y-54137500D01*
X130839593Y-54165828D01*
X130667362Y-54221788D01*
X130506008Y-54304002D01*
X130459942Y-54337471D01*
X130359499Y-54410447D01*
X130231447Y-54538499D01*
X130212655Y-54564364D01*
X130125002Y-54685008D01*
X130042788Y-54846362D01*
X129986828Y-55018593D01*
X129958500Y-55197450D01*
X129958500Y-55378549D01*
X129986828Y-55557406D01*
X130042788Y-55729637D01*
X130108809Y-55859211D01*
X130125004Y-55890994D01*
X130231447Y-56037501D01*
X130359499Y-56165553D01*
X130506006Y-56271996D01*
X130667361Y-56354211D01*
X130839591Y-56410171D01*
X130899029Y-56419585D01*
X131018451Y-56438500D01*
X131018454Y-56438500D01*
X131199549Y-56438500D01*
X131310523Y-56420923D01*
X131378409Y-56410171D01*
X131550639Y-56354211D01*
X131711994Y-56271996D01*
X131858501Y-56165553D01*
X131986553Y-56037501D01*
X132092996Y-55890994D01*
X132175211Y-55729639D01*
X132231171Y-55557409D01*
X132259500Y-55378546D01*
X132259500Y-55197454D01*
X132259500Y-55197450D01*
X132231171Y-55018589D01*
X132205701Y-54940202D01*
X132205700Y-54879017D01*
X132229850Y-54839608D01*
X132410763Y-54658696D01*
X132417879Y-54655070D01*
X132422575Y-54648607D01*
X132444626Y-54641442D01*
X132465280Y-54630919D01*
X132480766Y-54629700D01*
X132531630Y-54629700D01*
X132589821Y-54648607D01*
X132625785Y-54698107D01*
X132625785Y-54759293D01*
X132619839Y-54773645D01*
X132582791Y-54846353D01*
X132582789Y-54846359D01*
X132526828Y-55018593D01*
X132498500Y-55197450D01*
X132498500Y-55378549D01*
X132526828Y-55557406D01*
X132582788Y-55729637D01*
X132648809Y-55859211D01*
X132665004Y-55890994D01*
X132771447Y-56037501D01*
X132899499Y-56165553D01*
X133046006Y-56271996D01*
X133207361Y-56354211D01*
X133379591Y-56410171D01*
X133439029Y-56419585D01*
X133558451Y-56438500D01*
X133558454Y-56438500D01*
X133739549Y-56438500D01*
X133918404Y-56410172D01*
X133918405Y-56410171D01*
X133918409Y-56410171D01*
X134076955Y-56358657D01*
X134138138Y-56358657D01*
X134177549Y-56382808D01*
X135231571Y-57436830D01*
X135259348Y-57491347D01*
X135249777Y-57551779D01*
X135206512Y-57595044D01*
X135192163Y-57600987D01*
X135138889Y-57618297D01*
X135089167Y-57634453D01*
X134920803Y-57720238D01*
X134767928Y-57831309D01*
X134634309Y-57964928D01*
X134523238Y-58117803D01*
X134437453Y-58286167D01*
X134379058Y-58465886D01*
X134377781Y-58473954D01*
X134350004Y-58528471D01*
X134295487Y-58556248D01*
X134235055Y-58546677D01*
X134191790Y-58503412D01*
X134182219Y-58473954D01*
X134180941Y-58465886D01*
X134180940Y-58465882D01*
X134122547Y-58286168D01*
X134036760Y-58117801D01*
X133925690Y-57964927D01*
X133792073Y-57831310D01*
X133639199Y-57720240D01*
X133639198Y-57720239D01*
X133639196Y-57720238D01*
X133470832Y-57634453D01*
X133291113Y-57576058D01*
X133104484Y-57546500D01*
X133104481Y-57546500D01*
X132915519Y-57546500D01*
X132915516Y-57546500D01*
X132728886Y-57576058D01*
X132549167Y-57634453D01*
X132380803Y-57720238D01*
X132227928Y-57831309D01*
X132094309Y-57964928D01*
X131983238Y-58117803D01*
X131897453Y-58286167D01*
X131839058Y-58465886D01*
X131809500Y-58652515D01*
X131809500Y-58841484D01*
X131839058Y-59028113D01*
X131897453Y-59207832D01*
X131975834Y-59361665D01*
X131983240Y-59376199D01*
X132094310Y-59529073D01*
X132227927Y-59662690D01*
X132380801Y-59773760D01*
X132380804Y-59773762D01*
X132380806Y-59773763D01*
X132430477Y-59799071D01*
X132480444Y-59824530D01*
X132523709Y-59867794D01*
X132534500Y-59912740D01*
X132534500Y-62573032D01*
X132515593Y-62631223D01*
X132505504Y-62643036D01*
X129053073Y-66095466D01*
X128998556Y-66123243D01*
X128952477Y-66119617D01*
X128846115Y-66085059D01*
X128659484Y-66055500D01*
X128659481Y-66055500D01*
X128470519Y-66055500D01*
X128470516Y-66055500D01*
X128283886Y-66085058D01*
X128104167Y-66143453D01*
X127949845Y-66222084D01*
X127889413Y-66231655D01*
X127834896Y-66203877D01*
X127807119Y-66149361D01*
X127805900Y-66133874D01*
X127805900Y-64071165D01*
X127824807Y-64012974D01*
X127834890Y-64001167D01*
X129491961Y-62344096D01*
X129491964Y-62344095D01*
X129580495Y-62255564D01*
X129643095Y-62147136D01*
X129659253Y-62086835D01*
X129672393Y-62037799D01*
X129675501Y-62026202D01*
X129675501Y-61894937D01*
X129675500Y-61894919D01*
X129675500Y-55856398D01*
X129675499Y-55856396D01*
X129672192Y-55844055D01*
X129646266Y-55747298D01*
X129647738Y-55691083D01*
X129691171Y-55557410D01*
X129719500Y-55378549D01*
X129719500Y-55197450D01*
X129691171Y-55018593D01*
X129691171Y-55018591D01*
X129635211Y-54846361D01*
X129552996Y-54685006D01*
X129446553Y-54538499D01*
X129318501Y-54410447D01*
X129171994Y-54304004D01*
X129171993Y-54304003D01*
X129171991Y-54304002D01*
X129010637Y-54221788D01*
X128838406Y-54165828D01*
X128659549Y-54137500D01*
X128659546Y-54137500D01*
X128478454Y-54137500D01*
X128478451Y-54137500D01*
X128299593Y-54165828D01*
X128127362Y-54221788D01*
X127966006Y-54304003D01*
X127966002Y-54304005D01*
X127818790Y-54410961D01*
X127760599Y-54429868D01*
X127702409Y-54410960D01*
X127690602Y-54400877D01*
X126885515Y-53595790D01*
X126759985Y-53523316D01*
X126759984Y-53523315D01*
X126759981Y-53523314D01*
X126702661Y-53507955D01*
X126702661Y-53507956D01*
X126619975Y-53485800D01*
X125438125Y-53485800D01*
X125355439Y-53507956D01*
X125355438Y-53507955D01*
X125298118Y-53523314D01*
X125298117Y-53523314D01*
X125219914Y-53568465D01*
X125176526Y-53593515D01*
X125172582Y-53595792D01*
X124367459Y-54400914D01*
X124312943Y-54428691D01*
X124252511Y-54419120D01*
X124239265Y-54411003D01*
X124238504Y-54410450D01*
X124238501Y-54410447D01*
X124091994Y-54304004D01*
X124091993Y-54304003D01*
X124091991Y-54304002D01*
X123930637Y-54221788D01*
X123758406Y-54165828D01*
X123579549Y-54137500D01*
X123579546Y-54137500D01*
X123398454Y-54137500D01*
X123398450Y-54137500D01*
X123272428Y-54157459D01*
X123211996Y-54147887D01*
X123168732Y-54104622D01*
X123159161Y-54044190D01*
X123186936Y-53989676D01*
X128186560Y-48990052D01*
X128230936Y-48964432D01*
X128325886Y-48938992D01*
X128440014Y-48873100D01*
X129760118Y-47552996D01*
X129814635Y-47525219D01*
X129830122Y-47524000D01*
X151462479Y-47524000D01*
X151520670Y-47542907D01*
X151556634Y-47592407D01*
X151556634Y-47653593D01*
X151551420Y-47666480D01*
X151504427Y-47762604D01*
X151504427Y-47762607D01*
X151494500Y-47830740D01*
X151494500Y-49597260D01*
X151501118Y-49642682D01*
X151504427Y-49665395D01*
X151555801Y-49770481D01*
X151555802Y-49770483D01*
X151638517Y-49853198D01*
X151692285Y-49879483D01*
X151743604Y-49904572D01*
X151743605Y-49904572D01*
X151743607Y-49904573D01*
X151811740Y-49914500D01*
X151811743Y-49914500D01*
X153578257Y-49914500D01*
X153578260Y-49914500D01*
X153646393Y-49904573D01*
X153751483Y-49853198D01*
X153834198Y-49770483D01*
X153885573Y-49665393D01*
X153895500Y-49597260D01*
X153895500Y-47830740D01*
X153885573Y-47762607D01*
X153843630Y-47676811D01*
X153838580Y-47666480D01*
X153830009Y-47605898D01*
X153858685Y-47551848D01*
X153913653Y-47524976D01*
X153927521Y-47524000D01*
X154022390Y-47524000D01*
X154022392Y-47524000D01*
X154149686Y-47489892D01*
X154149688Y-47489890D01*
X154149690Y-47489890D01*
X154263809Y-47424003D01*
X154263809Y-47424002D01*
X154263814Y-47424000D01*
X156972318Y-44715496D01*
X157026835Y-44687719D01*
X157042322Y-44686500D01*
X157933359Y-44686500D01*
X157933360Y-44686500D01*
X158050761Y-44671044D01*
X158196841Y-44610536D01*
X158322282Y-44514282D01*
X158418536Y-44388841D01*
X158479044Y-44242761D01*
X158494500Y-44125360D01*
X158494500Y-43046640D01*
X158483413Y-42962422D01*
X158494563Y-42902261D01*
X158538946Y-42860144D01*
X158581566Y-42850500D01*
X165604434Y-42850500D01*
X165662625Y-42869407D01*
X165698589Y-42918907D01*
X165702587Y-42962422D01*
X165691500Y-43046638D01*
X165691500Y-44125361D01*
X165706955Y-44242757D01*
X165706957Y-44242765D01*
X165767462Y-44388837D01*
X165767464Y-44388842D01*
X165863713Y-44514276D01*
X165863718Y-44514282D01*
X165863722Y-44514285D01*
X165863723Y-44514286D01*
X165989157Y-44610535D01*
X165989158Y-44610535D01*
X165989159Y-44610536D01*
X166135239Y-44671044D01*
X166252640Y-44686500D01*
X166252641Y-44686500D01*
X167331359Y-44686500D01*
X167331360Y-44686500D01*
X167448761Y-44671044D01*
X167594841Y-44610536D01*
X167720282Y-44514282D01*
X167816536Y-44388841D01*
X167877044Y-44242761D01*
X167892500Y-44125360D01*
X167892500Y-43046640D01*
X167877044Y-42929239D01*
X167816536Y-42783159D01*
X167816535Y-42783158D01*
X167816535Y-42783157D01*
X167720286Y-42657723D01*
X167720285Y-42657722D01*
X167720282Y-42657718D01*
X167710197Y-42649980D01*
X167675542Y-42599558D01*
X167677142Y-42538394D01*
X167700459Y-42501436D01*
X167822104Y-42379792D01*
X167919422Y-42245843D01*
X167947049Y-42207819D01*
X167947051Y-42207816D01*
X168043557Y-42018412D01*
X168109246Y-41816243D01*
X168109247Y-41816238D01*
X168142500Y-41606290D01*
X168142500Y-41393709D01*
X168109247Y-41183761D01*
X168109246Y-41183757D01*
X168043557Y-40981588D01*
X167947051Y-40792184D01*
X167911406Y-40743122D01*
X167892500Y-40684933D01*
X167892500Y-40434710D01*
X173200500Y-40434710D01*
X173200500Y-40677289D01*
X173232161Y-40917781D01*
X173232161Y-40917786D01*
X173294944Y-41152092D01*
X173294948Y-41152105D01*
X173387772Y-41376204D01*
X173387774Y-41376208D01*
X173387776Y-41376212D01*
X173494002Y-41560201D01*
X173509066Y-41586292D01*
X173656729Y-41778731D01*
X173656731Y-41778733D01*
X173656735Y-41778738D01*
X173828262Y-41950265D01*
X173828266Y-41950268D01*
X173828268Y-41950270D01*
X173917073Y-42018412D01*
X174020711Y-42097936D01*
X174230788Y-42219224D01*
X174454900Y-42312054D01*
X174689211Y-42374838D01*
X174929712Y-42406500D01*
X174929713Y-42406500D01*
X175172287Y-42406500D01*
X175172288Y-42406500D01*
X175412789Y-42374838D01*
X175647100Y-42312054D01*
X175871212Y-42219224D01*
X176081289Y-42097936D01*
X176273738Y-41950265D01*
X176445265Y-41778738D01*
X176592936Y-41586289D01*
X176714224Y-41376212D01*
X176807054Y-41152100D01*
X176869838Y-40917789D01*
X176901500Y-40677288D01*
X176901500Y-40434712D01*
X176869838Y-40194211D01*
X176807054Y-39959900D01*
X176714224Y-39735788D01*
X176592936Y-39525711D01*
X176515021Y-39424170D01*
X176445270Y-39333268D01*
X176445268Y-39333266D01*
X176445265Y-39333262D01*
X176273738Y-39161735D01*
X176273733Y-39161731D01*
X176273731Y-39161729D01*
X176081292Y-39014066D01*
X176051014Y-38996585D01*
X175871212Y-38892776D01*
X175871208Y-38892774D01*
X175871204Y-38892772D01*
X175647105Y-38799948D01*
X175647104Y-38799947D01*
X175647100Y-38799946D01*
X175412789Y-38737162D01*
X175412786Y-38737161D01*
X175412784Y-38737161D01*
X175172289Y-38705500D01*
X175172288Y-38705500D01*
X174929712Y-38705500D01*
X174929710Y-38705500D01*
X174689218Y-38737161D01*
X174689213Y-38737161D01*
X174454907Y-38799944D01*
X174454894Y-38799948D01*
X174230795Y-38892772D01*
X174020707Y-39014066D01*
X173828268Y-39161729D01*
X173656729Y-39333268D01*
X173509066Y-39525707D01*
X173387772Y-39735795D01*
X173294948Y-39959894D01*
X173294944Y-39959907D01*
X173232161Y-40194213D01*
X173232161Y-40194218D01*
X173200500Y-40434710D01*
X167892500Y-40434710D01*
X167892500Y-39749385D01*
X167865945Y-39581721D01*
X167865402Y-39578299D01*
X167865401Y-39578293D01*
X167863062Y-39571094D01*
X169031500Y-39571094D01*
X169031500Y-39720905D01*
X169060725Y-39867829D01*
X169060725Y-39867831D01*
X169118051Y-40006229D01*
X169118051Y-40006230D01*
X169127190Y-40019907D01*
X169201281Y-40130791D01*
X169307209Y-40236719D01*
X169431768Y-40319947D01*
X169570170Y-40377275D01*
X169717097Y-40406500D01*
X169717098Y-40406500D01*
X169866902Y-40406500D01*
X169866903Y-40406500D01*
X170013830Y-40377275D01*
X170152232Y-40319947D01*
X170276791Y-40236719D01*
X170382719Y-40130791D01*
X170465947Y-40006232D01*
X170523275Y-39867830D01*
X170552500Y-39720903D01*
X170552500Y-39571097D01*
X170523275Y-39424170D01*
X170465948Y-39285770D01*
X170465948Y-39285769D01*
X170416830Y-39212260D01*
X170382719Y-39161209D01*
X170276791Y-39055281D01*
X170152232Y-38972053D01*
X170152231Y-38972052D01*
X170152229Y-38972051D01*
X170013830Y-38914725D01*
X169866905Y-38885500D01*
X169866903Y-38885500D01*
X169717097Y-38885500D01*
X169717094Y-38885500D01*
X169570170Y-38914725D01*
X169570168Y-38914725D01*
X169431770Y-38972051D01*
X169431769Y-38972051D01*
X169307209Y-39055281D01*
X169307205Y-39055284D01*
X169201284Y-39161205D01*
X169201281Y-39161209D01*
X169118051Y-39285769D01*
X169118051Y-39285770D01*
X169060725Y-39424168D01*
X169060725Y-39424170D01*
X169031500Y-39571094D01*
X167863062Y-39571094D01*
X167811876Y-39413561D01*
X167811874Y-39413558D01*
X167811873Y-39413557D01*
X167811873Y-39413555D01*
X167733232Y-39259212D01*
X167631414Y-39119072D01*
X167508928Y-38996586D01*
X167368788Y-38894768D01*
X167368787Y-38894767D01*
X167368785Y-38894766D01*
X167214441Y-38816125D01*
X167214438Y-38816123D01*
X167049706Y-38762598D01*
X167049702Y-38762597D01*
X166878614Y-38735500D01*
X166878611Y-38735500D01*
X166705389Y-38735500D01*
X166705386Y-38735500D01*
X166534297Y-38762597D01*
X166534293Y-38762598D01*
X166369561Y-38816123D01*
X166369558Y-38816125D01*
X166215214Y-38894766D01*
X166075073Y-38996585D01*
X165952585Y-39119073D01*
X165850766Y-39259214D01*
X165772125Y-39413558D01*
X165772123Y-39413561D01*
X165718598Y-39578293D01*
X165718597Y-39578297D01*
X165691500Y-39749385D01*
X165691500Y-40050500D01*
X165672593Y-40108691D01*
X165623093Y-40144655D01*
X165592500Y-40149500D01*
X164554540Y-40149500D01*
X164496349Y-40130593D01*
X164460385Y-40081093D01*
X164460385Y-40019907D01*
X164464263Y-40010799D01*
X164464086Y-40010726D01*
X164490626Y-39946649D01*
X164523275Y-39867830D01*
X164552500Y-39720903D01*
X164552500Y-39571097D01*
X164523275Y-39424170D01*
X164465948Y-39285770D01*
X164465948Y-39285769D01*
X164416830Y-39212260D01*
X164382719Y-39161209D01*
X164276791Y-39055281D01*
X164152232Y-38972053D01*
X164152231Y-38972052D01*
X164152229Y-38972051D01*
X164013830Y-38914725D01*
X163866905Y-38885500D01*
X163866903Y-38885500D01*
X163717097Y-38885500D01*
X163717094Y-38885500D01*
X163570170Y-38914725D01*
X163570168Y-38914725D01*
X163431770Y-38972051D01*
X163431769Y-38972051D01*
X163307209Y-39055281D01*
X163307205Y-39055284D01*
X163201284Y-39161205D01*
X163201281Y-39161209D01*
X163118051Y-39285769D01*
X163118051Y-39285770D01*
X163060725Y-39424168D01*
X163060725Y-39424170D01*
X163031500Y-39571094D01*
X163031500Y-39720905D01*
X163060725Y-39867829D01*
X163060725Y-39867831D01*
X163119914Y-40010726D01*
X163118130Y-40011464D01*
X163127528Y-40064052D01*
X163100833Y-40119107D01*
X163046876Y-40147956D01*
X163029460Y-40149500D01*
X161156540Y-40149500D01*
X161098349Y-40130593D01*
X161062385Y-40081093D01*
X161062385Y-40019907D01*
X161066263Y-40010799D01*
X161066086Y-40010726D01*
X161092626Y-39946649D01*
X161125275Y-39867830D01*
X161154500Y-39720903D01*
X161154500Y-39571097D01*
X161125275Y-39424170D01*
X161067948Y-39285770D01*
X161067948Y-39285769D01*
X161018830Y-39212260D01*
X160984719Y-39161209D01*
X160878791Y-39055281D01*
X160754232Y-38972053D01*
X160754231Y-38972052D01*
X160754229Y-38972051D01*
X160615830Y-38914725D01*
X160468905Y-38885500D01*
X160468903Y-38885500D01*
X160319097Y-38885500D01*
X160319094Y-38885500D01*
X160172170Y-38914725D01*
X160172168Y-38914725D01*
X160033770Y-38972051D01*
X160033769Y-38972051D01*
X159909209Y-39055281D01*
X159909205Y-39055284D01*
X159803284Y-39161205D01*
X159803281Y-39161209D01*
X159720051Y-39285769D01*
X159720051Y-39285770D01*
X159662725Y-39424168D01*
X159662725Y-39424170D01*
X159633500Y-39571094D01*
X159633500Y-39720905D01*
X159662725Y-39867829D01*
X159662725Y-39867831D01*
X159721914Y-40010726D01*
X159720130Y-40011464D01*
X159729528Y-40064052D01*
X159702833Y-40119107D01*
X159648876Y-40147956D01*
X159631460Y-40149500D01*
X158593500Y-40149500D01*
X158535309Y-40130593D01*
X158499345Y-40081093D01*
X158494500Y-40050500D01*
X158494500Y-39749385D01*
X158467402Y-39578297D01*
X158467401Y-39578293D01*
X158413876Y-39413561D01*
X158413874Y-39413558D01*
X158413873Y-39413557D01*
X158413873Y-39413555D01*
X158335232Y-39259212D01*
X158233414Y-39119072D01*
X158110928Y-38996586D01*
X157970788Y-38894768D01*
X157970787Y-38894767D01*
X157970785Y-38894766D01*
X157816441Y-38816125D01*
X157816438Y-38816123D01*
X157651706Y-38762598D01*
X157651702Y-38762597D01*
X157480614Y-38735500D01*
X157480611Y-38735500D01*
X157307389Y-38735500D01*
X157307386Y-38735500D01*
X157136297Y-38762597D01*
X157136293Y-38762598D01*
X156971561Y-38816123D01*
X156971558Y-38816125D01*
X156817214Y-38894766D01*
X156677073Y-38996585D01*
X156554585Y-39119073D01*
X156452766Y-39259214D01*
X156374125Y-39413558D01*
X156374123Y-39413561D01*
X156320598Y-39578293D01*
X156320597Y-39578297D01*
X156293500Y-39749385D01*
X156293500Y-40050500D01*
X156274593Y-40108691D01*
X156225093Y-40144655D01*
X156194500Y-40149500D01*
X155156540Y-40149500D01*
X155098349Y-40130593D01*
X155062385Y-40081093D01*
X155062385Y-40019907D01*
X155066263Y-40010799D01*
X155066086Y-40010726D01*
X155092626Y-39946649D01*
X155125275Y-39867830D01*
X155154500Y-39720903D01*
X155154500Y-39571097D01*
X155125275Y-39424170D01*
X155067948Y-39285770D01*
X155067948Y-39285769D01*
X155018830Y-39212260D01*
X154984719Y-39161209D01*
X154878791Y-39055281D01*
X154754232Y-38972053D01*
X154754231Y-38972052D01*
X154754229Y-38972051D01*
X154615830Y-38914725D01*
X154468905Y-38885500D01*
X154468903Y-38885500D01*
X154319097Y-38885500D01*
X154319094Y-38885500D01*
X154172170Y-38914725D01*
X154172168Y-38914725D01*
X154033770Y-38972051D01*
X154033769Y-38972051D01*
X153909209Y-39055281D01*
X153909205Y-39055284D01*
X153803284Y-39161205D01*
X153803281Y-39161209D01*
X153720051Y-39285769D01*
X153720051Y-39285770D01*
X153662725Y-39424168D01*
X153662725Y-39424170D01*
X153633500Y-39571094D01*
X153633500Y-39720905D01*
X153662725Y-39867829D01*
X153662725Y-39867831D01*
X153721914Y-40010726D01*
X153720130Y-40011464D01*
X153729528Y-40064052D01*
X153702833Y-40119107D01*
X153648876Y-40147956D01*
X153631460Y-40149500D01*
X151758540Y-40149500D01*
X151700349Y-40130593D01*
X151664385Y-40081093D01*
X151664385Y-40019907D01*
X151668263Y-40010799D01*
X151668086Y-40010726D01*
X151694626Y-39946649D01*
X151727275Y-39867830D01*
X151756500Y-39720903D01*
X151756500Y-39571097D01*
X151727275Y-39424170D01*
X151669948Y-39285770D01*
X151669948Y-39285769D01*
X151620830Y-39212260D01*
X151586719Y-39161209D01*
X151480791Y-39055281D01*
X151356232Y-38972053D01*
X151356231Y-38972052D01*
X151356229Y-38972051D01*
X151217830Y-38914725D01*
X151070905Y-38885500D01*
X151070903Y-38885500D01*
X150921097Y-38885500D01*
X150921094Y-38885500D01*
X150774170Y-38914725D01*
X150774168Y-38914725D01*
X150635770Y-38972051D01*
X150635769Y-38972051D01*
X150511209Y-39055281D01*
X150511205Y-39055284D01*
X150405284Y-39161205D01*
X150405281Y-39161209D01*
X150322051Y-39285769D01*
X150322051Y-39285770D01*
X150264725Y-39424168D01*
X150264725Y-39424170D01*
X150235500Y-39571094D01*
X150235500Y-39720905D01*
X150264725Y-39867829D01*
X150264725Y-39867831D01*
X150323914Y-40010726D01*
X150322130Y-40011464D01*
X150331528Y-40064052D01*
X150304833Y-40119107D01*
X150250876Y-40147956D01*
X150233460Y-40149500D01*
X149195500Y-40149500D01*
X149137309Y-40130593D01*
X149101345Y-40081093D01*
X149096500Y-40050500D01*
X149096500Y-39749385D01*
X149069402Y-39578297D01*
X149069401Y-39578293D01*
X149015876Y-39413561D01*
X149015874Y-39413558D01*
X149015873Y-39413557D01*
X149015873Y-39413555D01*
X148937232Y-39259212D01*
X148835414Y-39119072D01*
X148712928Y-38996586D01*
X148572788Y-38894768D01*
X148572787Y-38894767D01*
X148572785Y-38894766D01*
X148418441Y-38816125D01*
X148418438Y-38816123D01*
X148253706Y-38762598D01*
X148253702Y-38762597D01*
X148082614Y-38735500D01*
X148082611Y-38735500D01*
X147909389Y-38735500D01*
X147909386Y-38735500D01*
X147738297Y-38762597D01*
X147738293Y-38762598D01*
X147573561Y-38816123D01*
X147573558Y-38816125D01*
X147419214Y-38894766D01*
X147279073Y-38996585D01*
X147156585Y-39119073D01*
X147054766Y-39259214D01*
X146976125Y-39413558D01*
X146976123Y-39413561D01*
X146922598Y-39578293D01*
X146922597Y-39578297D01*
X146895500Y-39749385D01*
X146895500Y-40050500D01*
X146876593Y-40108691D01*
X146827093Y-40144655D01*
X146796500Y-40149500D01*
X145758540Y-40149500D01*
X145700349Y-40130593D01*
X145664385Y-40081093D01*
X145664385Y-40019907D01*
X145668263Y-40010799D01*
X145668086Y-40010726D01*
X145694626Y-39946649D01*
X145727275Y-39867830D01*
X145756500Y-39720903D01*
X145756500Y-39571097D01*
X145727275Y-39424170D01*
X145669948Y-39285770D01*
X145669948Y-39285769D01*
X145620830Y-39212260D01*
X145586719Y-39161209D01*
X145480791Y-39055281D01*
X145356232Y-38972053D01*
X145356231Y-38972052D01*
X145356229Y-38972051D01*
X145217830Y-38914725D01*
X145070905Y-38885500D01*
X145070903Y-38885500D01*
X144921097Y-38885500D01*
X144921094Y-38885500D01*
X144774170Y-38914725D01*
X144774168Y-38914725D01*
X144635770Y-38972051D01*
X144635769Y-38972051D01*
X144511209Y-39055281D01*
X144511205Y-39055284D01*
X144405284Y-39161205D01*
X144405281Y-39161209D01*
X144322051Y-39285769D01*
X144322051Y-39285770D01*
X144264725Y-39424168D01*
X144264725Y-39424170D01*
X144235500Y-39571094D01*
X144235500Y-39720905D01*
X144264725Y-39867829D01*
X144264725Y-39867831D01*
X144323914Y-40010726D01*
X144322130Y-40011464D01*
X144331528Y-40064052D01*
X144304833Y-40119107D01*
X144250876Y-40147956D01*
X144233460Y-40149500D01*
X142360540Y-40149500D01*
X142302349Y-40130593D01*
X142266385Y-40081093D01*
X142266385Y-40019907D01*
X142270263Y-40010799D01*
X142270086Y-40010726D01*
X142296626Y-39946649D01*
X142329275Y-39867830D01*
X142358500Y-39720903D01*
X142358500Y-39571097D01*
X142329275Y-39424170D01*
X142271948Y-39285770D01*
X142271948Y-39285769D01*
X142222830Y-39212260D01*
X142188719Y-39161209D01*
X142082791Y-39055281D01*
X141958232Y-38972053D01*
X141958231Y-38972052D01*
X141958229Y-38972051D01*
X141819830Y-38914725D01*
X141672905Y-38885500D01*
X141672903Y-38885500D01*
X141523097Y-38885500D01*
X141523094Y-38885500D01*
X141376170Y-38914725D01*
X141376168Y-38914725D01*
X141237770Y-38972051D01*
X141237769Y-38972051D01*
X141113209Y-39055281D01*
X141113205Y-39055284D01*
X141007284Y-39161205D01*
X141007281Y-39161209D01*
X140924051Y-39285769D01*
X140924051Y-39285770D01*
X140866725Y-39424168D01*
X140866725Y-39424170D01*
X140837500Y-39571094D01*
X140837500Y-39720905D01*
X140866725Y-39867829D01*
X140866725Y-39867831D01*
X140925914Y-40010726D01*
X140924130Y-40011464D01*
X140933528Y-40064052D01*
X140906833Y-40119107D01*
X140852876Y-40147956D01*
X140835460Y-40149500D01*
X139797500Y-40149500D01*
X139739309Y-40130593D01*
X139703345Y-40081093D01*
X139698500Y-40050500D01*
X139698500Y-39749385D01*
X139671402Y-39578297D01*
X139671401Y-39578293D01*
X139617876Y-39413561D01*
X139617874Y-39413558D01*
X139617873Y-39413557D01*
X139617873Y-39413555D01*
X139539232Y-39259212D01*
X139437414Y-39119072D01*
X139314928Y-38996586D01*
X139174788Y-38894768D01*
X139174787Y-38894767D01*
X139174785Y-38894766D01*
X139020441Y-38816125D01*
X139020438Y-38816123D01*
X138855706Y-38762598D01*
X138855702Y-38762597D01*
X138684614Y-38735500D01*
X138684611Y-38735500D01*
X138511389Y-38735500D01*
X138511386Y-38735500D01*
X138340297Y-38762597D01*
X138340293Y-38762598D01*
X138175561Y-38816123D01*
X138175558Y-38816125D01*
X138021214Y-38894766D01*
X137881073Y-38996585D01*
X137758585Y-39119073D01*
X137656766Y-39259214D01*
X137578125Y-39413558D01*
X137578123Y-39413561D01*
X137524598Y-39578293D01*
X137524597Y-39578297D01*
X137497500Y-39749385D01*
X137497500Y-40684933D01*
X137478594Y-40743122D01*
X137442947Y-40792186D01*
X137346443Y-40981587D01*
X137280752Y-41183761D01*
X137247500Y-41393709D01*
X137247500Y-41606290D01*
X137280752Y-41816238D01*
X137346443Y-42018412D01*
X137442948Y-42207815D01*
X137442950Y-42207819D01*
X137567891Y-42379786D01*
X137567892Y-42379787D01*
X137567896Y-42379792D01*
X137689540Y-42501436D01*
X137717316Y-42555951D01*
X137707745Y-42616383D01*
X137679804Y-42649978D01*
X137679800Y-42649982D01*
X137669719Y-42657717D01*
X137669713Y-42657723D01*
X137573464Y-42783157D01*
X137573462Y-42783162D01*
X137512957Y-42929234D01*
X137512955Y-42929242D01*
X137497500Y-43046638D01*
X137497500Y-44125361D01*
X137512955Y-44242757D01*
X137512957Y-44242765D01*
X137573462Y-44388837D01*
X137573464Y-44388842D01*
X137669713Y-44514276D01*
X137669718Y-44514282D01*
X137669722Y-44514285D01*
X137669723Y-44514286D01*
X137795157Y-44610535D01*
X137795158Y-44610535D01*
X137795159Y-44610536D01*
X137941239Y-44671044D01*
X138058640Y-44686500D01*
X138058641Y-44686500D01*
X139137359Y-44686500D01*
X139137360Y-44686500D01*
X139254761Y-44671044D01*
X139400841Y-44610536D01*
X139526282Y-44514282D01*
X139622536Y-44388841D01*
X139683044Y-44242761D01*
X139698500Y-44125360D01*
X139698500Y-43046640D01*
X139687413Y-42962422D01*
X139698563Y-42902261D01*
X139742946Y-42860144D01*
X139785566Y-42850500D01*
X146808434Y-42850500D01*
X146866625Y-42869407D01*
X146902589Y-42918907D01*
X146906587Y-42962422D01*
X146895500Y-43046638D01*
X146895500Y-44125361D01*
X146910955Y-44242757D01*
X146910957Y-44242765D01*
X146971462Y-44388837D01*
X146971464Y-44388842D01*
X147067713Y-44514276D01*
X147067718Y-44514282D01*
X147067722Y-44514285D01*
X147067723Y-44514286D01*
X147193157Y-44610535D01*
X147193158Y-44610535D01*
X147193159Y-44610536D01*
X147339239Y-44671044D01*
X147456640Y-44686500D01*
X147456641Y-44686500D01*
X148535359Y-44686500D01*
X148535360Y-44686500D01*
X148652761Y-44671044D01*
X148798841Y-44610536D01*
X148924282Y-44514282D01*
X149020536Y-44388841D01*
X149081044Y-44242761D01*
X149096500Y-44125360D01*
X149096500Y-43046640D01*
X149085413Y-42962422D01*
X149096563Y-42902261D01*
X149140946Y-42860144D01*
X149183566Y-42850500D01*
X156206434Y-42850500D01*
X156264625Y-42869407D01*
X156300589Y-42918907D01*
X156304587Y-42962422D01*
X156293500Y-43046638D01*
X156293500Y-43937678D01*
X156274593Y-43995869D01*
X156264504Y-44007682D01*
X153778182Y-46494004D01*
X153723665Y-46521781D01*
X153708178Y-46523000D01*
X129647693Y-46523000D01*
X129515908Y-46523000D01*
X129438000Y-46543875D01*
X129388609Y-46557109D01*
X129274490Y-46622996D01*
X129274485Y-46623000D01*
X128671503Y-47225981D01*
X128616987Y-47253758D01*
X128556555Y-47244187D01*
X128513290Y-47200922D01*
X128502500Y-47155977D01*
X128502500Y-46977285D01*
X128502499Y-46977281D01*
X128465973Y-46793650D01*
X128451234Y-46758065D01*
X128394322Y-46620669D01*
X128394320Y-46620667D01*
X128394318Y-46620661D01*
X128309687Y-46494004D01*
X128290302Y-46464992D01*
X128157908Y-46332598D01*
X128113559Y-46302965D01*
X128002238Y-46228581D01*
X128002229Y-46228577D01*
X127829249Y-46156926D01*
X127645618Y-46120400D01*
X127645616Y-46120400D01*
X127458384Y-46120400D01*
X127458381Y-46120400D01*
X127274750Y-46156926D01*
X127101770Y-46228577D01*
X127101761Y-46228581D01*
X126946092Y-46332598D01*
X126946088Y-46332601D01*
X126813701Y-46464988D01*
X126813698Y-46464992D01*
X126709681Y-46620661D01*
X126709677Y-46620670D01*
X126638026Y-46793650D01*
X126601500Y-46977281D01*
X126601500Y-47164518D01*
X126638026Y-47348149D01*
X126709677Y-47521129D01*
X126709681Y-47521138D01*
X126784065Y-47632459D01*
X126813698Y-47676808D01*
X126946092Y-47809202D01*
X127012463Y-47853549D01*
X127101761Y-47913218D01*
X127101767Y-47913220D01*
X127101769Y-47913222D01*
X127274749Y-47984873D01*
X127458384Y-48021400D01*
X127458385Y-48021400D01*
X127500578Y-48021400D01*
X127558769Y-48040307D01*
X127594733Y-48089807D01*
X127594733Y-48150993D01*
X127570582Y-48190404D01*
X121493786Y-54267200D01*
X121493785Y-54267199D01*
X121400600Y-54360385D01*
X121400596Y-54360390D01*
X121334709Y-54474509D01*
X121333105Y-54480496D01*
X121300600Y-54601808D01*
X119216958Y-54601808D01*
X119279582Y-54339024D01*
X119280377Y-54335922D01*
X119587316Y-53216777D01*
X119588247Y-53213596D01*
X119594829Y-53192427D01*
X119932740Y-52105497D01*
X119933782Y-52102336D01*
X119962102Y-52021024D01*
X120315475Y-51006420D01*
X120316577Y-51003420D01*
X120735009Y-49921016D01*
X120736256Y-49917946D01*
X120740138Y-49908832D01*
X121190935Y-48850321D01*
X121192292Y-48847279D01*
X121262774Y-48696136D01*
X121682736Y-47795561D01*
X121684151Y-47792654D01*
X122209820Y-46758014D01*
X122211329Y-46755165D01*
X122771580Y-45738866D01*
X122773179Y-45736077D01*
X123367387Y-44739257D01*
X123369135Y-44736435D01*
X123996586Y-43760280D01*
X123998402Y-43757558D01*
X124658444Y-42803085D01*
X124660384Y-42800380D01*
X124673170Y-42783162D01*
X125352203Y-41868765D01*
X125354193Y-41866177D01*
X126077107Y-40958338D01*
X126079187Y-40955816D01*
X126523675Y-40434710D01*
X128496500Y-40434710D01*
X128496500Y-40677289D01*
X128528161Y-40917781D01*
X128528161Y-40917786D01*
X128590944Y-41152092D01*
X128590948Y-41152105D01*
X128683772Y-41376204D01*
X128683774Y-41376208D01*
X128683776Y-41376212D01*
X128790002Y-41560201D01*
X128805066Y-41586292D01*
X128952729Y-41778731D01*
X128952731Y-41778733D01*
X128952735Y-41778738D01*
X129124262Y-41950265D01*
X129124266Y-41950268D01*
X129124268Y-41950270D01*
X129213073Y-42018412D01*
X129316711Y-42097936D01*
X129526788Y-42219224D01*
X129750900Y-42312054D01*
X129985211Y-42374838D01*
X130225712Y-42406500D01*
X130225713Y-42406500D01*
X130468287Y-42406500D01*
X130468288Y-42406500D01*
X130708789Y-42374838D01*
X130943100Y-42312054D01*
X131167212Y-42219224D01*
X131377289Y-42097936D01*
X131569738Y-41950265D01*
X131741265Y-41778738D01*
X131888936Y-41586289D01*
X132010224Y-41376212D01*
X132103054Y-41152100D01*
X132165838Y-40917789D01*
X132197500Y-40677288D01*
X132197500Y-40434712D01*
X132165838Y-40194211D01*
X132103054Y-39959900D01*
X132015858Y-39749389D01*
X132010226Y-39735791D01*
X132010223Y-39735786D01*
X131994562Y-39708661D01*
X131915138Y-39571094D01*
X134837500Y-39571094D01*
X134837500Y-39720905D01*
X134866725Y-39867829D01*
X134866725Y-39867831D01*
X134924051Y-40006229D01*
X134924051Y-40006230D01*
X134933190Y-40019907D01*
X135007281Y-40130791D01*
X135113209Y-40236719D01*
X135237768Y-40319947D01*
X135376170Y-40377275D01*
X135523097Y-40406500D01*
X135523098Y-40406500D01*
X135672902Y-40406500D01*
X135672903Y-40406500D01*
X135819830Y-40377275D01*
X135958232Y-40319947D01*
X136082791Y-40236719D01*
X136188719Y-40130791D01*
X136271947Y-40006232D01*
X136329275Y-39867830D01*
X136358500Y-39720903D01*
X136358500Y-39571097D01*
X136329275Y-39424170D01*
X136271948Y-39285770D01*
X136271948Y-39285769D01*
X136222830Y-39212260D01*
X136188719Y-39161209D01*
X136082791Y-39055281D01*
X135958232Y-38972053D01*
X135958231Y-38972052D01*
X135958229Y-38972051D01*
X135819830Y-38914725D01*
X135672905Y-38885500D01*
X135672903Y-38885500D01*
X135523097Y-38885500D01*
X135523094Y-38885500D01*
X135376170Y-38914725D01*
X135376168Y-38914725D01*
X135237770Y-38972051D01*
X135237769Y-38972051D01*
X135113209Y-39055281D01*
X135113205Y-39055284D01*
X135007284Y-39161205D01*
X135007281Y-39161209D01*
X134924051Y-39285769D01*
X134924051Y-39285770D01*
X134866725Y-39424168D01*
X134866725Y-39424170D01*
X134837500Y-39571094D01*
X131915138Y-39571094D01*
X131888936Y-39525711D01*
X131811021Y-39424170D01*
X131741270Y-39333268D01*
X131741268Y-39333266D01*
X131741265Y-39333262D01*
X131569738Y-39161735D01*
X131569733Y-39161731D01*
X131569731Y-39161729D01*
X131377292Y-39014066D01*
X131347014Y-38996585D01*
X131167212Y-38892776D01*
X131167208Y-38892774D01*
X131167204Y-38892772D01*
X130943105Y-38799948D01*
X130943104Y-38799947D01*
X130943100Y-38799946D01*
X130708789Y-38737162D01*
X130708786Y-38737161D01*
X130708784Y-38737161D01*
X130468289Y-38705500D01*
X130468288Y-38705500D01*
X130225712Y-38705500D01*
X130225710Y-38705500D01*
X129985218Y-38737161D01*
X129985213Y-38737161D01*
X129750907Y-38799944D01*
X129750894Y-38799948D01*
X129526795Y-38892772D01*
X129316707Y-39014066D01*
X129124268Y-39161729D01*
X128952729Y-39333268D01*
X128805066Y-39525707D01*
X128683772Y-39735795D01*
X128590948Y-39959894D01*
X128590944Y-39959907D01*
X128528161Y-40194213D01*
X128528161Y-40194218D01*
X128496500Y-40434710D01*
X126523675Y-40434710D01*
X126832289Y-40072899D01*
X126834414Y-40070492D01*
X127616891Y-39213452D01*
X127619107Y-39211105D01*
X128430052Y-38380933D01*
X128432340Y-38378669D01*
X129270773Y-37576369D01*
X129273187Y-37574135D01*
X130138226Y-36800547D01*
X130140713Y-36798399D01*
X131031274Y-36054492D01*
X131033842Y-36052419D01*
X131949074Y-35338902D01*
X131951672Y-35336947D01*
X132890403Y-34654736D01*
X132893081Y-34652858D01*
X133854330Y-34002668D01*
X133857072Y-34000881D01*
X134839686Y-33383491D01*
X134842466Y-33381810D01*
X135845346Y-32797911D01*
X135848144Y-32796344D01*
X136870205Y-32246571D01*
X136873056Y-32245099D01*
X137056570Y-32154228D01*
X137117107Y-32145351D01*
X137171302Y-32173752D01*
G37*
%TD.AperFunction*%
%TD*%
M02*
