%TF.GenerationSoftware,KiCad,Pcbnew,10.0.4*%
%TF.CreationDate,2026-08-18T19:35:56-07:00*%
%TF.ProjectId,Impulse_2.3,496d7075-6c73-4655-9f32-2e332e6b6963,rev?*%
%TF.SameCoordinates,Original*%
%TF.FileFunction,Legend,Bot*%
%TF.FilePolarity,Positive*%
%FSLAX46Y46*%
G04 Gerber Fmt 4.6, Leading zero omitted, Abs format (unit mm)*
G04 Created by KiCad (PCBNEW 10.0.4) date 2026-08-18 19:35:56*
%MOMM*%
%LPD*%
G01*
G04 APERTURE LIST*
%ADD10C,0.150000*%
%ADD11C,0.120000*%
G04 APERTURE END LIST*
D10*
X152046057Y-47895571D02*
X151998438Y-47800333D01*
X151998438Y-47800333D02*
X151903200Y-47705095D01*
X151903200Y-47705095D02*
X151760342Y-47562238D01*
X151760342Y-47562238D02*
X151712723Y-47467000D01*
X151712723Y-47467000D02*
X151712723Y-47371762D01*
X151950819Y-47419381D02*
X151903200Y-47324143D01*
X151903200Y-47324143D02*
X151807961Y-47228905D01*
X151807961Y-47228905D02*
X151617485Y-47181286D01*
X151617485Y-47181286D02*
X151284152Y-47181286D01*
X151284152Y-47181286D02*
X151093676Y-47228905D01*
X151093676Y-47228905D02*
X150998438Y-47324143D01*
X150998438Y-47324143D02*
X150950819Y-47419381D01*
X150950819Y-47419381D02*
X150950819Y-47609857D01*
X150950819Y-47609857D02*
X150998438Y-47705095D01*
X150998438Y-47705095D02*
X151093676Y-47800333D01*
X151093676Y-47800333D02*
X151284152Y-47847952D01*
X151284152Y-47847952D02*
X151617485Y-47847952D01*
X151617485Y-47847952D02*
X151807961Y-47800333D01*
X151807961Y-47800333D02*
X151903200Y-47705095D01*
X151903200Y-47705095D02*
X151950819Y-47609857D01*
X151950819Y-47609857D02*
X151950819Y-47419381D01*
X151950819Y-48800333D02*
X151950819Y-48228905D01*
X151950819Y-48514619D02*
X150950819Y-48514619D01*
X150950819Y-48514619D02*
X151093676Y-48419381D01*
X151093676Y-48419381D02*
X151188914Y-48324143D01*
X151188914Y-48324143D02*
X151236533Y-48228905D01*
X151950819Y-49276524D02*
X151950819Y-49467000D01*
X151950819Y-49467000D02*
X151903200Y-49562238D01*
X151903200Y-49562238D02*
X151855580Y-49609857D01*
X151855580Y-49609857D02*
X151712723Y-49705095D01*
X151712723Y-49705095D02*
X151522247Y-49752714D01*
X151522247Y-49752714D02*
X151141295Y-49752714D01*
X151141295Y-49752714D02*
X151046057Y-49705095D01*
X151046057Y-49705095D02*
X150998438Y-49657476D01*
X150998438Y-49657476D02*
X150950819Y-49562238D01*
X150950819Y-49562238D02*
X150950819Y-49371762D01*
X150950819Y-49371762D02*
X150998438Y-49276524D01*
X150998438Y-49276524D02*
X151046057Y-49228905D01*
X151046057Y-49228905D02*
X151141295Y-49181286D01*
X151141295Y-49181286D02*
X151379390Y-49181286D01*
X151379390Y-49181286D02*
X151474628Y-49228905D01*
X151474628Y-49228905D02*
X151522247Y-49276524D01*
X151522247Y-49276524D02*
X151569866Y-49371762D01*
X151569866Y-49371762D02*
X151569866Y-49562238D01*
X151569866Y-49562238D02*
X151522247Y-49657476D01*
X151522247Y-49657476D02*
X151474628Y-49705095D01*
X151474628Y-49705095D02*
X151379390Y-49752714D01*
X142648057Y-47895571D02*
X142600438Y-47800333D01*
X142600438Y-47800333D02*
X142505200Y-47705095D01*
X142505200Y-47705095D02*
X142362342Y-47562238D01*
X142362342Y-47562238D02*
X142314723Y-47467000D01*
X142314723Y-47467000D02*
X142314723Y-47371762D01*
X142552819Y-47419381D02*
X142505200Y-47324143D01*
X142505200Y-47324143D02*
X142409961Y-47228905D01*
X142409961Y-47228905D02*
X142219485Y-47181286D01*
X142219485Y-47181286D02*
X141886152Y-47181286D01*
X141886152Y-47181286D02*
X141695676Y-47228905D01*
X141695676Y-47228905D02*
X141600438Y-47324143D01*
X141600438Y-47324143D02*
X141552819Y-47419381D01*
X141552819Y-47419381D02*
X141552819Y-47609857D01*
X141552819Y-47609857D02*
X141600438Y-47705095D01*
X141600438Y-47705095D02*
X141695676Y-47800333D01*
X141695676Y-47800333D02*
X141886152Y-47847952D01*
X141886152Y-47847952D02*
X142219485Y-47847952D01*
X142219485Y-47847952D02*
X142409961Y-47800333D01*
X142409961Y-47800333D02*
X142505200Y-47705095D01*
X142505200Y-47705095D02*
X142552819Y-47609857D01*
X142552819Y-47609857D02*
X142552819Y-47419381D01*
X142552819Y-48800333D02*
X142552819Y-48228905D01*
X142552819Y-48514619D02*
X141552819Y-48514619D01*
X141552819Y-48514619D02*
X141695676Y-48419381D01*
X141695676Y-48419381D02*
X141790914Y-48324143D01*
X141790914Y-48324143D02*
X141838533Y-48228905D01*
X141981390Y-49371762D02*
X141933771Y-49276524D01*
X141933771Y-49276524D02*
X141886152Y-49228905D01*
X141886152Y-49228905D02*
X141790914Y-49181286D01*
X141790914Y-49181286D02*
X141743295Y-49181286D01*
X141743295Y-49181286D02*
X141648057Y-49228905D01*
X141648057Y-49228905D02*
X141600438Y-49276524D01*
X141600438Y-49276524D02*
X141552819Y-49371762D01*
X141552819Y-49371762D02*
X141552819Y-49562238D01*
X141552819Y-49562238D02*
X141600438Y-49657476D01*
X141600438Y-49657476D02*
X141648057Y-49705095D01*
X141648057Y-49705095D02*
X141743295Y-49752714D01*
X141743295Y-49752714D02*
X141790914Y-49752714D01*
X141790914Y-49752714D02*
X141886152Y-49705095D01*
X141886152Y-49705095D02*
X141933771Y-49657476D01*
X141933771Y-49657476D02*
X141981390Y-49562238D01*
X141981390Y-49562238D02*
X141981390Y-49371762D01*
X141981390Y-49371762D02*
X142029009Y-49276524D01*
X142029009Y-49276524D02*
X142076628Y-49228905D01*
X142076628Y-49228905D02*
X142171866Y-49181286D01*
X142171866Y-49181286D02*
X142362342Y-49181286D01*
X142362342Y-49181286D02*
X142457580Y-49228905D01*
X142457580Y-49228905D02*
X142505200Y-49276524D01*
X142505200Y-49276524D02*
X142552819Y-49371762D01*
X142552819Y-49371762D02*
X142552819Y-49562238D01*
X142552819Y-49562238D02*
X142505200Y-49657476D01*
X142505200Y-49657476D02*
X142457580Y-49705095D01*
X142457580Y-49705095D02*
X142362342Y-49752714D01*
X142362342Y-49752714D02*
X142171866Y-49752714D01*
X142171866Y-49752714D02*
X142076628Y-49705095D01*
X142076628Y-49705095D02*
X142029009Y-49657476D01*
X142029009Y-49657476D02*
X141981390Y-49562238D01*
X183542057Y-75786571D02*
X183494438Y-75691333D01*
X183494438Y-75691333D02*
X183399200Y-75596095D01*
X183399200Y-75596095D02*
X183256342Y-75453238D01*
X183256342Y-75453238D02*
X183208723Y-75358000D01*
X183208723Y-75358000D02*
X183208723Y-75262762D01*
X183446819Y-75310381D02*
X183399200Y-75215143D01*
X183399200Y-75215143D02*
X183303961Y-75119905D01*
X183303961Y-75119905D02*
X183113485Y-75072286D01*
X183113485Y-75072286D02*
X182780152Y-75072286D01*
X182780152Y-75072286D02*
X182589676Y-75119905D01*
X182589676Y-75119905D02*
X182494438Y-75215143D01*
X182494438Y-75215143D02*
X182446819Y-75310381D01*
X182446819Y-75310381D02*
X182446819Y-75500857D01*
X182446819Y-75500857D02*
X182494438Y-75596095D01*
X182494438Y-75596095D02*
X182589676Y-75691333D01*
X182589676Y-75691333D02*
X182780152Y-75738952D01*
X182780152Y-75738952D02*
X183113485Y-75738952D01*
X183113485Y-75738952D02*
X183303961Y-75691333D01*
X183303961Y-75691333D02*
X183399200Y-75596095D01*
X183399200Y-75596095D02*
X183446819Y-75500857D01*
X183446819Y-75500857D02*
X183446819Y-75310381D01*
X182542057Y-76119905D02*
X182494438Y-76167524D01*
X182494438Y-76167524D02*
X182446819Y-76262762D01*
X182446819Y-76262762D02*
X182446819Y-76500857D01*
X182446819Y-76500857D02*
X182494438Y-76596095D01*
X182494438Y-76596095D02*
X182542057Y-76643714D01*
X182542057Y-76643714D02*
X182637295Y-76691333D01*
X182637295Y-76691333D02*
X182732533Y-76691333D01*
X182732533Y-76691333D02*
X182875390Y-76643714D01*
X182875390Y-76643714D02*
X183446819Y-76072286D01*
X183446819Y-76072286D02*
X183446819Y-76691333D01*
X182446819Y-77310381D02*
X182446819Y-77405619D01*
X182446819Y-77405619D02*
X182494438Y-77500857D01*
X182494438Y-77500857D02*
X182542057Y-77548476D01*
X182542057Y-77548476D02*
X182637295Y-77596095D01*
X182637295Y-77596095D02*
X182827771Y-77643714D01*
X182827771Y-77643714D02*
X183065866Y-77643714D01*
X183065866Y-77643714D02*
X183256342Y-77596095D01*
X183256342Y-77596095D02*
X183351580Y-77548476D01*
X183351580Y-77548476D02*
X183399200Y-77500857D01*
X183399200Y-77500857D02*
X183446819Y-77405619D01*
X183446819Y-77405619D02*
X183446819Y-77310381D01*
X183446819Y-77310381D02*
X183399200Y-77215143D01*
X183399200Y-77215143D02*
X183351580Y-77167524D01*
X183351580Y-77167524D02*
X183256342Y-77119905D01*
X183256342Y-77119905D02*
X183065866Y-77072286D01*
X183065866Y-77072286D02*
X182827771Y-77072286D01*
X182827771Y-77072286D02*
X182637295Y-77119905D01*
X182637295Y-77119905D02*
X182542057Y-77167524D01*
X182542057Y-77167524D02*
X182494438Y-77215143D01*
X182494438Y-77215143D02*
X182446819Y-77310381D01*
X123047295Y-63589333D02*
X123847295Y-63856000D01*
X123847295Y-63856000D02*
X123047295Y-64122666D01*
X123771104Y-64846476D02*
X123809200Y-64808380D01*
X123809200Y-64808380D02*
X123847295Y-64694095D01*
X123847295Y-64694095D02*
X123847295Y-64617904D01*
X123847295Y-64617904D02*
X123809200Y-64503618D01*
X123809200Y-64503618D02*
X123733009Y-64427428D01*
X123733009Y-64427428D02*
X123656819Y-64389333D01*
X123656819Y-64389333D02*
X123504438Y-64351237D01*
X123504438Y-64351237D02*
X123390152Y-64351237D01*
X123390152Y-64351237D02*
X123237771Y-64389333D01*
X123237771Y-64389333D02*
X123161580Y-64427428D01*
X123161580Y-64427428D02*
X123085390Y-64503618D01*
X123085390Y-64503618D02*
X123047295Y-64617904D01*
X123047295Y-64617904D02*
X123047295Y-64694095D01*
X123047295Y-64694095D02*
X123085390Y-64808380D01*
X123085390Y-64808380D02*
X123123485Y-64846476D01*
X123771104Y-65646476D02*
X123809200Y-65608380D01*
X123809200Y-65608380D02*
X123847295Y-65494095D01*
X123847295Y-65494095D02*
X123847295Y-65417904D01*
X123847295Y-65417904D02*
X123809200Y-65303618D01*
X123809200Y-65303618D02*
X123733009Y-65227428D01*
X123733009Y-65227428D02*
X123656819Y-65189333D01*
X123656819Y-65189333D02*
X123504438Y-65151237D01*
X123504438Y-65151237D02*
X123390152Y-65151237D01*
X123390152Y-65151237D02*
X123237771Y-65189333D01*
X123237771Y-65189333D02*
X123161580Y-65227428D01*
X123161580Y-65227428D02*
X123085390Y-65303618D01*
X123085390Y-65303618D02*
X123047295Y-65417904D01*
X123047295Y-65417904D02*
X123047295Y-65494095D01*
X123047295Y-65494095D02*
X123085390Y-65608380D01*
X123085390Y-65608380D02*
X123123485Y-65646476D01*
X125625390Y-64046476D02*
X125587295Y-63970286D01*
X125587295Y-63970286D02*
X125587295Y-63856000D01*
X125587295Y-63856000D02*
X125625390Y-63741714D01*
X125625390Y-63741714D02*
X125701580Y-63665524D01*
X125701580Y-63665524D02*
X125777771Y-63627429D01*
X125777771Y-63627429D02*
X125930152Y-63589333D01*
X125930152Y-63589333D02*
X126044438Y-63589333D01*
X126044438Y-63589333D02*
X126196819Y-63627429D01*
X126196819Y-63627429D02*
X126273009Y-63665524D01*
X126273009Y-63665524D02*
X126349200Y-63741714D01*
X126349200Y-63741714D02*
X126387295Y-63856000D01*
X126387295Y-63856000D02*
X126387295Y-63932191D01*
X126387295Y-63932191D02*
X126349200Y-64046476D01*
X126349200Y-64046476D02*
X126311104Y-64084572D01*
X126311104Y-64084572D02*
X126044438Y-64084572D01*
X126044438Y-64084572D02*
X126044438Y-63932191D01*
X126387295Y-64427429D02*
X125587295Y-64427429D01*
X125587295Y-64427429D02*
X126387295Y-64884572D01*
X126387295Y-64884572D02*
X125587295Y-64884572D01*
X126387295Y-65265524D02*
X125587295Y-65265524D01*
X125587295Y-65265524D02*
X125587295Y-65456000D01*
X125587295Y-65456000D02*
X125625390Y-65570286D01*
X125625390Y-65570286D02*
X125701580Y-65646476D01*
X125701580Y-65646476D02*
X125777771Y-65684571D01*
X125777771Y-65684571D02*
X125930152Y-65722667D01*
X125930152Y-65722667D02*
X126044438Y-65722667D01*
X126044438Y-65722667D02*
X126196819Y-65684571D01*
X126196819Y-65684571D02*
X126273009Y-65646476D01*
X126273009Y-65646476D02*
X126349200Y-65570286D01*
X126349200Y-65570286D02*
X126387295Y-65456000D01*
X126387295Y-65456000D02*
X126387295Y-65265524D01*
X128889200Y-63703618D02*
X128927295Y-63817904D01*
X128927295Y-63817904D02*
X128927295Y-64008380D01*
X128927295Y-64008380D02*
X128889200Y-64084571D01*
X128889200Y-64084571D02*
X128851104Y-64122666D01*
X128851104Y-64122666D02*
X128774914Y-64160761D01*
X128774914Y-64160761D02*
X128698723Y-64160761D01*
X128698723Y-64160761D02*
X128622533Y-64122666D01*
X128622533Y-64122666D02*
X128584438Y-64084571D01*
X128584438Y-64084571D02*
X128546342Y-64008380D01*
X128546342Y-64008380D02*
X128508247Y-63855999D01*
X128508247Y-63855999D02*
X128470152Y-63779809D01*
X128470152Y-63779809D02*
X128432057Y-63741714D01*
X128432057Y-63741714D02*
X128355866Y-63703618D01*
X128355866Y-63703618D02*
X128279676Y-63703618D01*
X128279676Y-63703618D02*
X128203485Y-63741714D01*
X128203485Y-63741714D02*
X128165390Y-63779809D01*
X128165390Y-63779809D02*
X128127295Y-63855999D01*
X128127295Y-63855999D02*
X128127295Y-64046476D01*
X128127295Y-64046476D02*
X128165390Y-64160761D01*
X128851104Y-64960762D02*
X128889200Y-64922666D01*
X128889200Y-64922666D02*
X128927295Y-64808381D01*
X128927295Y-64808381D02*
X128927295Y-64732190D01*
X128927295Y-64732190D02*
X128889200Y-64617904D01*
X128889200Y-64617904D02*
X128813009Y-64541714D01*
X128813009Y-64541714D02*
X128736819Y-64503619D01*
X128736819Y-64503619D02*
X128584438Y-64465523D01*
X128584438Y-64465523D02*
X128470152Y-64465523D01*
X128470152Y-64465523D02*
X128317771Y-64503619D01*
X128317771Y-64503619D02*
X128241580Y-64541714D01*
X128241580Y-64541714D02*
X128165390Y-64617904D01*
X128165390Y-64617904D02*
X128127295Y-64732190D01*
X128127295Y-64732190D02*
X128127295Y-64808381D01*
X128127295Y-64808381D02*
X128165390Y-64922666D01*
X128165390Y-64922666D02*
X128203485Y-64960762D01*
X128927295Y-65684571D02*
X128927295Y-65303619D01*
X128927295Y-65303619D02*
X128127295Y-65303619D01*
X131429200Y-63684571D02*
X131467295Y-63798857D01*
X131467295Y-63798857D02*
X131467295Y-63989333D01*
X131467295Y-63989333D02*
X131429200Y-64065524D01*
X131429200Y-64065524D02*
X131391104Y-64103619D01*
X131391104Y-64103619D02*
X131314914Y-64141714D01*
X131314914Y-64141714D02*
X131238723Y-64141714D01*
X131238723Y-64141714D02*
X131162533Y-64103619D01*
X131162533Y-64103619D02*
X131124438Y-64065524D01*
X131124438Y-64065524D02*
X131086342Y-63989333D01*
X131086342Y-63989333D02*
X131048247Y-63836952D01*
X131048247Y-63836952D02*
X131010152Y-63760762D01*
X131010152Y-63760762D02*
X130972057Y-63722667D01*
X130972057Y-63722667D02*
X130895866Y-63684571D01*
X130895866Y-63684571D02*
X130819676Y-63684571D01*
X130819676Y-63684571D02*
X130743485Y-63722667D01*
X130743485Y-63722667D02*
X130705390Y-63760762D01*
X130705390Y-63760762D02*
X130667295Y-63836952D01*
X130667295Y-63836952D02*
X130667295Y-64027429D01*
X130667295Y-64027429D02*
X130705390Y-64141714D01*
X131467295Y-64484572D02*
X130667295Y-64484572D01*
X130667295Y-64484572D02*
X130667295Y-64675048D01*
X130667295Y-64675048D02*
X130705390Y-64789334D01*
X130705390Y-64789334D02*
X130781580Y-64865524D01*
X130781580Y-64865524D02*
X130857771Y-64903619D01*
X130857771Y-64903619D02*
X131010152Y-64941715D01*
X131010152Y-64941715D02*
X131124438Y-64941715D01*
X131124438Y-64941715D02*
X131276819Y-64903619D01*
X131276819Y-64903619D02*
X131353009Y-64865524D01*
X131353009Y-64865524D02*
X131429200Y-64789334D01*
X131429200Y-64789334D02*
X131467295Y-64675048D01*
X131467295Y-64675048D02*
X131467295Y-64484572D01*
X131238723Y-65246476D02*
X131238723Y-65627429D01*
X131467295Y-65170286D02*
X130667295Y-65436953D01*
X130667295Y-65436953D02*
X131467295Y-65703619D01*
X134984523Y-60718295D02*
X134984523Y-59918295D01*
X134984523Y-59918295D02*
X134717857Y-60489723D01*
X134717857Y-60489723D02*
X134451190Y-59918295D01*
X134451190Y-59918295D02*
X134451190Y-60718295D01*
X134070237Y-60718295D02*
X134070237Y-59918295D01*
X134070237Y-59918295D02*
X133765475Y-59918295D01*
X133765475Y-59918295D02*
X133689285Y-59956390D01*
X133689285Y-59956390D02*
X133651190Y-59994485D01*
X133651190Y-59994485D02*
X133613094Y-60070676D01*
X133613094Y-60070676D02*
X133613094Y-60184961D01*
X133613094Y-60184961D02*
X133651190Y-60261152D01*
X133651190Y-60261152D02*
X133689285Y-60299247D01*
X133689285Y-60299247D02*
X133765475Y-60337342D01*
X133765475Y-60337342D02*
X134070237Y-60337342D01*
X133270237Y-59918295D02*
X133270237Y-60565914D01*
X133270237Y-60565914D02*
X133232142Y-60642104D01*
X133232142Y-60642104D02*
X133194047Y-60680200D01*
X133194047Y-60680200D02*
X133117856Y-60718295D01*
X133117856Y-60718295D02*
X132965475Y-60718295D01*
X132965475Y-60718295D02*
X132889285Y-60680200D01*
X132889285Y-60680200D02*
X132851190Y-60642104D01*
X132851190Y-60642104D02*
X132813094Y-60565914D01*
X132813094Y-60565914D02*
X132813094Y-59918295D01*
X132089285Y-59918295D02*
X132241666Y-59918295D01*
X132241666Y-59918295D02*
X132317857Y-59956390D01*
X132317857Y-59956390D02*
X132355952Y-59994485D01*
X132355952Y-59994485D02*
X132432142Y-60108771D01*
X132432142Y-60108771D02*
X132470238Y-60261152D01*
X132470238Y-60261152D02*
X132470238Y-60565914D01*
X132470238Y-60565914D02*
X132432142Y-60642104D01*
X132432142Y-60642104D02*
X132394047Y-60680200D01*
X132394047Y-60680200D02*
X132317857Y-60718295D01*
X132317857Y-60718295D02*
X132165476Y-60718295D01*
X132165476Y-60718295D02*
X132089285Y-60680200D01*
X132089285Y-60680200D02*
X132051190Y-60642104D01*
X132051190Y-60642104D02*
X132013095Y-60565914D01*
X132013095Y-60565914D02*
X132013095Y-60375438D01*
X132013095Y-60375438D02*
X132051190Y-60299247D01*
X132051190Y-60299247D02*
X132089285Y-60261152D01*
X132089285Y-60261152D02*
X132165476Y-60223057D01*
X132165476Y-60223057D02*
X132317857Y-60223057D01*
X132317857Y-60223057D02*
X132394047Y-60261152D01*
X132394047Y-60261152D02*
X132432142Y-60299247D01*
X132432142Y-60299247D02*
X132470238Y-60375438D01*
X131517856Y-59918295D02*
X131441666Y-59918295D01*
X131441666Y-59918295D02*
X131365475Y-59956390D01*
X131365475Y-59956390D02*
X131327380Y-59994485D01*
X131327380Y-59994485D02*
X131289285Y-60070676D01*
X131289285Y-60070676D02*
X131251190Y-60223057D01*
X131251190Y-60223057D02*
X131251190Y-60413533D01*
X131251190Y-60413533D02*
X131289285Y-60565914D01*
X131289285Y-60565914D02*
X131327380Y-60642104D01*
X131327380Y-60642104D02*
X131365475Y-60680200D01*
X131365475Y-60680200D02*
X131441666Y-60718295D01*
X131441666Y-60718295D02*
X131517856Y-60718295D01*
X131517856Y-60718295D02*
X131594047Y-60680200D01*
X131594047Y-60680200D02*
X131632142Y-60642104D01*
X131632142Y-60642104D02*
X131670237Y-60565914D01*
X131670237Y-60565914D02*
X131708333Y-60413533D01*
X131708333Y-60413533D02*
X131708333Y-60223057D01*
X131708333Y-60223057D02*
X131670237Y-60070676D01*
X131670237Y-60070676D02*
X131632142Y-59994485D01*
X131632142Y-59994485D02*
X131594047Y-59956390D01*
X131594047Y-59956390D02*
X131517856Y-59918295D01*
X130527380Y-59918295D02*
X130908332Y-59918295D01*
X130908332Y-59918295D02*
X130946428Y-60299247D01*
X130946428Y-60299247D02*
X130908332Y-60261152D01*
X130908332Y-60261152D02*
X130832142Y-60223057D01*
X130832142Y-60223057D02*
X130641666Y-60223057D01*
X130641666Y-60223057D02*
X130565475Y-60261152D01*
X130565475Y-60261152D02*
X130527380Y-60299247D01*
X130527380Y-60299247D02*
X130489285Y-60375438D01*
X130489285Y-60375438D02*
X130489285Y-60565914D01*
X130489285Y-60565914D02*
X130527380Y-60642104D01*
X130527380Y-60642104D02*
X130565475Y-60680200D01*
X130565475Y-60680200D02*
X130641666Y-60718295D01*
X130641666Y-60718295D02*
X130832142Y-60718295D01*
X130832142Y-60718295D02*
X130908332Y-60680200D01*
X130908332Y-60680200D02*
X130946428Y-60642104D01*
X129994046Y-59918295D02*
X129917856Y-59918295D01*
X129917856Y-59918295D02*
X129841665Y-59956390D01*
X129841665Y-59956390D02*
X129803570Y-59994485D01*
X129803570Y-59994485D02*
X129765475Y-60070676D01*
X129765475Y-60070676D02*
X129727380Y-60223057D01*
X129727380Y-60223057D02*
X129727380Y-60413533D01*
X129727380Y-60413533D02*
X129765475Y-60565914D01*
X129765475Y-60565914D02*
X129803570Y-60642104D01*
X129803570Y-60642104D02*
X129841665Y-60680200D01*
X129841665Y-60680200D02*
X129917856Y-60718295D01*
X129917856Y-60718295D02*
X129994046Y-60718295D01*
X129994046Y-60718295D02*
X130070237Y-60680200D01*
X130070237Y-60680200D02*
X130108332Y-60642104D01*
X130108332Y-60642104D02*
X130146427Y-60565914D01*
X130146427Y-60565914D02*
X130184523Y-60413533D01*
X130184523Y-60413533D02*
X130184523Y-60223057D01*
X130184523Y-60223057D02*
X130146427Y-60070676D01*
X130146427Y-60070676D02*
X130108332Y-59994485D01*
X130108332Y-59994485D02*
X130070237Y-59956390D01*
X130070237Y-59956390D02*
X129994046Y-59918295D01*
X133207295Y-63646476D02*
X134007295Y-64179810D01*
X133207295Y-64179810D02*
X134007295Y-63646476D01*
X134007295Y-64484572D02*
X133207295Y-64484572D01*
X133207295Y-64484572D02*
X133207295Y-64675048D01*
X133207295Y-64675048D02*
X133245390Y-64789334D01*
X133245390Y-64789334D02*
X133321580Y-64865524D01*
X133321580Y-64865524D02*
X133397771Y-64903619D01*
X133397771Y-64903619D02*
X133550152Y-64941715D01*
X133550152Y-64941715D02*
X133664438Y-64941715D01*
X133664438Y-64941715D02*
X133816819Y-64903619D01*
X133816819Y-64903619D02*
X133893009Y-64865524D01*
X133893009Y-64865524D02*
X133969200Y-64789334D01*
X133969200Y-64789334D02*
X134007295Y-64675048D01*
X134007295Y-64675048D02*
X134007295Y-64484572D01*
X133778723Y-65246476D02*
X133778723Y-65627429D01*
X134007295Y-65170286D02*
X133207295Y-65436953D01*
X133207295Y-65436953D02*
X134007295Y-65703619D01*
X135747295Y-63665523D02*
X136547295Y-64198857D01*
X135747295Y-64198857D02*
X136547295Y-63665523D01*
X136471104Y-64960762D02*
X136509200Y-64922666D01*
X136509200Y-64922666D02*
X136547295Y-64808381D01*
X136547295Y-64808381D02*
X136547295Y-64732190D01*
X136547295Y-64732190D02*
X136509200Y-64617904D01*
X136509200Y-64617904D02*
X136433009Y-64541714D01*
X136433009Y-64541714D02*
X136356819Y-64503619D01*
X136356819Y-64503619D02*
X136204438Y-64465523D01*
X136204438Y-64465523D02*
X136090152Y-64465523D01*
X136090152Y-64465523D02*
X135937771Y-64503619D01*
X135937771Y-64503619D02*
X135861580Y-64541714D01*
X135861580Y-64541714D02*
X135785390Y-64617904D01*
X135785390Y-64617904D02*
X135747295Y-64732190D01*
X135747295Y-64732190D02*
X135747295Y-64808381D01*
X135747295Y-64808381D02*
X135785390Y-64922666D01*
X135785390Y-64922666D02*
X135823485Y-64960762D01*
X136547295Y-65684571D02*
X136547295Y-65303619D01*
X136547295Y-65303619D02*
X135747295Y-65303619D01*
X138858723Y-63684571D02*
X138858723Y-64065524D01*
X139087295Y-63608381D02*
X138287295Y-63875048D01*
X138287295Y-63875048D02*
X139087295Y-64141714D01*
X139087295Y-64408381D02*
X138287295Y-64408381D01*
X138287295Y-64408381D02*
X138287295Y-64598857D01*
X138287295Y-64598857D02*
X138325390Y-64713143D01*
X138325390Y-64713143D02*
X138401580Y-64789333D01*
X138401580Y-64789333D02*
X138477771Y-64827428D01*
X138477771Y-64827428D02*
X138630152Y-64865524D01*
X138630152Y-64865524D02*
X138744438Y-64865524D01*
X138744438Y-64865524D02*
X138896819Y-64827428D01*
X138896819Y-64827428D02*
X138973009Y-64789333D01*
X138973009Y-64789333D02*
X139049200Y-64713143D01*
X139049200Y-64713143D02*
X139087295Y-64598857D01*
X139087295Y-64598857D02*
X139087295Y-64408381D01*
X138287295Y-65360762D02*
X138287295Y-65436952D01*
X138287295Y-65436952D02*
X138325390Y-65513143D01*
X138325390Y-65513143D02*
X138363485Y-65551238D01*
X138363485Y-65551238D02*
X138439676Y-65589333D01*
X138439676Y-65589333D02*
X138592057Y-65627428D01*
X138592057Y-65627428D02*
X138782533Y-65627428D01*
X138782533Y-65627428D02*
X138934914Y-65589333D01*
X138934914Y-65589333D02*
X139011104Y-65551238D01*
X139011104Y-65551238D02*
X139049200Y-65513143D01*
X139049200Y-65513143D02*
X139087295Y-65436952D01*
X139087295Y-65436952D02*
X139087295Y-65360762D01*
X139087295Y-65360762D02*
X139049200Y-65284571D01*
X139049200Y-65284571D02*
X139011104Y-65246476D01*
X139011104Y-65246476D02*
X138934914Y-65208381D01*
X138934914Y-65208381D02*
X138782533Y-65170285D01*
X138782533Y-65170285D02*
X138592057Y-65170285D01*
X138592057Y-65170285D02*
X138439676Y-65208381D01*
X138439676Y-65208381D02*
X138363485Y-65246476D01*
X138363485Y-65246476D02*
X138325390Y-65284571D01*
X138325390Y-65284571D02*
X138287295Y-65360762D01*
X141627295Y-63932191D02*
X140827295Y-63932191D01*
X141627295Y-64313143D02*
X140827295Y-64313143D01*
X140827295Y-64313143D02*
X141627295Y-64770286D01*
X141627295Y-64770286D02*
X140827295Y-64770286D01*
X140827295Y-65036952D02*
X140827295Y-65494095D01*
X141627295Y-65265523D02*
X140827295Y-65265523D01*
X161444057Y-47895571D02*
X161396438Y-47800333D01*
X161396438Y-47800333D02*
X161301200Y-47705095D01*
X161301200Y-47705095D02*
X161158342Y-47562238D01*
X161158342Y-47562238D02*
X161110723Y-47467000D01*
X161110723Y-47467000D02*
X161110723Y-47371762D01*
X161348819Y-47419381D02*
X161301200Y-47324143D01*
X161301200Y-47324143D02*
X161205961Y-47228905D01*
X161205961Y-47228905D02*
X161015485Y-47181286D01*
X161015485Y-47181286D02*
X160682152Y-47181286D01*
X160682152Y-47181286D02*
X160491676Y-47228905D01*
X160491676Y-47228905D02*
X160396438Y-47324143D01*
X160396438Y-47324143D02*
X160348819Y-47419381D01*
X160348819Y-47419381D02*
X160348819Y-47609857D01*
X160348819Y-47609857D02*
X160396438Y-47705095D01*
X160396438Y-47705095D02*
X160491676Y-47800333D01*
X160491676Y-47800333D02*
X160682152Y-47847952D01*
X160682152Y-47847952D02*
X161015485Y-47847952D01*
X161015485Y-47847952D02*
X161205961Y-47800333D01*
X161205961Y-47800333D02*
X161301200Y-47705095D01*
X161301200Y-47705095D02*
X161348819Y-47609857D01*
X161348819Y-47609857D02*
X161348819Y-47419381D01*
X161348819Y-48800333D02*
X161348819Y-48228905D01*
X161348819Y-48514619D02*
X160348819Y-48514619D01*
X160348819Y-48514619D02*
X160491676Y-48419381D01*
X160491676Y-48419381D02*
X160586914Y-48324143D01*
X160586914Y-48324143D02*
X160634533Y-48228905D01*
X160348819Y-49133667D02*
X160348819Y-49800333D01*
X160348819Y-49800333D02*
X161348819Y-49371762D01*
X170842057Y-47895571D02*
X170794438Y-47800333D01*
X170794438Y-47800333D02*
X170699200Y-47705095D01*
X170699200Y-47705095D02*
X170556342Y-47562238D01*
X170556342Y-47562238D02*
X170508723Y-47467000D01*
X170508723Y-47467000D02*
X170508723Y-47371762D01*
X170746819Y-47419381D02*
X170699200Y-47324143D01*
X170699200Y-47324143D02*
X170603961Y-47228905D01*
X170603961Y-47228905D02*
X170413485Y-47181286D01*
X170413485Y-47181286D02*
X170080152Y-47181286D01*
X170080152Y-47181286D02*
X169889676Y-47228905D01*
X169889676Y-47228905D02*
X169794438Y-47324143D01*
X169794438Y-47324143D02*
X169746819Y-47419381D01*
X169746819Y-47419381D02*
X169746819Y-47609857D01*
X169746819Y-47609857D02*
X169794438Y-47705095D01*
X169794438Y-47705095D02*
X169889676Y-47800333D01*
X169889676Y-47800333D02*
X170080152Y-47847952D01*
X170080152Y-47847952D02*
X170413485Y-47847952D01*
X170413485Y-47847952D02*
X170603961Y-47800333D01*
X170603961Y-47800333D02*
X170699200Y-47705095D01*
X170699200Y-47705095D02*
X170746819Y-47609857D01*
X170746819Y-47609857D02*
X170746819Y-47419381D01*
X170746819Y-48800333D02*
X170746819Y-48228905D01*
X170746819Y-48514619D02*
X169746819Y-48514619D01*
X169746819Y-48514619D02*
X169889676Y-48419381D01*
X169889676Y-48419381D02*
X169984914Y-48324143D01*
X169984914Y-48324143D02*
X170032533Y-48228905D01*
X169746819Y-49657476D02*
X169746819Y-49467000D01*
X169746819Y-49467000D02*
X169794438Y-49371762D01*
X169794438Y-49371762D02*
X169842057Y-49324143D01*
X169842057Y-49324143D02*
X169984914Y-49228905D01*
X169984914Y-49228905D02*
X170175390Y-49181286D01*
X170175390Y-49181286D02*
X170556342Y-49181286D01*
X170556342Y-49181286D02*
X170651580Y-49228905D01*
X170651580Y-49228905D02*
X170699200Y-49276524D01*
X170699200Y-49276524D02*
X170746819Y-49371762D01*
X170746819Y-49371762D02*
X170746819Y-49562238D01*
X170746819Y-49562238D02*
X170699200Y-49657476D01*
X170699200Y-49657476D02*
X170651580Y-49705095D01*
X170651580Y-49705095D02*
X170556342Y-49752714D01*
X170556342Y-49752714D02*
X170318247Y-49752714D01*
X170318247Y-49752714D02*
X170223009Y-49705095D01*
X170223009Y-49705095D02*
X170175390Y-49657476D01*
X170175390Y-49657476D02*
X170127771Y-49562238D01*
X170127771Y-49562238D02*
X170127771Y-49371762D01*
X170127771Y-49371762D02*
X170175390Y-49276524D01*
X170175390Y-49276524D02*
X170223009Y-49228905D01*
X170223009Y-49228905D02*
X170318247Y-49181286D01*
%TO.C,Q19*%
D11*
X145246000Y-44767000D02*
X150746000Y-44767000D01*
X145246000Y-51567000D02*
X145246000Y-44767000D01*
X150746000Y-44767000D02*
X150746000Y-50697000D01*
X150516000Y-51207000D02*
X150846000Y-51447000D01*
X150846000Y-50967000D01*
X150516000Y-51207000D01*
G36*
X150846000Y-51447000D02*
G01*
X150516000Y-51207000D01*
X150846000Y-50967000D01*
X150846000Y-51447000D01*
G37*
%TO.C,R63*%
X162586500Y-84765258D02*
X162586500Y-84290742D01*
X163631500Y-84765258D02*
X163631500Y-84290742D01*
%TO.C,R58*%
X170427742Y-57208500D02*
X170902258Y-57208500D01*
X170427742Y-58253500D02*
X170902258Y-58253500D01*
%TO.C,R65*%
X169569258Y-86113500D02*
X169094742Y-86113500D01*
X169569258Y-87158500D02*
X169094742Y-87158500D01*
%TO.C,D4*%
X165727000Y-72845000D02*
X171237000Y-72845000D01*
X165727000Y-76145000D02*
X165727000Y-72845000D01*
X165727000Y-76145000D02*
X171237000Y-76145000D01*
%TO.C,Q18*%
X135848000Y-44767000D02*
X141348000Y-44767000D01*
X135848000Y-51567000D02*
X135848000Y-44767000D01*
X141348000Y-44767000D02*
X141348000Y-50697000D01*
X141118000Y-51207000D02*
X141448000Y-51447000D01*
X141448000Y-50967000D01*
X141118000Y-51207000D01*
G36*
X141448000Y-51447000D02*
G01*
X141118000Y-51207000D01*
X141448000Y-50967000D01*
X141448000Y-51447000D01*
G37*
%TO.C,R37*%
X136297500Y-84765258D02*
X136297500Y-84290742D01*
X137342500Y-84765258D02*
X137342500Y-84290742D01*
%TO.C,Q20*%
X176742000Y-72658000D02*
X182242000Y-72658000D01*
X176742000Y-79458000D02*
X176742000Y-72658000D01*
X182242000Y-72658000D02*
X182242000Y-78588000D01*
X182012000Y-79098000D02*
X182342000Y-79338000D01*
X182342000Y-78858000D01*
X182012000Y-79098000D01*
G36*
X182342000Y-79338000D02*
G01*
X182012000Y-79098000D01*
X182342000Y-78858000D01*
X182342000Y-79338000D01*
G37*
%TO.C,R55*%
X173602742Y-58859500D02*
X174077258Y-58859500D01*
X173602742Y-59904500D02*
X174077258Y-59904500D01*
%TO.C,R59*%
X173602742Y-57208500D02*
X174077258Y-57208500D01*
X173602742Y-58253500D02*
X174077258Y-58253500D01*
%TO.C,R51*%
X153442500Y-58255742D02*
X153442500Y-58730258D01*
X154487500Y-58255742D02*
X154487500Y-58730258D01*
%TO.C,R64*%
X165634500Y-84765258D02*
X165634500Y-84290742D01*
X166679500Y-84765258D02*
X166679500Y-84290742D01*
%TO.C,U6*%
X122105000Y-65876000D02*
X122105000Y-67256000D01*
X123485000Y-65876000D02*
X122105000Y-65876000D01*
X124755000Y-65876000D02*
X124755000Y-68636000D01*
X124755000Y-65876000D02*
X142645000Y-65876000D01*
X124755000Y-68636000D02*
X142645000Y-68636000D01*
X142645000Y-65876000D02*
X142645000Y-68636000D01*
X121775000Y-52156000D02*
X142975000Y-52156000D01*
X142975000Y-68556000D01*
X121775000Y-68556000D01*
X121775000Y-52156000D01*
%TO.C,R66*%
X169569258Y-82913500D02*
X169094742Y-82913500D01*
X169569258Y-83958500D02*
X169094742Y-83958500D01*
%TO.C,R43*%
X142520500Y-84765258D02*
X142520500Y-84290742D01*
X143565500Y-84765258D02*
X143565500Y-84290742D01*
%TO.C,Q17*%
X154644000Y-44767000D02*
X160144000Y-44767000D01*
X154644000Y-51567000D02*
X154644000Y-44767000D01*
X160144000Y-44767000D02*
X160144000Y-50697000D01*
X159914000Y-51207000D02*
X160244000Y-51447000D01*
X160244000Y-50967000D01*
X159914000Y-51207000D01*
G36*
X160244000Y-51447000D02*
G01*
X159914000Y-51207000D01*
X160244000Y-50967000D01*
X160244000Y-51447000D01*
G37*
%TO.C,R38*%
X158522500Y-58255742D02*
X158522500Y-58730258D01*
X159567500Y-58255742D02*
X159567500Y-58730258D01*
%TO.C,R57*%
X173602742Y-60510500D02*
X174077258Y-60510500D01*
X173602742Y-61555500D02*
X174077258Y-61555500D01*
%TO.C,C14*%
X169472580Y-84526000D02*
X169191420Y-84526000D01*
X169472580Y-85546000D02*
X169191420Y-85546000D01*
%TO.C,R60*%
X162586500Y-74478258D02*
X162586500Y-74003742D01*
X163631500Y-74478258D02*
X163631500Y-74003742D01*
%TO.C,R62*%
X159538500Y-84765258D02*
X159538500Y-84290742D01*
X160583500Y-84765258D02*
X160583500Y-84290742D01*
%TO.C,R53*%
X150902500Y-58255742D02*
X150902500Y-58730258D01*
X151947500Y-58255742D02*
X151947500Y-58730258D01*
%TO.C,R40*%
X163602500Y-58255742D02*
X163602500Y-58730258D01*
X164647500Y-58255742D02*
X164647500Y-58730258D01*
%TO.C,C12*%
X176874420Y-60523000D02*
X177155580Y-60523000D01*
X176874420Y-61543000D02*
X177155580Y-61543000D01*
%TO.C,C13*%
X176874420Y-57221000D02*
X177155580Y-57221000D01*
X176874420Y-58241000D02*
X177155580Y-58241000D01*
%TO.C,R69*%
X174903258Y-76893500D02*
X174428742Y-76893500D01*
X174903258Y-77938500D02*
X174428742Y-77938500D01*
%TO.C,Q22*%
X173106000Y-73862000D02*
X173106000Y-75382000D01*
X173106000Y-75382000D02*
X173156000Y-75382000D01*
X174106000Y-73862000D02*
X173106000Y-73862000D01*
X174276000Y-75382000D02*
X175056000Y-75382000D01*
X176176000Y-75382000D02*
X176226000Y-75382000D01*
X176226000Y-73862000D02*
X175226000Y-73862000D01*
X176226000Y-75382000D02*
X176226000Y-73862000D01*
X175046000Y-75922000D02*
X174716000Y-75682000D01*
X174716000Y-76162000D01*
X175046000Y-75922000D01*
G36*
X175046000Y-75922000D02*
G01*
X174716000Y-76162000D01*
X174716000Y-75682000D01*
X175046000Y-75922000D01*
G37*
%TO.C,Q16*%
X164042000Y-44767000D02*
X169542000Y-44767000D01*
X164042000Y-51567000D02*
X164042000Y-44767000D01*
X169542000Y-44767000D02*
X169542000Y-50697000D01*
X169312000Y-51207000D02*
X169642000Y-51447000D01*
X169642000Y-50967000D01*
X169312000Y-51207000D01*
G36*
X169642000Y-51447000D02*
G01*
X169312000Y-51207000D01*
X169642000Y-50967000D01*
X169642000Y-51447000D01*
G37*
%TO.C,C11*%
X176874420Y-58872000D02*
X177155580Y-58872000D01*
X176874420Y-59892000D02*
X177155580Y-59892000D01*
%TO.C,R54*%
X170427742Y-58859500D02*
X170902258Y-58859500D01*
X170427742Y-59904500D02*
X170902258Y-59904500D01*
%TO.C,R52*%
X148362500Y-58255742D02*
X148362500Y-58730258D01*
X149407500Y-58255742D02*
X149407500Y-58730258D01*
%TO.C,R50*%
X155982500Y-58255742D02*
X155982500Y-58730258D01*
X157027500Y-58255742D02*
X157027500Y-58730258D01*
%TO.C,R41*%
X139345500Y-84765258D02*
X139345500Y-84290742D01*
X140390500Y-84765258D02*
X140390500Y-84290742D01*
%TO.C,R61*%
X164237500Y-74478258D02*
X164237500Y-74003742D01*
X165282500Y-74478258D02*
X165282500Y-74003742D01*
%TO.C,R39*%
X161062500Y-58255742D02*
X161062500Y-58730258D01*
X162107500Y-58255742D02*
X162107500Y-58730258D01*
%TO.C,R42*%
X145568500Y-84765258D02*
X145568500Y-84290742D01*
X146613500Y-84765258D02*
X146613500Y-84290742D01*
%TO.C,R56*%
X170427742Y-60510500D02*
X170902258Y-60510500D01*
X170427742Y-61555500D02*
X170902258Y-61555500D01*
%TD*%
M02*
