M48
; DRILL file KiCad 10.0.4 date 2026-08-18T19:35:57
; FORMAT={-:-/ absolute / metric / decimal}
; #@! TF.CreationDate,2026-08-18T19:35:57-07:00
; #@! TF.GenerationSoftware,Kicad,Pcbnew,10.0.4
; #@! TF.FileFunction,MixedPlating,1,4
FMAT,2
METRIC
; #@! TA.AperFunction,Plated,PTH,ViaDrill
T1C0.300
; #@! TA.AperFunction,Plated,PTH,ViaDrill
T2C0.350
; #@! TA.AperFunction,Plated,PTH,ViaDrill
T3C0.400
; #@! TA.AperFunction,Plated,PTH,ViaDrill
T4C0.450
; #@! TA.AperFunction,Plated,PTH,ViaDrill
T5C0.500
; #@! TA.AperFunction,Plated,PTH,ViaDrill
T6C0.600
; #@! TA.AperFunction,Plated,PTH,ComponentDrill
T7C0.800
; #@! TA.AperFunction,Plated,PTH,ComponentDrill
T8C1.000
; #@! TA.AperFunction,Plated,PTH,ComponentDrill
T9C1.020
; #@! TA.AperFunction,Plated,PTH,ComponentDrill
T10C1.100
; #@! TA.AperFunction,NonPlated,NPTH,ComponentDrill
T11C1.020
; #@! TA.AperFunction,NonPlated,NPTH,ComponentDrill
T12C3.200
%
G90
G05
T1
X126.832Y-60.61
X128.082Y-81.826
X133.606Y-50.691
X134.688Y-49.775
X135.713Y-84.674
X135.88Y-49.973
X136.947Y-61.696
X139.25Y-62.45
X139.668Y-87.581
X139.98Y-53.698
X141.635Y-56.765
X141.683Y-49.2
X141.729Y-85.111
X141.782Y-52.992
X142.85Y-67.7
X143.061Y-75.672
X144.504Y-63.759
X144.703Y-85.111
X144.805Y-52.526
X145.55Y-82.4
X146.708Y-63.9
X152.379Y-92.573
X156.334Y-85.613
X156.838Y-89.859
X157.79Y-56.487
X159.169Y-84.528
X159.633Y-87.274
X160.262Y-58.698
X160.511Y-69.126
X161.43Y-65.78
X161.898Y-83.673
X162.22Y-67.647
X162.833Y-50.867
X163.634Y-67.907
X163.995Y-60.282
X164.0Y-63.18
X165.412Y-77.953
X166.339Y-82.524
X166.694Y-62.663
X167.749Y-82.365
X168.617Y-82.453
X171.025Y-67.069
X173.558Y-53.122
X174.863Y-51.999
X176.505Y-73.199
X176.552Y-79.094
T2
X143.322Y-60.892
X149.626Y-62.224
X158.157Y-64.435
X163.635Y-76.161
X165.151Y-81.897
X175.084Y-64.746
T3
X125.7Y-43.9
X129.7Y-71.9
X129.7Y-75.9
X133.7Y-35.9
X133.7Y-43.9
X133.7Y-87.9
X137.7Y-87.9
X137.7Y-91.9
X141.7Y-43.9
X141.7Y-87.9
X141.7Y-91.9
X145.7Y-87.9
X145.7Y-95.9
X149.7Y-83.9
X153.7Y-43.9
X157.7Y-95.9
X161.7Y-43.9
X161.7Y-47.9
X161.7Y-87.9
X161.7Y-91.9
X165.7Y-87.9
X169.7Y-35.9
X169.7Y-43.9
X169.7Y-79.9
X169.7Y-87.9
X169.7Y-91.9
X173.7Y-75.9
X173.7Y-79.9
X173.7Y-87.9
X177.7Y-43.9
X177.7Y-51.9
X177.7Y-59.9
X177.7Y-83.9
X181.7Y-47.9
X181.7Y-59.9
X185.7Y-55.9
X185.7Y-59.9
X185.7Y-63.9
X185.7Y-67.9
T4
X139.521Y-63.891
X144.506Y-62.63
X153.737Y-61.592
X171.11Y-64.57
T5
X145.385Y-58.819
X168.338Y-59.243
X183.199Y-73.199
T6
X127.552Y-47.071
X137.265Y-82.22
X142.4Y-82.166
X168.311Y-57.376
T7
X138.979Y-91.132
X146.599Y-91.132
X159.172Y-91.132
X166.792Y-91.132
T8
X123.485Y-67.256
X126.025Y-67.256
X127.93Y-58.747
X128.565Y-67.256
X130.47Y-58.747
X131.105Y-67.256
X133.01Y-58.747
X133.645Y-67.256
X134.28Y-74.495
X134.28Y-77.035
X134.28Y-79.575
X135.55Y-58.747
X136.185Y-67.256
X138.09Y-58.747
X138.09Y-74.495
X138.09Y-77.035
X138.09Y-79.575
X138.725Y-67.256
X140.63Y-58.747
X141.265Y-67.256
X141.9Y-74.495
X141.9Y-77.035
X141.9Y-79.575
X145.71Y-74.495
X145.71Y-77.035
X145.71Y-79.575
X149.52Y-74.495
X149.52Y-77.035
X149.52Y-79.575
X152.695Y-48.714
X152.695Y-51.254
X153.33Y-74.495
X153.33Y-77.035
X153.33Y-79.575
X157.14Y-74.495
X157.14Y-77.035
X157.14Y-79.575
X160.95Y-74.495
X160.95Y-77.035
T9
X123.489Y-55.288
X123.489Y-70.528
X126.029Y-55.288
X126.029Y-70.528
X128.569Y-55.288
X128.569Y-70.528
X131.109Y-55.288
X131.109Y-70.528
X133.649Y-55.288
X133.649Y-70.528
X136.189Y-55.288
X136.189Y-70.528
X138.598Y-40.586
X138.598Y-43.586
X138.729Y-55.288
X138.729Y-70.528
X141.269Y-55.288
X141.269Y-70.528
X143.809Y-55.288
X143.809Y-70.528
X146.349Y-55.288
X146.349Y-70.528
X147.996Y-40.586
X147.996Y-43.586
X148.889Y-55.288
X148.889Y-70.528
X151.429Y-55.288
X151.429Y-70.528
X153.969Y-55.288
X153.969Y-70.528
X156.509Y-55.288
X156.509Y-70.528
X157.394Y-40.586
X157.394Y-43.586
X159.049Y-55.288
X159.049Y-70.528
X161.589Y-55.288
X161.589Y-70.528
X164.129Y-55.288
X164.129Y-70.528
X166.669Y-55.288
X166.669Y-70.528
X166.792Y-40.586
X166.792Y-43.586
X167.11Y-77.543
X169.209Y-55.288
X169.209Y-70.528
X171.11Y-77.543
X171.749Y-55.288
X171.749Y-70.528
X174.289Y-55.288
X174.289Y-70.528
X176.829Y-55.288
X176.829Y-70.528
X179.369Y-55.288
X179.369Y-70.528
X181.909Y-55.288
X181.909Y-70.528
T10
X149.624Y-87.612
X149.624Y-92.112
X156.124Y-87.612
X156.124Y-92.112
T11
X135.598Y-39.646
X141.598Y-39.646
X144.996Y-39.646
X150.996Y-39.646
X154.394Y-39.646
X160.394Y-39.646
X163.792Y-39.646
X169.792Y-39.646
T12
X130.347Y-40.556
X130.347Y-85.26
X175.051Y-40.556
X175.051Y-85.26
M30
