%TF.GenerationSoftware,KiCad,Pcbnew,10.0.4*%
%TF.CreationDate,2026-08-18T19:35:56-07:00*%
%TF.ProjectId,Impulse_2.3,496d7075-6c73-4655-9f32-2e332e6b6963,rev?*%
%TF.SameCoordinates,Original*%
%TF.FileFunction,Soldermask,Top*%
%TF.FilePolarity,Negative*%
%FSLAX46Y46*%
G04 Gerber Fmt 4.6, Leading zero omitted, Abs format (unit mm)*
G04 Created by KiCad (PCBNEW 10.0.4) date 2026-08-18 19:35:56*
%MOMM*%
%LPD*%
G01*
G04 APERTURE LIST*
G04 Aperture macros list*
%AMRoundRect*
0 Rectangle with rounded corners*
0 $1 Rounding radius*
0 $2 $3 $4 $5 $6 $7 $8 $9 X,Y pos of 4 corners*
0 Add a 4 corners polygon primitive as box body*
4,1,4,$2,$3,$4,$5,$6,$7,$8,$9,$2,$3,0*
0 Add four circle primitives for the rounded corners*
1,1,$1+$1,$2,$3*
1,1,$1+$1,$4,$5*
1,1,$1+$1,$6,$7*
1,1,$1+$1,$8,$9*
0 Add four rect primitives between the rounded corners*
20,1,$1+$1,$2,$3,$4,$5,0*
20,1,$1+$1,$4,$5,$6,$7,0*
20,1,$1+$1,$6,$7,$8,$9,0*
20,1,$1+$1,$8,$9,$2,$3,0*%
%AMFreePoly0*
4,1,9,2.100000,-2.000000,2.350000,-2.000000,2.350000,-3.500000,-2.350000,-3.500000,-2.350000,-2.000000,-2.100000,-2.000000,-2.100000,1.100000,2.100000,1.100000,2.100000,-2.000000,2.100000,-2.000000,$1*%
G04 Aperture macros list end*
%ADD10C,1.600000*%
%ADD11R,1.600000X1.600000*%
%ADD12RoundRect,0.250000X-0.325000X-0.650000X0.325000X-0.650000X0.325000X0.650000X-0.325000X0.650000X0*%
%ADD13RoundRect,0.200000X0.275000X-0.200000X0.275000X0.200000X-0.275000X0.200000X-0.275000X-0.200000X0*%
%ADD14RoundRect,0.200000X-0.275000X0.200000X-0.275000X-0.200000X0.275000X-0.200000X0.275000X0.200000X0*%
%ADD15C,2.000000*%
%ADD16R,1.700000X1.700000*%
%ADD17C,1.700000*%
%ADD18RoundRect,0.225000X-0.225000X-0.250000X0.225000X-0.250000X0.225000X0.250000X-0.225000X0.250000X0*%
%ADD19RoundRect,0.150000X-0.150000X-0.700000X0.150000X-0.700000X0.150000X0.700000X-0.150000X0.700000X0*%
%ADD20RoundRect,0.250000X-0.250000X-1.150000X0.250000X-1.150000X0.250000X1.150000X-0.250000X1.150000X0*%
%ADD21RoundRect,0.250000X0.650000X-0.325000X0.650000X0.325000X-0.650000X0.325000X-0.650000X-0.325000X0*%
%ADD22RoundRect,0.250000X-1.500000X-0.550000X1.500000X-0.550000X1.500000X0.550000X-1.500000X0.550000X0*%
%ADD23C,1.020000*%
%ADD24RoundRect,0.250001X0.499999X0.499999X-0.499999X0.499999X-0.499999X-0.499999X0.499999X-0.499999X0*%
%ADD25C,1.500000*%
%ADD26R,2.350000X5.100000*%
%ADD27RoundRect,0.250000X0.550000X0.550000X-0.550000X0.550000X-0.550000X-0.550000X0.550000X-0.550000X0*%
%ADD28RoundRect,0.200000X-0.200000X-0.275000X0.200000X-0.275000X0.200000X0.275000X-0.200000X0.275000X0*%
%ADD29RoundRect,0.225000X0.250000X-0.225000X0.250000X0.225000X-0.250000X0.225000X-0.250000X-0.225000X0*%
%ADD30RoundRect,0.175000X0.400000X-0.175000X0.400000X0.175000X-0.400000X0.175000X-0.400000X-0.175000X0*%
%ADD31FreePoly0,90.000000*%
%ADD32RoundRect,0.250000X0.475000X-0.250000X0.475000X0.250000X-0.475000X0.250000X-0.475000X-0.250000X0*%
%ADD33RoundRect,0.150000X-0.512500X-0.150000X0.512500X-0.150000X0.512500X0.150000X-0.512500X0.150000X0*%
%ADD34RoundRect,0.243750X0.456250X-0.243750X0.456250X0.243750X-0.456250X0.243750X-0.456250X-0.243750X0*%
%ADD35C,3.200000*%
%ADD36RoundRect,0.150000X0.512500X0.150000X-0.512500X0.150000X-0.512500X-0.150000X0.512500X-0.150000X0*%
%ADD37RoundRect,0.225000X-0.250000X0.225000X-0.250000X-0.225000X0.250000X-0.225000X0.250000X0.225000X0*%
%ADD38R,1.800000X1.800000*%
%ADD39C,1.800000*%
%ADD40R,1.500000X0.900000*%
%ADD41RoundRect,0.250000X0.650000X-1.000000X0.650000X1.000000X-0.650000X1.000000X-0.650000X-1.000000X0*%
%ADD42RoundRect,0.250000X-1.500000X-1.000000X1.500000X-1.000000X1.500000X1.000000X-1.500000X1.000000X0*%
G04 APERTURE END LIST*
D10*
%TO.C,U1*%
X179369000Y-55288000D03*
X176829000Y-55288000D03*
X174289000Y-55288000D03*
X171749000Y-55288000D03*
X146349000Y-55288000D03*
X176829000Y-70528000D03*
X169209000Y-55288000D03*
X166669000Y-55288000D03*
X164129000Y-55288000D03*
X161589000Y-55288000D03*
X159049000Y-55288000D03*
X156509000Y-55288000D03*
X153969000Y-55288000D03*
X151429000Y-55288000D03*
X148889000Y-55288000D03*
X148889000Y-70528000D03*
X151429000Y-70528000D03*
X153969000Y-70528000D03*
X156509000Y-70528000D03*
X159049000Y-70528000D03*
X161589000Y-70528000D03*
X164129000Y-70528000D03*
X166669000Y-70528000D03*
X169209000Y-70528000D03*
X171749000Y-70528000D03*
X174289000Y-70528000D03*
X143809000Y-55288000D03*
X141269000Y-55288000D03*
X138729000Y-55288000D03*
X136189000Y-55288000D03*
X133649000Y-55288000D03*
X131109000Y-55288000D03*
X128569000Y-55288000D03*
X126029000Y-55288000D03*
X123489000Y-55288000D03*
X123489000Y-70528000D03*
X126029000Y-70528000D03*
X128569000Y-70528000D03*
X131109000Y-70528000D03*
X133649000Y-70528000D03*
X136189000Y-70528000D03*
X138729000Y-70528000D03*
X141269000Y-70528000D03*
X143809000Y-70528000D03*
D11*
X181909000Y-55288000D03*
D10*
X146349000Y-70528000D03*
X179369000Y-70528000D03*
X181909000Y-70528000D03*
%TD*%
D12*
%TO.C,C9*%
X146008000Y-62430000D03*
X143058000Y-62430000D03*
%TD*%
D13*
%TO.C,R68*%
X158410000Y-51190000D03*
X158410000Y-49540000D03*
%TD*%
D14*
%TO.C,R67*%
X161712000Y-49540000D03*
X161712000Y-51190000D03*
%TD*%
D15*
%TO.C,BUTTON1*%
X156124000Y-92112000D03*
X149624000Y-92112000D03*
X156124000Y-87612000D03*
X149624000Y-87612000D03*
%TD*%
D16*
%TO.C,JZ1*%
X141900000Y-79575000D03*
D17*
X141900000Y-77035000D03*
X141900000Y-74495000D03*
%TD*%
D18*
%TO.C,C46*%
X153317000Y-59382000D03*
X154867000Y-59382000D03*
%TD*%
D19*
%TO.C,J_SENSOR1*%
X127151000Y-52061000D03*
X128401000Y-52061000D03*
X129651000Y-52061000D03*
X130901000Y-52061000D03*
X132151000Y-52061000D03*
X133401000Y-52061000D03*
X134651000Y-52061000D03*
X135901000Y-52061000D03*
X137151000Y-52061000D03*
X138401000Y-52061000D03*
X139651000Y-52061000D03*
X140901000Y-52061000D03*
D20*
X125301000Y-48711000D03*
X142751000Y-48711000D03*
%TD*%
D21*
%TO.C,C8*%
X178857000Y-63368000D03*
X178857000Y-66318000D03*
%TD*%
D22*
%TO.C,C43*%
X124755000Y-76273000D03*
X130155000Y-76273000D03*
%TD*%
D16*
%TO.C,JX1*%
X134280000Y-79575000D03*
D17*
X134280000Y-77035000D03*
X134280000Y-74495000D03*
%TD*%
D23*
%TO.C,P1O*%
X169792000Y-39646000D03*
X163792000Y-39646000D03*
D24*
X166792000Y-43586000D03*
D25*
X166792000Y-40586000D03*
%TD*%
D26*
%TO.C,L2*%
X173185000Y-65478000D03*
X169035000Y-65478000D03*
%TD*%
D27*
%TO.C,SW2*%
X146599000Y-91132000D03*
D10*
X138979000Y-91132000D03*
%TD*%
D28*
%TO.C,R81*%
X146790000Y-50873000D03*
X148440000Y-50873000D03*
%TD*%
D16*
%TO.C,JC1*%
X153330000Y-79575000D03*
D17*
X153330000Y-77035000D03*
X153330000Y-74495000D03*
%TD*%
D29*
%TO.C,C4*%
X166792000Y-64576000D03*
X166792000Y-66126000D03*
%TD*%
D30*
%TO.C,Q21*%
X164236000Y-48079000D03*
X164236000Y-49349000D03*
X164236000Y-50619000D03*
X164236000Y-51889000D03*
D31*
X166961000Y-49984000D03*
%TD*%
D21*
%TO.C,C6*%
X159934000Y-63368000D03*
X159934000Y-66318000D03*
%TD*%
D32*
%TO.C,C44*%
X122723000Y-52331000D03*
X122723000Y-50431000D03*
%TD*%
D16*
%TO.C,JB1*%
X149520000Y-79575000D03*
D17*
X149520000Y-77035000D03*
X149520000Y-74495000D03*
%TD*%
D27*
%TO.C,SW1*%
X166792000Y-91132000D03*
D10*
X159172000Y-91132000D03*
%TD*%
D16*
%TO.C,JD1*%
X157140000Y-79575000D03*
D17*
X157140000Y-77035000D03*
X157140000Y-74495000D03*
%TD*%
D33*
%TO.C,U8*%
X149271500Y-59321000D03*
X149271500Y-60271000D03*
X149271500Y-61221000D03*
X151546500Y-61221000D03*
X151546500Y-59321000D03*
%TD*%
D29*
%TO.C,C3*%
X147433000Y-65203000D03*
X147433000Y-66753000D03*
%TD*%
D18*
%TO.C,C33*%
X176418000Y-68018000D03*
X177968000Y-68018000D03*
%TD*%
D23*
%TO.C,P4O*%
X141598000Y-39646000D03*
X135598000Y-39646000D03*
D24*
X138598000Y-43586000D03*
D25*
X138598000Y-40586000D03*
%TD*%
D34*
%TO.C,LED2*%
X160061000Y-85465500D03*
X160061000Y-83590500D03*
%TD*%
D35*
%TO.C,H3*%
X175051000Y-85260000D03*
%TD*%
D16*
%TO.C,U7*%
X127930000Y-58747000D03*
D17*
X130470000Y-58747000D03*
X133010000Y-58747000D03*
X135550000Y-58747000D03*
X138090000Y-58747000D03*
X140630000Y-58747000D03*
%TD*%
D34*
%TO.C,LED3*%
X163109000Y-85465500D03*
X163109000Y-83590500D03*
%TD*%
D36*
%TO.C,U3*%
X164754500Y-66428000D03*
X164754500Y-65478000D03*
X164754500Y-64528000D03*
X162479500Y-64528000D03*
X162479500Y-65478000D03*
X162479500Y-66428000D03*
%TD*%
D16*
%TO.C,PI*%
X152695000Y-48714000D03*
D17*
X152695000Y-51254000D03*
%TD*%
D23*
%TO.C,P3O*%
X150996000Y-39646000D03*
X144996000Y-39646000D03*
D24*
X147996000Y-43586000D03*
D25*
X147996000Y-40586000D03*
%TD*%
D35*
%TO.C,H1*%
X130347000Y-40556000D03*
%TD*%
%TO.C,H4*%
X130347000Y-85260000D03*
%TD*%
D37*
%TO.C,C45*%
X147234000Y-58734000D03*
X147234000Y-60284000D03*
%TD*%
D23*
%TO.C,P2O*%
X160394000Y-39646000D03*
X154394000Y-39646000D03*
D24*
X157394000Y-43586000D03*
D25*
X157394000Y-40586000D03*
%TD*%
D26*
%TO.C,L1*%
X149858000Y-65478000D03*
X154008000Y-65478000D03*
%TD*%
D38*
%TO.C,BUZZER*%
X167110000Y-77543000D03*
D39*
X171110000Y-77543000D03*
%TD*%
D34*
%TO.C,P1*%
X136820000Y-85495500D03*
X136820000Y-83620500D03*
%TD*%
D28*
%TO.C,R80*%
X158728000Y-61033000D03*
X160378000Y-61033000D03*
%TD*%
D40*
%TO.C,LED1*%
X151653000Y-96277000D03*
X151653000Y-94877000D03*
X154753000Y-96277000D03*
X154753000Y-94877000D03*
%TD*%
D16*
%TO.C,JA1*%
X145710000Y-79575000D03*
D17*
X145710000Y-77035000D03*
X145710000Y-74495000D03*
%TD*%
D28*
%TO.C,R79*%
X155172000Y-61033000D03*
X156822000Y-61033000D03*
%TD*%
D41*
%TO.C,D1*%
X182032000Y-66843000D03*
X182032000Y-62843000D03*
%TD*%
D34*
%TO.C,LED4*%
X166157000Y-85465500D03*
X166157000Y-83590500D03*
%TD*%
D16*
%TO.C,MI*%
X160950000Y-77035000D03*
D17*
X160950000Y-74495000D03*
%TD*%
D28*
%TO.C,R70*%
X146790000Y-52524000D03*
X148440000Y-52524000D03*
%TD*%
D34*
%TO.C,P3*%
X143043000Y-85465500D03*
X143043000Y-83590500D03*
%TD*%
D21*
%TO.C,C7*%
X176063000Y-63368000D03*
X176063000Y-66318000D03*
%TD*%
D33*
%TO.C,U2*%
X145670500Y-66428000D03*
X145670500Y-65478000D03*
X145670500Y-64528000D03*
X143395500Y-64528000D03*
X143395500Y-65478000D03*
X143395500Y-66428000D03*
%TD*%
D22*
%TO.C,C39*%
X181557000Y-76273000D03*
X176157000Y-76273000D03*
%TD*%
D34*
%TO.C,P4*%
X146091000Y-85465500D03*
X146091000Y-83590500D03*
%TD*%
D28*
%TO.C,R23*%
X152124000Y-85163000D03*
X153774000Y-85163000D03*
%TD*%
D12*
%TO.C,C2*%
X165385000Y-62478000D03*
X162435000Y-62478000D03*
%TD*%
D34*
%TO.C,P2*%
X139868000Y-85465500D03*
X139868000Y-83590500D03*
%TD*%
D35*
%TO.C,H2*%
X175051000Y-40556000D03*
%TD*%
D21*
%TO.C,C5*%
X157013000Y-63368000D03*
X157013000Y-66318000D03*
%TD*%
D16*
%TO.C,JY1*%
X138090000Y-79575000D03*
D17*
X138090000Y-77035000D03*
X138090000Y-74495000D03*
%TD*%
D42*
%TO.C,C10*%
X173575000Y-48841000D03*
X180075000Y-48841000D03*
%TD*%
D37*
%TO.C,C15*%
X160061000Y-49590000D03*
X160061000Y-51140000D03*
%TD*%
D16*
%TO.C,U6*%
X123485000Y-67256000D03*
D17*
X126025000Y-67256000D03*
X128565000Y-67256000D03*
X131105000Y-67256000D03*
X133645000Y-67256000D03*
X136185000Y-67256000D03*
X138725000Y-67256000D03*
X141265000Y-67256000D03*
%TD*%
M02*
