%TF.GenerationSoftware,KiCad,Pcbnew,10.0.4*%
%TF.CreationDate,2026-08-21T12:40:26-07:00*%
%TF.ProjectId,Impulse_2.3,496d7075-6c73-4655-9f32-2e332e6b6963,rev?*%
%TF.SameCoordinates,Original*%
%TF.FileFunction,Drillmap*%
%TF.FilePolarity,Positive*%
%FSLAX45Y45*%
G04 Gerber Fmt 4.5, Leading zero omitted, Abs format (unit mm)*
G04 Created by KiCad (PCBNEW 10.0.4) date 2026-08-21 12:40:26*
%MOMM*%
%LPD*%
G01*
G04 APERTURE LIST*
%ADD10C,0.100000*%
%ADD11C,0.200000*%
%ADD12C,0.102000*%
%ADD13C,0.110000*%
G04 APERTURE END LIST*
D10*
X13770000Y-3127720D02*
X13770000Y-3465000D01*
X13970000Y-3665000D02*
G75*
G02*
X13770000Y-3465000I0J200000D01*
G01*
X13970000Y-3665000D02*
X16570000Y-3665000D01*
X16770000Y-3127720D02*
G75*
G02*
X13770000Y-3127720I-1500000J-3162279D01*
G01*
X16770000Y-3465000D02*
G75*
G02*
X16570000Y-3665000I-200000J0D01*
G01*
X16770000Y-3465000D02*
X16770000Y-3127720D01*
D11*
D10*
X12668220Y-6046010D02*
X12698220Y-6076010D01*
X12698220Y-6046010D02*
X12668220Y-6076010D01*
X12793160Y-8167590D02*
X12823160Y-8197590D01*
X12823160Y-8167590D02*
X12793160Y-8197590D01*
X13345650Y-5054140D02*
X13375650Y-5084140D01*
X13375650Y-5054140D02*
X13345650Y-5084140D01*
X13453760Y-4962510D02*
X13483760Y-4992510D01*
X13483760Y-4962510D02*
X13453760Y-4992510D01*
X13556280Y-8452420D02*
X13586280Y-8482420D01*
X13586280Y-8452420D02*
X13556280Y-8482420D01*
X13572980Y-4982290D02*
X13602980Y-5012290D01*
X13602980Y-4982290D02*
X13572980Y-5012290D01*
X13679750Y-6154580D02*
X13709750Y-6184580D01*
X13709750Y-6154580D02*
X13679750Y-6184580D01*
X13703000Y-5668000D02*
X13733000Y-5698000D01*
X13733000Y-5668000D02*
X13703000Y-5698000D01*
X13910000Y-6230000D02*
X13940000Y-6260000D01*
X13940000Y-6230000D02*
X13910000Y-6260000D01*
X13951800Y-8743090D02*
X13981800Y-8773090D01*
X13981800Y-8743090D02*
X13951800Y-8773090D01*
X13983030Y-5354770D02*
X14013030Y-5384770D01*
X14013030Y-5354770D02*
X13983030Y-5384770D01*
X14148540Y-5661530D02*
X14178540Y-5691530D01*
X14178540Y-5661530D02*
X14148540Y-5691530D01*
X14153300Y-4905050D02*
X14183300Y-4935050D01*
X14183300Y-4905050D02*
X14153300Y-4935050D01*
X14157910Y-8496080D02*
X14187910Y-8526080D01*
X14187910Y-8496080D02*
X14157910Y-8526080D01*
X14163230Y-5284200D02*
X14193230Y-5314200D01*
X14193230Y-5284200D02*
X14163230Y-5314200D01*
X14270000Y-6755000D02*
X14300000Y-6785000D01*
X14300000Y-6755000D02*
X14270000Y-6785000D01*
X14291150Y-7552200D02*
X14321150Y-7582200D01*
X14321150Y-7552200D02*
X14291150Y-7582200D01*
X14435420Y-6360890D02*
X14465420Y-6390890D01*
X14465420Y-6360890D02*
X14435420Y-6390890D01*
X14455270Y-8496080D02*
X14485270Y-8526080D01*
X14485270Y-8496080D02*
X14455270Y-8526080D01*
X14465490Y-5237630D02*
X14495490Y-5267630D01*
X14495490Y-5237630D02*
X14465490Y-5267630D01*
X14540000Y-8225000D02*
X14570000Y-8255000D01*
X14570000Y-8225000D02*
X14540000Y-8255000D01*
X14655770Y-6375010D02*
X14685770Y-6405010D01*
X14685770Y-6375010D02*
X14655770Y-6405010D01*
X15222890Y-9242330D02*
X15252890Y-9272330D01*
X15252890Y-9242330D02*
X15222890Y-9272330D01*
X15618440Y-8546310D02*
X15648440Y-8576310D01*
X15648440Y-8546310D02*
X15618440Y-8576310D01*
X15668770Y-8970920D02*
X15698770Y-9000920D01*
X15698770Y-8970920D02*
X15668770Y-9000920D01*
X15763990Y-5633720D02*
X15793990Y-5663720D01*
X15793990Y-5633720D02*
X15763990Y-5663720D01*
X15901880Y-8437800D02*
X15931880Y-8467800D01*
X15931880Y-8437800D02*
X15901880Y-8467800D01*
X15948330Y-8712420D02*
X15978330Y-8742420D01*
X15978330Y-8712420D02*
X15948330Y-8742420D01*
X16011230Y-5854850D02*
X16041230Y-5884850D01*
X16041230Y-5854850D02*
X16011230Y-5884850D01*
X16036140Y-6897570D02*
X16066140Y-6927570D01*
X16066140Y-6897570D02*
X16036140Y-6927570D01*
X16128000Y-6563000D02*
X16158000Y-6593000D01*
X16158000Y-6563000D02*
X16128000Y-6593000D01*
X16174810Y-8352270D02*
X16204810Y-8382270D01*
X16204810Y-8352270D02*
X16174810Y-8382270D01*
X16207040Y-6749740D02*
X16237040Y-6779740D01*
X16237040Y-6749740D02*
X16207040Y-6779740D01*
X16268280Y-5071720D02*
X16298280Y-5101720D01*
X16298280Y-5071720D02*
X16268280Y-5101720D01*
X16348400Y-6775730D02*
X16378400Y-6805730D01*
X16378400Y-6775730D02*
X16348400Y-6805730D01*
X16384510Y-6013240D02*
X16414510Y-6043240D01*
X16414510Y-6013240D02*
X16384510Y-6043240D01*
X16385000Y-6303000D02*
X16415000Y-6333000D01*
X16415000Y-6303000D02*
X16385000Y-6333000D01*
X16526240Y-7780260D02*
X16556240Y-7810260D01*
X16556240Y-7780260D02*
X16526240Y-7810260D01*
X16618890Y-8237400D02*
X16648890Y-8267400D01*
X16648890Y-8237400D02*
X16618890Y-8267400D01*
X16654370Y-6251330D02*
X16684370Y-6281330D01*
X16684370Y-6251330D02*
X16654370Y-6281330D01*
X16759870Y-8221510D02*
X16789870Y-8251510D01*
X16789870Y-8221510D02*
X16759870Y-8251510D01*
X16846740Y-8230310D02*
X16876740Y-8260310D01*
X16876740Y-8230310D02*
X16846740Y-8260310D01*
X17087510Y-6691890D02*
X17117510Y-6721890D01*
X17117510Y-6691890D02*
X17087510Y-6721890D01*
X17340850Y-5297230D02*
X17370850Y-5327230D01*
X17370850Y-5297230D02*
X17340850Y-5327230D01*
X17471330Y-5184890D02*
X17501330Y-5214890D01*
X17501330Y-5184890D02*
X17471330Y-5214890D01*
X17635500Y-7304940D02*
X17665500Y-7334940D01*
X17665500Y-7304940D02*
X17635500Y-7334940D01*
X17640220Y-7894410D02*
X17670220Y-7924410D01*
X17670220Y-7894410D02*
X17640220Y-7924410D01*
X14349720Y-6089250D02*
G75*
G02*
X14314720Y-6089250I-17500J0D01*
G01*
X14314720Y-6089250D02*
G75*
G02*
X14349720Y-6089250I17500J0D01*
G01*
X14980090Y-6222440D02*
G75*
G02*
X14945090Y-6222440I-17500J0D01*
G01*
X14945090Y-6222440D02*
G75*
G02*
X14980090Y-6222440I17500J0D01*
G01*
X15833230Y-6443480D02*
G75*
G02*
X15798230Y-6443480I-17500J0D01*
G01*
X15798230Y-6443480D02*
G75*
G02*
X15833230Y-6443480I17500J0D01*
G01*
X16381040Y-7616070D02*
G75*
G02*
X16346040Y-7616070I-17500J0D01*
G01*
X16346040Y-7616070D02*
G75*
G02*
X16381040Y-7616070I17500J0D01*
G01*
X16532600Y-8189670D02*
G75*
G02*
X16497600Y-8189670I-17500J0D01*
G01*
X16497600Y-8189670D02*
G75*
G02*
X16532600Y-8189670I17500J0D01*
G01*
X17525930Y-6474630D02*
G75*
G02*
X17490930Y-6474630I-17500J0D01*
G01*
X17490930Y-6474630D02*
G75*
G02*
X17525930Y-6474630I17500J0D01*
G01*
X12570000Y-4370000D02*
X12570000Y-4410000D01*
X12550000Y-4390000D02*
X12590000Y-4390000D01*
X12970000Y-7170000D02*
X12970000Y-7210000D01*
X12950000Y-7190000D02*
X12990000Y-7190000D01*
X12970000Y-7570000D02*
X12970000Y-7610000D01*
X12950000Y-7590000D02*
X12990000Y-7590000D01*
X13370000Y-3570000D02*
X13370000Y-3610000D01*
X13350000Y-3590000D02*
X13390000Y-3590000D01*
X13370000Y-4370000D02*
X13370000Y-4410000D01*
X13350000Y-4390000D02*
X13390000Y-4390000D01*
X13370000Y-8770000D02*
X13370000Y-8810000D01*
X13350000Y-8790000D02*
X13390000Y-8790000D01*
X13770000Y-8770000D02*
X13770000Y-8810000D01*
X13750000Y-8790000D02*
X13790000Y-8790000D01*
X13770000Y-9170000D02*
X13770000Y-9210000D01*
X13750000Y-9190000D02*
X13790000Y-9190000D01*
X14170000Y-4370000D02*
X14170000Y-4410000D01*
X14150000Y-4390000D02*
X14190000Y-4390000D01*
X14170000Y-8770000D02*
X14170000Y-8810000D01*
X14150000Y-8790000D02*
X14190000Y-8790000D01*
X14170000Y-9170000D02*
X14170000Y-9210000D01*
X14150000Y-9190000D02*
X14190000Y-9190000D01*
X14496000Y-4986100D02*
X14496000Y-5026100D01*
X14476000Y-5006100D02*
X14516000Y-5006100D01*
X14570000Y-8770000D02*
X14570000Y-8810000D01*
X14550000Y-8790000D02*
X14590000Y-8790000D01*
X14570000Y-9570000D02*
X14570000Y-9610000D01*
X14550000Y-9590000D02*
X14590000Y-9590000D01*
X14970000Y-8370000D02*
X14970000Y-8410000D01*
X14950000Y-8390000D02*
X14990000Y-8390000D01*
X15089400Y-4872900D02*
X15089400Y-4912900D01*
X15069400Y-4892900D02*
X15109400Y-4892900D01*
X15370000Y-4370000D02*
X15370000Y-4410000D01*
X15350000Y-4390000D02*
X15390000Y-4390000D01*
X15410300Y-5019200D02*
X15410300Y-5059200D01*
X15390300Y-5039200D02*
X15430300Y-5039200D01*
X15456500Y-4899200D02*
X15456500Y-4939200D01*
X15436500Y-4919200D02*
X15476500Y-4919200D01*
X15468100Y-4979200D02*
X15468100Y-5019200D01*
X15448100Y-4999200D02*
X15488100Y-4999200D01*
X15770000Y-9570000D02*
X15770000Y-9610000D01*
X15750000Y-9590000D02*
X15790000Y-9590000D01*
X16170000Y-4370000D02*
X16170000Y-4410000D01*
X16150000Y-4390000D02*
X16190000Y-4390000D01*
X16170000Y-8770000D02*
X16170000Y-8810000D01*
X16150000Y-8790000D02*
X16190000Y-8790000D01*
X16170000Y-9170000D02*
X16170000Y-9210000D01*
X16150000Y-9190000D02*
X16190000Y-9190000D01*
X16570000Y-8770000D02*
X16570000Y-8810000D01*
X16550000Y-8790000D02*
X16590000Y-8790000D01*
X16970000Y-3570000D02*
X16970000Y-3610000D01*
X16950000Y-3590000D02*
X16990000Y-3590000D01*
X16970000Y-7970000D02*
X16970000Y-8010000D01*
X16950000Y-7990000D02*
X16990000Y-7990000D01*
X16970000Y-8770000D02*
X16970000Y-8810000D01*
X16950000Y-8790000D02*
X16990000Y-8790000D01*
X16970000Y-9170000D02*
X16970000Y-9210000D01*
X16950000Y-9190000D02*
X16990000Y-9190000D01*
X17135700Y-5099200D02*
X17135700Y-5139200D01*
X17115700Y-5119200D02*
X17155700Y-5119200D01*
X17370000Y-7570000D02*
X17370000Y-7610000D01*
X17350000Y-7590000D02*
X17390000Y-7590000D01*
X17370000Y-7970000D02*
X17370000Y-8010000D01*
X17350000Y-7990000D02*
X17390000Y-7990000D01*
X17370000Y-8770000D02*
X17370000Y-8810000D01*
X17350000Y-8790000D02*
X17390000Y-8790000D01*
X17770000Y-4370000D02*
X17770000Y-4410000D01*
X17750000Y-4390000D02*
X17790000Y-4390000D01*
X17770000Y-5170000D02*
X17770000Y-5210000D01*
X17750000Y-5190000D02*
X17790000Y-5190000D01*
X17770000Y-5970000D02*
X17770000Y-6010000D01*
X17750000Y-5990000D02*
X17790000Y-5990000D01*
X17770000Y-8370000D02*
X17770000Y-8410000D01*
X17750000Y-8390000D02*
X17790000Y-8390000D01*
X18170000Y-4770000D02*
X18170000Y-4810000D01*
X18150000Y-4790000D02*
X18190000Y-4790000D01*
X18170000Y-5970000D02*
X18170000Y-6010000D01*
X18150000Y-5990000D02*
X18190000Y-5990000D01*
X18570000Y-5570000D02*
X18570000Y-5610000D01*
X18550000Y-5590000D02*
X18590000Y-5590000D01*
X18570000Y-5970000D02*
X18570000Y-6010000D01*
X18550000Y-5990000D02*
X18590000Y-5990000D01*
X18570000Y-6370000D02*
X18570000Y-6410000D01*
X18550000Y-6390000D02*
X18590000Y-6390000D01*
X18570000Y-6770000D02*
X18570000Y-6810000D01*
X18550000Y-6790000D02*
X18590000Y-6790000D01*
X13968020Y-6405000D02*
X13968020Y-6373180D01*
X13936200Y-6373180D01*
X13936200Y-6405000D01*
X13968020Y-6405000D01*
X14466470Y-6278880D02*
X14466470Y-6247060D01*
X14434650Y-6247060D01*
X14434650Y-6278880D01*
X14466470Y-6278880D01*
X15389630Y-6175110D02*
X15389630Y-6143290D01*
X15357810Y-6143290D01*
X15357810Y-6175110D01*
X15389630Y-6175110D01*
X17126910Y-6472960D02*
X17126910Y-6441140D01*
X17095090Y-6441140D01*
X17095090Y-6472960D01*
X17126910Y-6472960D01*
X14538510Y-5906950D02*
X14563510Y-5881950D01*
X14538510Y-5856950D01*
X14513510Y-5881950D01*
X14538510Y-5906950D01*
X16833760Y-5949350D02*
X16858760Y-5924350D01*
X16833760Y-5899350D01*
X16808760Y-5924350D01*
X16833760Y-5949350D01*
X18319900Y-7344940D02*
X18344900Y-7319940D01*
X18319900Y-7294940D01*
X18294900Y-7319940D01*
X18319900Y-7344940D01*
X12725200Y-4677090D02*
X12785200Y-4737090D01*
X12785200Y-4677090D02*
X12725200Y-4737090D01*
X12785200Y-4707090D02*
G75*
G02*
X12725200Y-4707090I-30000J0D01*
G01*
X12725200Y-4707090D02*
G75*
G02*
X12785200Y-4707090I30000J0D01*
G01*
X13696540Y-8192000D02*
X13756540Y-8252000D01*
X13756540Y-8192000D02*
X13696540Y-8252000D01*
X13756540Y-8222000D02*
G75*
G02*
X13696540Y-8222000I-30000J0D01*
G01*
X13696540Y-8222000D02*
G75*
G02*
X13756540Y-8222000I30000J0D01*
G01*
X14210000Y-8186650D02*
X14270000Y-8246650D01*
X14270000Y-8186650D02*
X14210000Y-8246650D01*
X14270000Y-8216650D02*
G75*
G02*
X14210000Y-8216650I-30000J0D01*
G01*
X14210000Y-8216650D02*
G75*
G02*
X14270000Y-8216650I30000J0D01*
G01*
X16801080Y-5707590D02*
X16861080Y-5767590D01*
X16861080Y-5707590D02*
X16801080Y-5767590D01*
X16861080Y-5737590D02*
G75*
G02*
X16801080Y-5737590I-30000J0D01*
G01*
X16801080Y-5737590D02*
G75*
G02*
X16861080Y-5737590I30000J0D01*
G01*
X13857900Y-9073200D02*
X13937900Y-9153200D01*
X13937900Y-9073200D02*
X13857900Y-9153200D01*
X13897900Y-9073200D02*
X13897900Y-9153200D01*
X13857900Y-9113200D02*
X13937900Y-9113200D01*
X14619900Y-9073200D02*
X14699900Y-9153200D01*
X14699900Y-9073200D02*
X14619900Y-9153200D01*
X14659900Y-9073200D02*
X14659900Y-9153200D01*
X14619900Y-9113200D02*
X14699900Y-9113200D01*
X15877200Y-9073200D02*
X15957200Y-9153200D01*
X15957200Y-9073200D02*
X15877200Y-9153200D01*
X15917200Y-9073200D02*
X15917200Y-9153200D01*
X15877200Y-9113200D02*
X15957200Y-9113200D01*
X16639200Y-9073200D02*
X16719200Y-9153200D01*
X16719200Y-9073200D02*
X16639200Y-9153200D01*
X16679200Y-9073200D02*
X16679200Y-9153200D01*
X16639200Y-9113200D02*
X16719200Y-9113200D01*
X12298500Y-6675600D02*
X12398500Y-6775600D01*
X12398500Y-6675600D02*
X12298500Y-6775600D01*
X12383856Y-6760956D02*
X12383856Y-6690244D01*
X12313144Y-6690244D01*
X12313144Y-6760956D01*
X12383856Y-6760956D01*
X12552500Y-6675600D02*
X12652500Y-6775600D01*
X12652500Y-6675600D02*
X12552500Y-6775600D01*
X12637856Y-6760956D02*
X12637856Y-6690244D01*
X12567144Y-6690244D01*
X12567144Y-6760956D01*
X12637856Y-6760956D01*
X12743000Y-5824700D02*
X12843000Y-5924700D01*
X12843000Y-5824700D02*
X12743000Y-5924700D01*
X12828356Y-5910056D02*
X12828356Y-5839344D01*
X12757644Y-5839344D01*
X12757644Y-5910056D01*
X12828356Y-5910056D01*
X12806500Y-6675600D02*
X12906500Y-6775600D01*
X12906500Y-6675600D02*
X12806500Y-6775600D01*
X12891856Y-6760956D02*
X12891856Y-6690244D01*
X12821144Y-6690244D01*
X12821144Y-6760956D01*
X12891856Y-6760956D01*
X12997000Y-5824700D02*
X13097000Y-5924700D01*
X13097000Y-5824700D02*
X12997000Y-5924700D01*
X13082356Y-5910056D02*
X13082356Y-5839344D01*
X13011644Y-5839344D01*
X13011644Y-5910056D01*
X13082356Y-5910056D01*
X13060500Y-6675600D02*
X13160500Y-6775600D01*
X13160500Y-6675600D02*
X13060500Y-6775600D01*
X13145856Y-6760956D02*
X13145856Y-6690244D01*
X13075144Y-6690244D01*
X13075144Y-6760956D01*
X13145856Y-6760956D01*
X13251000Y-5824700D02*
X13351000Y-5924700D01*
X13351000Y-5824700D02*
X13251000Y-5924700D01*
X13336356Y-5910056D02*
X13336356Y-5839344D01*
X13265644Y-5839344D01*
X13265644Y-5910056D01*
X13336356Y-5910056D01*
X13314500Y-6675600D02*
X13414500Y-6775600D01*
X13414500Y-6675600D02*
X13314500Y-6775600D01*
X13399856Y-6760956D02*
X13399856Y-6690244D01*
X13329144Y-6690244D01*
X13329144Y-6760956D01*
X13399856Y-6760956D01*
X13378000Y-7399500D02*
X13478000Y-7499500D01*
X13478000Y-7399500D02*
X13378000Y-7499500D01*
X13463356Y-7484856D02*
X13463356Y-7414144D01*
X13392644Y-7414144D01*
X13392644Y-7484856D01*
X13463356Y-7484856D01*
X13378000Y-7653500D02*
X13478000Y-7753500D01*
X13478000Y-7653500D02*
X13378000Y-7753500D01*
X13463356Y-7738856D02*
X13463356Y-7668144D01*
X13392644Y-7668144D01*
X13392644Y-7738856D01*
X13463356Y-7738856D01*
X13378000Y-7907500D02*
X13478000Y-8007500D01*
X13478000Y-7907500D02*
X13378000Y-8007500D01*
X13463356Y-7992856D02*
X13463356Y-7922144D01*
X13392644Y-7922144D01*
X13392644Y-7992856D01*
X13463356Y-7992856D01*
X13505000Y-5824700D02*
X13605000Y-5924700D01*
X13605000Y-5824700D02*
X13505000Y-5924700D01*
X13590356Y-5910056D02*
X13590356Y-5839344D01*
X13519644Y-5839344D01*
X13519644Y-5910056D01*
X13590356Y-5910056D01*
X13568500Y-6675600D02*
X13668500Y-6775600D01*
X13668500Y-6675600D02*
X13568500Y-6775600D01*
X13653856Y-6760956D02*
X13653856Y-6690244D01*
X13583144Y-6690244D01*
X13583144Y-6760956D01*
X13653856Y-6760956D01*
X13759000Y-5824700D02*
X13859000Y-5924700D01*
X13859000Y-5824700D02*
X13759000Y-5924700D01*
X13844356Y-5910056D02*
X13844356Y-5839344D01*
X13773644Y-5839344D01*
X13773644Y-5910056D01*
X13844356Y-5910056D01*
X13759000Y-7399500D02*
X13859000Y-7499500D01*
X13859000Y-7399500D02*
X13759000Y-7499500D01*
X13844356Y-7484856D02*
X13844356Y-7414144D01*
X13773644Y-7414144D01*
X13773644Y-7484856D01*
X13844356Y-7484856D01*
X13759000Y-7653500D02*
X13859000Y-7753500D01*
X13859000Y-7653500D02*
X13759000Y-7753500D01*
X13844356Y-7738856D02*
X13844356Y-7668144D01*
X13773644Y-7668144D01*
X13773644Y-7738856D01*
X13844356Y-7738856D01*
X13759000Y-7907500D02*
X13859000Y-8007500D01*
X13859000Y-7907500D02*
X13759000Y-8007500D01*
X13844356Y-7992856D02*
X13844356Y-7922144D01*
X13773644Y-7922144D01*
X13773644Y-7992856D01*
X13844356Y-7992856D01*
X13822500Y-6675600D02*
X13922500Y-6775600D01*
X13922500Y-6675600D02*
X13822500Y-6775600D01*
X13907856Y-6760956D02*
X13907856Y-6690244D01*
X13837144Y-6690244D01*
X13837144Y-6760956D01*
X13907856Y-6760956D01*
X14013000Y-5824700D02*
X14113000Y-5924700D01*
X14113000Y-5824700D02*
X14013000Y-5924700D01*
X14098356Y-5910056D02*
X14098356Y-5839344D01*
X14027644Y-5839344D01*
X14027644Y-5910056D01*
X14098356Y-5910056D01*
X14076500Y-6675600D02*
X14176500Y-6775600D01*
X14176500Y-6675600D02*
X14076500Y-6775600D01*
X14161856Y-6760956D02*
X14161856Y-6690244D01*
X14091144Y-6690244D01*
X14091144Y-6760956D01*
X14161856Y-6760956D01*
X14140000Y-7399500D02*
X14240000Y-7499500D01*
X14240000Y-7399500D02*
X14140000Y-7499500D01*
X14225356Y-7484856D02*
X14225356Y-7414144D01*
X14154644Y-7414144D01*
X14154644Y-7484856D01*
X14225356Y-7484856D01*
X14140000Y-7653500D02*
X14240000Y-7753500D01*
X14240000Y-7653500D02*
X14140000Y-7753500D01*
X14225356Y-7738856D02*
X14225356Y-7668144D01*
X14154644Y-7668144D01*
X14154644Y-7738856D01*
X14225356Y-7738856D01*
X14140000Y-7907500D02*
X14240000Y-8007500D01*
X14240000Y-7907500D02*
X14140000Y-8007500D01*
X14225356Y-7992856D02*
X14225356Y-7922144D01*
X14154644Y-7922144D01*
X14154644Y-7992856D01*
X14225356Y-7992856D01*
X14521000Y-7399500D02*
X14621000Y-7499500D01*
X14621000Y-7399500D02*
X14521000Y-7499500D01*
X14606356Y-7484856D02*
X14606356Y-7414144D01*
X14535644Y-7414144D01*
X14535644Y-7484856D01*
X14606356Y-7484856D01*
X14521000Y-7653500D02*
X14621000Y-7753500D01*
X14621000Y-7653500D02*
X14521000Y-7753500D01*
X14606356Y-7738856D02*
X14606356Y-7668144D01*
X14535644Y-7668144D01*
X14535644Y-7738856D01*
X14606356Y-7738856D01*
X14521000Y-7907500D02*
X14621000Y-8007500D01*
X14621000Y-7907500D02*
X14521000Y-8007500D01*
X14606356Y-7992856D02*
X14606356Y-7922144D01*
X14535644Y-7922144D01*
X14535644Y-7992856D01*
X14606356Y-7992856D01*
X14902000Y-7399500D02*
X15002000Y-7499500D01*
X15002000Y-7399500D02*
X14902000Y-7499500D01*
X14987356Y-7484856D02*
X14987356Y-7414144D01*
X14916644Y-7414144D01*
X14916644Y-7484856D01*
X14987356Y-7484856D01*
X14902000Y-7653500D02*
X15002000Y-7753500D01*
X15002000Y-7653500D02*
X14902000Y-7753500D01*
X14987356Y-7738856D02*
X14987356Y-7668144D01*
X14916644Y-7668144D01*
X14916644Y-7738856D01*
X14987356Y-7738856D01*
X14902000Y-7907500D02*
X15002000Y-8007500D01*
X15002000Y-7907500D02*
X14902000Y-8007500D01*
X14987356Y-7992856D02*
X14987356Y-7922144D01*
X14916644Y-7922144D01*
X14916644Y-7992856D01*
X14987356Y-7992856D01*
X15219500Y-4821400D02*
X15319500Y-4921400D01*
X15319500Y-4821400D02*
X15219500Y-4921400D01*
X15304856Y-4906756D02*
X15304856Y-4836044D01*
X15234144Y-4836044D01*
X15234144Y-4906756D01*
X15304856Y-4906756D01*
X15219500Y-5075400D02*
X15319500Y-5175400D01*
X15319500Y-5075400D02*
X15219500Y-5175400D01*
X15304856Y-5160756D02*
X15304856Y-5090044D01*
X15234144Y-5090044D01*
X15234144Y-5160756D01*
X15304856Y-5160756D01*
X15283000Y-7399500D02*
X15383000Y-7499500D01*
X15383000Y-7399500D02*
X15283000Y-7499500D01*
X15368356Y-7484856D02*
X15368356Y-7414144D01*
X15297644Y-7414144D01*
X15297644Y-7484856D01*
X15368356Y-7484856D01*
X15283000Y-7653500D02*
X15383000Y-7753500D01*
X15383000Y-7653500D02*
X15283000Y-7753500D01*
X15368356Y-7738856D02*
X15368356Y-7668144D01*
X15297644Y-7668144D01*
X15297644Y-7738856D01*
X15368356Y-7738856D01*
X15283000Y-7907500D02*
X15383000Y-8007500D01*
X15383000Y-7907500D02*
X15283000Y-8007500D01*
X15368356Y-7992856D02*
X15368356Y-7922144D01*
X15297644Y-7922144D01*
X15297644Y-7992856D01*
X15368356Y-7992856D01*
X15664000Y-7399500D02*
X15764000Y-7499500D01*
X15764000Y-7399500D02*
X15664000Y-7499500D01*
X15749356Y-7484856D02*
X15749356Y-7414144D01*
X15678644Y-7414144D01*
X15678644Y-7484856D01*
X15749356Y-7484856D01*
X15664000Y-7653500D02*
X15764000Y-7753500D01*
X15764000Y-7653500D02*
X15664000Y-7753500D01*
X15749356Y-7738856D02*
X15749356Y-7668144D01*
X15678644Y-7668144D01*
X15678644Y-7738856D01*
X15749356Y-7738856D01*
X15664000Y-7907500D02*
X15764000Y-8007500D01*
X15764000Y-7907500D02*
X15664000Y-8007500D01*
X15749356Y-7992856D02*
X15749356Y-7922144D01*
X15678644Y-7922144D01*
X15678644Y-7992856D01*
X15749356Y-7992856D01*
X16045000Y-7399500D02*
X16145000Y-7499500D01*
X16145000Y-7399500D02*
X16045000Y-7499500D01*
X16130356Y-7484856D02*
X16130356Y-7414144D01*
X16059644Y-7414144D01*
X16059644Y-7484856D01*
X16130356Y-7484856D01*
X16045000Y-7653500D02*
X16145000Y-7753500D01*
X16145000Y-7653500D02*
X16045000Y-7753500D01*
X16130356Y-7738856D02*
X16130356Y-7668144D01*
X16059644Y-7668144D01*
X16059644Y-7738856D01*
X16130356Y-7738856D01*
D12*
X12297900Y-5477800D02*
X12399900Y-5579800D01*
X12399900Y-5477800D02*
X12297900Y-5579800D01*
X12348900Y-5579800D02*
X12399900Y-5528800D01*
X12348900Y-5477800D01*
X12297900Y-5528800D01*
X12348900Y-5579800D01*
X12297900Y-7001800D02*
X12399900Y-7103800D01*
X12399900Y-7001800D02*
X12297900Y-7103800D01*
X12348900Y-7103800D02*
X12399900Y-7052800D01*
X12348900Y-7001800D01*
X12297900Y-7052800D01*
X12348900Y-7103800D01*
X12551900Y-5477800D02*
X12653900Y-5579800D01*
X12653900Y-5477800D02*
X12551900Y-5579800D01*
X12602900Y-5579800D02*
X12653900Y-5528800D01*
X12602900Y-5477800D01*
X12551900Y-5528800D01*
X12602900Y-5579800D01*
X12551900Y-7001800D02*
X12653900Y-7103800D01*
X12653900Y-7001800D02*
X12551900Y-7103800D01*
X12602900Y-7103800D02*
X12653900Y-7052800D01*
X12602900Y-7001800D01*
X12551900Y-7052800D01*
X12602900Y-7103800D01*
X12805900Y-5477800D02*
X12907900Y-5579800D01*
X12907900Y-5477800D02*
X12805900Y-5579800D01*
X12856900Y-5579800D02*
X12907900Y-5528800D01*
X12856900Y-5477800D01*
X12805900Y-5528800D01*
X12856900Y-5579800D01*
X12805900Y-7001800D02*
X12907900Y-7103800D01*
X12907900Y-7001800D02*
X12805900Y-7103800D01*
X12856900Y-7103800D02*
X12907900Y-7052800D01*
X12856900Y-7001800D01*
X12805900Y-7052800D01*
X12856900Y-7103800D01*
X13059900Y-5477800D02*
X13161900Y-5579800D01*
X13161900Y-5477800D02*
X13059900Y-5579800D01*
X13110900Y-5579800D02*
X13161900Y-5528800D01*
X13110900Y-5477800D01*
X13059900Y-5528800D01*
X13110900Y-5579800D01*
X13059900Y-7001800D02*
X13161900Y-7103800D01*
X13161900Y-7001800D02*
X13059900Y-7103800D01*
X13110900Y-7103800D02*
X13161900Y-7052800D01*
X13110900Y-7001800D01*
X13059900Y-7052800D01*
X13110900Y-7103800D01*
X13313900Y-5477800D02*
X13415900Y-5579800D01*
X13415900Y-5477800D02*
X13313900Y-5579800D01*
X13364900Y-5579800D02*
X13415900Y-5528800D01*
X13364900Y-5477800D01*
X13313900Y-5528800D01*
X13364900Y-5579800D01*
X13313900Y-7001800D02*
X13415900Y-7103800D01*
X13415900Y-7001800D02*
X13313900Y-7103800D01*
X13364900Y-7103800D02*
X13415900Y-7052800D01*
X13364900Y-7001800D01*
X13313900Y-7052800D01*
X13364900Y-7103800D01*
X13567900Y-5477800D02*
X13669900Y-5579800D01*
X13669900Y-5477800D02*
X13567900Y-5579800D01*
X13618900Y-5579800D02*
X13669900Y-5528800D01*
X13618900Y-5477800D01*
X13567900Y-5528800D01*
X13618900Y-5579800D01*
X13567900Y-7001800D02*
X13669900Y-7103800D01*
X13669900Y-7001800D02*
X13567900Y-7103800D01*
X13618900Y-7103800D02*
X13669900Y-7052800D01*
X13618900Y-7001800D01*
X13567900Y-7052800D01*
X13618900Y-7103800D01*
X13808800Y-4007600D02*
X13910800Y-4109600D01*
X13910800Y-4007600D02*
X13808800Y-4109600D01*
X13859800Y-4109600D02*
X13910800Y-4058600D01*
X13859800Y-4007600D01*
X13808800Y-4058600D01*
X13859800Y-4109600D01*
X13808800Y-4307600D02*
X13910800Y-4409600D01*
X13910800Y-4307600D02*
X13808800Y-4409600D01*
X13859800Y-4409600D02*
X13910800Y-4358600D01*
X13859800Y-4307600D01*
X13808800Y-4358600D01*
X13859800Y-4409600D01*
X13821900Y-5477800D02*
X13923900Y-5579800D01*
X13923900Y-5477800D02*
X13821900Y-5579800D01*
X13872900Y-5579800D02*
X13923900Y-5528800D01*
X13872900Y-5477800D01*
X13821900Y-5528800D01*
X13872900Y-5579800D01*
X13821900Y-7001800D02*
X13923900Y-7103800D01*
X13923900Y-7001800D02*
X13821900Y-7103800D01*
X13872900Y-7103800D02*
X13923900Y-7052800D01*
X13872900Y-7001800D01*
X13821900Y-7052800D01*
X13872900Y-7103800D01*
X14075900Y-5477800D02*
X14177900Y-5579800D01*
X14177900Y-5477800D02*
X14075900Y-5579800D01*
X14126900Y-5579800D02*
X14177900Y-5528800D01*
X14126900Y-5477800D01*
X14075900Y-5528800D01*
X14126900Y-5579800D01*
X14075900Y-7001800D02*
X14177900Y-7103800D01*
X14177900Y-7001800D02*
X14075900Y-7103800D01*
X14126900Y-7103800D02*
X14177900Y-7052800D01*
X14126900Y-7001800D01*
X14075900Y-7052800D01*
X14126900Y-7103800D01*
X14329900Y-5477800D02*
X14431900Y-5579800D01*
X14431900Y-5477800D02*
X14329900Y-5579800D01*
X14380900Y-5579800D02*
X14431900Y-5528800D01*
X14380900Y-5477800D01*
X14329900Y-5528800D01*
X14380900Y-5579800D01*
X14329900Y-7001800D02*
X14431900Y-7103800D01*
X14431900Y-7001800D02*
X14329900Y-7103800D01*
X14380900Y-7103800D02*
X14431900Y-7052800D01*
X14380900Y-7001800D01*
X14329900Y-7052800D01*
X14380900Y-7103800D01*
X14583900Y-5477800D02*
X14685900Y-5579800D01*
X14685900Y-5477800D02*
X14583900Y-5579800D01*
X14634900Y-5579800D02*
X14685900Y-5528800D01*
X14634900Y-5477800D01*
X14583900Y-5528800D01*
X14634900Y-5579800D01*
X14583900Y-7001800D02*
X14685900Y-7103800D01*
X14685900Y-7001800D02*
X14583900Y-7103800D01*
X14634900Y-7103800D02*
X14685900Y-7052800D01*
X14634900Y-7001800D01*
X14583900Y-7052800D01*
X14634900Y-7103800D01*
X14748600Y-4007600D02*
X14850600Y-4109600D01*
X14850600Y-4007600D02*
X14748600Y-4109600D01*
X14799600Y-4109600D02*
X14850600Y-4058600D01*
X14799600Y-4007600D01*
X14748600Y-4058600D01*
X14799600Y-4109600D01*
X14748600Y-4307600D02*
X14850600Y-4409600D01*
X14850600Y-4307600D02*
X14748600Y-4409600D01*
X14799600Y-4409600D02*
X14850600Y-4358600D01*
X14799600Y-4307600D01*
X14748600Y-4358600D01*
X14799600Y-4409600D01*
X14837900Y-5477800D02*
X14939900Y-5579800D01*
X14939900Y-5477800D02*
X14837900Y-5579800D01*
X14888900Y-5579800D02*
X14939900Y-5528800D01*
X14888900Y-5477800D01*
X14837900Y-5528800D01*
X14888900Y-5579800D01*
X14837900Y-7001800D02*
X14939900Y-7103800D01*
X14939900Y-7001800D02*
X14837900Y-7103800D01*
X14888900Y-7103800D02*
X14939900Y-7052800D01*
X14888900Y-7001800D01*
X14837900Y-7052800D01*
X14888900Y-7103800D01*
X15091900Y-5477800D02*
X15193900Y-5579800D01*
X15193900Y-5477800D02*
X15091900Y-5579800D01*
X15142900Y-5579800D02*
X15193900Y-5528800D01*
X15142900Y-5477800D01*
X15091900Y-5528800D01*
X15142900Y-5579800D01*
X15091900Y-7001800D02*
X15193900Y-7103800D01*
X15193900Y-7001800D02*
X15091900Y-7103800D01*
X15142900Y-7103800D02*
X15193900Y-7052800D01*
X15142900Y-7001800D01*
X15091900Y-7052800D01*
X15142900Y-7103800D01*
X15345900Y-5477800D02*
X15447900Y-5579800D01*
X15447900Y-5477800D02*
X15345900Y-5579800D01*
X15396900Y-5579800D02*
X15447900Y-5528800D01*
X15396900Y-5477800D01*
X15345900Y-5528800D01*
X15396900Y-5579800D01*
X15345900Y-7001800D02*
X15447900Y-7103800D01*
X15447900Y-7001800D02*
X15345900Y-7103800D01*
X15396900Y-7103800D02*
X15447900Y-7052800D01*
X15396900Y-7001800D01*
X15345900Y-7052800D01*
X15396900Y-7103800D01*
X15599900Y-5477800D02*
X15701900Y-5579800D01*
X15701900Y-5477800D02*
X15599900Y-5579800D01*
X15650900Y-5579800D02*
X15701900Y-5528800D01*
X15650900Y-5477800D01*
X15599900Y-5528800D01*
X15650900Y-5579800D01*
X15599900Y-7001800D02*
X15701900Y-7103800D01*
X15701900Y-7001800D02*
X15599900Y-7103800D01*
X15650900Y-7103800D02*
X15701900Y-7052800D01*
X15650900Y-7001800D01*
X15599900Y-7052800D01*
X15650900Y-7103800D01*
X15688400Y-4007600D02*
X15790400Y-4109600D01*
X15790400Y-4007600D02*
X15688400Y-4109600D01*
X15739400Y-4109600D02*
X15790400Y-4058600D01*
X15739400Y-4007600D01*
X15688400Y-4058600D01*
X15739400Y-4109600D01*
X15688400Y-4307600D02*
X15790400Y-4409600D01*
X15790400Y-4307600D02*
X15688400Y-4409600D01*
X15739400Y-4409600D02*
X15790400Y-4358600D01*
X15739400Y-4307600D01*
X15688400Y-4358600D01*
X15739400Y-4409600D01*
X15853900Y-5477800D02*
X15955900Y-5579800D01*
X15955900Y-5477800D02*
X15853900Y-5579800D01*
X15904900Y-5579800D02*
X15955900Y-5528800D01*
X15904900Y-5477800D01*
X15853900Y-5528800D01*
X15904900Y-5579800D01*
X15853900Y-7001800D02*
X15955900Y-7103800D01*
X15955900Y-7001800D02*
X15853900Y-7103800D01*
X15904900Y-7103800D02*
X15955900Y-7052800D01*
X15904900Y-7001800D01*
X15853900Y-7052800D01*
X15904900Y-7103800D01*
X16107900Y-5477800D02*
X16209900Y-5579800D01*
X16209900Y-5477800D02*
X16107900Y-5579800D01*
X16158900Y-5579800D02*
X16209900Y-5528800D01*
X16158900Y-5477800D01*
X16107900Y-5528800D01*
X16158900Y-5579800D01*
X16107900Y-7001800D02*
X16209900Y-7103800D01*
X16209900Y-7001800D02*
X16107900Y-7103800D01*
X16158900Y-7103800D02*
X16209900Y-7052800D01*
X16158900Y-7001800D01*
X16107900Y-7052800D01*
X16158900Y-7103800D01*
X16361900Y-5477800D02*
X16463900Y-5579800D01*
X16463900Y-5477800D02*
X16361900Y-5579800D01*
X16412900Y-5579800D02*
X16463900Y-5528800D01*
X16412900Y-5477800D01*
X16361900Y-5528800D01*
X16412900Y-5579800D01*
X16361900Y-7001800D02*
X16463900Y-7103800D01*
X16463900Y-7001800D02*
X16361900Y-7103800D01*
X16412900Y-7103800D02*
X16463900Y-7052800D01*
X16412900Y-7001800D01*
X16361900Y-7052800D01*
X16412900Y-7103800D01*
X16615900Y-5477800D02*
X16717900Y-5579800D01*
X16717900Y-5477800D02*
X16615900Y-5579800D01*
X16666900Y-5579800D02*
X16717900Y-5528800D01*
X16666900Y-5477800D01*
X16615900Y-5528800D01*
X16666900Y-5579800D01*
X16615900Y-7001800D02*
X16717900Y-7103800D01*
X16717900Y-7001800D02*
X16615900Y-7103800D01*
X16666900Y-7103800D02*
X16717900Y-7052800D01*
X16666900Y-7001800D01*
X16615900Y-7052800D01*
X16666900Y-7103800D01*
X16628200Y-4007600D02*
X16730200Y-4109600D01*
X16730200Y-4007600D02*
X16628200Y-4109600D01*
X16679200Y-4109600D02*
X16730200Y-4058600D01*
X16679200Y-4007600D01*
X16628200Y-4058600D01*
X16679200Y-4109600D01*
X16628200Y-4307600D02*
X16730200Y-4409600D01*
X16730200Y-4307600D02*
X16628200Y-4409600D01*
X16679200Y-4409600D02*
X16730200Y-4358600D01*
X16679200Y-4307600D01*
X16628200Y-4358600D01*
X16679200Y-4409600D01*
X16660000Y-7703300D02*
X16762000Y-7805300D01*
X16762000Y-7703300D02*
X16660000Y-7805300D01*
X16711000Y-7805300D02*
X16762000Y-7754300D01*
X16711000Y-7703300D01*
X16660000Y-7754300D01*
X16711000Y-7805300D01*
X16869900Y-5477800D02*
X16971900Y-5579800D01*
X16971900Y-5477800D02*
X16869900Y-5579800D01*
X16920900Y-5579800D02*
X16971900Y-5528800D01*
X16920900Y-5477800D01*
X16869900Y-5528800D01*
X16920900Y-5579800D01*
X16869900Y-7001800D02*
X16971900Y-7103800D01*
X16971900Y-7001800D02*
X16869900Y-7103800D01*
X16920900Y-7103800D02*
X16971900Y-7052800D01*
X16920900Y-7001800D01*
X16869900Y-7052800D01*
X16920900Y-7103800D01*
X17060000Y-7703300D02*
X17162000Y-7805300D01*
X17162000Y-7703300D02*
X17060000Y-7805300D01*
X17111000Y-7805300D02*
X17162000Y-7754300D01*
X17111000Y-7703300D01*
X17060000Y-7754300D01*
X17111000Y-7805300D01*
X17123900Y-5477800D02*
X17225900Y-5579800D01*
X17225900Y-5477800D02*
X17123900Y-5579800D01*
X17174900Y-5579800D02*
X17225900Y-5528800D01*
X17174900Y-5477800D01*
X17123900Y-5528800D01*
X17174900Y-5579800D01*
X17123900Y-7001800D02*
X17225900Y-7103800D01*
X17225900Y-7001800D02*
X17123900Y-7103800D01*
X17174900Y-7103800D02*
X17225900Y-7052800D01*
X17174900Y-7001800D01*
X17123900Y-7052800D01*
X17174900Y-7103800D01*
X17377900Y-5477800D02*
X17479900Y-5579800D01*
X17479900Y-5477800D02*
X17377900Y-5579800D01*
X17428900Y-5579800D02*
X17479900Y-5528800D01*
X17428900Y-5477800D01*
X17377900Y-5528800D01*
X17428900Y-5579800D01*
X17377900Y-7001800D02*
X17479900Y-7103800D01*
X17479900Y-7001800D02*
X17377900Y-7103800D01*
X17428900Y-7103800D02*
X17479900Y-7052800D01*
X17428900Y-7001800D01*
X17377900Y-7052800D01*
X17428900Y-7103800D01*
X17631900Y-5477800D02*
X17733900Y-5579800D01*
X17733900Y-5477800D02*
X17631900Y-5579800D01*
X17682900Y-5579800D02*
X17733900Y-5528800D01*
X17682900Y-5477800D01*
X17631900Y-5528800D01*
X17682900Y-5579800D01*
X17631900Y-7001800D02*
X17733900Y-7103800D01*
X17733900Y-7001800D02*
X17631900Y-7103800D01*
X17682900Y-7103800D02*
X17733900Y-7052800D01*
X17682900Y-7001800D01*
X17631900Y-7052800D01*
X17682900Y-7103800D01*
X17885900Y-5477800D02*
X17987900Y-5579800D01*
X17987900Y-5477800D02*
X17885900Y-5579800D01*
X17936900Y-5579800D02*
X17987900Y-5528800D01*
X17936900Y-5477800D01*
X17885900Y-5528800D01*
X17936900Y-5579800D01*
X17885900Y-7001800D02*
X17987900Y-7103800D01*
X17987900Y-7001800D02*
X17885900Y-7103800D01*
X17936900Y-7103800D02*
X17987900Y-7052800D01*
X17936900Y-7001800D01*
X17885900Y-7052800D01*
X17936900Y-7103800D01*
X18139900Y-5477800D02*
X18241900Y-5579800D01*
X18241900Y-5477800D02*
X18139900Y-5579800D01*
X18190900Y-5579800D02*
X18241900Y-5528800D01*
X18190900Y-5477800D01*
X18139900Y-5528800D01*
X18190900Y-5579800D01*
X18139900Y-7001800D02*
X18241900Y-7103800D01*
X18241900Y-7001800D02*
X18139900Y-7103800D01*
X18190900Y-7103800D02*
X18241900Y-7052800D01*
X18190900Y-7001800D01*
X18139900Y-7052800D01*
X18190900Y-7103800D01*
D13*
X14962400Y-8706200D02*
X14962400Y-8816200D01*
X14907400Y-8761200D02*
X15017400Y-8761200D01*
X15017400Y-8761200D02*
G75*
G02*
X14907400Y-8761200I-55000J0D01*
G01*
X14907400Y-8761200D02*
G75*
G02*
X15017400Y-8761200I55000J0D01*
G01*
X14962400Y-9156200D02*
X14962400Y-9266200D01*
X14907400Y-9211200D02*
X15017400Y-9211200D01*
X15017400Y-9211200D02*
G75*
G02*
X14907400Y-9211200I-55000J0D01*
G01*
X14907400Y-9211200D02*
G75*
G02*
X15017400Y-9211200I55000J0D01*
G01*
X15612400Y-8706200D02*
X15612400Y-8816200D01*
X15557400Y-8761200D02*
X15667400Y-8761200D01*
X15667400Y-8761200D02*
G75*
G02*
X15557400Y-8761200I-55000J0D01*
G01*
X15557400Y-8761200D02*
G75*
G02*
X15667400Y-8761200I55000J0D01*
G01*
X15612400Y-9156200D02*
X15612400Y-9266200D01*
X15557400Y-9211200D02*
X15667400Y-9211200D01*
X15667400Y-9211200D02*
G75*
G02*
X15557400Y-9211200I-55000J0D01*
G01*
X15557400Y-9211200D02*
G75*
G02*
X15667400Y-9211200I55000J0D01*
G01*
D11*
X12025776Y-10106484D02*
X12025776Y-9906484D01*
X12025776Y-9906484D02*
X12073395Y-9906484D01*
X12073395Y-9906484D02*
X12101966Y-9916008D01*
X12101966Y-9916008D02*
X12121014Y-9935055D01*
X12121014Y-9935055D02*
X12130538Y-9954103D01*
X12130538Y-9954103D02*
X12140061Y-9992198D01*
X12140061Y-9992198D02*
X12140061Y-10020770D01*
X12140061Y-10020770D02*
X12130538Y-10058865D01*
X12130538Y-10058865D02*
X12121014Y-10077912D01*
X12121014Y-10077912D02*
X12101966Y-10096960D01*
X12101966Y-10096960D02*
X12073395Y-10106484D01*
X12073395Y-10106484D02*
X12025776Y-10106484D01*
X12225776Y-10106484D02*
X12225776Y-9973150D01*
X12225776Y-10011246D02*
X12235299Y-9992198D01*
X12235299Y-9992198D02*
X12244823Y-9982674D01*
X12244823Y-9982674D02*
X12263871Y-9973150D01*
X12263871Y-9973150D02*
X12282919Y-9973150D01*
X12349585Y-10106484D02*
X12349585Y-9973150D01*
X12349585Y-9906484D02*
X12340061Y-9916008D01*
X12340061Y-9916008D02*
X12349585Y-9925531D01*
X12349585Y-9925531D02*
X12359109Y-9916008D01*
X12359109Y-9916008D02*
X12349585Y-9906484D01*
X12349585Y-9906484D02*
X12349585Y-9925531D01*
X12473395Y-10106484D02*
X12454347Y-10096960D01*
X12454347Y-10096960D02*
X12444823Y-10077912D01*
X12444823Y-10077912D02*
X12444823Y-9906484D01*
X12578157Y-10106484D02*
X12559109Y-10096960D01*
X12559109Y-10096960D02*
X12549585Y-10077912D01*
X12549585Y-10077912D02*
X12549585Y-9906484D01*
X12806728Y-10106484D02*
X12806728Y-9906484D01*
X12806728Y-9906484D02*
X12873395Y-10049341D01*
X12873395Y-10049341D02*
X12940061Y-9906484D01*
X12940061Y-9906484D02*
X12940061Y-10106484D01*
X13121014Y-10106484D02*
X13121014Y-10001722D01*
X13121014Y-10001722D02*
X13111490Y-9982674D01*
X13111490Y-9982674D02*
X13092442Y-9973150D01*
X13092442Y-9973150D02*
X13054347Y-9973150D01*
X13054347Y-9973150D02*
X13035299Y-9982674D01*
X13121014Y-10096960D02*
X13101966Y-10106484D01*
X13101966Y-10106484D02*
X13054347Y-10106484D01*
X13054347Y-10106484D02*
X13035299Y-10096960D01*
X13035299Y-10096960D02*
X13025776Y-10077912D01*
X13025776Y-10077912D02*
X13025776Y-10058865D01*
X13025776Y-10058865D02*
X13035299Y-10039817D01*
X13035299Y-10039817D02*
X13054347Y-10030293D01*
X13054347Y-10030293D02*
X13101966Y-10030293D01*
X13101966Y-10030293D02*
X13121014Y-10020770D01*
X13216252Y-9973150D02*
X13216252Y-10173150D01*
X13216252Y-9982674D02*
X13235299Y-9973150D01*
X13235299Y-9973150D02*
X13273395Y-9973150D01*
X13273395Y-9973150D02*
X13292442Y-9982674D01*
X13292442Y-9982674D02*
X13301966Y-9992198D01*
X13301966Y-9992198D02*
X13311490Y-10011246D01*
X13311490Y-10011246D02*
X13311490Y-10068389D01*
X13311490Y-10068389D02*
X13301966Y-10087436D01*
X13301966Y-10087436D02*
X13292442Y-10096960D01*
X13292442Y-10096960D02*
X13273395Y-10106484D01*
X13273395Y-10106484D02*
X13235299Y-10106484D01*
X13235299Y-10106484D02*
X13216252Y-10096960D01*
X13397204Y-10087436D02*
X13406728Y-10096960D01*
X13406728Y-10096960D02*
X13397204Y-10106484D01*
X13397204Y-10106484D02*
X13387680Y-10096960D01*
X13387680Y-10096960D02*
X13397204Y-10087436D01*
X13397204Y-10087436D02*
X13397204Y-10106484D01*
X13397204Y-9982674D02*
X13406728Y-9992198D01*
X13406728Y-9992198D02*
X13397204Y-10001722D01*
X13397204Y-10001722D02*
X13387680Y-9992198D01*
X13387680Y-9992198D02*
X13397204Y-9982674D01*
X13397204Y-9982674D02*
X13397204Y-10001722D01*
D10*
X11734999Y-10420000D02*
X11764999Y-10450000D01*
X11764999Y-10420000D02*
X11734999Y-10450000D01*
D11*
X12063871Y-10326484D02*
X12082919Y-10326484D01*
X12082919Y-10326484D02*
X12101966Y-10336008D01*
X12101966Y-10336008D02*
X12111490Y-10345531D01*
X12111490Y-10345531D02*
X12121014Y-10364579D01*
X12121014Y-10364579D02*
X12130538Y-10402674D01*
X12130538Y-10402674D02*
X12130538Y-10450293D01*
X12130538Y-10450293D02*
X12121014Y-10488389D01*
X12121014Y-10488389D02*
X12111490Y-10507436D01*
X12111490Y-10507436D02*
X12101966Y-10516960D01*
X12101966Y-10516960D02*
X12082919Y-10526484D01*
X12082919Y-10526484D02*
X12063871Y-10526484D01*
X12063871Y-10526484D02*
X12044823Y-10516960D01*
X12044823Y-10516960D02*
X12035299Y-10507436D01*
X12035299Y-10507436D02*
X12025776Y-10488389D01*
X12025776Y-10488389D02*
X12016252Y-10450293D01*
X12016252Y-10450293D02*
X12016252Y-10402674D01*
X12016252Y-10402674D02*
X12025776Y-10364579D01*
X12025776Y-10364579D02*
X12035299Y-10345531D01*
X12035299Y-10345531D02*
X12044823Y-10336008D01*
X12044823Y-10336008D02*
X12063871Y-10326484D01*
X12216252Y-10507436D02*
X12225776Y-10516960D01*
X12225776Y-10516960D02*
X12216252Y-10526484D01*
X12216252Y-10526484D02*
X12206728Y-10516960D01*
X12206728Y-10516960D02*
X12216252Y-10507436D01*
X12216252Y-10507436D02*
X12216252Y-10526484D01*
X12292442Y-10326484D02*
X12416252Y-10326484D01*
X12416252Y-10326484D02*
X12349585Y-10402674D01*
X12349585Y-10402674D02*
X12378157Y-10402674D01*
X12378157Y-10402674D02*
X12397204Y-10412198D01*
X12397204Y-10412198D02*
X12406728Y-10421722D01*
X12406728Y-10421722D02*
X12416252Y-10440770D01*
X12416252Y-10440770D02*
X12416252Y-10488389D01*
X12416252Y-10488389D02*
X12406728Y-10507436D01*
X12406728Y-10507436D02*
X12397204Y-10516960D01*
X12397204Y-10516960D02*
X12378157Y-10526484D01*
X12378157Y-10526484D02*
X12321014Y-10526484D01*
X12321014Y-10526484D02*
X12301966Y-10516960D01*
X12301966Y-10516960D02*
X12292442Y-10507436D01*
X12540061Y-10326484D02*
X12559109Y-10326484D01*
X12559109Y-10326484D02*
X12578157Y-10336008D01*
X12578157Y-10336008D02*
X12587680Y-10345531D01*
X12587680Y-10345531D02*
X12597204Y-10364579D01*
X12597204Y-10364579D02*
X12606728Y-10402674D01*
X12606728Y-10402674D02*
X12606728Y-10450293D01*
X12606728Y-10450293D02*
X12597204Y-10488389D01*
X12597204Y-10488389D02*
X12587680Y-10507436D01*
X12587680Y-10507436D02*
X12578157Y-10516960D01*
X12578157Y-10516960D02*
X12559109Y-10526484D01*
X12559109Y-10526484D02*
X12540061Y-10526484D01*
X12540061Y-10526484D02*
X12521014Y-10516960D01*
X12521014Y-10516960D02*
X12511490Y-10507436D01*
X12511490Y-10507436D02*
X12501966Y-10488389D01*
X12501966Y-10488389D02*
X12492442Y-10450293D01*
X12492442Y-10450293D02*
X12492442Y-10402674D01*
X12492442Y-10402674D02*
X12501966Y-10364579D01*
X12501966Y-10364579D02*
X12511490Y-10345531D01*
X12511490Y-10345531D02*
X12521014Y-10336008D01*
X12521014Y-10336008D02*
X12540061Y-10326484D01*
X12730538Y-10326484D02*
X12749585Y-10326484D01*
X12749585Y-10326484D02*
X12768633Y-10336008D01*
X12768633Y-10336008D02*
X12778157Y-10345531D01*
X12778157Y-10345531D02*
X12787680Y-10364579D01*
X12787680Y-10364579D02*
X12797204Y-10402674D01*
X12797204Y-10402674D02*
X12797204Y-10450293D01*
X12797204Y-10450293D02*
X12787680Y-10488389D01*
X12787680Y-10488389D02*
X12778157Y-10507436D01*
X12778157Y-10507436D02*
X12768633Y-10516960D01*
X12768633Y-10516960D02*
X12749585Y-10526484D01*
X12749585Y-10526484D02*
X12730538Y-10526484D01*
X12730538Y-10526484D02*
X12711490Y-10516960D01*
X12711490Y-10516960D02*
X12701966Y-10507436D01*
X12701966Y-10507436D02*
X12692442Y-10488389D01*
X12692442Y-10488389D02*
X12682919Y-10450293D01*
X12682919Y-10450293D02*
X12682919Y-10402674D01*
X12682919Y-10402674D02*
X12692442Y-10364579D01*
X12692442Y-10364579D02*
X12701966Y-10345531D01*
X12701966Y-10345531D02*
X12711490Y-10336008D01*
X12711490Y-10336008D02*
X12730538Y-10326484D01*
X12882919Y-10526484D02*
X12882919Y-10393150D01*
X12882919Y-10412198D02*
X12892442Y-10402674D01*
X12892442Y-10402674D02*
X12911490Y-10393150D01*
X12911490Y-10393150D02*
X12940061Y-10393150D01*
X12940061Y-10393150D02*
X12959109Y-10402674D01*
X12959109Y-10402674D02*
X12968633Y-10421722D01*
X12968633Y-10421722D02*
X12968633Y-10526484D01*
X12968633Y-10421722D02*
X12978157Y-10402674D01*
X12978157Y-10402674D02*
X12997204Y-10393150D01*
X12997204Y-10393150D02*
X13025776Y-10393150D01*
X13025776Y-10393150D02*
X13044823Y-10402674D01*
X13044823Y-10402674D02*
X13054347Y-10421722D01*
X13054347Y-10421722D02*
X13054347Y-10526484D01*
X13149585Y-10526484D02*
X13149585Y-10393150D01*
X13149585Y-10412198D02*
X13159109Y-10402674D01*
X13159109Y-10402674D02*
X13178157Y-10393150D01*
X13178157Y-10393150D02*
X13206728Y-10393150D01*
X13206728Y-10393150D02*
X13225776Y-10402674D01*
X13225776Y-10402674D02*
X13235300Y-10421722D01*
X13235300Y-10421722D02*
X13235300Y-10526484D01*
X13235300Y-10421722D02*
X13244823Y-10402674D01*
X13244823Y-10402674D02*
X13263871Y-10393150D01*
X13263871Y-10393150D02*
X13292442Y-10393150D01*
X13292442Y-10393150D02*
X13311490Y-10402674D01*
X13311490Y-10402674D02*
X13321014Y-10421722D01*
X13321014Y-10421722D02*
X13321014Y-10526484D01*
X13711490Y-10316960D02*
X13540062Y-10574103D01*
X13968633Y-10326484D02*
X13987681Y-10326484D01*
X13987681Y-10326484D02*
X14006728Y-10336008D01*
X14006728Y-10336008D02*
X14016252Y-10345531D01*
X14016252Y-10345531D02*
X14025776Y-10364579D01*
X14025776Y-10364579D02*
X14035300Y-10402674D01*
X14035300Y-10402674D02*
X14035300Y-10450293D01*
X14035300Y-10450293D02*
X14025776Y-10488389D01*
X14025776Y-10488389D02*
X14016252Y-10507436D01*
X14016252Y-10507436D02*
X14006728Y-10516960D01*
X14006728Y-10516960D02*
X13987681Y-10526484D01*
X13987681Y-10526484D02*
X13968633Y-10526484D01*
X13968633Y-10526484D02*
X13949585Y-10516960D01*
X13949585Y-10516960D02*
X13940062Y-10507436D01*
X13940062Y-10507436D02*
X13930538Y-10488389D01*
X13930538Y-10488389D02*
X13921014Y-10450293D01*
X13921014Y-10450293D02*
X13921014Y-10402674D01*
X13921014Y-10402674D02*
X13930538Y-10364579D01*
X13930538Y-10364579D02*
X13940062Y-10345531D01*
X13940062Y-10345531D02*
X13949585Y-10336008D01*
X13949585Y-10336008D02*
X13968633Y-10326484D01*
X14121014Y-10507436D02*
X14130538Y-10516960D01*
X14130538Y-10516960D02*
X14121014Y-10526484D01*
X14121014Y-10526484D02*
X14111490Y-10516960D01*
X14111490Y-10516960D02*
X14121014Y-10507436D01*
X14121014Y-10507436D02*
X14121014Y-10526484D01*
X14254347Y-10326484D02*
X14273395Y-10326484D01*
X14273395Y-10326484D02*
X14292443Y-10336008D01*
X14292443Y-10336008D02*
X14301966Y-10345531D01*
X14301966Y-10345531D02*
X14311490Y-10364579D01*
X14311490Y-10364579D02*
X14321014Y-10402674D01*
X14321014Y-10402674D02*
X14321014Y-10450293D01*
X14321014Y-10450293D02*
X14311490Y-10488389D01*
X14311490Y-10488389D02*
X14301966Y-10507436D01*
X14301966Y-10507436D02*
X14292443Y-10516960D01*
X14292443Y-10516960D02*
X14273395Y-10526484D01*
X14273395Y-10526484D02*
X14254347Y-10526484D01*
X14254347Y-10526484D02*
X14235300Y-10516960D01*
X14235300Y-10516960D02*
X14225776Y-10507436D01*
X14225776Y-10507436D02*
X14216252Y-10488389D01*
X14216252Y-10488389D02*
X14206728Y-10450293D01*
X14206728Y-10450293D02*
X14206728Y-10402674D01*
X14206728Y-10402674D02*
X14216252Y-10364579D01*
X14216252Y-10364579D02*
X14225776Y-10345531D01*
X14225776Y-10345531D02*
X14235300Y-10336008D01*
X14235300Y-10336008D02*
X14254347Y-10326484D01*
X14511490Y-10526484D02*
X14397204Y-10526484D01*
X14454347Y-10526484D02*
X14454347Y-10326484D01*
X14454347Y-10326484D02*
X14435300Y-10355055D01*
X14435300Y-10355055D02*
X14416252Y-10374103D01*
X14416252Y-10374103D02*
X14397204Y-10383627D01*
X14701966Y-10526484D02*
X14587681Y-10526484D01*
X14644823Y-10526484D02*
X14644823Y-10326484D01*
X14644823Y-10326484D02*
X14625776Y-10355055D01*
X14625776Y-10355055D02*
X14606728Y-10374103D01*
X14606728Y-10374103D02*
X14587681Y-10383627D01*
X14816252Y-10412198D02*
X14797204Y-10402674D01*
X14797204Y-10402674D02*
X14787681Y-10393150D01*
X14787681Y-10393150D02*
X14778157Y-10374103D01*
X14778157Y-10374103D02*
X14778157Y-10364579D01*
X14778157Y-10364579D02*
X14787681Y-10345531D01*
X14787681Y-10345531D02*
X14797204Y-10336008D01*
X14797204Y-10336008D02*
X14816252Y-10326484D01*
X14816252Y-10326484D02*
X14854347Y-10326484D01*
X14854347Y-10326484D02*
X14873395Y-10336008D01*
X14873395Y-10336008D02*
X14882919Y-10345531D01*
X14882919Y-10345531D02*
X14892443Y-10364579D01*
X14892443Y-10364579D02*
X14892443Y-10374103D01*
X14892443Y-10374103D02*
X14882919Y-10393150D01*
X14882919Y-10393150D02*
X14873395Y-10402674D01*
X14873395Y-10402674D02*
X14854347Y-10412198D01*
X14854347Y-10412198D02*
X14816252Y-10412198D01*
X14816252Y-10412198D02*
X14797204Y-10421722D01*
X14797204Y-10421722D02*
X14787681Y-10431246D01*
X14787681Y-10431246D02*
X14778157Y-10450293D01*
X14778157Y-10450293D02*
X14778157Y-10488389D01*
X14778157Y-10488389D02*
X14787681Y-10507436D01*
X14787681Y-10507436D02*
X14797204Y-10516960D01*
X14797204Y-10516960D02*
X14816252Y-10526484D01*
X14816252Y-10526484D02*
X14854347Y-10526484D01*
X14854347Y-10526484D02*
X14873395Y-10516960D01*
X14873395Y-10516960D02*
X14882919Y-10507436D01*
X14882919Y-10507436D02*
X14892443Y-10488389D01*
X14892443Y-10488389D02*
X14892443Y-10450293D01*
X14892443Y-10450293D02*
X14882919Y-10431246D01*
X14882919Y-10431246D02*
X14873395Y-10421722D01*
X14873395Y-10421722D02*
X14854347Y-10412198D01*
X14968633Y-10326484D02*
X14968633Y-10364579D01*
X15044824Y-10326484D02*
X15044824Y-10364579D01*
X15340062Y-10602674D02*
X15330538Y-10593150D01*
X15330538Y-10593150D02*
X15311490Y-10564579D01*
X15311490Y-10564579D02*
X15301966Y-10545531D01*
X15301966Y-10545531D02*
X15292443Y-10516960D01*
X15292443Y-10516960D02*
X15282919Y-10469341D01*
X15282919Y-10469341D02*
X15282919Y-10431246D01*
X15282919Y-10431246D02*
X15292443Y-10383627D01*
X15292443Y-10383627D02*
X15301966Y-10355055D01*
X15301966Y-10355055D02*
X15311490Y-10336008D01*
X15311490Y-10336008D02*
X15330538Y-10307436D01*
X15330538Y-10307436D02*
X15340062Y-10297912D01*
X15501966Y-10393150D02*
X15501966Y-10526484D01*
X15454347Y-10316960D02*
X15406728Y-10459817D01*
X15406728Y-10459817D02*
X15530538Y-10459817D01*
X15587681Y-10326484D02*
X15721014Y-10326484D01*
X15721014Y-10326484D02*
X15635300Y-10526484D01*
X15949586Y-10526484D02*
X15949586Y-10326484D01*
X16035300Y-10526484D02*
X16035300Y-10421722D01*
X16035300Y-10421722D02*
X16025776Y-10402674D01*
X16025776Y-10402674D02*
X16006728Y-10393150D01*
X16006728Y-10393150D02*
X15978157Y-10393150D01*
X15978157Y-10393150D02*
X15959109Y-10402674D01*
X15959109Y-10402674D02*
X15949586Y-10412198D01*
X16159109Y-10526484D02*
X16140062Y-10516960D01*
X16140062Y-10516960D02*
X16130538Y-10507436D01*
X16130538Y-10507436D02*
X16121014Y-10488389D01*
X16121014Y-10488389D02*
X16121014Y-10431246D01*
X16121014Y-10431246D02*
X16130538Y-10412198D01*
X16130538Y-10412198D02*
X16140062Y-10402674D01*
X16140062Y-10402674D02*
X16159109Y-10393150D01*
X16159109Y-10393150D02*
X16187681Y-10393150D01*
X16187681Y-10393150D02*
X16206728Y-10402674D01*
X16206728Y-10402674D02*
X16216252Y-10412198D01*
X16216252Y-10412198D02*
X16225776Y-10431246D01*
X16225776Y-10431246D02*
X16225776Y-10488389D01*
X16225776Y-10488389D02*
X16216252Y-10507436D01*
X16216252Y-10507436D02*
X16206728Y-10516960D01*
X16206728Y-10516960D02*
X16187681Y-10526484D01*
X16187681Y-10526484D02*
X16159109Y-10526484D01*
X16340062Y-10526484D02*
X16321014Y-10516960D01*
X16321014Y-10516960D02*
X16311490Y-10497912D01*
X16311490Y-10497912D02*
X16311490Y-10326484D01*
X16492443Y-10516960D02*
X16473395Y-10526484D01*
X16473395Y-10526484D02*
X16435300Y-10526484D01*
X16435300Y-10526484D02*
X16416252Y-10516960D01*
X16416252Y-10516960D02*
X16406728Y-10497912D01*
X16406728Y-10497912D02*
X16406728Y-10421722D01*
X16406728Y-10421722D02*
X16416252Y-10402674D01*
X16416252Y-10402674D02*
X16435300Y-10393150D01*
X16435300Y-10393150D02*
X16473395Y-10393150D01*
X16473395Y-10393150D02*
X16492443Y-10402674D01*
X16492443Y-10402674D02*
X16501967Y-10421722D01*
X16501967Y-10421722D02*
X16501967Y-10440770D01*
X16501967Y-10440770D02*
X16406728Y-10459817D01*
X16578157Y-10516960D02*
X16597205Y-10526484D01*
X16597205Y-10526484D02*
X16635300Y-10526484D01*
X16635300Y-10526484D02*
X16654348Y-10516960D01*
X16654348Y-10516960D02*
X16663871Y-10497912D01*
X16663871Y-10497912D02*
X16663871Y-10488389D01*
X16663871Y-10488389D02*
X16654348Y-10469341D01*
X16654348Y-10469341D02*
X16635300Y-10459817D01*
X16635300Y-10459817D02*
X16606728Y-10459817D01*
X16606728Y-10459817D02*
X16587681Y-10450293D01*
X16587681Y-10450293D02*
X16578157Y-10431246D01*
X16578157Y-10431246D02*
X16578157Y-10421722D01*
X16578157Y-10421722D02*
X16587681Y-10402674D01*
X16587681Y-10402674D02*
X16606728Y-10393150D01*
X16606728Y-10393150D02*
X16635300Y-10393150D01*
X16635300Y-10393150D02*
X16654348Y-10402674D01*
X16730538Y-10602674D02*
X16740062Y-10593150D01*
X16740062Y-10593150D02*
X16759109Y-10564579D01*
X16759109Y-10564579D02*
X16768633Y-10545531D01*
X16768633Y-10545531D02*
X16778157Y-10516960D01*
X16778157Y-10516960D02*
X16787681Y-10469341D01*
X16787681Y-10469341D02*
X16787681Y-10431246D01*
X16787681Y-10431246D02*
X16778157Y-10383627D01*
X16778157Y-10383627D02*
X16768633Y-10355055D01*
X16768633Y-10355055D02*
X16759109Y-10336008D01*
X16759109Y-10336008D02*
X16740062Y-10307436D01*
X16740062Y-10307436D02*
X16730538Y-10297912D01*
D10*
X11764999Y-10699000D02*
G75*
G02*
X11729999Y-10699000I-17500J0D01*
G01*
X11729999Y-10699000D02*
G75*
G02*
X11764999Y-10699000I17500J0D01*
G01*
D11*
X12063871Y-10590484D02*
X12082919Y-10590484D01*
X12082919Y-10590484D02*
X12101966Y-10600008D01*
X12101966Y-10600008D02*
X12111490Y-10609531D01*
X12111490Y-10609531D02*
X12121014Y-10628579D01*
X12121014Y-10628579D02*
X12130538Y-10666674D01*
X12130538Y-10666674D02*
X12130538Y-10714293D01*
X12130538Y-10714293D02*
X12121014Y-10752389D01*
X12121014Y-10752389D02*
X12111490Y-10771436D01*
X12111490Y-10771436D02*
X12101966Y-10780960D01*
X12101966Y-10780960D02*
X12082919Y-10790484D01*
X12082919Y-10790484D02*
X12063871Y-10790484D01*
X12063871Y-10790484D02*
X12044823Y-10780960D01*
X12044823Y-10780960D02*
X12035299Y-10771436D01*
X12035299Y-10771436D02*
X12025776Y-10752389D01*
X12025776Y-10752389D02*
X12016252Y-10714293D01*
X12016252Y-10714293D02*
X12016252Y-10666674D01*
X12016252Y-10666674D02*
X12025776Y-10628579D01*
X12025776Y-10628579D02*
X12035299Y-10609531D01*
X12035299Y-10609531D02*
X12044823Y-10600008D01*
X12044823Y-10600008D02*
X12063871Y-10590484D01*
X12216252Y-10771436D02*
X12225776Y-10780960D01*
X12225776Y-10780960D02*
X12216252Y-10790484D01*
X12216252Y-10790484D02*
X12206728Y-10780960D01*
X12206728Y-10780960D02*
X12216252Y-10771436D01*
X12216252Y-10771436D02*
X12216252Y-10790484D01*
X12292442Y-10590484D02*
X12416252Y-10590484D01*
X12416252Y-10590484D02*
X12349585Y-10666674D01*
X12349585Y-10666674D02*
X12378157Y-10666674D01*
X12378157Y-10666674D02*
X12397204Y-10676198D01*
X12397204Y-10676198D02*
X12406728Y-10685722D01*
X12406728Y-10685722D02*
X12416252Y-10704770D01*
X12416252Y-10704770D02*
X12416252Y-10752389D01*
X12416252Y-10752389D02*
X12406728Y-10771436D01*
X12406728Y-10771436D02*
X12397204Y-10780960D01*
X12397204Y-10780960D02*
X12378157Y-10790484D01*
X12378157Y-10790484D02*
X12321014Y-10790484D01*
X12321014Y-10790484D02*
X12301966Y-10780960D01*
X12301966Y-10780960D02*
X12292442Y-10771436D01*
X12597204Y-10590484D02*
X12501966Y-10590484D01*
X12501966Y-10590484D02*
X12492442Y-10685722D01*
X12492442Y-10685722D02*
X12501966Y-10676198D01*
X12501966Y-10676198D02*
X12521014Y-10666674D01*
X12521014Y-10666674D02*
X12568633Y-10666674D01*
X12568633Y-10666674D02*
X12587680Y-10676198D01*
X12587680Y-10676198D02*
X12597204Y-10685722D01*
X12597204Y-10685722D02*
X12606728Y-10704770D01*
X12606728Y-10704770D02*
X12606728Y-10752389D01*
X12606728Y-10752389D02*
X12597204Y-10771436D01*
X12597204Y-10771436D02*
X12587680Y-10780960D01*
X12587680Y-10780960D02*
X12568633Y-10790484D01*
X12568633Y-10790484D02*
X12521014Y-10790484D01*
X12521014Y-10790484D02*
X12501966Y-10780960D01*
X12501966Y-10780960D02*
X12492442Y-10771436D01*
X12730538Y-10590484D02*
X12749585Y-10590484D01*
X12749585Y-10590484D02*
X12768633Y-10600008D01*
X12768633Y-10600008D02*
X12778157Y-10609531D01*
X12778157Y-10609531D02*
X12787680Y-10628579D01*
X12787680Y-10628579D02*
X12797204Y-10666674D01*
X12797204Y-10666674D02*
X12797204Y-10714293D01*
X12797204Y-10714293D02*
X12787680Y-10752389D01*
X12787680Y-10752389D02*
X12778157Y-10771436D01*
X12778157Y-10771436D02*
X12768633Y-10780960D01*
X12768633Y-10780960D02*
X12749585Y-10790484D01*
X12749585Y-10790484D02*
X12730538Y-10790484D01*
X12730538Y-10790484D02*
X12711490Y-10780960D01*
X12711490Y-10780960D02*
X12701966Y-10771436D01*
X12701966Y-10771436D02*
X12692442Y-10752389D01*
X12692442Y-10752389D02*
X12682919Y-10714293D01*
X12682919Y-10714293D02*
X12682919Y-10666674D01*
X12682919Y-10666674D02*
X12692442Y-10628579D01*
X12692442Y-10628579D02*
X12701966Y-10609531D01*
X12701966Y-10609531D02*
X12711490Y-10600008D01*
X12711490Y-10600008D02*
X12730538Y-10590484D01*
X12882919Y-10790484D02*
X12882919Y-10657150D01*
X12882919Y-10676198D02*
X12892442Y-10666674D01*
X12892442Y-10666674D02*
X12911490Y-10657150D01*
X12911490Y-10657150D02*
X12940061Y-10657150D01*
X12940061Y-10657150D02*
X12959109Y-10666674D01*
X12959109Y-10666674D02*
X12968633Y-10685722D01*
X12968633Y-10685722D02*
X12968633Y-10790484D01*
X12968633Y-10685722D02*
X12978157Y-10666674D01*
X12978157Y-10666674D02*
X12997204Y-10657150D01*
X12997204Y-10657150D02*
X13025776Y-10657150D01*
X13025776Y-10657150D02*
X13044823Y-10666674D01*
X13044823Y-10666674D02*
X13054347Y-10685722D01*
X13054347Y-10685722D02*
X13054347Y-10790484D01*
X13149585Y-10790484D02*
X13149585Y-10657150D01*
X13149585Y-10676198D02*
X13159109Y-10666674D01*
X13159109Y-10666674D02*
X13178157Y-10657150D01*
X13178157Y-10657150D02*
X13206728Y-10657150D01*
X13206728Y-10657150D02*
X13225776Y-10666674D01*
X13225776Y-10666674D02*
X13235300Y-10685722D01*
X13235300Y-10685722D02*
X13235300Y-10790484D01*
X13235300Y-10685722D02*
X13244823Y-10666674D01*
X13244823Y-10666674D02*
X13263871Y-10657150D01*
X13263871Y-10657150D02*
X13292442Y-10657150D01*
X13292442Y-10657150D02*
X13311490Y-10666674D01*
X13311490Y-10666674D02*
X13321014Y-10685722D01*
X13321014Y-10685722D02*
X13321014Y-10790484D01*
X13711490Y-10580960D02*
X13540062Y-10838103D01*
X13968633Y-10590484D02*
X13987681Y-10590484D01*
X13987681Y-10590484D02*
X14006728Y-10600008D01*
X14006728Y-10600008D02*
X14016252Y-10609531D01*
X14016252Y-10609531D02*
X14025776Y-10628579D01*
X14025776Y-10628579D02*
X14035300Y-10666674D01*
X14035300Y-10666674D02*
X14035300Y-10714293D01*
X14035300Y-10714293D02*
X14025776Y-10752389D01*
X14025776Y-10752389D02*
X14016252Y-10771436D01*
X14016252Y-10771436D02*
X14006728Y-10780960D01*
X14006728Y-10780960D02*
X13987681Y-10790484D01*
X13987681Y-10790484D02*
X13968633Y-10790484D01*
X13968633Y-10790484D02*
X13949585Y-10780960D01*
X13949585Y-10780960D02*
X13940062Y-10771436D01*
X13940062Y-10771436D02*
X13930538Y-10752389D01*
X13930538Y-10752389D02*
X13921014Y-10714293D01*
X13921014Y-10714293D02*
X13921014Y-10666674D01*
X13921014Y-10666674D02*
X13930538Y-10628579D01*
X13930538Y-10628579D02*
X13940062Y-10609531D01*
X13940062Y-10609531D02*
X13949585Y-10600008D01*
X13949585Y-10600008D02*
X13968633Y-10590484D01*
X14121014Y-10771436D02*
X14130538Y-10780960D01*
X14130538Y-10780960D02*
X14121014Y-10790484D01*
X14121014Y-10790484D02*
X14111490Y-10780960D01*
X14111490Y-10780960D02*
X14121014Y-10771436D01*
X14121014Y-10771436D02*
X14121014Y-10790484D01*
X14254347Y-10590484D02*
X14273395Y-10590484D01*
X14273395Y-10590484D02*
X14292443Y-10600008D01*
X14292443Y-10600008D02*
X14301966Y-10609531D01*
X14301966Y-10609531D02*
X14311490Y-10628579D01*
X14311490Y-10628579D02*
X14321014Y-10666674D01*
X14321014Y-10666674D02*
X14321014Y-10714293D01*
X14321014Y-10714293D02*
X14311490Y-10752389D01*
X14311490Y-10752389D02*
X14301966Y-10771436D01*
X14301966Y-10771436D02*
X14292443Y-10780960D01*
X14292443Y-10780960D02*
X14273395Y-10790484D01*
X14273395Y-10790484D02*
X14254347Y-10790484D01*
X14254347Y-10790484D02*
X14235300Y-10780960D01*
X14235300Y-10780960D02*
X14225776Y-10771436D01*
X14225776Y-10771436D02*
X14216252Y-10752389D01*
X14216252Y-10752389D02*
X14206728Y-10714293D01*
X14206728Y-10714293D02*
X14206728Y-10666674D01*
X14206728Y-10666674D02*
X14216252Y-10628579D01*
X14216252Y-10628579D02*
X14225776Y-10609531D01*
X14225776Y-10609531D02*
X14235300Y-10600008D01*
X14235300Y-10600008D02*
X14254347Y-10590484D01*
X14511490Y-10790484D02*
X14397204Y-10790484D01*
X14454347Y-10790484D02*
X14454347Y-10590484D01*
X14454347Y-10590484D02*
X14435300Y-10619055D01*
X14435300Y-10619055D02*
X14416252Y-10638103D01*
X14416252Y-10638103D02*
X14397204Y-10647627D01*
X14578157Y-10590484D02*
X14701966Y-10590484D01*
X14701966Y-10590484D02*
X14635300Y-10666674D01*
X14635300Y-10666674D02*
X14663871Y-10666674D01*
X14663871Y-10666674D02*
X14682919Y-10676198D01*
X14682919Y-10676198D02*
X14692443Y-10685722D01*
X14692443Y-10685722D02*
X14701966Y-10704770D01*
X14701966Y-10704770D02*
X14701966Y-10752389D01*
X14701966Y-10752389D02*
X14692443Y-10771436D01*
X14692443Y-10771436D02*
X14682919Y-10780960D01*
X14682919Y-10780960D02*
X14663871Y-10790484D01*
X14663871Y-10790484D02*
X14606728Y-10790484D01*
X14606728Y-10790484D02*
X14587681Y-10780960D01*
X14587681Y-10780960D02*
X14578157Y-10771436D01*
X14816252Y-10676198D02*
X14797204Y-10666674D01*
X14797204Y-10666674D02*
X14787681Y-10657150D01*
X14787681Y-10657150D02*
X14778157Y-10638103D01*
X14778157Y-10638103D02*
X14778157Y-10628579D01*
X14778157Y-10628579D02*
X14787681Y-10609531D01*
X14787681Y-10609531D02*
X14797204Y-10600008D01*
X14797204Y-10600008D02*
X14816252Y-10590484D01*
X14816252Y-10590484D02*
X14854347Y-10590484D01*
X14854347Y-10590484D02*
X14873395Y-10600008D01*
X14873395Y-10600008D02*
X14882919Y-10609531D01*
X14882919Y-10609531D02*
X14892443Y-10628579D01*
X14892443Y-10628579D02*
X14892443Y-10638103D01*
X14892443Y-10638103D02*
X14882919Y-10657150D01*
X14882919Y-10657150D02*
X14873395Y-10666674D01*
X14873395Y-10666674D02*
X14854347Y-10676198D01*
X14854347Y-10676198D02*
X14816252Y-10676198D01*
X14816252Y-10676198D02*
X14797204Y-10685722D01*
X14797204Y-10685722D02*
X14787681Y-10695246D01*
X14787681Y-10695246D02*
X14778157Y-10714293D01*
X14778157Y-10714293D02*
X14778157Y-10752389D01*
X14778157Y-10752389D02*
X14787681Y-10771436D01*
X14787681Y-10771436D02*
X14797204Y-10780960D01*
X14797204Y-10780960D02*
X14816252Y-10790484D01*
X14816252Y-10790484D02*
X14854347Y-10790484D01*
X14854347Y-10790484D02*
X14873395Y-10780960D01*
X14873395Y-10780960D02*
X14882919Y-10771436D01*
X14882919Y-10771436D02*
X14892443Y-10752389D01*
X14892443Y-10752389D02*
X14892443Y-10714293D01*
X14892443Y-10714293D02*
X14882919Y-10695246D01*
X14882919Y-10695246D02*
X14873395Y-10685722D01*
X14873395Y-10685722D02*
X14854347Y-10676198D01*
X14968633Y-10590484D02*
X14968633Y-10628579D01*
X15044824Y-10590484D02*
X15044824Y-10628579D01*
X15340062Y-10866674D02*
X15330538Y-10857150D01*
X15330538Y-10857150D02*
X15311490Y-10828579D01*
X15311490Y-10828579D02*
X15301966Y-10809531D01*
X15301966Y-10809531D02*
X15292443Y-10780960D01*
X15292443Y-10780960D02*
X15282919Y-10733341D01*
X15282919Y-10733341D02*
X15282919Y-10695246D01*
X15282919Y-10695246D02*
X15292443Y-10647627D01*
X15292443Y-10647627D02*
X15301966Y-10619055D01*
X15301966Y-10619055D02*
X15311490Y-10600008D01*
X15311490Y-10600008D02*
X15330538Y-10571436D01*
X15330538Y-10571436D02*
X15340062Y-10561912D01*
X15501966Y-10590484D02*
X15463871Y-10590484D01*
X15463871Y-10590484D02*
X15444824Y-10600008D01*
X15444824Y-10600008D02*
X15435300Y-10609531D01*
X15435300Y-10609531D02*
X15416252Y-10638103D01*
X15416252Y-10638103D02*
X15406728Y-10676198D01*
X15406728Y-10676198D02*
X15406728Y-10752389D01*
X15406728Y-10752389D02*
X15416252Y-10771436D01*
X15416252Y-10771436D02*
X15425776Y-10780960D01*
X15425776Y-10780960D02*
X15444824Y-10790484D01*
X15444824Y-10790484D02*
X15482919Y-10790484D01*
X15482919Y-10790484D02*
X15501966Y-10780960D01*
X15501966Y-10780960D02*
X15511490Y-10771436D01*
X15511490Y-10771436D02*
X15521014Y-10752389D01*
X15521014Y-10752389D02*
X15521014Y-10704770D01*
X15521014Y-10704770D02*
X15511490Y-10685722D01*
X15511490Y-10685722D02*
X15501966Y-10676198D01*
X15501966Y-10676198D02*
X15482919Y-10666674D01*
X15482919Y-10666674D02*
X15444824Y-10666674D01*
X15444824Y-10666674D02*
X15425776Y-10676198D01*
X15425776Y-10676198D02*
X15416252Y-10685722D01*
X15416252Y-10685722D02*
X15406728Y-10704770D01*
X15759109Y-10790484D02*
X15759109Y-10590484D01*
X15844824Y-10790484D02*
X15844824Y-10685722D01*
X15844824Y-10685722D02*
X15835300Y-10666674D01*
X15835300Y-10666674D02*
X15816252Y-10657150D01*
X15816252Y-10657150D02*
X15787681Y-10657150D01*
X15787681Y-10657150D02*
X15768633Y-10666674D01*
X15768633Y-10666674D02*
X15759109Y-10676198D01*
X15968633Y-10790484D02*
X15949586Y-10780960D01*
X15949586Y-10780960D02*
X15940062Y-10771436D01*
X15940062Y-10771436D02*
X15930538Y-10752389D01*
X15930538Y-10752389D02*
X15930538Y-10695246D01*
X15930538Y-10695246D02*
X15940062Y-10676198D01*
X15940062Y-10676198D02*
X15949586Y-10666674D01*
X15949586Y-10666674D02*
X15968633Y-10657150D01*
X15968633Y-10657150D02*
X15997205Y-10657150D01*
X15997205Y-10657150D02*
X16016252Y-10666674D01*
X16016252Y-10666674D02*
X16025776Y-10676198D01*
X16025776Y-10676198D02*
X16035300Y-10695246D01*
X16035300Y-10695246D02*
X16035300Y-10752389D01*
X16035300Y-10752389D02*
X16025776Y-10771436D01*
X16025776Y-10771436D02*
X16016252Y-10780960D01*
X16016252Y-10780960D02*
X15997205Y-10790484D01*
X15997205Y-10790484D02*
X15968633Y-10790484D01*
X16149586Y-10790484D02*
X16130538Y-10780960D01*
X16130538Y-10780960D02*
X16121014Y-10761912D01*
X16121014Y-10761912D02*
X16121014Y-10590484D01*
X16301967Y-10780960D02*
X16282919Y-10790484D01*
X16282919Y-10790484D02*
X16244824Y-10790484D01*
X16244824Y-10790484D02*
X16225776Y-10780960D01*
X16225776Y-10780960D02*
X16216252Y-10761912D01*
X16216252Y-10761912D02*
X16216252Y-10685722D01*
X16216252Y-10685722D02*
X16225776Y-10666674D01*
X16225776Y-10666674D02*
X16244824Y-10657150D01*
X16244824Y-10657150D02*
X16282919Y-10657150D01*
X16282919Y-10657150D02*
X16301967Y-10666674D01*
X16301967Y-10666674D02*
X16311490Y-10685722D01*
X16311490Y-10685722D02*
X16311490Y-10704770D01*
X16311490Y-10704770D02*
X16216252Y-10723817D01*
X16387681Y-10780960D02*
X16406728Y-10790484D01*
X16406728Y-10790484D02*
X16444824Y-10790484D01*
X16444824Y-10790484D02*
X16463871Y-10780960D01*
X16463871Y-10780960D02*
X16473395Y-10761912D01*
X16473395Y-10761912D02*
X16473395Y-10752389D01*
X16473395Y-10752389D02*
X16463871Y-10733341D01*
X16463871Y-10733341D02*
X16444824Y-10723817D01*
X16444824Y-10723817D02*
X16416252Y-10723817D01*
X16416252Y-10723817D02*
X16397205Y-10714293D01*
X16397205Y-10714293D02*
X16387681Y-10695246D01*
X16387681Y-10695246D02*
X16387681Y-10685722D01*
X16387681Y-10685722D02*
X16397205Y-10666674D01*
X16397205Y-10666674D02*
X16416252Y-10657150D01*
X16416252Y-10657150D02*
X16444824Y-10657150D01*
X16444824Y-10657150D02*
X16463871Y-10666674D01*
X16540062Y-10866674D02*
X16549586Y-10857150D01*
X16549586Y-10857150D02*
X16568633Y-10828579D01*
X16568633Y-10828579D02*
X16578157Y-10809531D01*
X16578157Y-10809531D02*
X16587681Y-10780960D01*
X16587681Y-10780960D02*
X16597205Y-10733341D01*
X16597205Y-10733341D02*
X16597205Y-10695246D01*
X16597205Y-10695246D02*
X16587681Y-10647627D01*
X16587681Y-10647627D02*
X16578157Y-10619055D01*
X16578157Y-10619055D02*
X16568633Y-10600008D01*
X16568633Y-10600008D02*
X16549586Y-10571436D01*
X16549586Y-10571436D02*
X16540062Y-10561912D01*
D10*
X11744999Y-10943000D02*
X11744999Y-10983000D01*
X11724999Y-10963000D02*
X11764999Y-10963000D01*
D11*
X12063871Y-10854484D02*
X12082919Y-10854484D01*
X12082919Y-10854484D02*
X12101966Y-10864008D01*
X12101966Y-10864008D02*
X12111490Y-10873531D01*
X12111490Y-10873531D02*
X12121014Y-10892579D01*
X12121014Y-10892579D02*
X12130538Y-10930674D01*
X12130538Y-10930674D02*
X12130538Y-10978293D01*
X12130538Y-10978293D02*
X12121014Y-11016389D01*
X12121014Y-11016389D02*
X12111490Y-11035436D01*
X12111490Y-11035436D02*
X12101966Y-11044960D01*
X12101966Y-11044960D02*
X12082919Y-11054484D01*
X12082919Y-11054484D02*
X12063871Y-11054484D01*
X12063871Y-11054484D02*
X12044823Y-11044960D01*
X12044823Y-11044960D02*
X12035299Y-11035436D01*
X12035299Y-11035436D02*
X12025776Y-11016389D01*
X12025776Y-11016389D02*
X12016252Y-10978293D01*
X12016252Y-10978293D02*
X12016252Y-10930674D01*
X12016252Y-10930674D02*
X12025776Y-10892579D01*
X12025776Y-10892579D02*
X12035299Y-10873531D01*
X12035299Y-10873531D02*
X12044823Y-10864008D01*
X12044823Y-10864008D02*
X12063871Y-10854484D01*
X12216252Y-11035436D02*
X12225776Y-11044960D01*
X12225776Y-11044960D02*
X12216252Y-11054484D01*
X12216252Y-11054484D02*
X12206728Y-11044960D01*
X12206728Y-11044960D02*
X12216252Y-11035436D01*
X12216252Y-11035436D02*
X12216252Y-11054484D01*
X12397204Y-10921150D02*
X12397204Y-11054484D01*
X12349585Y-10844960D02*
X12301966Y-10987817D01*
X12301966Y-10987817D02*
X12425776Y-10987817D01*
X12540061Y-10854484D02*
X12559109Y-10854484D01*
X12559109Y-10854484D02*
X12578157Y-10864008D01*
X12578157Y-10864008D02*
X12587680Y-10873531D01*
X12587680Y-10873531D02*
X12597204Y-10892579D01*
X12597204Y-10892579D02*
X12606728Y-10930674D01*
X12606728Y-10930674D02*
X12606728Y-10978293D01*
X12606728Y-10978293D02*
X12597204Y-11016389D01*
X12597204Y-11016389D02*
X12587680Y-11035436D01*
X12587680Y-11035436D02*
X12578157Y-11044960D01*
X12578157Y-11044960D02*
X12559109Y-11054484D01*
X12559109Y-11054484D02*
X12540061Y-11054484D01*
X12540061Y-11054484D02*
X12521014Y-11044960D01*
X12521014Y-11044960D02*
X12511490Y-11035436D01*
X12511490Y-11035436D02*
X12501966Y-11016389D01*
X12501966Y-11016389D02*
X12492442Y-10978293D01*
X12492442Y-10978293D02*
X12492442Y-10930674D01*
X12492442Y-10930674D02*
X12501966Y-10892579D01*
X12501966Y-10892579D02*
X12511490Y-10873531D01*
X12511490Y-10873531D02*
X12521014Y-10864008D01*
X12521014Y-10864008D02*
X12540061Y-10854484D01*
X12730538Y-10854484D02*
X12749585Y-10854484D01*
X12749585Y-10854484D02*
X12768633Y-10864008D01*
X12768633Y-10864008D02*
X12778157Y-10873531D01*
X12778157Y-10873531D02*
X12787680Y-10892579D01*
X12787680Y-10892579D02*
X12797204Y-10930674D01*
X12797204Y-10930674D02*
X12797204Y-10978293D01*
X12797204Y-10978293D02*
X12787680Y-11016389D01*
X12787680Y-11016389D02*
X12778157Y-11035436D01*
X12778157Y-11035436D02*
X12768633Y-11044960D01*
X12768633Y-11044960D02*
X12749585Y-11054484D01*
X12749585Y-11054484D02*
X12730538Y-11054484D01*
X12730538Y-11054484D02*
X12711490Y-11044960D01*
X12711490Y-11044960D02*
X12701966Y-11035436D01*
X12701966Y-11035436D02*
X12692442Y-11016389D01*
X12692442Y-11016389D02*
X12682919Y-10978293D01*
X12682919Y-10978293D02*
X12682919Y-10930674D01*
X12682919Y-10930674D02*
X12692442Y-10892579D01*
X12692442Y-10892579D02*
X12701966Y-10873531D01*
X12701966Y-10873531D02*
X12711490Y-10864008D01*
X12711490Y-10864008D02*
X12730538Y-10854484D01*
X12882919Y-11054484D02*
X12882919Y-10921150D01*
X12882919Y-10940198D02*
X12892442Y-10930674D01*
X12892442Y-10930674D02*
X12911490Y-10921150D01*
X12911490Y-10921150D02*
X12940061Y-10921150D01*
X12940061Y-10921150D02*
X12959109Y-10930674D01*
X12959109Y-10930674D02*
X12968633Y-10949722D01*
X12968633Y-10949722D02*
X12968633Y-11054484D01*
X12968633Y-10949722D02*
X12978157Y-10930674D01*
X12978157Y-10930674D02*
X12997204Y-10921150D01*
X12997204Y-10921150D02*
X13025776Y-10921150D01*
X13025776Y-10921150D02*
X13044823Y-10930674D01*
X13044823Y-10930674D02*
X13054347Y-10949722D01*
X13054347Y-10949722D02*
X13054347Y-11054484D01*
X13149585Y-11054484D02*
X13149585Y-10921150D01*
X13149585Y-10940198D02*
X13159109Y-10930674D01*
X13159109Y-10930674D02*
X13178157Y-10921150D01*
X13178157Y-10921150D02*
X13206728Y-10921150D01*
X13206728Y-10921150D02*
X13225776Y-10930674D01*
X13225776Y-10930674D02*
X13235300Y-10949722D01*
X13235300Y-10949722D02*
X13235300Y-11054484D01*
X13235300Y-10949722D02*
X13244823Y-10930674D01*
X13244823Y-10930674D02*
X13263871Y-10921150D01*
X13263871Y-10921150D02*
X13292442Y-10921150D01*
X13292442Y-10921150D02*
X13311490Y-10930674D01*
X13311490Y-10930674D02*
X13321014Y-10949722D01*
X13321014Y-10949722D02*
X13321014Y-11054484D01*
X13711490Y-10844960D02*
X13540062Y-11102103D01*
X13968633Y-10854484D02*
X13987681Y-10854484D01*
X13987681Y-10854484D02*
X14006728Y-10864008D01*
X14006728Y-10864008D02*
X14016252Y-10873531D01*
X14016252Y-10873531D02*
X14025776Y-10892579D01*
X14025776Y-10892579D02*
X14035300Y-10930674D01*
X14035300Y-10930674D02*
X14035300Y-10978293D01*
X14035300Y-10978293D02*
X14025776Y-11016389D01*
X14025776Y-11016389D02*
X14016252Y-11035436D01*
X14016252Y-11035436D02*
X14006728Y-11044960D01*
X14006728Y-11044960D02*
X13987681Y-11054484D01*
X13987681Y-11054484D02*
X13968633Y-11054484D01*
X13968633Y-11054484D02*
X13949585Y-11044960D01*
X13949585Y-11044960D02*
X13940062Y-11035436D01*
X13940062Y-11035436D02*
X13930538Y-11016389D01*
X13930538Y-11016389D02*
X13921014Y-10978293D01*
X13921014Y-10978293D02*
X13921014Y-10930674D01*
X13921014Y-10930674D02*
X13930538Y-10892579D01*
X13930538Y-10892579D02*
X13940062Y-10873531D01*
X13940062Y-10873531D02*
X13949585Y-10864008D01*
X13949585Y-10864008D02*
X13968633Y-10854484D01*
X14121014Y-11035436D02*
X14130538Y-11044960D01*
X14130538Y-11044960D02*
X14121014Y-11054484D01*
X14121014Y-11054484D02*
X14111490Y-11044960D01*
X14111490Y-11044960D02*
X14121014Y-11035436D01*
X14121014Y-11035436D02*
X14121014Y-11054484D01*
X14254347Y-10854484D02*
X14273395Y-10854484D01*
X14273395Y-10854484D02*
X14292443Y-10864008D01*
X14292443Y-10864008D02*
X14301966Y-10873531D01*
X14301966Y-10873531D02*
X14311490Y-10892579D01*
X14311490Y-10892579D02*
X14321014Y-10930674D01*
X14321014Y-10930674D02*
X14321014Y-10978293D01*
X14321014Y-10978293D02*
X14311490Y-11016389D01*
X14311490Y-11016389D02*
X14301966Y-11035436D01*
X14301966Y-11035436D02*
X14292443Y-11044960D01*
X14292443Y-11044960D02*
X14273395Y-11054484D01*
X14273395Y-11054484D02*
X14254347Y-11054484D01*
X14254347Y-11054484D02*
X14235300Y-11044960D01*
X14235300Y-11044960D02*
X14225776Y-11035436D01*
X14225776Y-11035436D02*
X14216252Y-11016389D01*
X14216252Y-11016389D02*
X14206728Y-10978293D01*
X14206728Y-10978293D02*
X14206728Y-10930674D01*
X14206728Y-10930674D02*
X14216252Y-10892579D01*
X14216252Y-10892579D02*
X14225776Y-10873531D01*
X14225776Y-10873531D02*
X14235300Y-10864008D01*
X14235300Y-10864008D02*
X14254347Y-10854484D01*
X14511490Y-11054484D02*
X14397204Y-11054484D01*
X14454347Y-11054484D02*
X14454347Y-10854484D01*
X14454347Y-10854484D02*
X14435300Y-10883055D01*
X14435300Y-10883055D02*
X14416252Y-10902103D01*
X14416252Y-10902103D02*
X14397204Y-10911627D01*
X14692443Y-10854484D02*
X14597204Y-10854484D01*
X14597204Y-10854484D02*
X14587681Y-10949722D01*
X14587681Y-10949722D02*
X14597204Y-10940198D01*
X14597204Y-10940198D02*
X14616252Y-10930674D01*
X14616252Y-10930674D02*
X14663871Y-10930674D01*
X14663871Y-10930674D02*
X14682919Y-10940198D01*
X14682919Y-10940198D02*
X14692443Y-10949722D01*
X14692443Y-10949722D02*
X14701966Y-10968770D01*
X14701966Y-10968770D02*
X14701966Y-11016389D01*
X14701966Y-11016389D02*
X14692443Y-11035436D01*
X14692443Y-11035436D02*
X14682919Y-11044960D01*
X14682919Y-11044960D02*
X14663871Y-11054484D01*
X14663871Y-11054484D02*
X14616252Y-11054484D01*
X14616252Y-11054484D02*
X14597204Y-11044960D01*
X14597204Y-11044960D02*
X14587681Y-11035436D01*
X14768633Y-10854484D02*
X14901966Y-10854484D01*
X14901966Y-10854484D02*
X14816252Y-11054484D01*
X14968633Y-10854484D02*
X14968633Y-10892579D01*
X15044824Y-10854484D02*
X15044824Y-10892579D01*
X15340062Y-11130674D02*
X15330538Y-11121150D01*
X15330538Y-11121150D02*
X15311490Y-11092579D01*
X15311490Y-11092579D02*
X15301966Y-11073531D01*
X15301966Y-11073531D02*
X15292443Y-11044960D01*
X15292443Y-11044960D02*
X15282919Y-10997341D01*
X15282919Y-10997341D02*
X15282919Y-10959246D01*
X15282919Y-10959246D02*
X15292443Y-10911627D01*
X15292443Y-10911627D02*
X15301966Y-10883055D01*
X15301966Y-10883055D02*
X15311490Y-10864008D01*
X15311490Y-10864008D02*
X15330538Y-10835436D01*
X15330538Y-10835436D02*
X15340062Y-10825912D01*
X15501966Y-10921150D02*
X15501966Y-11054484D01*
X15454347Y-10844960D02*
X15406728Y-10987817D01*
X15406728Y-10987817D02*
X15530538Y-10987817D01*
X15587681Y-10854484D02*
X15711490Y-10854484D01*
X15711490Y-10854484D02*
X15644824Y-10930674D01*
X15644824Y-10930674D02*
X15673395Y-10930674D01*
X15673395Y-10930674D02*
X15692443Y-10940198D01*
X15692443Y-10940198D02*
X15701966Y-10949722D01*
X15701966Y-10949722D02*
X15711490Y-10968770D01*
X15711490Y-10968770D02*
X15711490Y-11016389D01*
X15711490Y-11016389D02*
X15701966Y-11035436D01*
X15701966Y-11035436D02*
X15692443Y-11044960D01*
X15692443Y-11044960D02*
X15673395Y-11054484D01*
X15673395Y-11054484D02*
X15616252Y-11054484D01*
X15616252Y-11054484D02*
X15597205Y-11044960D01*
X15597205Y-11044960D02*
X15587681Y-11035436D01*
X15949586Y-11054484D02*
X15949586Y-10854484D01*
X16035300Y-11054484D02*
X16035300Y-10949722D01*
X16035300Y-10949722D02*
X16025776Y-10930674D01*
X16025776Y-10930674D02*
X16006728Y-10921150D01*
X16006728Y-10921150D02*
X15978157Y-10921150D01*
X15978157Y-10921150D02*
X15959109Y-10930674D01*
X15959109Y-10930674D02*
X15949586Y-10940198D01*
X16159109Y-11054484D02*
X16140062Y-11044960D01*
X16140062Y-11044960D02*
X16130538Y-11035436D01*
X16130538Y-11035436D02*
X16121014Y-11016389D01*
X16121014Y-11016389D02*
X16121014Y-10959246D01*
X16121014Y-10959246D02*
X16130538Y-10940198D01*
X16130538Y-10940198D02*
X16140062Y-10930674D01*
X16140062Y-10930674D02*
X16159109Y-10921150D01*
X16159109Y-10921150D02*
X16187681Y-10921150D01*
X16187681Y-10921150D02*
X16206728Y-10930674D01*
X16206728Y-10930674D02*
X16216252Y-10940198D01*
X16216252Y-10940198D02*
X16225776Y-10959246D01*
X16225776Y-10959246D02*
X16225776Y-11016389D01*
X16225776Y-11016389D02*
X16216252Y-11035436D01*
X16216252Y-11035436D02*
X16206728Y-11044960D01*
X16206728Y-11044960D02*
X16187681Y-11054484D01*
X16187681Y-11054484D02*
X16159109Y-11054484D01*
X16340062Y-11054484D02*
X16321014Y-11044960D01*
X16321014Y-11044960D02*
X16311490Y-11025912D01*
X16311490Y-11025912D02*
X16311490Y-10854484D01*
X16492443Y-11044960D02*
X16473395Y-11054484D01*
X16473395Y-11054484D02*
X16435300Y-11054484D01*
X16435300Y-11054484D02*
X16416252Y-11044960D01*
X16416252Y-11044960D02*
X16406728Y-11025912D01*
X16406728Y-11025912D02*
X16406728Y-10949722D01*
X16406728Y-10949722D02*
X16416252Y-10930674D01*
X16416252Y-10930674D02*
X16435300Y-10921150D01*
X16435300Y-10921150D02*
X16473395Y-10921150D01*
X16473395Y-10921150D02*
X16492443Y-10930674D01*
X16492443Y-10930674D02*
X16501967Y-10949722D01*
X16501967Y-10949722D02*
X16501967Y-10968770D01*
X16501967Y-10968770D02*
X16406728Y-10987817D01*
X16578157Y-11044960D02*
X16597205Y-11054484D01*
X16597205Y-11054484D02*
X16635300Y-11054484D01*
X16635300Y-11054484D02*
X16654348Y-11044960D01*
X16654348Y-11044960D02*
X16663871Y-11025912D01*
X16663871Y-11025912D02*
X16663871Y-11016389D01*
X16663871Y-11016389D02*
X16654348Y-10997341D01*
X16654348Y-10997341D02*
X16635300Y-10987817D01*
X16635300Y-10987817D02*
X16606728Y-10987817D01*
X16606728Y-10987817D02*
X16587681Y-10978293D01*
X16587681Y-10978293D02*
X16578157Y-10959246D01*
X16578157Y-10959246D02*
X16578157Y-10949722D01*
X16578157Y-10949722D02*
X16587681Y-10930674D01*
X16587681Y-10930674D02*
X16606728Y-10921150D01*
X16606728Y-10921150D02*
X16635300Y-10921150D01*
X16635300Y-10921150D02*
X16654348Y-10930674D01*
X16730538Y-11130674D02*
X16740062Y-11121150D01*
X16740062Y-11121150D02*
X16759109Y-11092579D01*
X16759109Y-11092579D02*
X16768633Y-11073531D01*
X16768633Y-11073531D02*
X16778157Y-11044960D01*
X16778157Y-11044960D02*
X16787681Y-10997341D01*
X16787681Y-10997341D02*
X16787681Y-10959246D01*
X16787681Y-10959246D02*
X16778157Y-10911627D01*
X16778157Y-10911627D02*
X16768633Y-10883055D01*
X16768633Y-10883055D02*
X16759109Y-10864008D01*
X16759109Y-10864008D02*
X16740062Y-10835436D01*
X16740062Y-10835436D02*
X16730538Y-10825912D01*
D10*
X11758409Y-11242910D02*
X11758409Y-11211090D01*
X11726589Y-11211090D01*
X11726589Y-11242910D01*
X11758409Y-11242910D01*
D11*
X12063871Y-11118484D02*
X12082919Y-11118484D01*
X12082919Y-11118484D02*
X12101966Y-11128008D01*
X12101966Y-11128008D02*
X12111490Y-11137531D01*
X12111490Y-11137531D02*
X12121014Y-11156579D01*
X12121014Y-11156579D02*
X12130538Y-11194674D01*
X12130538Y-11194674D02*
X12130538Y-11242293D01*
X12130538Y-11242293D02*
X12121014Y-11280388D01*
X12121014Y-11280388D02*
X12111490Y-11299436D01*
X12111490Y-11299436D02*
X12101966Y-11308960D01*
X12101966Y-11308960D02*
X12082919Y-11318484D01*
X12082919Y-11318484D02*
X12063871Y-11318484D01*
X12063871Y-11318484D02*
X12044823Y-11308960D01*
X12044823Y-11308960D02*
X12035299Y-11299436D01*
X12035299Y-11299436D02*
X12025776Y-11280388D01*
X12025776Y-11280388D02*
X12016252Y-11242293D01*
X12016252Y-11242293D02*
X12016252Y-11194674D01*
X12016252Y-11194674D02*
X12025776Y-11156579D01*
X12025776Y-11156579D02*
X12035299Y-11137531D01*
X12035299Y-11137531D02*
X12044823Y-11128008D01*
X12044823Y-11128008D02*
X12063871Y-11118484D01*
X12216252Y-11299436D02*
X12225776Y-11308960D01*
X12225776Y-11308960D02*
X12216252Y-11318484D01*
X12216252Y-11318484D02*
X12206728Y-11308960D01*
X12206728Y-11308960D02*
X12216252Y-11299436D01*
X12216252Y-11299436D02*
X12216252Y-11318484D01*
X12397204Y-11185150D02*
X12397204Y-11318484D01*
X12349585Y-11108960D02*
X12301966Y-11251817D01*
X12301966Y-11251817D02*
X12425776Y-11251817D01*
X12597204Y-11118484D02*
X12501966Y-11118484D01*
X12501966Y-11118484D02*
X12492442Y-11213722D01*
X12492442Y-11213722D02*
X12501966Y-11204198D01*
X12501966Y-11204198D02*
X12521014Y-11194674D01*
X12521014Y-11194674D02*
X12568633Y-11194674D01*
X12568633Y-11194674D02*
X12587680Y-11204198D01*
X12587680Y-11204198D02*
X12597204Y-11213722D01*
X12597204Y-11213722D02*
X12606728Y-11232769D01*
X12606728Y-11232769D02*
X12606728Y-11280388D01*
X12606728Y-11280388D02*
X12597204Y-11299436D01*
X12597204Y-11299436D02*
X12587680Y-11308960D01*
X12587680Y-11308960D02*
X12568633Y-11318484D01*
X12568633Y-11318484D02*
X12521014Y-11318484D01*
X12521014Y-11318484D02*
X12501966Y-11308960D01*
X12501966Y-11308960D02*
X12492442Y-11299436D01*
X12730538Y-11118484D02*
X12749585Y-11118484D01*
X12749585Y-11118484D02*
X12768633Y-11128008D01*
X12768633Y-11128008D02*
X12778157Y-11137531D01*
X12778157Y-11137531D02*
X12787680Y-11156579D01*
X12787680Y-11156579D02*
X12797204Y-11194674D01*
X12797204Y-11194674D02*
X12797204Y-11242293D01*
X12797204Y-11242293D02*
X12787680Y-11280388D01*
X12787680Y-11280388D02*
X12778157Y-11299436D01*
X12778157Y-11299436D02*
X12768633Y-11308960D01*
X12768633Y-11308960D02*
X12749585Y-11318484D01*
X12749585Y-11318484D02*
X12730538Y-11318484D01*
X12730538Y-11318484D02*
X12711490Y-11308960D01*
X12711490Y-11308960D02*
X12701966Y-11299436D01*
X12701966Y-11299436D02*
X12692442Y-11280388D01*
X12692442Y-11280388D02*
X12682919Y-11242293D01*
X12682919Y-11242293D02*
X12682919Y-11194674D01*
X12682919Y-11194674D02*
X12692442Y-11156579D01*
X12692442Y-11156579D02*
X12701966Y-11137531D01*
X12701966Y-11137531D02*
X12711490Y-11128008D01*
X12711490Y-11128008D02*
X12730538Y-11118484D01*
X12882919Y-11318484D02*
X12882919Y-11185150D01*
X12882919Y-11204198D02*
X12892442Y-11194674D01*
X12892442Y-11194674D02*
X12911490Y-11185150D01*
X12911490Y-11185150D02*
X12940061Y-11185150D01*
X12940061Y-11185150D02*
X12959109Y-11194674D01*
X12959109Y-11194674D02*
X12968633Y-11213722D01*
X12968633Y-11213722D02*
X12968633Y-11318484D01*
X12968633Y-11213722D02*
X12978157Y-11194674D01*
X12978157Y-11194674D02*
X12997204Y-11185150D01*
X12997204Y-11185150D02*
X13025776Y-11185150D01*
X13025776Y-11185150D02*
X13044823Y-11194674D01*
X13044823Y-11194674D02*
X13054347Y-11213722D01*
X13054347Y-11213722D02*
X13054347Y-11318484D01*
X13149585Y-11318484D02*
X13149585Y-11185150D01*
X13149585Y-11204198D02*
X13159109Y-11194674D01*
X13159109Y-11194674D02*
X13178157Y-11185150D01*
X13178157Y-11185150D02*
X13206728Y-11185150D01*
X13206728Y-11185150D02*
X13225776Y-11194674D01*
X13225776Y-11194674D02*
X13235300Y-11213722D01*
X13235300Y-11213722D02*
X13235300Y-11318484D01*
X13235300Y-11213722D02*
X13244823Y-11194674D01*
X13244823Y-11194674D02*
X13263871Y-11185150D01*
X13263871Y-11185150D02*
X13292442Y-11185150D01*
X13292442Y-11185150D02*
X13311490Y-11194674D01*
X13311490Y-11194674D02*
X13321014Y-11213722D01*
X13321014Y-11213722D02*
X13321014Y-11318484D01*
X13711490Y-11108960D02*
X13540062Y-11366103D01*
X13968633Y-11118484D02*
X13987681Y-11118484D01*
X13987681Y-11118484D02*
X14006728Y-11128008D01*
X14006728Y-11128008D02*
X14016252Y-11137531D01*
X14016252Y-11137531D02*
X14025776Y-11156579D01*
X14025776Y-11156579D02*
X14035300Y-11194674D01*
X14035300Y-11194674D02*
X14035300Y-11242293D01*
X14035300Y-11242293D02*
X14025776Y-11280388D01*
X14025776Y-11280388D02*
X14016252Y-11299436D01*
X14016252Y-11299436D02*
X14006728Y-11308960D01*
X14006728Y-11308960D02*
X13987681Y-11318484D01*
X13987681Y-11318484D02*
X13968633Y-11318484D01*
X13968633Y-11318484D02*
X13949585Y-11308960D01*
X13949585Y-11308960D02*
X13940062Y-11299436D01*
X13940062Y-11299436D02*
X13930538Y-11280388D01*
X13930538Y-11280388D02*
X13921014Y-11242293D01*
X13921014Y-11242293D02*
X13921014Y-11194674D01*
X13921014Y-11194674D02*
X13930538Y-11156579D01*
X13930538Y-11156579D02*
X13940062Y-11137531D01*
X13940062Y-11137531D02*
X13949585Y-11128008D01*
X13949585Y-11128008D02*
X13968633Y-11118484D01*
X14121014Y-11299436D02*
X14130538Y-11308960D01*
X14130538Y-11308960D02*
X14121014Y-11318484D01*
X14121014Y-11318484D02*
X14111490Y-11308960D01*
X14111490Y-11308960D02*
X14121014Y-11299436D01*
X14121014Y-11299436D02*
X14121014Y-11318484D01*
X14254347Y-11118484D02*
X14273395Y-11118484D01*
X14273395Y-11118484D02*
X14292443Y-11128008D01*
X14292443Y-11128008D02*
X14301966Y-11137531D01*
X14301966Y-11137531D02*
X14311490Y-11156579D01*
X14311490Y-11156579D02*
X14321014Y-11194674D01*
X14321014Y-11194674D02*
X14321014Y-11242293D01*
X14321014Y-11242293D02*
X14311490Y-11280388D01*
X14311490Y-11280388D02*
X14301966Y-11299436D01*
X14301966Y-11299436D02*
X14292443Y-11308960D01*
X14292443Y-11308960D02*
X14273395Y-11318484D01*
X14273395Y-11318484D02*
X14254347Y-11318484D01*
X14254347Y-11318484D02*
X14235300Y-11308960D01*
X14235300Y-11308960D02*
X14225776Y-11299436D01*
X14225776Y-11299436D02*
X14216252Y-11280388D01*
X14216252Y-11280388D02*
X14206728Y-11242293D01*
X14206728Y-11242293D02*
X14206728Y-11194674D01*
X14206728Y-11194674D02*
X14216252Y-11156579D01*
X14216252Y-11156579D02*
X14225776Y-11137531D01*
X14225776Y-11137531D02*
X14235300Y-11128008D01*
X14235300Y-11128008D02*
X14254347Y-11118484D01*
X14511490Y-11318484D02*
X14397204Y-11318484D01*
X14454347Y-11318484D02*
X14454347Y-11118484D01*
X14454347Y-11118484D02*
X14435300Y-11147055D01*
X14435300Y-11147055D02*
X14416252Y-11166103D01*
X14416252Y-11166103D02*
X14397204Y-11175627D01*
X14578157Y-11118484D02*
X14711490Y-11118484D01*
X14711490Y-11118484D02*
X14625776Y-11318484D01*
X14768633Y-11118484D02*
X14901966Y-11118484D01*
X14901966Y-11118484D02*
X14816252Y-11318484D01*
X14968633Y-11118484D02*
X14968633Y-11156579D01*
X15044824Y-11118484D02*
X15044824Y-11156579D01*
X15340062Y-11394674D02*
X15330538Y-11385150D01*
X15330538Y-11385150D02*
X15311490Y-11356579D01*
X15311490Y-11356579D02*
X15301966Y-11337531D01*
X15301966Y-11337531D02*
X15292443Y-11308960D01*
X15292443Y-11308960D02*
X15282919Y-11261341D01*
X15282919Y-11261341D02*
X15282919Y-11223246D01*
X15282919Y-11223246D02*
X15292443Y-11175627D01*
X15292443Y-11175627D02*
X15301966Y-11147055D01*
X15301966Y-11147055D02*
X15311490Y-11128008D01*
X15311490Y-11128008D02*
X15330538Y-11099436D01*
X15330538Y-11099436D02*
X15340062Y-11089912D01*
X15501966Y-11185150D02*
X15501966Y-11318484D01*
X15454347Y-11108960D02*
X15406728Y-11251817D01*
X15406728Y-11251817D02*
X15530538Y-11251817D01*
X15759109Y-11318484D02*
X15759109Y-11118484D01*
X15844824Y-11318484D02*
X15844824Y-11213722D01*
X15844824Y-11213722D02*
X15835300Y-11194674D01*
X15835300Y-11194674D02*
X15816252Y-11185150D01*
X15816252Y-11185150D02*
X15787681Y-11185150D01*
X15787681Y-11185150D02*
X15768633Y-11194674D01*
X15768633Y-11194674D02*
X15759109Y-11204198D01*
X15968633Y-11318484D02*
X15949586Y-11308960D01*
X15949586Y-11308960D02*
X15940062Y-11299436D01*
X15940062Y-11299436D02*
X15930538Y-11280388D01*
X15930538Y-11280388D02*
X15930538Y-11223246D01*
X15930538Y-11223246D02*
X15940062Y-11204198D01*
X15940062Y-11204198D02*
X15949586Y-11194674D01*
X15949586Y-11194674D02*
X15968633Y-11185150D01*
X15968633Y-11185150D02*
X15997205Y-11185150D01*
X15997205Y-11185150D02*
X16016252Y-11194674D01*
X16016252Y-11194674D02*
X16025776Y-11204198D01*
X16025776Y-11204198D02*
X16035300Y-11223246D01*
X16035300Y-11223246D02*
X16035300Y-11280388D01*
X16035300Y-11280388D02*
X16025776Y-11299436D01*
X16025776Y-11299436D02*
X16016252Y-11308960D01*
X16016252Y-11308960D02*
X15997205Y-11318484D01*
X15997205Y-11318484D02*
X15968633Y-11318484D01*
X16149586Y-11318484D02*
X16130538Y-11308960D01*
X16130538Y-11308960D02*
X16121014Y-11289912D01*
X16121014Y-11289912D02*
X16121014Y-11118484D01*
X16301967Y-11308960D02*
X16282919Y-11318484D01*
X16282919Y-11318484D02*
X16244824Y-11318484D01*
X16244824Y-11318484D02*
X16225776Y-11308960D01*
X16225776Y-11308960D02*
X16216252Y-11289912D01*
X16216252Y-11289912D02*
X16216252Y-11213722D01*
X16216252Y-11213722D02*
X16225776Y-11194674D01*
X16225776Y-11194674D02*
X16244824Y-11185150D01*
X16244824Y-11185150D02*
X16282919Y-11185150D01*
X16282919Y-11185150D02*
X16301967Y-11194674D01*
X16301967Y-11194674D02*
X16311490Y-11213722D01*
X16311490Y-11213722D02*
X16311490Y-11232769D01*
X16311490Y-11232769D02*
X16216252Y-11251817D01*
X16387681Y-11308960D02*
X16406728Y-11318484D01*
X16406728Y-11318484D02*
X16444824Y-11318484D01*
X16444824Y-11318484D02*
X16463871Y-11308960D01*
X16463871Y-11308960D02*
X16473395Y-11289912D01*
X16473395Y-11289912D02*
X16473395Y-11280388D01*
X16473395Y-11280388D02*
X16463871Y-11261341D01*
X16463871Y-11261341D02*
X16444824Y-11251817D01*
X16444824Y-11251817D02*
X16416252Y-11251817D01*
X16416252Y-11251817D02*
X16397205Y-11242293D01*
X16397205Y-11242293D02*
X16387681Y-11223246D01*
X16387681Y-11223246D02*
X16387681Y-11213722D01*
X16387681Y-11213722D02*
X16397205Y-11194674D01*
X16397205Y-11194674D02*
X16416252Y-11185150D01*
X16416252Y-11185150D02*
X16444824Y-11185150D01*
X16444824Y-11185150D02*
X16463871Y-11194674D01*
X16540062Y-11394674D02*
X16549586Y-11385150D01*
X16549586Y-11385150D02*
X16568633Y-11356579D01*
X16568633Y-11356579D02*
X16578157Y-11337531D01*
X16578157Y-11337531D02*
X16587681Y-11308960D01*
X16587681Y-11308960D02*
X16597205Y-11261341D01*
X16597205Y-11261341D02*
X16597205Y-11223246D01*
X16597205Y-11223246D02*
X16587681Y-11175627D01*
X16587681Y-11175627D02*
X16578157Y-11147055D01*
X16578157Y-11147055D02*
X16568633Y-11128008D01*
X16568633Y-11128008D02*
X16549586Y-11099436D01*
X16549586Y-11099436D02*
X16540062Y-11089912D01*
D10*
X11739999Y-11516000D02*
X11764999Y-11491000D01*
X11739999Y-11466000D01*
X11714999Y-11491000D01*
X11739999Y-11516000D01*
D11*
X12063871Y-11382484D02*
X12082919Y-11382484D01*
X12082919Y-11382484D02*
X12101966Y-11392008D01*
X12101966Y-11392008D02*
X12111490Y-11401531D01*
X12111490Y-11401531D02*
X12121014Y-11420579D01*
X12121014Y-11420579D02*
X12130538Y-11458674D01*
X12130538Y-11458674D02*
X12130538Y-11506293D01*
X12130538Y-11506293D02*
X12121014Y-11544388D01*
X12121014Y-11544388D02*
X12111490Y-11563436D01*
X12111490Y-11563436D02*
X12101966Y-11572960D01*
X12101966Y-11572960D02*
X12082919Y-11582484D01*
X12082919Y-11582484D02*
X12063871Y-11582484D01*
X12063871Y-11582484D02*
X12044823Y-11572960D01*
X12044823Y-11572960D02*
X12035299Y-11563436D01*
X12035299Y-11563436D02*
X12025776Y-11544388D01*
X12025776Y-11544388D02*
X12016252Y-11506293D01*
X12016252Y-11506293D02*
X12016252Y-11458674D01*
X12016252Y-11458674D02*
X12025776Y-11420579D01*
X12025776Y-11420579D02*
X12035299Y-11401531D01*
X12035299Y-11401531D02*
X12044823Y-11392008D01*
X12044823Y-11392008D02*
X12063871Y-11382484D01*
X12216252Y-11563436D02*
X12225776Y-11572960D01*
X12225776Y-11572960D02*
X12216252Y-11582484D01*
X12216252Y-11582484D02*
X12206728Y-11572960D01*
X12206728Y-11572960D02*
X12216252Y-11563436D01*
X12216252Y-11563436D02*
X12216252Y-11582484D01*
X12406728Y-11382484D02*
X12311490Y-11382484D01*
X12311490Y-11382484D02*
X12301966Y-11477722D01*
X12301966Y-11477722D02*
X12311490Y-11468198D01*
X12311490Y-11468198D02*
X12330538Y-11458674D01*
X12330538Y-11458674D02*
X12378157Y-11458674D01*
X12378157Y-11458674D02*
X12397204Y-11468198D01*
X12397204Y-11468198D02*
X12406728Y-11477722D01*
X12406728Y-11477722D02*
X12416252Y-11496769D01*
X12416252Y-11496769D02*
X12416252Y-11544388D01*
X12416252Y-11544388D02*
X12406728Y-11563436D01*
X12406728Y-11563436D02*
X12397204Y-11572960D01*
X12397204Y-11572960D02*
X12378157Y-11582484D01*
X12378157Y-11582484D02*
X12330538Y-11582484D01*
X12330538Y-11582484D02*
X12311490Y-11572960D01*
X12311490Y-11572960D02*
X12301966Y-11563436D01*
X12540061Y-11382484D02*
X12559109Y-11382484D01*
X12559109Y-11382484D02*
X12578157Y-11392008D01*
X12578157Y-11392008D02*
X12587680Y-11401531D01*
X12587680Y-11401531D02*
X12597204Y-11420579D01*
X12597204Y-11420579D02*
X12606728Y-11458674D01*
X12606728Y-11458674D02*
X12606728Y-11506293D01*
X12606728Y-11506293D02*
X12597204Y-11544388D01*
X12597204Y-11544388D02*
X12587680Y-11563436D01*
X12587680Y-11563436D02*
X12578157Y-11572960D01*
X12578157Y-11572960D02*
X12559109Y-11582484D01*
X12559109Y-11582484D02*
X12540061Y-11582484D01*
X12540061Y-11582484D02*
X12521014Y-11572960D01*
X12521014Y-11572960D02*
X12511490Y-11563436D01*
X12511490Y-11563436D02*
X12501966Y-11544388D01*
X12501966Y-11544388D02*
X12492442Y-11506293D01*
X12492442Y-11506293D02*
X12492442Y-11458674D01*
X12492442Y-11458674D02*
X12501966Y-11420579D01*
X12501966Y-11420579D02*
X12511490Y-11401531D01*
X12511490Y-11401531D02*
X12521014Y-11392008D01*
X12521014Y-11392008D02*
X12540061Y-11382484D01*
X12730538Y-11382484D02*
X12749585Y-11382484D01*
X12749585Y-11382484D02*
X12768633Y-11392008D01*
X12768633Y-11392008D02*
X12778157Y-11401531D01*
X12778157Y-11401531D02*
X12787680Y-11420579D01*
X12787680Y-11420579D02*
X12797204Y-11458674D01*
X12797204Y-11458674D02*
X12797204Y-11506293D01*
X12797204Y-11506293D02*
X12787680Y-11544388D01*
X12787680Y-11544388D02*
X12778157Y-11563436D01*
X12778157Y-11563436D02*
X12768633Y-11572960D01*
X12768633Y-11572960D02*
X12749585Y-11582484D01*
X12749585Y-11582484D02*
X12730538Y-11582484D01*
X12730538Y-11582484D02*
X12711490Y-11572960D01*
X12711490Y-11572960D02*
X12701966Y-11563436D01*
X12701966Y-11563436D02*
X12692442Y-11544388D01*
X12692442Y-11544388D02*
X12682919Y-11506293D01*
X12682919Y-11506293D02*
X12682919Y-11458674D01*
X12682919Y-11458674D02*
X12692442Y-11420579D01*
X12692442Y-11420579D02*
X12701966Y-11401531D01*
X12701966Y-11401531D02*
X12711490Y-11392008D01*
X12711490Y-11392008D02*
X12730538Y-11382484D01*
X12882919Y-11582484D02*
X12882919Y-11449150D01*
X12882919Y-11468198D02*
X12892442Y-11458674D01*
X12892442Y-11458674D02*
X12911490Y-11449150D01*
X12911490Y-11449150D02*
X12940061Y-11449150D01*
X12940061Y-11449150D02*
X12959109Y-11458674D01*
X12959109Y-11458674D02*
X12968633Y-11477722D01*
X12968633Y-11477722D02*
X12968633Y-11582484D01*
X12968633Y-11477722D02*
X12978157Y-11458674D01*
X12978157Y-11458674D02*
X12997204Y-11449150D01*
X12997204Y-11449150D02*
X13025776Y-11449150D01*
X13025776Y-11449150D02*
X13044823Y-11458674D01*
X13044823Y-11458674D02*
X13054347Y-11477722D01*
X13054347Y-11477722D02*
X13054347Y-11582484D01*
X13149585Y-11582484D02*
X13149585Y-11449150D01*
X13149585Y-11468198D02*
X13159109Y-11458674D01*
X13159109Y-11458674D02*
X13178157Y-11449150D01*
X13178157Y-11449150D02*
X13206728Y-11449150D01*
X13206728Y-11449150D02*
X13225776Y-11458674D01*
X13225776Y-11458674D02*
X13235300Y-11477722D01*
X13235300Y-11477722D02*
X13235300Y-11582484D01*
X13235300Y-11477722D02*
X13244823Y-11458674D01*
X13244823Y-11458674D02*
X13263871Y-11449150D01*
X13263871Y-11449150D02*
X13292442Y-11449150D01*
X13292442Y-11449150D02*
X13311490Y-11458674D01*
X13311490Y-11458674D02*
X13321014Y-11477722D01*
X13321014Y-11477722D02*
X13321014Y-11582484D01*
X13711490Y-11372960D02*
X13540062Y-11630103D01*
X13968633Y-11382484D02*
X13987681Y-11382484D01*
X13987681Y-11382484D02*
X14006728Y-11392008D01*
X14006728Y-11392008D02*
X14016252Y-11401531D01*
X14016252Y-11401531D02*
X14025776Y-11420579D01*
X14025776Y-11420579D02*
X14035300Y-11458674D01*
X14035300Y-11458674D02*
X14035300Y-11506293D01*
X14035300Y-11506293D02*
X14025776Y-11544388D01*
X14025776Y-11544388D02*
X14016252Y-11563436D01*
X14016252Y-11563436D02*
X14006728Y-11572960D01*
X14006728Y-11572960D02*
X13987681Y-11582484D01*
X13987681Y-11582484D02*
X13968633Y-11582484D01*
X13968633Y-11582484D02*
X13949585Y-11572960D01*
X13949585Y-11572960D02*
X13940062Y-11563436D01*
X13940062Y-11563436D02*
X13930538Y-11544388D01*
X13930538Y-11544388D02*
X13921014Y-11506293D01*
X13921014Y-11506293D02*
X13921014Y-11458674D01*
X13921014Y-11458674D02*
X13930538Y-11420579D01*
X13930538Y-11420579D02*
X13940062Y-11401531D01*
X13940062Y-11401531D02*
X13949585Y-11392008D01*
X13949585Y-11392008D02*
X13968633Y-11382484D01*
X14121014Y-11563436D02*
X14130538Y-11572960D01*
X14130538Y-11572960D02*
X14121014Y-11582484D01*
X14121014Y-11582484D02*
X14111490Y-11572960D01*
X14111490Y-11572960D02*
X14121014Y-11563436D01*
X14121014Y-11563436D02*
X14121014Y-11582484D01*
X14254347Y-11382484D02*
X14273395Y-11382484D01*
X14273395Y-11382484D02*
X14292443Y-11392008D01*
X14292443Y-11392008D02*
X14301966Y-11401531D01*
X14301966Y-11401531D02*
X14311490Y-11420579D01*
X14311490Y-11420579D02*
X14321014Y-11458674D01*
X14321014Y-11458674D02*
X14321014Y-11506293D01*
X14321014Y-11506293D02*
X14311490Y-11544388D01*
X14311490Y-11544388D02*
X14301966Y-11563436D01*
X14301966Y-11563436D02*
X14292443Y-11572960D01*
X14292443Y-11572960D02*
X14273395Y-11582484D01*
X14273395Y-11582484D02*
X14254347Y-11582484D01*
X14254347Y-11582484D02*
X14235300Y-11572960D01*
X14235300Y-11572960D02*
X14225776Y-11563436D01*
X14225776Y-11563436D02*
X14216252Y-11544388D01*
X14216252Y-11544388D02*
X14206728Y-11506293D01*
X14206728Y-11506293D02*
X14206728Y-11458674D01*
X14206728Y-11458674D02*
X14216252Y-11420579D01*
X14216252Y-11420579D02*
X14225776Y-11401531D01*
X14225776Y-11401531D02*
X14235300Y-11392008D01*
X14235300Y-11392008D02*
X14254347Y-11382484D01*
X14511490Y-11582484D02*
X14397204Y-11582484D01*
X14454347Y-11582484D02*
X14454347Y-11382484D01*
X14454347Y-11382484D02*
X14435300Y-11411055D01*
X14435300Y-11411055D02*
X14416252Y-11430103D01*
X14416252Y-11430103D02*
X14397204Y-11439627D01*
X14606728Y-11582484D02*
X14644823Y-11582484D01*
X14644823Y-11582484D02*
X14663871Y-11572960D01*
X14663871Y-11572960D02*
X14673395Y-11563436D01*
X14673395Y-11563436D02*
X14692443Y-11534865D01*
X14692443Y-11534865D02*
X14701966Y-11496769D01*
X14701966Y-11496769D02*
X14701966Y-11420579D01*
X14701966Y-11420579D02*
X14692443Y-11401531D01*
X14692443Y-11401531D02*
X14682919Y-11392008D01*
X14682919Y-11392008D02*
X14663871Y-11382484D01*
X14663871Y-11382484D02*
X14625776Y-11382484D01*
X14625776Y-11382484D02*
X14606728Y-11392008D01*
X14606728Y-11392008D02*
X14597204Y-11401531D01*
X14597204Y-11401531D02*
X14587681Y-11420579D01*
X14587681Y-11420579D02*
X14587681Y-11468198D01*
X14587681Y-11468198D02*
X14597204Y-11487246D01*
X14597204Y-11487246D02*
X14606728Y-11496769D01*
X14606728Y-11496769D02*
X14625776Y-11506293D01*
X14625776Y-11506293D02*
X14663871Y-11506293D01*
X14663871Y-11506293D02*
X14682919Y-11496769D01*
X14682919Y-11496769D02*
X14692443Y-11487246D01*
X14692443Y-11487246D02*
X14701966Y-11468198D01*
X14768633Y-11382484D02*
X14901966Y-11382484D01*
X14901966Y-11382484D02*
X14816252Y-11582484D01*
X14968633Y-11382484D02*
X14968633Y-11420579D01*
X15044824Y-11382484D02*
X15044824Y-11420579D01*
X15340062Y-11658674D02*
X15330538Y-11649150D01*
X15330538Y-11649150D02*
X15311490Y-11620579D01*
X15311490Y-11620579D02*
X15301966Y-11601531D01*
X15301966Y-11601531D02*
X15292443Y-11572960D01*
X15292443Y-11572960D02*
X15282919Y-11525341D01*
X15282919Y-11525341D02*
X15282919Y-11487246D01*
X15282919Y-11487246D02*
X15292443Y-11439627D01*
X15292443Y-11439627D02*
X15301966Y-11411055D01*
X15301966Y-11411055D02*
X15311490Y-11392008D01*
X15311490Y-11392008D02*
X15330538Y-11363436D01*
X15330538Y-11363436D02*
X15340062Y-11353912D01*
X15397205Y-11382484D02*
X15521014Y-11382484D01*
X15521014Y-11382484D02*
X15454347Y-11458674D01*
X15454347Y-11458674D02*
X15482919Y-11458674D01*
X15482919Y-11458674D02*
X15501966Y-11468198D01*
X15501966Y-11468198D02*
X15511490Y-11477722D01*
X15511490Y-11477722D02*
X15521014Y-11496769D01*
X15521014Y-11496769D02*
X15521014Y-11544388D01*
X15521014Y-11544388D02*
X15511490Y-11563436D01*
X15511490Y-11563436D02*
X15501966Y-11572960D01*
X15501966Y-11572960D02*
X15482919Y-11582484D01*
X15482919Y-11582484D02*
X15425776Y-11582484D01*
X15425776Y-11582484D02*
X15406728Y-11572960D01*
X15406728Y-11572960D02*
X15397205Y-11563436D01*
X15759109Y-11582484D02*
X15759109Y-11382484D01*
X15844824Y-11582484D02*
X15844824Y-11477722D01*
X15844824Y-11477722D02*
X15835300Y-11458674D01*
X15835300Y-11458674D02*
X15816252Y-11449150D01*
X15816252Y-11449150D02*
X15787681Y-11449150D01*
X15787681Y-11449150D02*
X15768633Y-11458674D01*
X15768633Y-11458674D02*
X15759109Y-11468198D01*
X15968633Y-11582484D02*
X15949586Y-11572960D01*
X15949586Y-11572960D02*
X15940062Y-11563436D01*
X15940062Y-11563436D02*
X15930538Y-11544388D01*
X15930538Y-11544388D02*
X15930538Y-11487246D01*
X15930538Y-11487246D02*
X15940062Y-11468198D01*
X15940062Y-11468198D02*
X15949586Y-11458674D01*
X15949586Y-11458674D02*
X15968633Y-11449150D01*
X15968633Y-11449150D02*
X15997205Y-11449150D01*
X15997205Y-11449150D02*
X16016252Y-11458674D01*
X16016252Y-11458674D02*
X16025776Y-11468198D01*
X16025776Y-11468198D02*
X16035300Y-11487246D01*
X16035300Y-11487246D02*
X16035300Y-11544388D01*
X16035300Y-11544388D02*
X16025776Y-11563436D01*
X16025776Y-11563436D02*
X16016252Y-11572960D01*
X16016252Y-11572960D02*
X15997205Y-11582484D01*
X15997205Y-11582484D02*
X15968633Y-11582484D01*
X16149586Y-11582484D02*
X16130538Y-11572960D01*
X16130538Y-11572960D02*
X16121014Y-11553912D01*
X16121014Y-11553912D02*
X16121014Y-11382484D01*
X16301967Y-11572960D02*
X16282919Y-11582484D01*
X16282919Y-11582484D02*
X16244824Y-11582484D01*
X16244824Y-11582484D02*
X16225776Y-11572960D01*
X16225776Y-11572960D02*
X16216252Y-11553912D01*
X16216252Y-11553912D02*
X16216252Y-11477722D01*
X16216252Y-11477722D02*
X16225776Y-11458674D01*
X16225776Y-11458674D02*
X16244824Y-11449150D01*
X16244824Y-11449150D02*
X16282919Y-11449150D01*
X16282919Y-11449150D02*
X16301967Y-11458674D01*
X16301967Y-11458674D02*
X16311490Y-11477722D01*
X16311490Y-11477722D02*
X16311490Y-11496769D01*
X16311490Y-11496769D02*
X16216252Y-11515817D01*
X16387681Y-11572960D02*
X16406728Y-11582484D01*
X16406728Y-11582484D02*
X16444824Y-11582484D01*
X16444824Y-11582484D02*
X16463871Y-11572960D01*
X16463871Y-11572960D02*
X16473395Y-11553912D01*
X16473395Y-11553912D02*
X16473395Y-11544388D01*
X16473395Y-11544388D02*
X16463871Y-11525341D01*
X16463871Y-11525341D02*
X16444824Y-11515817D01*
X16444824Y-11515817D02*
X16416252Y-11515817D01*
X16416252Y-11515817D02*
X16397205Y-11506293D01*
X16397205Y-11506293D02*
X16387681Y-11487246D01*
X16387681Y-11487246D02*
X16387681Y-11477722D01*
X16387681Y-11477722D02*
X16397205Y-11458674D01*
X16397205Y-11458674D02*
X16416252Y-11449150D01*
X16416252Y-11449150D02*
X16444824Y-11449150D01*
X16444824Y-11449150D02*
X16463871Y-11458674D01*
X16540062Y-11658674D02*
X16549586Y-11649150D01*
X16549586Y-11649150D02*
X16568633Y-11620579D01*
X16568633Y-11620579D02*
X16578157Y-11601531D01*
X16578157Y-11601531D02*
X16587681Y-11572960D01*
X16587681Y-11572960D02*
X16597205Y-11525341D01*
X16597205Y-11525341D02*
X16597205Y-11487246D01*
X16597205Y-11487246D02*
X16587681Y-11439627D01*
X16587681Y-11439627D02*
X16578157Y-11411055D01*
X16578157Y-11411055D02*
X16568633Y-11392008D01*
X16568633Y-11392008D02*
X16549586Y-11363436D01*
X16549586Y-11363436D02*
X16540062Y-11353912D01*
D10*
X11704999Y-11725000D02*
X11764999Y-11785000D01*
X11764999Y-11725000D02*
X11704999Y-11785000D01*
X11764999Y-11755000D02*
G75*
G02*
X11704999Y-11755000I-30000J0D01*
G01*
X11704999Y-11755000D02*
G75*
G02*
X11764999Y-11755000I30000J0D01*
G01*
D11*
X12063871Y-11646484D02*
X12082919Y-11646484D01*
X12082919Y-11646484D02*
X12101966Y-11656008D01*
X12101966Y-11656008D02*
X12111490Y-11665531D01*
X12111490Y-11665531D02*
X12121014Y-11684579D01*
X12121014Y-11684579D02*
X12130538Y-11722674D01*
X12130538Y-11722674D02*
X12130538Y-11770293D01*
X12130538Y-11770293D02*
X12121014Y-11808388D01*
X12121014Y-11808388D02*
X12111490Y-11827436D01*
X12111490Y-11827436D02*
X12101966Y-11836960D01*
X12101966Y-11836960D02*
X12082919Y-11846484D01*
X12082919Y-11846484D02*
X12063871Y-11846484D01*
X12063871Y-11846484D02*
X12044823Y-11836960D01*
X12044823Y-11836960D02*
X12035299Y-11827436D01*
X12035299Y-11827436D02*
X12025776Y-11808388D01*
X12025776Y-11808388D02*
X12016252Y-11770293D01*
X12016252Y-11770293D02*
X12016252Y-11722674D01*
X12016252Y-11722674D02*
X12025776Y-11684579D01*
X12025776Y-11684579D02*
X12035299Y-11665531D01*
X12035299Y-11665531D02*
X12044823Y-11656008D01*
X12044823Y-11656008D02*
X12063871Y-11646484D01*
X12216252Y-11827436D02*
X12225776Y-11836960D01*
X12225776Y-11836960D02*
X12216252Y-11846484D01*
X12216252Y-11846484D02*
X12206728Y-11836960D01*
X12206728Y-11836960D02*
X12216252Y-11827436D01*
X12216252Y-11827436D02*
X12216252Y-11846484D01*
X12397204Y-11646484D02*
X12359109Y-11646484D01*
X12359109Y-11646484D02*
X12340061Y-11656008D01*
X12340061Y-11656008D02*
X12330538Y-11665531D01*
X12330538Y-11665531D02*
X12311490Y-11694103D01*
X12311490Y-11694103D02*
X12301966Y-11732198D01*
X12301966Y-11732198D02*
X12301966Y-11808388D01*
X12301966Y-11808388D02*
X12311490Y-11827436D01*
X12311490Y-11827436D02*
X12321014Y-11836960D01*
X12321014Y-11836960D02*
X12340061Y-11846484D01*
X12340061Y-11846484D02*
X12378157Y-11846484D01*
X12378157Y-11846484D02*
X12397204Y-11836960D01*
X12397204Y-11836960D02*
X12406728Y-11827436D01*
X12406728Y-11827436D02*
X12416252Y-11808388D01*
X12416252Y-11808388D02*
X12416252Y-11760769D01*
X12416252Y-11760769D02*
X12406728Y-11741722D01*
X12406728Y-11741722D02*
X12397204Y-11732198D01*
X12397204Y-11732198D02*
X12378157Y-11722674D01*
X12378157Y-11722674D02*
X12340061Y-11722674D01*
X12340061Y-11722674D02*
X12321014Y-11732198D01*
X12321014Y-11732198D02*
X12311490Y-11741722D01*
X12311490Y-11741722D02*
X12301966Y-11760769D01*
X12540061Y-11646484D02*
X12559109Y-11646484D01*
X12559109Y-11646484D02*
X12578157Y-11656008D01*
X12578157Y-11656008D02*
X12587680Y-11665531D01*
X12587680Y-11665531D02*
X12597204Y-11684579D01*
X12597204Y-11684579D02*
X12606728Y-11722674D01*
X12606728Y-11722674D02*
X12606728Y-11770293D01*
X12606728Y-11770293D02*
X12597204Y-11808388D01*
X12597204Y-11808388D02*
X12587680Y-11827436D01*
X12587680Y-11827436D02*
X12578157Y-11836960D01*
X12578157Y-11836960D02*
X12559109Y-11846484D01*
X12559109Y-11846484D02*
X12540061Y-11846484D01*
X12540061Y-11846484D02*
X12521014Y-11836960D01*
X12521014Y-11836960D02*
X12511490Y-11827436D01*
X12511490Y-11827436D02*
X12501966Y-11808388D01*
X12501966Y-11808388D02*
X12492442Y-11770293D01*
X12492442Y-11770293D02*
X12492442Y-11722674D01*
X12492442Y-11722674D02*
X12501966Y-11684579D01*
X12501966Y-11684579D02*
X12511490Y-11665531D01*
X12511490Y-11665531D02*
X12521014Y-11656008D01*
X12521014Y-11656008D02*
X12540061Y-11646484D01*
X12730538Y-11646484D02*
X12749585Y-11646484D01*
X12749585Y-11646484D02*
X12768633Y-11656008D01*
X12768633Y-11656008D02*
X12778157Y-11665531D01*
X12778157Y-11665531D02*
X12787680Y-11684579D01*
X12787680Y-11684579D02*
X12797204Y-11722674D01*
X12797204Y-11722674D02*
X12797204Y-11770293D01*
X12797204Y-11770293D02*
X12787680Y-11808388D01*
X12787680Y-11808388D02*
X12778157Y-11827436D01*
X12778157Y-11827436D02*
X12768633Y-11836960D01*
X12768633Y-11836960D02*
X12749585Y-11846484D01*
X12749585Y-11846484D02*
X12730538Y-11846484D01*
X12730538Y-11846484D02*
X12711490Y-11836960D01*
X12711490Y-11836960D02*
X12701966Y-11827436D01*
X12701966Y-11827436D02*
X12692442Y-11808388D01*
X12692442Y-11808388D02*
X12682919Y-11770293D01*
X12682919Y-11770293D02*
X12682919Y-11722674D01*
X12682919Y-11722674D02*
X12692442Y-11684579D01*
X12692442Y-11684579D02*
X12701966Y-11665531D01*
X12701966Y-11665531D02*
X12711490Y-11656008D01*
X12711490Y-11656008D02*
X12730538Y-11646484D01*
X12882919Y-11846484D02*
X12882919Y-11713150D01*
X12882919Y-11732198D02*
X12892442Y-11722674D01*
X12892442Y-11722674D02*
X12911490Y-11713150D01*
X12911490Y-11713150D02*
X12940061Y-11713150D01*
X12940061Y-11713150D02*
X12959109Y-11722674D01*
X12959109Y-11722674D02*
X12968633Y-11741722D01*
X12968633Y-11741722D02*
X12968633Y-11846484D01*
X12968633Y-11741722D02*
X12978157Y-11722674D01*
X12978157Y-11722674D02*
X12997204Y-11713150D01*
X12997204Y-11713150D02*
X13025776Y-11713150D01*
X13025776Y-11713150D02*
X13044823Y-11722674D01*
X13044823Y-11722674D02*
X13054347Y-11741722D01*
X13054347Y-11741722D02*
X13054347Y-11846484D01*
X13149585Y-11846484D02*
X13149585Y-11713150D01*
X13149585Y-11732198D02*
X13159109Y-11722674D01*
X13159109Y-11722674D02*
X13178157Y-11713150D01*
X13178157Y-11713150D02*
X13206728Y-11713150D01*
X13206728Y-11713150D02*
X13225776Y-11722674D01*
X13225776Y-11722674D02*
X13235300Y-11741722D01*
X13235300Y-11741722D02*
X13235300Y-11846484D01*
X13235300Y-11741722D02*
X13244823Y-11722674D01*
X13244823Y-11722674D02*
X13263871Y-11713150D01*
X13263871Y-11713150D02*
X13292442Y-11713150D01*
X13292442Y-11713150D02*
X13311490Y-11722674D01*
X13311490Y-11722674D02*
X13321014Y-11741722D01*
X13321014Y-11741722D02*
X13321014Y-11846484D01*
X13711490Y-11636960D02*
X13540062Y-11894103D01*
X13968633Y-11646484D02*
X13987681Y-11646484D01*
X13987681Y-11646484D02*
X14006728Y-11656008D01*
X14006728Y-11656008D02*
X14016252Y-11665531D01*
X14016252Y-11665531D02*
X14025776Y-11684579D01*
X14025776Y-11684579D02*
X14035300Y-11722674D01*
X14035300Y-11722674D02*
X14035300Y-11770293D01*
X14035300Y-11770293D02*
X14025776Y-11808388D01*
X14025776Y-11808388D02*
X14016252Y-11827436D01*
X14016252Y-11827436D02*
X14006728Y-11836960D01*
X14006728Y-11836960D02*
X13987681Y-11846484D01*
X13987681Y-11846484D02*
X13968633Y-11846484D01*
X13968633Y-11846484D02*
X13949585Y-11836960D01*
X13949585Y-11836960D02*
X13940062Y-11827436D01*
X13940062Y-11827436D02*
X13930538Y-11808388D01*
X13930538Y-11808388D02*
X13921014Y-11770293D01*
X13921014Y-11770293D02*
X13921014Y-11722674D01*
X13921014Y-11722674D02*
X13930538Y-11684579D01*
X13930538Y-11684579D02*
X13940062Y-11665531D01*
X13940062Y-11665531D02*
X13949585Y-11656008D01*
X13949585Y-11656008D02*
X13968633Y-11646484D01*
X14121014Y-11827436D02*
X14130538Y-11836960D01*
X14130538Y-11836960D02*
X14121014Y-11846484D01*
X14121014Y-11846484D02*
X14111490Y-11836960D01*
X14111490Y-11836960D02*
X14121014Y-11827436D01*
X14121014Y-11827436D02*
X14121014Y-11846484D01*
X14254347Y-11646484D02*
X14273395Y-11646484D01*
X14273395Y-11646484D02*
X14292443Y-11656008D01*
X14292443Y-11656008D02*
X14301966Y-11665531D01*
X14301966Y-11665531D02*
X14311490Y-11684579D01*
X14311490Y-11684579D02*
X14321014Y-11722674D01*
X14321014Y-11722674D02*
X14321014Y-11770293D01*
X14321014Y-11770293D02*
X14311490Y-11808388D01*
X14311490Y-11808388D02*
X14301966Y-11827436D01*
X14301966Y-11827436D02*
X14292443Y-11836960D01*
X14292443Y-11836960D02*
X14273395Y-11846484D01*
X14273395Y-11846484D02*
X14254347Y-11846484D01*
X14254347Y-11846484D02*
X14235300Y-11836960D01*
X14235300Y-11836960D02*
X14225776Y-11827436D01*
X14225776Y-11827436D02*
X14216252Y-11808388D01*
X14216252Y-11808388D02*
X14206728Y-11770293D01*
X14206728Y-11770293D02*
X14206728Y-11722674D01*
X14206728Y-11722674D02*
X14216252Y-11684579D01*
X14216252Y-11684579D02*
X14225776Y-11665531D01*
X14225776Y-11665531D02*
X14235300Y-11656008D01*
X14235300Y-11656008D02*
X14254347Y-11646484D01*
X14397204Y-11665531D02*
X14406728Y-11656008D01*
X14406728Y-11656008D02*
X14425776Y-11646484D01*
X14425776Y-11646484D02*
X14473395Y-11646484D01*
X14473395Y-11646484D02*
X14492443Y-11656008D01*
X14492443Y-11656008D02*
X14501966Y-11665531D01*
X14501966Y-11665531D02*
X14511490Y-11684579D01*
X14511490Y-11684579D02*
X14511490Y-11703627D01*
X14511490Y-11703627D02*
X14501966Y-11732198D01*
X14501966Y-11732198D02*
X14387681Y-11846484D01*
X14387681Y-11846484D02*
X14511490Y-11846484D01*
X14578157Y-11646484D02*
X14701966Y-11646484D01*
X14701966Y-11646484D02*
X14635300Y-11722674D01*
X14635300Y-11722674D02*
X14663871Y-11722674D01*
X14663871Y-11722674D02*
X14682919Y-11732198D01*
X14682919Y-11732198D02*
X14692443Y-11741722D01*
X14692443Y-11741722D02*
X14701966Y-11760769D01*
X14701966Y-11760769D02*
X14701966Y-11808388D01*
X14701966Y-11808388D02*
X14692443Y-11827436D01*
X14692443Y-11827436D02*
X14682919Y-11836960D01*
X14682919Y-11836960D02*
X14663871Y-11846484D01*
X14663871Y-11846484D02*
X14606728Y-11846484D01*
X14606728Y-11846484D02*
X14587681Y-11836960D01*
X14587681Y-11836960D02*
X14578157Y-11827436D01*
X14873395Y-11646484D02*
X14835300Y-11646484D01*
X14835300Y-11646484D02*
X14816252Y-11656008D01*
X14816252Y-11656008D02*
X14806728Y-11665531D01*
X14806728Y-11665531D02*
X14787681Y-11694103D01*
X14787681Y-11694103D02*
X14778157Y-11732198D01*
X14778157Y-11732198D02*
X14778157Y-11808388D01*
X14778157Y-11808388D02*
X14787681Y-11827436D01*
X14787681Y-11827436D02*
X14797204Y-11836960D01*
X14797204Y-11836960D02*
X14816252Y-11846484D01*
X14816252Y-11846484D02*
X14854347Y-11846484D01*
X14854347Y-11846484D02*
X14873395Y-11836960D01*
X14873395Y-11836960D02*
X14882919Y-11827436D01*
X14882919Y-11827436D02*
X14892443Y-11808388D01*
X14892443Y-11808388D02*
X14892443Y-11760769D01*
X14892443Y-11760769D02*
X14882919Y-11741722D01*
X14882919Y-11741722D02*
X14873395Y-11732198D01*
X14873395Y-11732198D02*
X14854347Y-11722674D01*
X14854347Y-11722674D02*
X14816252Y-11722674D01*
X14816252Y-11722674D02*
X14797204Y-11732198D01*
X14797204Y-11732198D02*
X14787681Y-11741722D01*
X14787681Y-11741722D02*
X14778157Y-11760769D01*
X14968633Y-11646484D02*
X14968633Y-11684579D01*
X15044824Y-11646484D02*
X15044824Y-11684579D01*
X15340062Y-11922674D02*
X15330538Y-11913150D01*
X15330538Y-11913150D02*
X15311490Y-11884579D01*
X15311490Y-11884579D02*
X15301966Y-11865531D01*
X15301966Y-11865531D02*
X15292443Y-11836960D01*
X15292443Y-11836960D02*
X15282919Y-11789341D01*
X15282919Y-11789341D02*
X15282919Y-11751246D01*
X15282919Y-11751246D02*
X15292443Y-11703627D01*
X15292443Y-11703627D02*
X15301966Y-11675055D01*
X15301966Y-11675055D02*
X15311490Y-11656008D01*
X15311490Y-11656008D02*
X15330538Y-11627436D01*
X15330538Y-11627436D02*
X15340062Y-11617912D01*
X15501966Y-11713150D02*
X15501966Y-11846484D01*
X15454347Y-11636960D02*
X15406728Y-11779817D01*
X15406728Y-11779817D02*
X15530538Y-11779817D01*
X15759109Y-11846484D02*
X15759109Y-11646484D01*
X15844824Y-11846484D02*
X15844824Y-11741722D01*
X15844824Y-11741722D02*
X15835300Y-11722674D01*
X15835300Y-11722674D02*
X15816252Y-11713150D01*
X15816252Y-11713150D02*
X15787681Y-11713150D01*
X15787681Y-11713150D02*
X15768633Y-11722674D01*
X15768633Y-11722674D02*
X15759109Y-11732198D01*
X15968633Y-11846484D02*
X15949586Y-11836960D01*
X15949586Y-11836960D02*
X15940062Y-11827436D01*
X15940062Y-11827436D02*
X15930538Y-11808388D01*
X15930538Y-11808388D02*
X15930538Y-11751246D01*
X15930538Y-11751246D02*
X15940062Y-11732198D01*
X15940062Y-11732198D02*
X15949586Y-11722674D01*
X15949586Y-11722674D02*
X15968633Y-11713150D01*
X15968633Y-11713150D02*
X15997205Y-11713150D01*
X15997205Y-11713150D02*
X16016252Y-11722674D01*
X16016252Y-11722674D02*
X16025776Y-11732198D01*
X16025776Y-11732198D02*
X16035300Y-11751246D01*
X16035300Y-11751246D02*
X16035300Y-11808388D01*
X16035300Y-11808388D02*
X16025776Y-11827436D01*
X16025776Y-11827436D02*
X16016252Y-11836960D01*
X16016252Y-11836960D02*
X15997205Y-11846484D01*
X15997205Y-11846484D02*
X15968633Y-11846484D01*
X16149586Y-11846484D02*
X16130538Y-11836960D01*
X16130538Y-11836960D02*
X16121014Y-11817912D01*
X16121014Y-11817912D02*
X16121014Y-11646484D01*
X16301967Y-11836960D02*
X16282919Y-11846484D01*
X16282919Y-11846484D02*
X16244824Y-11846484D01*
X16244824Y-11846484D02*
X16225776Y-11836960D01*
X16225776Y-11836960D02*
X16216252Y-11817912D01*
X16216252Y-11817912D02*
X16216252Y-11741722D01*
X16216252Y-11741722D02*
X16225776Y-11722674D01*
X16225776Y-11722674D02*
X16244824Y-11713150D01*
X16244824Y-11713150D02*
X16282919Y-11713150D01*
X16282919Y-11713150D02*
X16301967Y-11722674D01*
X16301967Y-11722674D02*
X16311490Y-11741722D01*
X16311490Y-11741722D02*
X16311490Y-11760769D01*
X16311490Y-11760769D02*
X16216252Y-11779817D01*
X16387681Y-11836960D02*
X16406728Y-11846484D01*
X16406728Y-11846484D02*
X16444824Y-11846484D01*
X16444824Y-11846484D02*
X16463871Y-11836960D01*
X16463871Y-11836960D02*
X16473395Y-11817912D01*
X16473395Y-11817912D02*
X16473395Y-11808388D01*
X16473395Y-11808388D02*
X16463871Y-11789341D01*
X16463871Y-11789341D02*
X16444824Y-11779817D01*
X16444824Y-11779817D02*
X16416252Y-11779817D01*
X16416252Y-11779817D02*
X16397205Y-11770293D01*
X16397205Y-11770293D02*
X16387681Y-11751246D01*
X16387681Y-11751246D02*
X16387681Y-11741722D01*
X16387681Y-11741722D02*
X16397205Y-11722674D01*
X16397205Y-11722674D02*
X16416252Y-11713150D01*
X16416252Y-11713150D02*
X16444824Y-11713150D01*
X16444824Y-11713150D02*
X16463871Y-11722674D01*
X16540062Y-11922674D02*
X16549586Y-11913150D01*
X16549586Y-11913150D02*
X16568633Y-11884579D01*
X16568633Y-11884579D02*
X16578157Y-11865531D01*
X16578157Y-11865531D02*
X16587681Y-11836960D01*
X16587681Y-11836960D02*
X16597205Y-11789341D01*
X16597205Y-11789341D02*
X16597205Y-11751246D01*
X16597205Y-11751246D02*
X16587681Y-11703627D01*
X16587681Y-11703627D02*
X16578157Y-11675055D01*
X16578157Y-11675055D02*
X16568633Y-11656008D01*
X16568633Y-11656008D02*
X16549586Y-11627436D01*
X16549586Y-11627436D02*
X16540062Y-11617912D01*
D10*
X11684999Y-11979000D02*
X11764999Y-12059000D01*
X11764999Y-11979000D02*
X11684999Y-12059000D01*
X11724999Y-11979000D02*
X11724999Y-12059000D01*
X11684999Y-12019000D02*
X11764999Y-12019000D01*
D11*
X12063871Y-11910484D02*
X12082919Y-11910484D01*
X12082919Y-11910484D02*
X12101966Y-11920008D01*
X12101966Y-11920008D02*
X12111490Y-11929531D01*
X12111490Y-11929531D02*
X12121014Y-11948579D01*
X12121014Y-11948579D02*
X12130538Y-11986674D01*
X12130538Y-11986674D02*
X12130538Y-12034293D01*
X12130538Y-12034293D02*
X12121014Y-12072388D01*
X12121014Y-12072388D02*
X12111490Y-12091436D01*
X12111490Y-12091436D02*
X12101966Y-12100960D01*
X12101966Y-12100960D02*
X12082919Y-12110484D01*
X12082919Y-12110484D02*
X12063871Y-12110484D01*
X12063871Y-12110484D02*
X12044823Y-12100960D01*
X12044823Y-12100960D02*
X12035299Y-12091436D01*
X12035299Y-12091436D02*
X12025776Y-12072388D01*
X12025776Y-12072388D02*
X12016252Y-12034293D01*
X12016252Y-12034293D02*
X12016252Y-11986674D01*
X12016252Y-11986674D02*
X12025776Y-11948579D01*
X12025776Y-11948579D02*
X12035299Y-11929531D01*
X12035299Y-11929531D02*
X12044823Y-11920008D01*
X12044823Y-11920008D02*
X12063871Y-11910484D01*
X12216252Y-12091436D02*
X12225776Y-12100960D01*
X12225776Y-12100960D02*
X12216252Y-12110484D01*
X12216252Y-12110484D02*
X12206728Y-12100960D01*
X12206728Y-12100960D02*
X12216252Y-12091436D01*
X12216252Y-12091436D02*
X12216252Y-12110484D01*
X12340061Y-11996198D02*
X12321014Y-11986674D01*
X12321014Y-11986674D02*
X12311490Y-11977150D01*
X12311490Y-11977150D02*
X12301966Y-11958103D01*
X12301966Y-11958103D02*
X12301966Y-11948579D01*
X12301966Y-11948579D02*
X12311490Y-11929531D01*
X12311490Y-11929531D02*
X12321014Y-11920008D01*
X12321014Y-11920008D02*
X12340061Y-11910484D01*
X12340061Y-11910484D02*
X12378157Y-11910484D01*
X12378157Y-11910484D02*
X12397204Y-11920008D01*
X12397204Y-11920008D02*
X12406728Y-11929531D01*
X12406728Y-11929531D02*
X12416252Y-11948579D01*
X12416252Y-11948579D02*
X12416252Y-11958103D01*
X12416252Y-11958103D02*
X12406728Y-11977150D01*
X12406728Y-11977150D02*
X12397204Y-11986674D01*
X12397204Y-11986674D02*
X12378157Y-11996198D01*
X12378157Y-11996198D02*
X12340061Y-11996198D01*
X12340061Y-11996198D02*
X12321014Y-12005722D01*
X12321014Y-12005722D02*
X12311490Y-12015246D01*
X12311490Y-12015246D02*
X12301966Y-12034293D01*
X12301966Y-12034293D02*
X12301966Y-12072388D01*
X12301966Y-12072388D02*
X12311490Y-12091436D01*
X12311490Y-12091436D02*
X12321014Y-12100960D01*
X12321014Y-12100960D02*
X12340061Y-12110484D01*
X12340061Y-12110484D02*
X12378157Y-12110484D01*
X12378157Y-12110484D02*
X12397204Y-12100960D01*
X12397204Y-12100960D02*
X12406728Y-12091436D01*
X12406728Y-12091436D02*
X12416252Y-12072388D01*
X12416252Y-12072388D02*
X12416252Y-12034293D01*
X12416252Y-12034293D02*
X12406728Y-12015246D01*
X12406728Y-12015246D02*
X12397204Y-12005722D01*
X12397204Y-12005722D02*
X12378157Y-11996198D01*
X12540061Y-11910484D02*
X12559109Y-11910484D01*
X12559109Y-11910484D02*
X12578157Y-11920008D01*
X12578157Y-11920008D02*
X12587680Y-11929531D01*
X12587680Y-11929531D02*
X12597204Y-11948579D01*
X12597204Y-11948579D02*
X12606728Y-11986674D01*
X12606728Y-11986674D02*
X12606728Y-12034293D01*
X12606728Y-12034293D02*
X12597204Y-12072388D01*
X12597204Y-12072388D02*
X12587680Y-12091436D01*
X12587680Y-12091436D02*
X12578157Y-12100960D01*
X12578157Y-12100960D02*
X12559109Y-12110484D01*
X12559109Y-12110484D02*
X12540061Y-12110484D01*
X12540061Y-12110484D02*
X12521014Y-12100960D01*
X12521014Y-12100960D02*
X12511490Y-12091436D01*
X12511490Y-12091436D02*
X12501966Y-12072388D01*
X12501966Y-12072388D02*
X12492442Y-12034293D01*
X12492442Y-12034293D02*
X12492442Y-11986674D01*
X12492442Y-11986674D02*
X12501966Y-11948579D01*
X12501966Y-11948579D02*
X12511490Y-11929531D01*
X12511490Y-11929531D02*
X12521014Y-11920008D01*
X12521014Y-11920008D02*
X12540061Y-11910484D01*
X12730538Y-11910484D02*
X12749585Y-11910484D01*
X12749585Y-11910484D02*
X12768633Y-11920008D01*
X12768633Y-11920008D02*
X12778157Y-11929531D01*
X12778157Y-11929531D02*
X12787680Y-11948579D01*
X12787680Y-11948579D02*
X12797204Y-11986674D01*
X12797204Y-11986674D02*
X12797204Y-12034293D01*
X12797204Y-12034293D02*
X12787680Y-12072388D01*
X12787680Y-12072388D02*
X12778157Y-12091436D01*
X12778157Y-12091436D02*
X12768633Y-12100960D01*
X12768633Y-12100960D02*
X12749585Y-12110484D01*
X12749585Y-12110484D02*
X12730538Y-12110484D01*
X12730538Y-12110484D02*
X12711490Y-12100960D01*
X12711490Y-12100960D02*
X12701966Y-12091436D01*
X12701966Y-12091436D02*
X12692442Y-12072388D01*
X12692442Y-12072388D02*
X12682919Y-12034293D01*
X12682919Y-12034293D02*
X12682919Y-11986674D01*
X12682919Y-11986674D02*
X12692442Y-11948579D01*
X12692442Y-11948579D02*
X12701966Y-11929531D01*
X12701966Y-11929531D02*
X12711490Y-11920008D01*
X12711490Y-11920008D02*
X12730538Y-11910484D01*
X12882919Y-12110484D02*
X12882919Y-11977150D01*
X12882919Y-11996198D02*
X12892442Y-11986674D01*
X12892442Y-11986674D02*
X12911490Y-11977150D01*
X12911490Y-11977150D02*
X12940061Y-11977150D01*
X12940061Y-11977150D02*
X12959109Y-11986674D01*
X12959109Y-11986674D02*
X12968633Y-12005722D01*
X12968633Y-12005722D02*
X12968633Y-12110484D01*
X12968633Y-12005722D02*
X12978157Y-11986674D01*
X12978157Y-11986674D02*
X12997204Y-11977150D01*
X12997204Y-11977150D02*
X13025776Y-11977150D01*
X13025776Y-11977150D02*
X13044823Y-11986674D01*
X13044823Y-11986674D02*
X13054347Y-12005722D01*
X13054347Y-12005722D02*
X13054347Y-12110484D01*
X13149585Y-12110484D02*
X13149585Y-11977150D01*
X13149585Y-11996198D02*
X13159109Y-11986674D01*
X13159109Y-11986674D02*
X13178157Y-11977150D01*
X13178157Y-11977150D02*
X13206728Y-11977150D01*
X13206728Y-11977150D02*
X13225776Y-11986674D01*
X13225776Y-11986674D02*
X13235300Y-12005722D01*
X13235300Y-12005722D02*
X13235300Y-12110484D01*
X13235300Y-12005722D02*
X13244823Y-11986674D01*
X13244823Y-11986674D02*
X13263871Y-11977150D01*
X13263871Y-11977150D02*
X13292442Y-11977150D01*
X13292442Y-11977150D02*
X13311490Y-11986674D01*
X13311490Y-11986674D02*
X13321014Y-12005722D01*
X13321014Y-12005722D02*
X13321014Y-12110484D01*
X13711490Y-11900960D02*
X13540062Y-12158103D01*
X13968633Y-11910484D02*
X13987681Y-11910484D01*
X13987681Y-11910484D02*
X14006728Y-11920008D01*
X14006728Y-11920008D02*
X14016252Y-11929531D01*
X14016252Y-11929531D02*
X14025776Y-11948579D01*
X14025776Y-11948579D02*
X14035300Y-11986674D01*
X14035300Y-11986674D02*
X14035300Y-12034293D01*
X14035300Y-12034293D02*
X14025776Y-12072388D01*
X14025776Y-12072388D02*
X14016252Y-12091436D01*
X14016252Y-12091436D02*
X14006728Y-12100960D01*
X14006728Y-12100960D02*
X13987681Y-12110484D01*
X13987681Y-12110484D02*
X13968633Y-12110484D01*
X13968633Y-12110484D02*
X13949585Y-12100960D01*
X13949585Y-12100960D02*
X13940062Y-12091436D01*
X13940062Y-12091436D02*
X13930538Y-12072388D01*
X13930538Y-12072388D02*
X13921014Y-12034293D01*
X13921014Y-12034293D02*
X13921014Y-11986674D01*
X13921014Y-11986674D02*
X13930538Y-11948579D01*
X13930538Y-11948579D02*
X13940062Y-11929531D01*
X13940062Y-11929531D02*
X13949585Y-11920008D01*
X13949585Y-11920008D02*
X13968633Y-11910484D01*
X14121014Y-12091436D02*
X14130538Y-12100960D01*
X14130538Y-12100960D02*
X14121014Y-12110484D01*
X14121014Y-12110484D02*
X14111490Y-12100960D01*
X14111490Y-12100960D02*
X14121014Y-12091436D01*
X14121014Y-12091436D02*
X14121014Y-12110484D01*
X14254347Y-11910484D02*
X14273395Y-11910484D01*
X14273395Y-11910484D02*
X14292443Y-11920008D01*
X14292443Y-11920008D02*
X14301966Y-11929531D01*
X14301966Y-11929531D02*
X14311490Y-11948579D01*
X14311490Y-11948579D02*
X14321014Y-11986674D01*
X14321014Y-11986674D02*
X14321014Y-12034293D01*
X14321014Y-12034293D02*
X14311490Y-12072388D01*
X14311490Y-12072388D02*
X14301966Y-12091436D01*
X14301966Y-12091436D02*
X14292443Y-12100960D01*
X14292443Y-12100960D02*
X14273395Y-12110484D01*
X14273395Y-12110484D02*
X14254347Y-12110484D01*
X14254347Y-12110484D02*
X14235300Y-12100960D01*
X14235300Y-12100960D02*
X14225776Y-12091436D01*
X14225776Y-12091436D02*
X14216252Y-12072388D01*
X14216252Y-12072388D02*
X14206728Y-12034293D01*
X14206728Y-12034293D02*
X14206728Y-11986674D01*
X14206728Y-11986674D02*
X14216252Y-11948579D01*
X14216252Y-11948579D02*
X14225776Y-11929531D01*
X14225776Y-11929531D02*
X14235300Y-11920008D01*
X14235300Y-11920008D02*
X14254347Y-11910484D01*
X14387681Y-11910484D02*
X14511490Y-11910484D01*
X14511490Y-11910484D02*
X14444823Y-11986674D01*
X14444823Y-11986674D02*
X14473395Y-11986674D01*
X14473395Y-11986674D02*
X14492443Y-11996198D01*
X14492443Y-11996198D02*
X14501966Y-12005722D01*
X14501966Y-12005722D02*
X14511490Y-12024769D01*
X14511490Y-12024769D02*
X14511490Y-12072388D01*
X14511490Y-12072388D02*
X14501966Y-12091436D01*
X14501966Y-12091436D02*
X14492443Y-12100960D01*
X14492443Y-12100960D02*
X14473395Y-12110484D01*
X14473395Y-12110484D02*
X14416252Y-12110484D01*
X14416252Y-12110484D02*
X14397204Y-12100960D01*
X14397204Y-12100960D02*
X14387681Y-12091436D01*
X14701966Y-12110484D02*
X14587681Y-12110484D01*
X14644823Y-12110484D02*
X14644823Y-11910484D01*
X14644823Y-11910484D02*
X14625776Y-11939055D01*
X14625776Y-11939055D02*
X14606728Y-11958103D01*
X14606728Y-11958103D02*
X14587681Y-11967627D01*
X14882919Y-11910484D02*
X14787681Y-11910484D01*
X14787681Y-11910484D02*
X14778157Y-12005722D01*
X14778157Y-12005722D02*
X14787681Y-11996198D01*
X14787681Y-11996198D02*
X14806728Y-11986674D01*
X14806728Y-11986674D02*
X14854347Y-11986674D01*
X14854347Y-11986674D02*
X14873395Y-11996198D01*
X14873395Y-11996198D02*
X14882919Y-12005722D01*
X14882919Y-12005722D02*
X14892443Y-12024769D01*
X14892443Y-12024769D02*
X14892443Y-12072388D01*
X14892443Y-12072388D02*
X14882919Y-12091436D01*
X14882919Y-12091436D02*
X14873395Y-12100960D01*
X14873395Y-12100960D02*
X14854347Y-12110484D01*
X14854347Y-12110484D02*
X14806728Y-12110484D01*
X14806728Y-12110484D02*
X14787681Y-12100960D01*
X14787681Y-12100960D02*
X14778157Y-12091436D01*
X14968633Y-11910484D02*
X14968633Y-11948579D01*
X15044824Y-11910484D02*
X15044824Y-11948579D01*
X15340062Y-12186674D02*
X15330538Y-12177150D01*
X15330538Y-12177150D02*
X15311490Y-12148579D01*
X15311490Y-12148579D02*
X15301966Y-12129531D01*
X15301966Y-12129531D02*
X15292443Y-12100960D01*
X15292443Y-12100960D02*
X15282919Y-12053341D01*
X15282919Y-12053341D02*
X15282919Y-12015246D01*
X15282919Y-12015246D02*
X15292443Y-11967627D01*
X15292443Y-11967627D02*
X15301966Y-11939055D01*
X15301966Y-11939055D02*
X15311490Y-11920008D01*
X15311490Y-11920008D02*
X15330538Y-11891436D01*
X15330538Y-11891436D02*
X15340062Y-11881912D01*
X15501966Y-11977150D02*
X15501966Y-12110484D01*
X15454347Y-11900960D02*
X15406728Y-12043817D01*
X15406728Y-12043817D02*
X15530538Y-12043817D01*
X15759109Y-12110484D02*
X15759109Y-11910484D01*
X15844824Y-12110484D02*
X15844824Y-12005722D01*
X15844824Y-12005722D02*
X15835300Y-11986674D01*
X15835300Y-11986674D02*
X15816252Y-11977150D01*
X15816252Y-11977150D02*
X15787681Y-11977150D01*
X15787681Y-11977150D02*
X15768633Y-11986674D01*
X15768633Y-11986674D02*
X15759109Y-11996198D01*
X15968633Y-12110484D02*
X15949586Y-12100960D01*
X15949586Y-12100960D02*
X15940062Y-12091436D01*
X15940062Y-12091436D02*
X15930538Y-12072388D01*
X15930538Y-12072388D02*
X15930538Y-12015246D01*
X15930538Y-12015246D02*
X15940062Y-11996198D01*
X15940062Y-11996198D02*
X15949586Y-11986674D01*
X15949586Y-11986674D02*
X15968633Y-11977150D01*
X15968633Y-11977150D02*
X15997205Y-11977150D01*
X15997205Y-11977150D02*
X16016252Y-11986674D01*
X16016252Y-11986674D02*
X16025776Y-11996198D01*
X16025776Y-11996198D02*
X16035300Y-12015246D01*
X16035300Y-12015246D02*
X16035300Y-12072388D01*
X16035300Y-12072388D02*
X16025776Y-12091436D01*
X16025776Y-12091436D02*
X16016252Y-12100960D01*
X16016252Y-12100960D02*
X15997205Y-12110484D01*
X15997205Y-12110484D02*
X15968633Y-12110484D01*
X16149586Y-12110484D02*
X16130538Y-12100960D01*
X16130538Y-12100960D02*
X16121014Y-12081912D01*
X16121014Y-12081912D02*
X16121014Y-11910484D01*
X16301967Y-12100960D02*
X16282919Y-12110484D01*
X16282919Y-12110484D02*
X16244824Y-12110484D01*
X16244824Y-12110484D02*
X16225776Y-12100960D01*
X16225776Y-12100960D02*
X16216252Y-12081912D01*
X16216252Y-12081912D02*
X16216252Y-12005722D01*
X16216252Y-12005722D02*
X16225776Y-11986674D01*
X16225776Y-11986674D02*
X16244824Y-11977150D01*
X16244824Y-11977150D02*
X16282919Y-11977150D01*
X16282919Y-11977150D02*
X16301967Y-11986674D01*
X16301967Y-11986674D02*
X16311490Y-12005722D01*
X16311490Y-12005722D02*
X16311490Y-12024769D01*
X16311490Y-12024769D02*
X16216252Y-12043817D01*
X16387681Y-12100960D02*
X16406728Y-12110484D01*
X16406728Y-12110484D02*
X16444824Y-12110484D01*
X16444824Y-12110484D02*
X16463871Y-12100960D01*
X16463871Y-12100960D02*
X16473395Y-12081912D01*
X16473395Y-12081912D02*
X16473395Y-12072388D01*
X16473395Y-12072388D02*
X16463871Y-12053341D01*
X16463871Y-12053341D02*
X16444824Y-12043817D01*
X16444824Y-12043817D02*
X16416252Y-12043817D01*
X16416252Y-12043817D02*
X16397205Y-12034293D01*
X16397205Y-12034293D02*
X16387681Y-12015246D01*
X16387681Y-12015246D02*
X16387681Y-12005722D01*
X16387681Y-12005722D02*
X16397205Y-11986674D01*
X16397205Y-11986674D02*
X16416252Y-11977150D01*
X16416252Y-11977150D02*
X16444824Y-11977150D01*
X16444824Y-11977150D02*
X16463871Y-11986674D01*
X16540062Y-12186674D02*
X16549586Y-12177150D01*
X16549586Y-12177150D02*
X16568633Y-12148579D01*
X16568633Y-12148579D02*
X16578157Y-12129531D01*
X16578157Y-12129531D02*
X16587681Y-12100960D01*
X16587681Y-12100960D02*
X16597205Y-12053341D01*
X16597205Y-12053341D02*
X16597205Y-12015246D01*
X16597205Y-12015246D02*
X16587681Y-11967627D01*
X16587681Y-11967627D02*
X16578157Y-11939055D01*
X16578157Y-11939055D02*
X16568633Y-11920008D01*
X16568633Y-11920008D02*
X16549586Y-11891436D01*
X16549586Y-11891436D02*
X16540062Y-11881912D01*
D10*
X11664999Y-12233000D02*
X11764999Y-12333000D01*
X11764999Y-12233000D02*
X11664999Y-12333000D01*
X11750355Y-12318356D02*
X11750355Y-12247644D01*
X11679643Y-12247644D01*
X11679643Y-12318356D01*
X11750355Y-12318356D01*
D11*
X12130538Y-12374484D02*
X12016252Y-12374484D01*
X12073395Y-12374484D02*
X12073395Y-12174484D01*
X12073395Y-12174484D02*
X12054347Y-12203055D01*
X12054347Y-12203055D02*
X12035299Y-12222103D01*
X12035299Y-12222103D02*
X12016252Y-12231627D01*
X12216252Y-12355436D02*
X12225776Y-12364960D01*
X12225776Y-12364960D02*
X12216252Y-12374484D01*
X12216252Y-12374484D02*
X12206728Y-12364960D01*
X12206728Y-12364960D02*
X12216252Y-12355436D01*
X12216252Y-12355436D02*
X12216252Y-12374484D01*
X12349585Y-12174484D02*
X12368633Y-12174484D01*
X12368633Y-12174484D02*
X12387680Y-12184008D01*
X12387680Y-12184008D02*
X12397204Y-12193531D01*
X12397204Y-12193531D02*
X12406728Y-12212579D01*
X12406728Y-12212579D02*
X12416252Y-12250674D01*
X12416252Y-12250674D02*
X12416252Y-12298293D01*
X12416252Y-12298293D02*
X12406728Y-12336388D01*
X12406728Y-12336388D02*
X12397204Y-12355436D01*
X12397204Y-12355436D02*
X12387680Y-12364960D01*
X12387680Y-12364960D02*
X12368633Y-12374484D01*
X12368633Y-12374484D02*
X12349585Y-12374484D01*
X12349585Y-12374484D02*
X12330538Y-12364960D01*
X12330538Y-12364960D02*
X12321014Y-12355436D01*
X12321014Y-12355436D02*
X12311490Y-12336388D01*
X12311490Y-12336388D02*
X12301966Y-12298293D01*
X12301966Y-12298293D02*
X12301966Y-12250674D01*
X12301966Y-12250674D02*
X12311490Y-12212579D01*
X12311490Y-12212579D02*
X12321014Y-12193531D01*
X12321014Y-12193531D02*
X12330538Y-12184008D01*
X12330538Y-12184008D02*
X12349585Y-12174484D01*
X12540061Y-12174484D02*
X12559109Y-12174484D01*
X12559109Y-12174484D02*
X12578157Y-12184008D01*
X12578157Y-12184008D02*
X12587680Y-12193531D01*
X12587680Y-12193531D02*
X12597204Y-12212579D01*
X12597204Y-12212579D02*
X12606728Y-12250674D01*
X12606728Y-12250674D02*
X12606728Y-12298293D01*
X12606728Y-12298293D02*
X12597204Y-12336388D01*
X12597204Y-12336388D02*
X12587680Y-12355436D01*
X12587680Y-12355436D02*
X12578157Y-12364960D01*
X12578157Y-12364960D02*
X12559109Y-12374484D01*
X12559109Y-12374484D02*
X12540061Y-12374484D01*
X12540061Y-12374484D02*
X12521014Y-12364960D01*
X12521014Y-12364960D02*
X12511490Y-12355436D01*
X12511490Y-12355436D02*
X12501966Y-12336388D01*
X12501966Y-12336388D02*
X12492442Y-12298293D01*
X12492442Y-12298293D02*
X12492442Y-12250674D01*
X12492442Y-12250674D02*
X12501966Y-12212579D01*
X12501966Y-12212579D02*
X12511490Y-12193531D01*
X12511490Y-12193531D02*
X12521014Y-12184008D01*
X12521014Y-12184008D02*
X12540061Y-12174484D01*
X12730538Y-12174484D02*
X12749585Y-12174484D01*
X12749585Y-12174484D02*
X12768633Y-12184008D01*
X12768633Y-12184008D02*
X12778157Y-12193531D01*
X12778157Y-12193531D02*
X12787680Y-12212579D01*
X12787680Y-12212579D02*
X12797204Y-12250674D01*
X12797204Y-12250674D02*
X12797204Y-12298293D01*
X12797204Y-12298293D02*
X12787680Y-12336388D01*
X12787680Y-12336388D02*
X12778157Y-12355436D01*
X12778157Y-12355436D02*
X12768633Y-12364960D01*
X12768633Y-12364960D02*
X12749585Y-12374484D01*
X12749585Y-12374484D02*
X12730538Y-12374484D01*
X12730538Y-12374484D02*
X12711490Y-12364960D01*
X12711490Y-12364960D02*
X12701966Y-12355436D01*
X12701966Y-12355436D02*
X12692442Y-12336388D01*
X12692442Y-12336388D02*
X12682919Y-12298293D01*
X12682919Y-12298293D02*
X12682919Y-12250674D01*
X12682919Y-12250674D02*
X12692442Y-12212579D01*
X12692442Y-12212579D02*
X12701966Y-12193531D01*
X12701966Y-12193531D02*
X12711490Y-12184008D01*
X12711490Y-12184008D02*
X12730538Y-12174484D01*
X12882919Y-12374484D02*
X12882919Y-12241150D01*
X12882919Y-12260198D02*
X12892442Y-12250674D01*
X12892442Y-12250674D02*
X12911490Y-12241150D01*
X12911490Y-12241150D02*
X12940061Y-12241150D01*
X12940061Y-12241150D02*
X12959109Y-12250674D01*
X12959109Y-12250674D02*
X12968633Y-12269722D01*
X12968633Y-12269722D02*
X12968633Y-12374484D01*
X12968633Y-12269722D02*
X12978157Y-12250674D01*
X12978157Y-12250674D02*
X12997204Y-12241150D01*
X12997204Y-12241150D02*
X13025776Y-12241150D01*
X13025776Y-12241150D02*
X13044823Y-12250674D01*
X13044823Y-12250674D02*
X13054347Y-12269722D01*
X13054347Y-12269722D02*
X13054347Y-12374484D01*
X13149585Y-12374484D02*
X13149585Y-12241150D01*
X13149585Y-12260198D02*
X13159109Y-12250674D01*
X13159109Y-12250674D02*
X13178157Y-12241150D01*
X13178157Y-12241150D02*
X13206728Y-12241150D01*
X13206728Y-12241150D02*
X13225776Y-12250674D01*
X13225776Y-12250674D02*
X13235300Y-12269722D01*
X13235300Y-12269722D02*
X13235300Y-12374484D01*
X13235300Y-12269722D02*
X13244823Y-12250674D01*
X13244823Y-12250674D02*
X13263871Y-12241150D01*
X13263871Y-12241150D02*
X13292442Y-12241150D01*
X13292442Y-12241150D02*
X13311490Y-12250674D01*
X13311490Y-12250674D02*
X13321014Y-12269722D01*
X13321014Y-12269722D02*
X13321014Y-12374484D01*
X13711490Y-12164960D02*
X13540062Y-12422103D01*
X13968633Y-12174484D02*
X13987681Y-12174484D01*
X13987681Y-12174484D02*
X14006728Y-12184008D01*
X14006728Y-12184008D02*
X14016252Y-12193531D01*
X14016252Y-12193531D02*
X14025776Y-12212579D01*
X14025776Y-12212579D02*
X14035300Y-12250674D01*
X14035300Y-12250674D02*
X14035300Y-12298293D01*
X14035300Y-12298293D02*
X14025776Y-12336388D01*
X14025776Y-12336388D02*
X14016252Y-12355436D01*
X14016252Y-12355436D02*
X14006728Y-12364960D01*
X14006728Y-12364960D02*
X13987681Y-12374484D01*
X13987681Y-12374484D02*
X13968633Y-12374484D01*
X13968633Y-12374484D02*
X13949585Y-12364960D01*
X13949585Y-12364960D02*
X13940062Y-12355436D01*
X13940062Y-12355436D02*
X13930538Y-12336388D01*
X13930538Y-12336388D02*
X13921014Y-12298293D01*
X13921014Y-12298293D02*
X13921014Y-12250674D01*
X13921014Y-12250674D02*
X13930538Y-12212579D01*
X13930538Y-12212579D02*
X13940062Y-12193531D01*
X13940062Y-12193531D02*
X13949585Y-12184008D01*
X13949585Y-12184008D02*
X13968633Y-12174484D01*
X14121014Y-12355436D02*
X14130538Y-12364960D01*
X14130538Y-12364960D02*
X14121014Y-12374484D01*
X14121014Y-12374484D02*
X14111490Y-12364960D01*
X14111490Y-12364960D02*
X14121014Y-12355436D01*
X14121014Y-12355436D02*
X14121014Y-12374484D01*
X14254347Y-12174484D02*
X14273395Y-12174484D01*
X14273395Y-12174484D02*
X14292443Y-12184008D01*
X14292443Y-12184008D02*
X14301966Y-12193531D01*
X14301966Y-12193531D02*
X14311490Y-12212579D01*
X14311490Y-12212579D02*
X14321014Y-12250674D01*
X14321014Y-12250674D02*
X14321014Y-12298293D01*
X14321014Y-12298293D02*
X14311490Y-12336388D01*
X14311490Y-12336388D02*
X14301966Y-12355436D01*
X14301966Y-12355436D02*
X14292443Y-12364960D01*
X14292443Y-12364960D02*
X14273395Y-12374484D01*
X14273395Y-12374484D02*
X14254347Y-12374484D01*
X14254347Y-12374484D02*
X14235300Y-12364960D01*
X14235300Y-12364960D02*
X14225776Y-12355436D01*
X14225776Y-12355436D02*
X14216252Y-12336388D01*
X14216252Y-12336388D02*
X14206728Y-12298293D01*
X14206728Y-12298293D02*
X14206728Y-12250674D01*
X14206728Y-12250674D02*
X14216252Y-12212579D01*
X14216252Y-12212579D02*
X14225776Y-12193531D01*
X14225776Y-12193531D02*
X14235300Y-12184008D01*
X14235300Y-12184008D02*
X14254347Y-12174484D01*
X14387681Y-12174484D02*
X14511490Y-12174484D01*
X14511490Y-12174484D02*
X14444823Y-12250674D01*
X14444823Y-12250674D02*
X14473395Y-12250674D01*
X14473395Y-12250674D02*
X14492443Y-12260198D01*
X14492443Y-12260198D02*
X14501966Y-12269722D01*
X14501966Y-12269722D02*
X14511490Y-12288769D01*
X14511490Y-12288769D02*
X14511490Y-12336388D01*
X14511490Y-12336388D02*
X14501966Y-12355436D01*
X14501966Y-12355436D02*
X14492443Y-12364960D01*
X14492443Y-12364960D02*
X14473395Y-12374484D01*
X14473395Y-12374484D02*
X14416252Y-12374484D01*
X14416252Y-12374484D02*
X14397204Y-12364960D01*
X14397204Y-12364960D02*
X14387681Y-12355436D01*
X14606728Y-12374484D02*
X14644823Y-12374484D01*
X14644823Y-12374484D02*
X14663871Y-12364960D01*
X14663871Y-12364960D02*
X14673395Y-12355436D01*
X14673395Y-12355436D02*
X14692443Y-12326865D01*
X14692443Y-12326865D02*
X14701966Y-12288769D01*
X14701966Y-12288769D02*
X14701966Y-12212579D01*
X14701966Y-12212579D02*
X14692443Y-12193531D01*
X14692443Y-12193531D02*
X14682919Y-12184008D01*
X14682919Y-12184008D02*
X14663871Y-12174484D01*
X14663871Y-12174484D02*
X14625776Y-12174484D01*
X14625776Y-12174484D02*
X14606728Y-12184008D01*
X14606728Y-12184008D02*
X14597204Y-12193531D01*
X14597204Y-12193531D02*
X14587681Y-12212579D01*
X14587681Y-12212579D02*
X14587681Y-12260198D01*
X14587681Y-12260198D02*
X14597204Y-12279246D01*
X14597204Y-12279246D02*
X14606728Y-12288769D01*
X14606728Y-12288769D02*
X14625776Y-12298293D01*
X14625776Y-12298293D02*
X14663871Y-12298293D01*
X14663871Y-12298293D02*
X14682919Y-12288769D01*
X14682919Y-12288769D02*
X14692443Y-12279246D01*
X14692443Y-12279246D02*
X14701966Y-12260198D01*
X14873395Y-12241150D02*
X14873395Y-12374484D01*
X14825776Y-12164960D02*
X14778157Y-12307817D01*
X14778157Y-12307817D02*
X14901966Y-12307817D01*
X14968633Y-12174484D02*
X14968633Y-12212579D01*
X15044824Y-12174484D02*
X15044824Y-12212579D01*
X15340062Y-12450674D02*
X15330538Y-12441150D01*
X15330538Y-12441150D02*
X15311490Y-12412579D01*
X15311490Y-12412579D02*
X15301966Y-12393531D01*
X15301966Y-12393531D02*
X15292443Y-12364960D01*
X15292443Y-12364960D02*
X15282919Y-12317341D01*
X15282919Y-12317341D02*
X15282919Y-12279246D01*
X15282919Y-12279246D02*
X15292443Y-12231627D01*
X15292443Y-12231627D02*
X15301966Y-12203055D01*
X15301966Y-12203055D02*
X15311490Y-12184008D01*
X15311490Y-12184008D02*
X15330538Y-12155436D01*
X15330538Y-12155436D02*
X15340062Y-12145912D01*
X15397205Y-12174484D02*
X15521014Y-12174484D01*
X15521014Y-12174484D02*
X15454347Y-12250674D01*
X15454347Y-12250674D02*
X15482919Y-12250674D01*
X15482919Y-12250674D02*
X15501966Y-12260198D01*
X15501966Y-12260198D02*
X15511490Y-12269722D01*
X15511490Y-12269722D02*
X15521014Y-12288769D01*
X15521014Y-12288769D02*
X15521014Y-12336388D01*
X15521014Y-12336388D02*
X15511490Y-12355436D01*
X15511490Y-12355436D02*
X15501966Y-12364960D01*
X15501966Y-12364960D02*
X15482919Y-12374484D01*
X15482919Y-12374484D02*
X15425776Y-12374484D01*
X15425776Y-12374484D02*
X15406728Y-12364960D01*
X15406728Y-12364960D02*
X15397205Y-12355436D01*
X15616252Y-12374484D02*
X15654347Y-12374484D01*
X15654347Y-12374484D02*
X15673395Y-12364960D01*
X15673395Y-12364960D02*
X15682919Y-12355436D01*
X15682919Y-12355436D02*
X15701966Y-12326865D01*
X15701966Y-12326865D02*
X15711490Y-12288769D01*
X15711490Y-12288769D02*
X15711490Y-12212579D01*
X15711490Y-12212579D02*
X15701966Y-12193531D01*
X15701966Y-12193531D02*
X15692443Y-12184008D01*
X15692443Y-12184008D02*
X15673395Y-12174484D01*
X15673395Y-12174484D02*
X15635300Y-12174484D01*
X15635300Y-12174484D02*
X15616252Y-12184008D01*
X15616252Y-12184008D02*
X15606728Y-12193531D01*
X15606728Y-12193531D02*
X15597205Y-12212579D01*
X15597205Y-12212579D02*
X15597205Y-12260198D01*
X15597205Y-12260198D02*
X15606728Y-12279246D01*
X15606728Y-12279246D02*
X15616252Y-12288769D01*
X15616252Y-12288769D02*
X15635300Y-12298293D01*
X15635300Y-12298293D02*
X15673395Y-12298293D01*
X15673395Y-12298293D02*
X15692443Y-12288769D01*
X15692443Y-12288769D02*
X15701966Y-12279246D01*
X15701966Y-12279246D02*
X15711490Y-12260198D01*
X15949586Y-12374484D02*
X15949586Y-12174484D01*
X16035300Y-12374484D02*
X16035300Y-12269722D01*
X16035300Y-12269722D02*
X16025776Y-12250674D01*
X16025776Y-12250674D02*
X16006728Y-12241150D01*
X16006728Y-12241150D02*
X15978157Y-12241150D01*
X15978157Y-12241150D02*
X15959109Y-12250674D01*
X15959109Y-12250674D02*
X15949586Y-12260198D01*
X16159109Y-12374484D02*
X16140062Y-12364960D01*
X16140062Y-12364960D02*
X16130538Y-12355436D01*
X16130538Y-12355436D02*
X16121014Y-12336388D01*
X16121014Y-12336388D02*
X16121014Y-12279246D01*
X16121014Y-12279246D02*
X16130538Y-12260198D01*
X16130538Y-12260198D02*
X16140062Y-12250674D01*
X16140062Y-12250674D02*
X16159109Y-12241150D01*
X16159109Y-12241150D02*
X16187681Y-12241150D01*
X16187681Y-12241150D02*
X16206728Y-12250674D01*
X16206728Y-12250674D02*
X16216252Y-12260198D01*
X16216252Y-12260198D02*
X16225776Y-12279246D01*
X16225776Y-12279246D02*
X16225776Y-12336388D01*
X16225776Y-12336388D02*
X16216252Y-12355436D01*
X16216252Y-12355436D02*
X16206728Y-12364960D01*
X16206728Y-12364960D02*
X16187681Y-12374484D01*
X16187681Y-12374484D02*
X16159109Y-12374484D01*
X16340062Y-12374484D02*
X16321014Y-12364960D01*
X16321014Y-12364960D02*
X16311490Y-12345912D01*
X16311490Y-12345912D02*
X16311490Y-12174484D01*
X16492443Y-12364960D02*
X16473395Y-12374484D01*
X16473395Y-12374484D02*
X16435300Y-12374484D01*
X16435300Y-12374484D02*
X16416252Y-12364960D01*
X16416252Y-12364960D02*
X16406728Y-12345912D01*
X16406728Y-12345912D02*
X16406728Y-12269722D01*
X16406728Y-12269722D02*
X16416252Y-12250674D01*
X16416252Y-12250674D02*
X16435300Y-12241150D01*
X16435300Y-12241150D02*
X16473395Y-12241150D01*
X16473395Y-12241150D02*
X16492443Y-12250674D01*
X16492443Y-12250674D02*
X16501967Y-12269722D01*
X16501967Y-12269722D02*
X16501967Y-12288769D01*
X16501967Y-12288769D02*
X16406728Y-12307817D01*
X16578157Y-12364960D02*
X16597205Y-12374484D01*
X16597205Y-12374484D02*
X16635300Y-12374484D01*
X16635300Y-12374484D02*
X16654348Y-12364960D01*
X16654348Y-12364960D02*
X16663871Y-12345912D01*
X16663871Y-12345912D02*
X16663871Y-12336388D01*
X16663871Y-12336388D02*
X16654348Y-12317341D01*
X16654348Y-12317341D02*
X16635300Y-12307817D01*
X16635300Y-12307817D02*
X16606728Y-12307817D01*
X16606728Y-12307817D02*
X16587681Y-12298293D01*
X16587681Y-12298293D02*
X16578157Y-12279246D01*
X16578157Y-12279246D02*
X16578157Y-12269722D01*
X16578157Y-12269722D02*
X16587681Y-12250674D01*
X16587681Y-12250674D02*
X16606728Y-12241150D01*
X16606728Y-12241150D02*
X16635300Y-12241150D01*
X16635300Y-12241150D02*
X16654348Y-12250674D01*
X16730538Y-12450674D02*
X16740062Y-12441150D01*
X16740062Y-12441150D02*
X16759109Y-12412579D01*
X16759109Y-12412579D02*
X16768633Y-12393531D01*
X16768633Y-12393531D02*
X16778157Y-12364960D01*
X16778157Y-12364960D02*
X16787681Y-12317341D01*
X16787681Y-12317341D02*
X16787681Y-12279246D01*
X16787681Y-12279246D02*
X16778157Y-12231627D01*
X16778157Y-12231627D02*
X16768633Y-12203055D01*
X16768633Y-12203055D02*
X16759109Y-12184008D01*
X16759109Y-12184008D02*
X16740062Y-12155436D01*
X16740062Y-12155436D02*
X16730538Y-12145912D01*
D12*
X11662999Y-12496000D02*
X11764999Y-12598000D01*
X11764999Y-12496000D02*
X11662999Y-12598000D01*
X11713999Y-12598000D02*
X11764999Y-12547000D01*
X11713999Y-12496000D01*
X11662999Y-12547000D01*
X11713999Y-12598000D01*
D11*
X12130538Y-12638484D02*
X12016252Y-12638484D01*
X12073395Y-12638484D02*
X12073395Y-12438484D01*
X12073395Y-12438484D02*
X12054347Y-12467055D01*
X12054347Y-12467055D02*
X12035299Y-12486103D01*
X12035299Y-12486103D02*
X12016252Y-12495627D01*
X12216252Y-12619436D02*
X12225776Y-12628960D01*
X12225776Y-12628960D02*
X12216252Y-12638484D01*
X12216252Y-12638484D02*
X12206728Y-12628960D01*
X12206728Y-12628960D02*
X12216252Y-12619436D01*
X12216252Y-12619436D02*
X12216252Y-12638484D01*
X12349585Y-12438484D02*
X12368633Y-12438484D01*
X12368633Y-12438484D02*
X12387680Y-12448008D01*
X12387680Y-12448008D02*
X12397204Y-12457531D01*
X12397204Y-12457531D02*
X12406728Y-12476579D01*
X12406728Y-12476579D02*
X12416252Y-12514674D01*
X12416252Y-12514674D02*
X12416252Y-12562293D01*
X12416252Y-12562293D02*
X12406728Y-12600388D01*
X12406728Y-12600388D02*
X12397204Y-12619436D01*
X12397204Y-12619436D02*
X12387680Y-12628960D01*
X12387680Y-12628960D02*
X12368633Y-12638484D01*
X12368633Y-12638484D02*
X12349585Y-12638484D01*
X12349585Y-12638484D02*
X12330538Y-12628960D01*
X12330538Y-12628960D02*
X12321014Y-12619436D01*
X12321014Y-12619436D02*
X12311490Y-12600388D01*
X12311490Y-12600388D02*
X12301966Y-12562293D01*
X12301966Y-12562293D02*
X12301966Y-12514674D01*
X12301966Y-12514674D02*
X12311490Y-12476579D01*
X12311490Y-12476579D02*
X12321014Y-12457531D01*
X12321014Y-12457531D02*
X12330538Y-12448008D01*
X12330538Y-12448008D02*
X12349585Y-12438484D01*
X12492442Y-12457531D02*
X12501966Y-12448008D01*
X12501966Y-12448008D02*
X12521014Y-12438484D01*
X12521014Y-12438484D02*
X12568633Y-12438484D01*
X12568633Y-12438484D02*
X12587680Y-12448008D01*
X12587680Y-12448008D02*
X12597204Y-12457531D01*
X12597204Y-12457531D02*
X12606728Y-12476579D01*
X12606728Y-12476579D02*
X12606728Y-12495627D01*
X12606728Y-12495627D02*
X12597204Y-12524198D01*
X12597204Y-12524198D02*
X12482919Y-12638484D01*
X12482919Y-12638484D02*
X12606728Y-12638484D01*
X12730538Y-12438484D02*
X12749585Y-12438484D01*
X12749585Y-12438484D02*
X12768633Y-12448008D01*
X12768633Y-12448008D02*
X12778157Y-12457531D01*
X12778157Y-12457531D02*
X12787680Y-12476579D01*
X12787680Y-12476579D02*
X12797204Y-12514674D01*
X12797204Y-12514674D02*
X12797204Y-12562293D01*
X12797204Y-12562293D02*
X12787680Y-12600388D01*
X12787680Y-12600388D02*
X12778157Y-12619436D01*
X12778157Y-12619436D02*
X12768633Y-12628960D01*
X12768633Y-12628960D02*
X12749585Y-12638484D01*
X12749585Y-12638484D02*
X12730538Y-12638484D01*
X12730538Y-12638484D02*
X12711490Y-12628960D01*
X12711490Y-12628960D02*
X12701966Y-12619436D01*
X12701966Y-12619436D02*
X12692442Y-12600388D01*
X12692442Y-12600388D02*
X12682919Y-12562293D01*
X12682919Y-12562293D02*
X12682919Y-12514674D01*
X12682919Y-12514674D02*
X12692442Y-12476579D01*
X12692442Y-12476579D02*
X12701966Y-12457531D01*
X12701966Y-12457531D02*
X12711490Y-12448008D01*
X12711490Y-12448008D02*
X12730538Y-12438484D01*
X12882919Y-12638484D02*
X12882919Y-12505150D01*
X12882919Y-12524198D02*
X12892442Y-12514674D01*
X12892442Y-12514674D02*
X12911490Y-12505150D01*
X12911490Y-12505150D02*
X12940061Y-12505150D01*
X12940061Y-12505150D02*
X12959109Y-12514674D01*
X12959109Y-12514674D02*
X12968633Y-12533722D01*
X12968633Y-12533722D02*
X12968633Y-12638484D01*
X12968633Y-12533722D02*
X12978157Y-12514674D01*
X12978157Y-12514674D02*
X12997204Y-12505150D01*
X12997204Y-12505150D02*
X13025776Y-12505150D01*
X13025776Y-12505150D02*
X13044823Y-12514674D01*
X13044823Y-12514674D02*
X13054347Y-12533722D01*
X13054347Y-12533722D02*
X13054347Y-12638484D01*
X13149585Y-12638484D02*
X13149585Y-12505150D01*
X13149585Y-12524198D02*
X13159109Y-12514674D01*
X13159109Y-12514674D02*
X13178157Y-12505150D01*
X13178157Y-12505150D02*
X13206728Y-12505150D01*
X13206728Y-12505150D02*
X13225776Y-12514674D01*
X13225776Y-12514674D02*
X13235300Y-12533722D01*
X13235300Y-12533722D02*
X13235300Y-12638484D01*
X13235300Y-12533722D02*
X13244823Y-12514674D01*
X13244823Y-12514674D02*
X13263871Y-12505150D01*
X13263871Y-12505150D02*
X13292442Y-12505150D01*
X13292442Y-12505150D02*
X13311490Y-12514674D01*
X13311490Y-12514674D02*
X13321014Y-12533722D01*
X13321014Y-12533722D02*
X13321014Y-12638484D01*
X13711490Y-12428960D02*
X13540062Y-12686103D01*
X13968633Y-12438484D02*
X13987681Y-12438484D01*
X13987681Y-12438484D02*
X14006728Y-12448008D01*
X14006728Y-12448008D02*
X14016252Y-12457531D01*
X14016252Y-12457531D02*
X14025776Y-12476579D01*
X14025776Y-12476579D02*
X14035300Y-12514674D01*
X14035300Y-12514674D02*
X14035300Y-12562293D01*
X14035300Y-12562293D02*
X14025776Y-12600388D01*
X14025776Y-12600388D02*
X14016252Y-12619436D01*
X14016252Y-12619436D02*
X14006728Y-12628960D01*
X14006728Y-12628960D02*
X13987681Y-12638484D01*
X13987681Y-12638484D02*
X13968633Y-12638484D01*
X13968633Y-12638484D02*
X13949585Y-12628960D01*
X13949585Y-12628960D02*
X13940062Y-12619436D01*
X13940062Y-12619436D02*
X13930538Y-12600388D01*
X13930538Y-12600388D02*
X13921014Y-12562293D01*
X13921014Y-12562293D02*
X13921014Y-12514674D01*
X13921014Y-12514674D02*
X13930538Y-12476579D01*
X13930538Y-12476579D02*
X13940062Y-12457531D01*
X13940062Y-12457531D02*
X13949585Y-12448008D01*
X13949585Y-12448008D02*
X13968633Y-12438484D01*
X14121014Y-12619436D02*
X14130538Y-12628960D01*
X14130538Y-12628960D02*
X14121014Y-12638484D01*
X14121014Y-12638484D02*
X14111490Y-12628960D01*
X14111490Y-12628960D02*
X14121014Y-12619436D01*
X14121014Y-12619436D02*
X14121014Y-12638484D01*
X14254347Y-12438484D02*
X14273395Y-12438484D01*
X14273395Y-12438484D02*
X14292443Y-12448008D01*
X14292443Y-12448008D02*
X14301966Y-12457531D01*
X14301966Y-12457531D02*
X14311490Y-12476579D01*
X14311490Y-12476579D02*
X14321014Y-12514674D01*
X14321014Y-12514674D02*
X14321014Y-12562293D01*
X14321014Y-12562293D02*
X14311490Y-12600388D01*
X14311490Y-12600388D02*
X14301966Y-12619436D01*
X14301966Y-12619436D02*
X14292443Y-12628960D01*
X14292443Y-12628960D02*
X14273395Y-12638484D01*
X14273395Y-12638484D02*
X14254347Y-12638484D01*
X14254347Y-12638484D02*
X14235300Y-12628960D01*
X14235300Y-12628960D02*
X14225776Y-12619436D01*
X14225776Y-12619436D02*
X14216252Y-12600388D01*
X14216252Y-12600388D02*
X14206728Y-12562293D01*
X14206728Y-12562293D02*
X14206728Y-12514674D01*
X14206728Y-12514674D02*
X14216252Y-12476579D01*
X14216252Y-12476579D02*
X14225776Y-12457531D01*
X14225776Y-12457531D02*
X14235300Y-12448008D01*
X14235300Y-12448008D02*
X14254347Y-12438484D01*
X14492443Y-12505150D02*
X14492443Y-12638484D01*
X14444823Y-12428960D02*
X14397204Y-12571817D01*
X14397204Y-12571817D02*
X14521014Y-12571817D01*
X14635300Y-12438484D02*
X14654347Y-12438484D01*
X14654347Y-12438484D02*
X14673395Y-12448008D01*
X14673395Y-12448008D02*
X14682919Y-12457531D01*
X14682919Y-12457531D02*
X14692443Y-12476579D01*
X14692443Y-12476579D02*
X14701966Y-12514674D01*
X14701966Y-12514674D02*
X14701966Y-12562293D01*
X14701966Y-12562293D02*
X14692443Y-12600388D01*
X14692443Y-12600388D02*
X14682919Y-12619436D01*
X14682919Y-12619436D02*
X14673395Y-12628960D01*
X14673395Y-12628960D02*
X14654347Y-12638484D01*
X14654347Y-12638484D02*
X14635300Y-12638484D01*
X14635300Y-12638484D02*
X14616252Y-12628960D01*
X14616252Y-12628960D02*
X14606728Y-12619436D01*
X14606728Y-12619436D02*
X14597204Y-12600388D01*
X14597204Y-12600388D02*
X14587681Y-12562293D01*
X14587681Y-12562293D02*
X14587681Y-12514674D01*
X14587681Y-12514674D02*
X14597204Y-12476579D01*
X14597204Y-12476579D02*
X14606728Y-12457531D01*
X14606728Y-12457531D02*
X14616252Y-12448008D01*
X14616252Y-12448008D02*
X14635300Y-12438484D01*
X14778157Y-12457531D02*
X14787681Y-12448008D01*
X14787681Y-12448008D02*
X14806728Y-12438484D01*
X14806728Y-12438484D02*
X14854347Y-12438484D01*
X14854347Y-12438484D02*
X14873395Y-12448008D01*
X14873395Y-12448008D02*
X14882919Y-12457531D01*
X14882919Y-12457531D02*
X14892443Y-12476579D01*
X14892443Y-12476579D02*
X14892443Y-12495627D01*
X14892443Y-12495627D02*
X14882919Y-12524198D01*
X14882919Y-12524198D02*
X14768633Y-12638484D01*
X14768633Y-12638484D02*
X14892443Y-12638484D01*
X14968633Y-12438484D02*
X14968633Y-12476579D01*
X15044824Y-12438484D02*
X15044824Y-12476579D01*
X15340062Y-12714674D02*
X15330538Y-12705150D01*
X15330538Y-12705150D02*
X15311490Y-12676579D01*
X15311490Y-12676579D02*
X15301966Y-12657531D01*
X15301966Y-12657531D02*
X15292443Y-12628960D01*
X15292443Y-12628960D02*
X15282919Y-12581341D01*
X15282919Y-12581341D02*
X15282919Y-12543246D01*
X15282919Y-12543246D02*
X15292443Y-12495627D01*
X15292443Y-12495627D02*
X15301966Y-12467055D01*
X15301966Y-12467055D02*
X15311490Y-12448008D01*
X15311490Y-12448008D02*
X15330538Y-12419436D01*
X15330538Y-12419436D02*
X15340062Y-12409912D01*
X15511490Y-12438484D02*
X15416252Y-12438484D01*
X15416252Y-12438484D02*
X15406728Y-12533722D01*
X15406728Y-12533722D02*
X15416252Y-12524198D01*
X15416252Y-12524198D02*
X15435300Y-12514674D01*
X15435300Y-12514674D02*
X15482919Y-12514674D01*
X15482919Y-12514674D02*
X15501966Y-12524198D01*
X15501966Y-12524198D02*
X15511490Y-12533722D01*
X15511490Y-12533722D02*
X15521014Y-12552769D01*
X15521014Y-12552769D02*
X15521014Y-12600388D01*
X15521014Y-12600388D02*
X15511490Y-12619436D01*
X15511490Y-12619436D02*
X15501966Y-12628960D01*
X15501966Y-12628960D02*
X15482919Y-12638484D01*
X15482919Y-12638484D02*
X15435300Y-12638484D01*
X15435300Y-12638484D02*
X15416252Y-12628960D01*
X15416252Y-12628960D02*
X15406728Y-12619436D01*
X15635300Y-12524198D02*
X15616252Y-12514674D01*
X15616252Y-12514674D02*
X15606728Y-12505150D01*
X15606728Y-12505150D02*
X15597205Y-12486103D01*
X15597205Y-12486103D02*
X15597205Y-12476579D01*
X15597205Y-12476579D02*
X15606728Y-12457531D01*
X15606728Y-12457531D02*
X15616252Y-12448008D01*
X15616252Y-12448008D02*
X15635300Y-12438484D01*
X15635300Y-12438484D02*
X15673395Y-12438484D01*
X15673395Y-12438484D02*
X15692443Y-12448008D01*
X15692443Y-12448008D02*
X15701966Y-12457531D01*
X15701966Y-12457531D02*
X15711490Y-12476579D01*
X15711490Y-12476579D02*
X15711490Y-12486103D01*
X15711490Y-12486103D02*
X15701966Y-12505150D01*
X15701966Y-12505150D02*
X15692443Y-12514674D01*
X15692443Y-12514674D02*
X15673395Y-12524198D01*
X15673395Y-12524198D02*
X15635300Y-12524198D01*
X15635300Y-12524198D02*
X15616252Y-12533722D01*
X15616252Y-12533722D02*
X15606728Y-12543246D01*
X15606728Y-12543246D02*
X15597205Y-12562293D01*
X15597205Y-12562293D02*
X15597205Y-12600388D01*
X15597205Y-12600388D02*
X15606728Y-12619436D01*
X15606728Y-12619436D02*
X15616252Y-12628960D01*
X15616252Y-12628960D02*
X15635300Y-12638484D01*
X15635300Y-12638484D02*
X15673395Y-12638484D01*
X15673395Y-12638484D02*
X15692443Y-12628960D01*
X15692443Y-12628960D02*
X15701966Y-12619436D01*
X15701966Y-12619436D02*
X15711490Y-12600388D01*
X15711490Y-12600388D02*
X15711490Y-12562293D01*
X15711490Y-12562293D02*
X15701966Y-12543246D01*
X15701966Y-12543246D02*
X15692443Y-12533722D01*
X15692443Y-12533722D02*
X15673395Y-12524198D01*
X15949586Y-12638484D02*
X15949586Y-12438484D01*
X16035300Y-12638484D02*
X16035300Y-12533722D01*
X16035300Y-12533722D02*
X16025776Y-12514674D01*
X16025776Y-12514674D02*
X16006728Y-12505150D01*
X16006728Y-12505150D02*
X15978157Y-12505150D01*
X15978157Y-12505150D02*
X15959109Y-12514674D01*
X15959109Y-12514674D02*
X15949586Y-12524198D01*
X16159109Y-12638484D02*
X16140062Y-12628960D01*
X16140062Y-12628960D02*
X16130538Y-12619436D01*
X16130538Y-12619436D02*
X16121014Y-12600388D01*
X16121014Y-12600388D02*
X16121014Y-12543246D01*
X16121014Y-12543246D02*
X16130538Y-12524198D01*
X16130538Y-12524198D02*
X16140062Y-12514674D01*
X16140062Y-12514674D02*
X16159109Y-12505150D01*
X16159109Y-12505150D02*
X16187681Y-12505150D01*
X16187681Y-12505150D02*
X16206728Y-12514674D01*
X16206728Y-12514674D02*
X16216252Y-12524198D01*
X16216252Y-12524198D02*
X16225776Y-12543246D01*
X16225776Y-12543246D02*
X16225776Y-12600388D01*
X16225776Y-12600388D02*
X16216252Y-12619436D01*
X16216252Y-12619436D02*
X16206728Y-12628960D01*
X16206728Y-12628960D02*
X16187681Y-12638484D01*
X16187681Y-12638484D02*
X16159109Y-12638484D01*
X16340062Y-12638484D02*
X16321014Y-12628960D01*
X16321014Y-12628960D02*
X16311490Y-12609912D01*
X16311490Y-12609912D02*
X16311490Y-12438484D01*
X16492443Y-12628960D02*
X16473395Y-12638484D01*
X16473395Y-12638484D02*
X16435300Y-12638484D01*
X16435300Y-12638484D02*
X16416252Y-12628960D01*
X16416252Y-12628960D02*
X16406728Y-12609912D01*
X16406728Y-12609912D02*
X16406728Y-12533722D01*
X16406728Y-12533722D02*
X16416252Y-12514674D01*
X16416252Y-12514674D02*
X16435300Y-12505150D01*
X16435300Y-12505150D02*
X16473395Y-12505150D01*
X16473395Y-12505150D02*
X16492443Y-12514674D01*
X16492443Y-12514674D02*
X16501967Y-12533722D01*
X16501967Y-12533722D02*
X16501967Y-12552769D01*
X16501967Y-12552769D02*
X16406728Y-12571817D01*
X16578157Y-12628960D02*
X16597205Y-12638484D01*
X16597205Y-12638484D02*
X16635300Y-12638484D01*
X16635300Y-12638484D02*
X16654348Y-12628960D01*
X16654348Y-12628960D02*
X16663871Y-12609912D01*
X16663871Y-12609912D02*
X16663871Y-12600388D01*
X16663871Y-12600388D02*
X16654348Y-12581341D01*
X16654348Y-12581341D02*
X16635300Y-12571817D01*
X16635300Y-12571817D02*
X16606728Y-12571817D01*
X16606728Y-12571817D02*
X16587681Y-12562293D01*
X16587681Y-12562293D02*
X16578157Y-12543246D01*
X16578157Y-12543246D02*
X16578157Y-12533722D01*
X16578157Y-12533722D02*
X16587681Y-12514674D01*
X16587681Y-12514674D02*
X16606728Y-12505150D01*
X16606728Y-12505150D02*
X16635300Y-12505150D01*
X16635300Y-12505150D02*
X16654348Y-12514674D01*
X16730538Y-12714674D02*
X16740062Y-12705150D01*
X16740062Y-12705150D02*
X16759109Y-12676579D01*
X16759109Y-12676579D02*
X16768633Y-12657531D01*
X16768633Y-12657531D02*
X16778157Y-12628960D01*
X16778157Y-12628960D02*
X16787681Y-12581341D01*
X16787681Y-12581341D02*
X16787681Y-12543246D01*
X16787681Y-12543246D02*
X16778157Y-12495627D01*
X16778157Y-12495627D02*
X16768633Y-12467055D01*
X16768633Y-12467055D02*
X16759109Y-12448008D01*
X16759109Y-12448008D02*
X16740062Y-12419436D01*
X16740062Y-12419436D02*
X16730538Y-12409912D01*
D13*
X11709999Y-12756000D02*
X11709999Y-12866000D01*
X11654999Y-12811000D02*
X11764999Y-12811000D01*
X11764999Y-12811000D02*
G75*
G02*
X11654999Y-12811000I-55000J0D01*
G01*
X11654999Y-12811000D02*
G75*
G02*
X11764999Y-12811000I55000J0D01*
G01*
D11*
X12130538Y-12902484D02*
X12016252Y-12902484D01*
X12073395Y-12902484D02*
X12073395Y-12702484D01*
X12073395Y-12702484D02*
X12054347Y-12731055D01*
X12054347Y-12731055D02*
X12035299Y-12750103D01*
X12035299Y-12750103D02*
X12016252Y-12759627D01*
X12216252Y-12883436D02*
X12225776Y-12892960D01*
X12225776Y-12892960D02*
X12216252Y-12902484D01*
X12216252Y-12902484D02*
X12206728Y-12892960D01*
X12206728Y-12892960D02*
X12216252Y-12883436D01*
X12216252Y-12883436D02*
X12216252Y-12902484D01*
X12416252Y-12902484D02*
X12301966Y-12902484D01*
X12359109Y-12902484D02*
X12359109Y-12702484D01*
X12359109Y-12702484D02*
X12340061Y-12731055D01*
X12340061Y-12731055D02*
X12321014Y-12750103D01*
X12321014Y-12750103D02*
X12301966Y-12759627D01*
X12540061Y-12702484D02*
X12559109Y-12702484D01*
X12559109Y-12702484D02*
X12578157Y-12712008D01*
X12578157Y-12712008D02*
X12587680Y-12721531D01*
X12587680Y-12721531D02*
X12597204Y-12740579D01*
X12597204Y-12740579D02*
X12606728Y-12778674D01*
X12606728Y-12778674D02*
X12606728Y-12826293D01*
X12606728Y-12826293D02*
X12597204Y-12864388D01*
X12597204Y-12864388D02*
X12587680Y-12883436D01*
X12587680Y-12883436D02*
X12578157Y-12892960D01*
X12578157Y-12892960D02*
X12559109Y-12902484D01*
X12559109Y-12902484D02*
X12540061Y-12902484D01*
X12540061Y-12902484D02*
X12521014Y-12892960D01*
X12521014Y-12892960D02*
X12511490Y-12883436D01*
X12511490Y-12883436D02*
X12501966Y-12864388D01*
X12501966Y-12864388D02*
X12492442Y-12826293D01*
X12492442Y-12826293D02*
X12492442Y-12778674D01*
X12492442Y-12778674D02*
X12501966Y-12740579D01*
X12501966Y-12740579D02*
X12511490Y-12721531D01*
X12511490Y-12721531D02*
X12521014Y-12712008D01*
X12521014Y-12712008D02*
X12540061Y-12702484D01*
X12730538Y-12702484D02*
X12749585Y-12702484D01*
X12749585Y-12702484D02*
X12768633Y-12712008D01*
X12768633Y-12712008D02*
X12778157Y-12721531D01*
X12778157Y-12721531D02*
X12787680Y-12740579D01*
X12787680Y-12740579D02*
X12797204Y-12778674D01*
X12797204Y-12778674D02*
X12797204Y-12826293D01*
X12797204Y-12826293D02*
X12787680Y-12864388D01*
X12787680Y-12864388D02*
X12778157Y-12883436D01*
X12778157Y-12883436D02*
X12768633Y-12892960D01*
X12768633Y-12892960D02*
X12749585Y-12902484D01*
X12749585Y-12902484D02*
X12730538Y-12902484D01*
X12730538Y-12902484D02*
X12711490Y-12892960D01*
X12711490Y-12892960D02*
X12701966Y-12883436D01*
X12701966Y-12883436D02*
X12692442Y-12864388D01*
X12692442Y-12864388D02*
X12682919Y-12826293D01*
X12682919Y-12826293D02*
X12682919Y-12778674D01*
X12682919Y-12778674D02*
X12692442Y-12740579D01*
X12692442Y-12740579D02*
X12701966Y-12721531D01*
X12701966Y-12721531D02*
X12711490Y-12712008D01*
X12711490Y-12712008D02*
X12730538Y-12702484D01*
X12882919Y-12902484D02*
X12882919Y-12769150D01*
X12882919Y-12788198D02*
X12892442Y-12778674D01*
X12892442Y-12778674D02*
X12911490Y-12769150D01*
X12911490Y-12769150D02*
X12940061Y-12769150D01*
X12940061Y-12769150D02*
X12959109Y-12778674D01*
X12959109Y-12778674D02*
X12968633Y-12797722D01*
X12968633Y-12797722D02*
X12968633Y-12902484D01*
X12968633Y-12797722D02*
X12978157Y-12778674D01*
X12978157Y-12778674D02*
X12997204Y-12769150D01*
X12997204Y-12769150D02*
X13025776Y-12769150D01*
X13025776Y-12769150D02*
X13044823Y-12778674D01*
X13044823Y-12778674D02*
X13054347Y-12797722D01*
X13054347Y-12797722D02*
X13054347Y-12902484D01*
X13149585Y-12902484D02*
X13149585Y-12769150D01*
X13149585Y-12788198D02*
X13159109Y-12778674D01*
X13159109Y-12778674D02*
X13178157Y-12769150D01*
X13178157Y-12769150D02*
X13206728Y-12769150D01*
X13206728Y-12769150D02*
X13225776Y-12778674D01*
X13225776Y-12778674D02*
X13235300Y-12797722D01*
X13235300Y-12797722D02*
X13235300Y-12902484D01*
X13235300Y-12797722D02*
X13244823Y-12778674D01*
X13244823Y-12778674D02*
X13263871Y-12769150D01*
X13263871Y-12769150D02*
X13292442Y-12769150D01*
X13292442Y-12769150D02*
X13311490Y-12778674D01*
X13311490Y-12778674D02*
X13321014Y-12797722D01*
X13321014Y-12797722D02*
X13321014Y-12902484D01*
X13711490Y-12692960D02*
X13540062Y-12950103D01*
X13968633Y-12702484D02*
X13987681Y-12702484D01*
X13987681Y-12702484D02*
X14006728Y-12712008D01*
X14006728Y-12712008D02*
X14016252Y-12721531D01*
X14016252Y-12721531D02*
X14025776Y-12740579D01*
X14025776Y-12740579D02*
X14035300Y-12778674D01*
X14035300Y-12778674D02*
X14035300Y-12826293D01*
X14035300Y-12826293D02*
X14025776Y-12864388D01*
X14025776Y-12864388D02*
X14016252Y-12883436D01*
X14016252Y-12883436D02*
X14006728Y-12892960D01*
X14006728Y-12892960D02*
X13987681Y-12902484D01*
X13987681Y-12902484D02*
X13968633Y-12902484D01*
X13968633Y-12902484D02*
X13949585Y-12892960D01*
X13949585Y-12892960D02*
X13940062Y-12883436D01*
X13940062Y-12883436D02*
X13930538Y-12864388D01*
X13930538Y-12864388D02*
X13921014Y-12826293D01*
X13921014Y-12826293D02*
X13921014Y-12778674D01*
X13921014Y-12778674D02*
X13930538Y-12740579D01*
X13930538Y-12740579D02*
X13940062Y-12721531D01*
X13940062Y-12721531D02*
X13949585Y-12712008D01*
X13949585Y-12712008D02*
X13968633Y-12702484D01*
X14121014Y-12883436D02*
X14130538Y-12892960D01*
X14130538Y-12892960D02*
X14121014Y-12902484D01*
X14121014Y-12902484D02*
X14111490Y-12892960D01*
X14111490Y-12892960D02*
X14121014Y-12883436D01*
X14121014Y-12883436D02*
X14121014Y-12902484D01*
X14254347Y-12702484D02*
X14273395Y-12702484D01*
X14273395Y-12702484D02*
X14292443Y-12712008D01*
X14292443Y-12712008D02*
X14301966Y-12721531D01*
X14301966Y-12721531D02*
X14311490Y-12740579D01*
X14311490Y-12740579D02*
X14321014Y-12778674D01*
X14321014Y-12778674D02*
X14321014Y-12826293D01*
X14321014Y-12826293D02*
X14311490Y-12864388D01*
X14311490Y-12864388D02*
X14301966Y-12883436D01*
X14301966Y-12883436D02*
X14292443Y-12892960D01*
X14292443Y-12892960D02*
X14273395Y-12902484D01*
X14273395Y-12902484D02*
X14254347Y-12902484D01*
X14254347Y-12902484D02*
X14235300Y-12892960D01*
X14235300Y-12892960D02*
X14225776Y-12883436D01*
X14225776Y-12883436D02*
X14216252Y-12864388D01*
X14216252Y-12864388D02*
X14206728Y-12826293D01*
X14206728Y-12826293D02*
X14206728Y-12778674D01*
X14206728Y-12778674D02*
X14216252Y-12740579D01*
X14216252Y-12740579D02*
X14225776Y-12721531D01*
X14225776Y-12721531D02*
X14235300Y-12712008D01*
X14235300Y-12712008D02*
X14254347Y-12702484D01*
X14492443Y-12769150D02*
X14492443Y-12902484D01*
X14444823Y-12692960D02*
X14397204Y-12835817D01*
X14397204Y-12835817D02*
X14521014Y-12835817D01*
X14578157Y-12702484D02*
X14701966Y-12702484D01*
X14701966Y-12702484D02*
X14635300Y-12778674D01*
X14635300Y-12778674D02*
X14663871Y-12778674D01*
X14663871Y-12778674D02*
X14682919Y-12788198D01*
X14682919Y-12788198D02*
X14692443Y-12797722D01*
X14692443Y-12797722D02*
X14701966Y-12816769D01*
X14701966Y-12816769D02*
X14701966Y-12864388D01*
X14701966Y-12864388D02*
X14692443Y-12883436D01*
X14692443Y-12883436D02*
X14682919Y-12892960D01*
X14682919Y-12892960D02*
X14663871Y-12902484D01*
X14663871Y-12902484D02*
X14606728Y-12902484D01*
X14606728Y-12902484D02*
X14587681Y-12892960D01*
X14587681Y-12892960D02*
X14578157Y-12883436D01*
X14768633Y-12702484D02*
X14892443Y-12702484D01*
X14892443Y-12702484D02*
X14825776Y-12778674D01*
X14825776Y-12778674D02*
X14854347Y-12778674D01*
X14854347Y-12778674D02*
X14873395Y-12788198D01*
X14873395Y-12788198D02*
X14882919Y-12797722D01*
X14882919Y-12797722D02*
X14892443Y-12816769D01*
X14892443Y-12816769D02*
X14892443Y-12864388D01*
X14892443Y-12864388D02*
X14882919Y-12883436D01*
X14882919Y-12883436D02*
X14873395Y-12892960D01*
X14873395Y-12892960D02*
X14854347Y-12902484D01*
X14854347Y-12902484D02*
X14797204Y-12902484D01*
X14797204Y-12902484D02*
X14778157Y-12892960D01*
X14778157Y-12892960D02*
X14768633Y-12883436D01*
X14968633Y-12702484D02*
X14968633Y-12740579D01*
X15044824Y-12702484D02*
X15044824Y-12740579D01*
X15340062Y-12978674D02*
X15330538Y-12969150D01*
X15330538Y-12969150D02*
X15311490Y-12940579D01*
X15311490Y-12940579D02*
X15301966Y-12921531D01*
X15301966Y-12921531D02*
X15292443Y-12892960D01*
X15292443Y-12892960D02*
X15282919Y-12845341D01*
X15282919Y-12845341D02*
X15282919Y-12807246D01*
X15282919Y-12807246D02*
X15292443Y-12759627D01*
X15292443Y-12759627D02*
X15301966Y-12731055D01*
X15301966Y-12731055D02*
X15311490Y-12712008D01*
X15311490Y-12712008D02*
X15330538Y-12683436D01*
X15330538Y-12683436D02*
X15340062Y-12673912D01*
X15501966Y-12769150D02*
X15501966Y-12902484D01*
X15454347Y-12692960D02*
X15406728Y-12835817D01*
X15406728Y-12835817D02*
X15530538Y-12835817D01*
X15759109Y-12902484D02*
X15759109Y-12702484D01*
X15844824Y-12902484D02*
X15844824Y-12797722D01*
X15844824Y-12797722D02*
X15835300Y-12778674D01*
X15835300Y-12778674D02*
X15816252Y-12769150D01*
X15816252Y-12769150D02*
X15787681Y-12769150D01*
X15787681Y-12769150D02*
X15768633Y-12778674D01*
X15768633Y-12778674D02*
X15759109Y-12788198D01*
X15968633Y-12902484D02*
X15949586Y-12892960D01*
X15949586Y-12892960D02*
X15940062Y-12883436D01*
X15940062Y-12883436D02*
X15930538Y-12864388D01*
X15930538Y-12864388D02*
X15930538Y-12807246D01*
X15930538Y-12807246D02*
X15940062Y-12788198D01*
X15940062Y-12788198D02*
X15949586Y-12778674D01*
X15949586Y-12778674D02*
X15968633Y-12769150D01*
X15968633Y-12769150D02*
X15997205Y-12769150D01*
X15997205Y-12769150D02*
X16016252Y-12778674D01*
X16016252Y-12778674D02*
X16025776Y-12788198D01*
X16025776Y-12788198D02*
X16035300Y-12807246D01*
X16035300Y-12807246D02*
X16035300Y-12864388D01*
X16035300Y-12864388D02*
X16025776Y-12883436D01*
X16025776Y-12883436D02*
X16016252Y-12892960D01*
X16016252Y-12892960D02*
X15997205Y-12902484D01*
X15997205Y-12902484D02*
X15968633Y-12902484D01*
X16149586Y-12902484D02*
X16130538Y-12892960D01*
X16130538Y-12892960D02*
X16121014Y-12873912D01*
X16121014Y-12873912D02*
X16121014Y-12702484D01*
X16301967Y-12892960D02*
X16282919Y-12902484D01*
X16282919Y-12902484D02*
X16244824Y-12902484D01*
X16244824Y-12902484D02*
X16225776Y-12892960D01*
X16225776Y-12892960D02*
X16216252Y-12873912D01*
X16216252Y-12873912D02*
X16216252Y-12797722D01*
X16216252Y-12797722D02*
X16225776Y-12778674D01*
X16225776Y-12778674D02*
X16244824Y-12769150D01*
X16244824Y-12769150D02*
X16282919Y-12769150D01*
X16282919Y-12769150D02*
X16301967Y-12778674D01*
X16301967Y-12778674D02*
X16311490Y-12797722D01*
X16311490Y-12797722D02*
X16311490Y-12816769D01*
X16311490Y-12816769D02*
X16216252Y-12835817D01*
X16387681Y-12892960D02*
X16406728Y-12902484D01*
X16406728Y-12902484D02*
X16444824Y-12902484D01*
X16444824Y-12902484D02*
X16463871Y-12892960D01*
X16463871Y-12892960D02*
X16473395Y-12873912D01*
X16473395Y-12873912D02*
X16473395Y-12864388D01*
X16473395Y-12864388D02*
X16463871Y-12845341D01*
X16463871Y-12845341D02*
X16444824Y-12835817D01*
X16444824Y-12835817D02*
X16416252Y-12835817D01*
X16416252Y-12835817D02*
X16397205Y-12826293D01*
X16397205Y-12826293D02*
X16387681Y-12807246D01*
X16387681Y-12807246D02*
X16387681Y-12797722D01*
X16387681Y-12797722D02*
X16397205Y-12778674D01*
X16397205Y-12778674D02*
X16416252Y-12769150D01*
X16416252Y-12769150D02*
X16444824Y-12769150D01*
X16444824Y-12769150D02*
X16463871Y-12778674D01*
X16540062Y-12978674D02*
X16549586Y-12969150D01*
X16549586Y-12969150D02*
X16568633Y-12940579D01*
X16568633Y-12940579D02*
X16578157Y-12921531D01*
X16578157Y-12921531D02*
X16587681Y-12892960D01*
X16587681Y-12892960D02*
X16597205Y-12845341D01*
X16597205Y-12845341D02*
X16597205Y-12807246D01*
X16597205Y-12807246D02*
X16587681Y-12759627D01*
X16587681Y-12759627D02*
X16578157Y-12731055D01*
X16578157Y-12731055D02*
X16568633Y-12712008D01*
X16568633Y-12712008D02*
X16549586Y-12683436D01*
X16549586Y-12683436D02*
X16540062Y-12673912D01*
M02*
